<?xml version="1.0" encoding="utf-8"?>
<!-- Generator: Adobe Illustrator 27.9.0, SVG Export Plug-In . SVG Version: 6.00 Build 0)  -->
<svg version="1.1" id="Capa_1" xmlns="http://www.w3.org/2000/svg" xmlns:xlink="http://www.w3.org/1999/xlink" x="0px" y="0px"
	 viewBox="0 0 575 678" style="enable-background:new 0 0 575 678;" xml:space="preserve">
<style type="text/css">
	.st0{fill-rule:evenodd;clip-rule:evenodd;fill:#27231F;}
	.st1{fill-rule:evenodd;clip-rule:evenodd;fill:#6EBB3E;}
	.st2{fill-rule:evenodd;clip-rule:evenodd;fill:#28251F;}
	.st3{fill-rule:evenodd;clip-rule:evenodd;fill:#58624A;}
	.st4{fill-rule:evenodd;clip-rule:evenodd;fill:#555E44;}
	.st5{fill-rule:evenodd;clip-rule:evenodd;fill:#5D8B2F;}
	.st6{fill-rule:evenodd;clip-rule:evenodd;fill:#25211D;}
	.st7{fill-rule:evenodd;clip-rule:evenodd;fill:#34352A;}
	.st8{fill-rule:evenodd;clip-rule:evenodd;fill:#BDD8A1;}
	.st9{fill-rule:evenodd;clip-rule:evenodd;fill:#26231E;}
	.st10{fill-rule:evenodd;clip-rule:evenodd;fill:#27241E;}
	.st11{fill-rule:evenodd;clip-rule:evenodd;fill:#302F26;}
	.st12{fill-rule:evenodd;clip-rule:evenodd;fill:#25221D;}
	.st13{fill-rule:evenodd;clip-rule:evenodd;fill:#3A3F30;}
	.st14{fill-rule:evenodd;clip-rule:evenodd;fill:#282620;}
	.st15{fill-rule:evenodd;clip-rule:evenodd;fill:#BFDBA3;}
	.st16{fill-rule:evenodd;clip-rule:evenodd;fill:#34392C;}
	.st17{fill-rule:evenodd;clip-rule:evenodd;fill:#3A3F2B;}
	.st18{fill-rule:evenodd;clip-rule:evenodd;fill:#869A6E;}
	.st19{fill-rule:evenodd;clip-rule:evenodd;fill:#26221D;}
	.st20{fill-rule:evenodd;clip-rule:evenodd;fill:#221F1A;}
	.st21{fill-rule:evenodd;clip-rule:evenodd;fill:#5B852F;}
	.st22{fill-rule:evenodd;clip-rule:evenodd;fill:#F3F2F2;}
	.st23{fill-rule:evenodd;clip-rule:evenodd;fill:#4B4944;}
	.st24{fill-rule:evenodd;clip-rule:evenodd;fill:#211F19;}
	.st25{fill-rule:evenodd;clip-rule:evenodd;fill:#282520;}
	.st26{fill-rule:evenodd;clip-rule:evenodd;fill:#23201B;}
	.st27{fill-rule:evenodd;clip-rule:evenodd;fill:#608F31;}
	.st28{fill-rule:evenodd;clip-rule:evenodd;fill:#74766C;}
	.st29{fill-rule:evenodd;clip-rule:evenodd;fill:#333229;}
	.st30{fill-rule:evenodd;clip-rule:evenodd;fill:#53534B;}
	.st31{fill-rule:evenodd;clip-rule:evenodd;fill:#EBEBEA;}
	.st32{fill-rule:evenodd;clip-rule:evenodd;fill:#4F5443;}
	.st33{fill-rule:evenodd;clip-rule:evenodd;fill:#F5F5F5;}
	.st34{fill-rule:evenodd;clip-rule:evenodd;fill:#4E7032;}
	.st35{fill-rule:evenodd;clip-rule:evenodd;fill:#5E4631;}
	.st36{fill-rule:evenodd;clip-rule:evenodd;fill:#5F4731;}
	.st37{fill-rule:evenodd;clip-rule:evenodd;fill:#859172;}
	.st38{fill-rule:evenodd;clip-rule:evenodd;fill:#BED9A2;}
	.st39{fill-rule:evenodd;clip-rule:evenodd;fill:#787472;}
	.st40{fill-rule:evenodd;clip-rule:evenodd;fill:#684D36;}
	.st41{fill-rule:evenodd;clip-rule:evenodd;fill:#2A2621;}
	.st42{fill-rule:evenodd;clip-rule:evenodd;fill:#231F1A;}
	.st43{fill-rule:evenodd;clip-rule:evenodd;fill:#4E6437;}
	.st44{fill-rule:evenodd;clip-rule:evenodd;fill:#5D8A2F;}
	.st45{fill-rule:evenodd;clip-rule:evenodd;fill:#5C8730;}
	.st46{fill-rule:evenodd;clip-rule:evenodd;fill:#2C2924;}
	.st47{fill-rule:evenodd;clip-rule:evenodd;fill:#24201C;}
	.st48{fill-rule:evenodd;clip-rule:evenodd;fill:#6EB93D;}
	.st49{fill-rule:evenodd;clip-rule:evenodd;fill:#24211C;}
	.st50{fill-rule:evenodd;clip-rule:evenodd;fill:#25201C;}
	.st51{fill-rule:evenodd;clip-rule:evenodd;fill:#734D3B;}
	.st52{fill-rule:evenodd;clip-rule:evenodd;fill:#634131;}
	.st53{fill-rule:evenodd;clip-rule:evenodd;fill:#553427;}
	.st54{fill-rule:evenodd;clip-rule:evenodd;fill:#89604D;}
	.st55{fill-rule:evenodd;clip-rule:evenodd;fill:#734E3C;}
	.st56{fill-rule:evenodd;clip-rule:evenodd;fill:#8D634F;}
	.st57{fill-rule:evenodd;clip-rule:evenodd;fill:#543427;}
	.st58{fill-rule:evenodd;clip-rule:evenodd;fill:#613F2F;}
	.st59{fill-rule:evenodd;clip-rule:evenodd;fill:#7E5744;}
	.st60{fill-rule:evenodd;clip-rule:evenodd;fill:#845C48;}
	.st61{fill-rule:evenodd;clip-rule:evenodd;fill:#6D4938;}
	.st62{fill-rule:evenodd;clip-rule:evenodd;fill:#694635;}
	.st63{fill-rule:evenodd;clip-rule:evenodd;fill:#875F4B;}
	.st64{fill-rule:evenodd;clip-rule:evenodd;fill:#6C4937;}
	.st65{fill-rule:evenodd;clip-rule:evenodd;fill:#845D4A;}
	.st66{fill-rule:evenodd;clip-rule:evenodd;fill:#B88059;}
	.st67{fill-rule:evenodd;clip-rule:evenodd;fill:#BC835A;}
	.st68{fill-rule:evenodd;clip-rule:evenodd;fill:#F6C103;}
	.st69{fill-rule:evenodd;clip-rule:evenodd;fill:#604731;}
	.st70{fill-rule:evenodd;clip-rule:evenodd;fill:#F2BF04;}
	.st71{fill-rule:evenodd;clip-rule:evenodd;fill:#604732;}
	.st72{fill-rule:evenodd;clip-rule:evenodd;fill:#B98159;}
	.st73{fill-rule:evenodd;clip-rule:evenodd;fill:#F4C007;}
	.st74{fill-rule:evenodd;clip-rule:evenodd;fill:#B88156;}
	.st75{fill-rule:evenodd;clip-rule:evenodd;fill:#4E2F23;}
	.st76{fill-rule:evenodd;clip-rule:evenodd;fill:#8A614D;}
	.st77{fill-rule:evenodd;clip-rule:evenodd;fill:#684634;}
	.st78{fill-rule:evenodd;clip-rule:evenodd;fill:#1D973D;}
	.st79{fill-rule:evenodd;clip-rule:evenodd;fill:#52504C;}
	.st80{fill-rule:evenodd;clip-rule:evenodd;fill:#2E2C26;}
	.st81{fill-rule:evenodd;clip-rule:evenodd;fill:#1D973C;}
	.st82{fill-rule:evenodd;clip-rule:evenodd;fill:#282721;}
	.st83{fill-rule:evenodd;clip-rule:evenodd;fill:#355332;}
	.st84{fill-rule:evenodd;clip-rule:evenodd;fill:#404A3C;}
	.st85{fill-rule:evenodd;clip-rule:evenodd;fill:#EAE9E9;}
</style>
<g>
	<path class="st0" d="M379.5,49.5c-2.1,1.6-4.1,3.4-6,5.5c-0.7,0.7-1.3,0.7-2,0c7.7-15.7,18.4-29,32-40c-19.3,0-37.8,3.8-55.5,11.5
		c-7.7,12.8-14.9,25.8-21.5,39c4-15.3,10.6-29.3,20-42c20.2-8.5,41.2-12.4,63-11.5c-12.7,9.7-22.9,21.6-30.5,35.5
		C378.3,48.4,378.5,49.1,379.5,49.5z"/>
</g>
<g>
	<path class="st1" d="M379.5,49.5c3.3-2.6,6.3-5.6,9-9c1.9-0.2,3.2-1.2,4-3c9.1-7.7,19.1-14.2,30-19.5c20.6,2.3,39.3,9.7,56,22
		c-11.9,2.4-22.2,7.8-31,16c2.8-0.5,5.4-1.4,8-2.5c0.3,0,0.7,0,1,0c13.5-3.9,27.1-4.8,41-2.5c17.8,7.4,30.6,19.9,38.5,37.5
		c1,2.2,1.5,4.6,1.5,7c-33.9-22.5-71.2-34.2-112-35c-3.7,0-7.3,0-11,0c-53-8.6-92.1,10.7-117.5,58c-9.3,18-17,36.7-23,56
		c-2.2-10.8-4.3-21.6-6.5-32.5c1-17.4,4.5-34.2,10.5-50.5c0.2,7.4,1.2,14.8,3,22c1,2.9,2.3,5.5,4,8c1.3-13,2.6-26,4-39
		c0.8-6.1,2.2-12.1,4-18c9.6-10.5,21.1-18.2,34.5-23c0.3,0.5,0.7,1,1,1.5c-4.4,12.5-7.2,25.4-8.5,38.5c2.1-4.6,4-9.3,5.5-14
		c0.8-0.3,1.2-1,1-2c6.6-13.2,13.8-26.2,21.5-39c17.7-7.7,36.2-11.5,55.5-11.5c-13.6,11-24.3,24.3-32,40c0.7,0.7,1.3,0.7,2,0
		C375.4,52.9,377.4,51.1,379.5,49.5z"/>
</g>
<g>
	<path class="st2" d="M455.5,53.5c-2.6,1.1-5.2,2-8,2.5c8.8-8.2,19.1-13.6,31-16c-16.7-12.3-35.4-19.7-56-22
		c-10.9,5.3-20.9,11.8-30,19.5c8.4-8.8,18-16,29-21.5c23.8,2.3,45.4,10.3,65,24c-11.8,1.6-22.5,5.9-32,13
		C454.7,53.4,455.1,53.6,455.5,53.5z"/>
</g>
<g>
	<path class="st3" d="M392.5,37.5c-0.8,1.8-2.1,2.8-4,3C389.3,38.7,390.6,37.7,392.5,37.5z"/>
</g>
<g>
	<path class="st4" d="M417.5,61.5c-5.8,0.9-11.8,1.5-18,2c0-0.3,0-0.7,0-1C405.4,61.5,411.4,61.2,417.5,61.5z"/>
</g>
<g>
	<path class="st5" d="M425.5,60.5c40.8,0.8,78.1,12.5,112,35c1.2,0.3,1.2,0.8,0,1.5c-11,7.1-22.6,8.8-35,5
		C484.2,91,467,78.5,451,64.5c5.4,17.1,15.2,31.3,29.5,42.5c-3.6,5.2-8.6,6.9-15,5c-9.2-2.7-18.2-6.1-27-10
		c-14.2-6.9-28.2-14.1-42-21.5c-2.8-2.2-5.8-4.2-9-6c0.4,2.4,2,4,5,5c8.8,7.2,17.8,14.2,27,21c8.2,7.3,16.5,14.5,25,21.5
		c-1,3.7-3,6.7-6,9c-5.6,3.6-11.6,6.5-18,8.5c-24.8-10.9-49.1-22.5-73-35c-1,0.2-1.7-0.2-2-1c-2.3-2-5-3.2-8-3.5
		c17.5,17.7,36.2,34.1,56,49c-10.1,5.5-20.8,9.2-32,11c3.4-3.7,7-7,11-10c-12-1.4-23.2,1.1-33.5,7.5c-10.3-5.6-20.5-11.2-30.5-17
		c-1.5,0.1-2.5-0.6-3-2c-2-2-4.4-3.7-7-5c13.8-40.1,41.8-62.9,84-68.5c5.6-0.9,11.3-1.4,17-1.5c6.2-0.5,12.2-1.1,18-2
		C420.4,61.8,423.1,61.5,425.5,60.5z"/>
</g>
<g>
	<path class="st6" d="M396.5,80.5c13.8,7.4,27.8,14.6,42,21.5c8.8,3.9,17.8,7.3,27,10c6.4,1.9,11.4,0.2,15-5
		c-14.3-11.2-24.1-25.4-29.5-42.5c16,14,33.2,26.5,51.5,37.5c12.4,3.8,24,2.1,35-5c1.2-0.7,1.2-1.2,0-1.5c0-2.4-0.5-4.8-1.5-7
		c-7.9-17.6-20.7-30.1-38.5-37.5c-13.9-2.3-27.5-1.4-41,2.5c10.8-5.2,22.3-7.9,34.5-8c3.3-0.1,6.5,0.4,9.5,1.5
		c13.7,7.6,25.5,17.4,35.5,29.5c4.1,6.4,7.3,13.2,9.5,20.5c-1,2-2.7,3.4-5,4c-12.4,6.3-25.4,8-39,5c-16.9-9.2-32-20.7-45.5-34.5
		c-0.7,0.7-0.7,1.3,0,2c10.3,11.7,20.5,23.6,30.5,35.5c-4.9,4.6-10.7,7.1-17.5,7.5C442.8,108.3,418.6,96.3,396.5,80.5z"/>
</g>
<g>
	<path class="st7" d="M396.5,80.5c-1.3-0.3-2.7-0.7-4-1c-3-1-4.6-2.6-5-5C390.7,76.3,393.7,78.3,396.5,80.5z"/>
</g>
<g>
	<path class="st8" d="M414.5,60.5c3.7,0,7.3,0,11,0c-2.4,1-5.1,1.3-8,1c-6.1-0.3-12.1,0-18,1c-41.8-1.6-73.3,15.4-94.5,51
		c-11.1,20.6-19.4,42.3-25,65c-1.5-0.7-2.7-1.7-3.5-3c6.7-22.7,15.9-44.4,27.5-65c17.7-29.8,43.8-46.3,78.5-49.5
		C393.2,60.5,403.8,60.3,414.5,60.5z"/>
</g>
<g>
	<path class="st9" d="M189.5,111.5c-7.6-8.1-15.9-15.2-25-21.5c-18.3-3.3-35.6-0.6-52,8c8.2,2.1,15.5,5.8,22,11
		c6,5.7,11.7,11.7,17,18c-0.9,0.7-1.6,0.5-2-0.5c-12.4-12.9-27.1-22.4-44-28.5c11.6-5.1,23.6-8.7,36-11c7.7-0.8,15.4-0.4,23,1
		C174.3,94.3,182.6,102.1,189.5,111.5z"/>
</g>
<g>
	<path class="st1" d="M189.5,111.5c2.7,3.5,5.7,6.9,9,10c0.3,0,0.7,0,1,0c-3.6-11.9-10.3-21.6-20-29c4.5-1.2,9.2-1,14,0.5
		c10,2.5,19.6,5.8,29,10c2.3,2.7,4.5,5.6,6.5,8.5c3.9,8.2,8.1,16.2,12.5,24c-0.1,2.1,0.6,3.7,2,5c0.5,2.4,1.4,4.8,2.5,7
		c0.3-5.2-0.2-10.2-1.5-15c-0.1-6.8-1.5-13.3-4-19.5c4.6,1.9,8.8,4.7,12.5,8.5c11,15.2,17,32.2,18,51
		c-22.3-18.6-47.5-32.1-75.5-40.5c-28.8-7.2-56.8-4.9-84,7c-12.2,5.3-23.5,11.8-34,19.5c-1.5-0.1-2.5,0.6-3,2
		c-5.9,3.3-11.6,6.9-17,11c-14,11.2-26.2,24.2-36.5,39c-0.5-2.3-0.7-4.6-0.5-7c2.7-16.7,9.2-31.7,19.5-45c3.2-2.1,6.7-3.6,10.5-4.5
		c7.1-1.8,14.1-3.3,21-4.5c2,0,4,0,6,0c2,0.2,4,0,6-0.5c-8.9-3.8-18.3-5.9-28-6.5c10-13.5,22.3-24.3,37-32.5c8.2-0.5,16.2,0.5,24,3
		c8.5,2.9,16.8,6,25,9.5c2.3,1.8,5,3.2,8,4c0.4,1,1.1,1.2,2,0.5c-5.3-6.3-11-12.3-17-18c-6.5-5.2-13.8-8.9-22-11
		c16.4-8.6,33.7-11.3,52-8C173.6,96.3,181.9,103.4,189.5,111.5z"/>
</g>
<g>
	<path class="st10" d="M241.5,135.5c-4.4-7.8-8.6-15.8-12.5-24c-2-2.9-4.2-5.8-6.5-8.5c-9.4-4.2-19-7.5-29-10
		c-4.8-1.5-9.5-1.7-14-0.5c-5.8-3.4-5.3-4.7,1.5-4c15.4,1.5,29.9,6,43.5,13.5C232.4,112,238.1,123.2,241.5,135.5z"/>
</g>
<g>
	<path class="st11" d="M179.5,92.5c9.7,7.4,16.4,17.1,20,29c-0.3,0-0.7,0-1,0C193.9,110.7,187.6,101,179.5,92.5z"/>
</g>
<g>
	<path class="st12" d="M419.5,100.5c6.8,4.3,13.4,8.8,20,13.5c3.7,2.7,7,5.7,10,9c-2.2,4.2-5.2,7.9-9,11c-6.2,4.3-12.9,7.8-20,10.5
		c-25.2-12.1-49.5-25.4-73-40c23.9,12.5,48.2,24.1,73,35c6.4-2,12.4-4.9,18-8.5c3-2.3,5-5.3,6-9C436,115,427.7,107.8,419.5,100.5z"
		/>
</g>
<g>
	<path class="st13" d="M199.5,121.5c1.3,1,1.8,2.4,1.5,4C199.8,124.4,199.3,123.1,199.5,121.5z"/>
</g>
<g>
	<path class="st14" d="M141.5,122.5c-8.2-3.5-16.5-6.6-25-9.5c-7.8-2.5-15.8-3.5-24-3c-14.7,8.2-27,19-37,32.5
		c9.7,0.6,19.1,2.7,28,6.5c-2,0.5-4,0.7-6,0.5c-2.1-1.3-4.4-2.1-7-2.5c-6.7-0.9-13.3-1.7-20-2.5c11-15.8,25-28.3,42-37.5
		C110.2,107.9,126.6,113,141.5,122.5z"/>
</g>
<g>
	<path class="st5" d="M136.5,156.5c2.6-4.6,5.6-8.9,9-13c0.8-1.3,1.8-2.5,3-3.5c-23.3,16-42.6,36-58,60c-6.3,1.4-12.6,1.7-19,1
		c-0.5-0.4-0.8-0.9-1-1.5c3.2-8.3,6.2-16.6,9-25c1.7-3.7,3.3-7.3,5-11c1.7-2.7,3.3-5.3,5-8c1.7-1.5,3.7-2.5,6-3
		c15.1-6.7,30.8-11.8,47-15.5c27.1-4.5,52.8-0.1,77,13c14.4,8.2,27.7,17.9,40,29c-15.8-0.9-31.6-1.7-47.5-2.5
		c-10.1,0.1-20.1,1.1-30,3c-0.8-0.3-1.7-0.7-2.5-1c5.8-11.4,11.3-22.7,16.5-34c-13.8,14.2-26.1,29.6-37,46
		c-9.3,6.8-18.1,14.1-26.5,22c-8.4-1-16.1-3.8-23-8.5C118.1,187.9,127.1,172,136.5,156.5z"/>
</g>
<g>
	<path class="st15" d="M388.5,380.5c0.2,2.4,0,4.7-0.5,7c-0.2-11.5-0.7-22.8-1.5-34c1.3-84.1-37.4-140.6-116-169.5
		c-21-20.3-45.3-35.3-73-45c-36-9.9-70-5.4-102,13.5c-2.3,0.5-4.3,1.5-6,3c-2.3,0.5-4.3,1.5-6,3c-3,0.8-5.7,2.2-8,4
		c-2.2,0.1-2.5-0.6-1-2c1.5,0.1,2.5-0.6,3-2c18-10.3,37-18.5,57-24.5c35.2-7.2,68.2-1.5,99,17c14,8.3,27.4,17.7,40,28
		c31.7,13.7,58.9,33.5,81.5,59.5c19,25.4,29.7,54.1,32,86C388.4,343.1,388.9,361.8,388.5,380.5z"/>
</g>
<g>
	<path class="st1" d="M352.5,168.5c-2.1,1.1-3.4,2.8-4,5c-2,1.7-3.9,3.7-5.5,6c-0.7,0.7-0.7,1.3,0,2c3-2.2,5.8-4.6,8.5-7
		c1.9-0.2,3.2-1.2,4-3c10-6,20.4-11.7,31-17c12.2,1.5,24.2,4,36,7.5c3.6,1.1,6.9,2.8,10,5c-12,2.3-22.7,7.1-32,14.5
		c-2.1,0.9-4.1,2.1-6,3.5c1.9,0.2,3.6-0.3,5-1.5c4.7-0.6,9-1.9,13-4c11.7-3.8,23.7-5.7,36-5.5c7.9,3,15.3,7,22,12
		c7,6.7,13.7,13.7,20,21c-8.9-1.1-17.9-1.5-27-1c-9,1.6-17.7,4.1-26,7.5c-14-8.7-29-15.2-45-19.5c-25.9-5.3-51.9-10-78-14
		c10.2-11.6,22.5-19.9,37-25c4.6-1.4,9.3-1.7,14-1C360.6,158.4,356.2,163.3,352.5,168.5z"/>
</g>
<g>
	<path class="st16" d="M77.5,158.5c-0.5,1.4-1.5,2.1-3,2C75,159.1,76,158.4,77.5,158.5z"/>
</g>
<g>
	<path class="st9" d="M71.5,149.5c-6.9,1.2-13.9,2.7-21,4.5c-3.8,0.9-7.3,2.4-10.5,4.5c-10.3,13.3-16.8,28.3-19.5,45
		c-1,2.8-1.3,5.8-1,9c12.7-1.1,25-3.8,37-8c6.7-14.8,15.4-28.1,26-40c-9.4,13.8-18.1,28.1-26,43c-13.4,4.2-27,6.9-41,8
		c1.9-22.9,10.2-43,25-60.5C50.5,151.4,60.9,149.5,71.5,149.5z"/>
</g>
<g>
	<path class="st5" d="M83.5,158.5c0.9-0.1,1.5,0.2,2,1c-1.5,1.4-2.5,3.1-3,5c-10.6,11.9-19.3,25.2-26,40c-12,4.2-24.3,6.9-37,8
		c-0.3-3.2,0-6.2,1-9c-0.2,2.4,0,4.7,0.5,7c10.3-14.8,22.5-27.8,36.5-39c6-3,12-6,18-9C77.8,160.7,80.5,159.3,83.5,158.5z"/>
</g>
<g>
	<path class="st17" d="M89.5,155.5c-1.7,2.7-3.3,5.3-5,8c-0.7,0.3-1.3,0.7-2,1c0.5-1.9,1.5-3.6,3-5c-0.5-0.8-1.1-1.1-2-1
		C85.2,157,87.2,156,89.5,155.5z"/>
</g>
<g>
	<path class="st18" d="M74.5,160.5c-1.5,1.4-1.2,2.1,1,2c-6,3-12,6-18,9C62.9,167.4,68.6,163.8,74.5,160.5z"/>
</g>
<g>
	<path class="st19" d="M145.5,143.5c-8.9,7.4-17.4,15.4-25.5,24c-9.6,10.3-18.4,21.1-26.5,32.5c-8.4,3.1-17,4.2-26,3.5
		c2.1-10.5,6.1-20.2,12-29c-2.8,8.4-5.8,16.7-9,25c0.2,0.6,0.5,1.1,1,1.5c6.4,0.7,12.7,0.4,19-1c15.4-24,34.7-44,58-60
		C147.3,141,146.3,142.2,145.5,143.5z"/>
</g>
<g>
	<path class="st20" d="M386.5,353.5c-1.5-14.7-3.7-30.7-6.5-48c-8.8-44.7-32.9-78.2-72.5-100.5c-10.8-5.9-21.8-10.9-33-15
		c6.7,13,8.2,26.5,4.5,40.5c-2.4,4.8-4.8,9.5-7,14c1,1,2,2,3,3c9.7-13.7,21.3-25.3,35-35c0.3,1.4,0,2.7-1,4c-1.3,2.2-2.8,4.2-4.5,6
		c-0.1-1,0.2-1.8,1-2.5c-0.7-0.7-1.3-0.7-2,0c-6.9,7.4-13.5,14.9-20,22.5c-1.3,0.7-2.3,1.7-3,3c-2,2.2-3.8,4.5-5.5,7
		c-2.6-1.6-5-3.6-7-6c-2.7,2.4-5.7,4.4-9,6c-1.7-2.2-3.2-4.6-4.5-7c-0.7-1-1.3-2-2-3c-5.8-9.8-12.3-19.2-19.5-28
		c-0.4,0.6-0.9,0.9-1.5,1c-0.9-2-1.4-4-1.5-6c12.3,10.8,22.2,23.5,29.5,38c21.5-16.6,24.8-36.2,10-59c-28.5,6.7-54.5,18.6-78,35.5
		c-24.1,20.7-40.3,46.5-48.5,77.5c-3.8,13.7-7.3,27.4-10.5,41c3.6-38.7,17.1-73.4,40.5-104c18-19.6,39.5-34.1,64.5-43.5
		c9.6-3.5,19.3-6.9,29-10c-1.2-1.6-2.7-2.7-4.5-3.5c-26.4,8.4-50.6,20.9-72.5,37.5c-21.8,18.1-37.3,40.6-46.5,67.5
		c-7.2,21.1-11.5,42.8-13,65c0.2-1.2,0.7-2.2,1.5-3c-0.3,3-0.8,6-1.5,9c-0.3-1.3-0.7-2.7-1-4c-0.2,2.2-0.7,4.2-1.5,6
		c1.4-87,42.4-146.2,123-177.5c-19.7-3-39.3-3.1-59-0.5c-4.2,2.6-8.3,2.6-12.5,0c-1.4,1.8-2.6,3.8-3.5,6c11.5,1.8,22.8,3.8,34,6
		c-15.6-1.7-31.3-2.2-47-1.5c-12.2,7.7-21.9,17.9-29,30.5c0.2,0.3,0.3,0.7,0.5,1c4.7-1.3,9.5-1.9,14.5-2c8.2-0.3,16.2,0,24,1
		c-4.4,0.5-8.7,1.2-13,2c-2.5-0.7-5.1-1-8-1c-9.4,0.6-18.7,1.5-28,2.5c2.9-3.4,5.5-6.9,8-10.5c-7.7-1.4-15-3.9-22-7.5
		c-1.2-1-2.2-2.2-3-3.5c8.1-17.4,18.1-33.4,30-48c-9.4,15.5-18.4,31.4-27,47.5c6.9,4.7,14.6,7.5,23,8.5c8.4-7.9,17.2-15.2,26.5-22
		c10.9-16.4,23.2-31.8,37-46c-5.2,11.3-10.7,22.6-16.5,34c0.8,0.3,1.7,0.7,2.5,1c9.9-1.9,19.9-2.9,30-3c15.9,0.8,31.7,1.6,47.5,2.5
		c-12.3-11.1-25.6-20.8-40-29c-24.2-13.1-49.9-17.5-77-13c-16.2,3.7-31.9,8.8-47,15.5c32-18.9,66-23.4,102-13.5
		c27.7,9.7,52,24.7,73,45C349.1,212.9,387.8,269.4,386.5,353.5z"/>
</g>
<g>
	<path class="st21" d="M191.5,181.5c0.3,0.7,0.7,1.3,1,2c-1.4-0.2-2.7,0-4,0.5c9.4,2.1,18,5.6,26,10.5c-1.8,0.1-3.5-0.2-5-1
		c-11.2-2.2-22.5-4.2-34-6c0.9-2.2,2.1-4.2,3.5-6C183.2,184.1,187.3,184.1,191.5,181.5z"/>
</g>
<g>
	<path class="st22" d="M187.5,156.5c0.5,0.1,0.9,0.4,1,1c-7,9-12.2,19-15.5,30c-3.1,1.1-6.2,1.3-9.5,0.5
		C170.2,176.5,178.2,166,187.5,156.5z"/>
</g>
<g>
	<path class="st23" d="M400.5,181.5c-0.3,0.7-0.7,1.3-1,2c-1.4,1.2-3.1,1.7-5,1.5C396.4,183.6,398.4,182.4,400.5,181.5z"/>
</g>
<g>
	<path class="st24" d="M192.5,183.5c10.4,0.1,19.4,3.6,27,10.5c-1.6,0.5-3.3,0.7-5,0.5c-8-4.9-16.6-8.4-26-10.5
		C189.8,183.5,191.1,183.3,192.5,183.5z"/>
</g>
<g>
	<path class="st5" d="M231.5,215.5c0.8,1.9,1.8,3.5,3,5c6.1,15.5,11.1,31.3,15,47.5c-5.5,13.5-12.7,26-21.5,37.5
		c-10.5-20.3-22.3-39.6-35.5-58c-0.6-1.8-1.4-3.4-2.5-5c-0.7-1.2-1.2-1.2-1.5,0c1.7,3.7,3,7.3,4,11c0.9,0.7,1.2,1.7,1,3
		c5.5,19.3,11,38.6,16.5,58c1.8,5.6,2.8,11.2,3,17c-4,9.5-10.7,16.1-20,20c-6.4-10.2-12.6-20.6-18.5-31c-4.7-8.6-9.3-17.3-14-26
		c-0.6-2.6-1.8-4.9-3.5-7c4.2,14.7,8.9,29.4,14,44c4.8,15,7.1,30.3,7,46c-1.5,3.7-4,5.4-7.5,5c-7.1-13.2-17.1-23.6-30-31
		c-0.3-1-1-1.7-2-2c-1.3-0.8-2.5-1.8-3.5-3c-0.2,0.3-0.3,0.7-0.5,1c11,17.7,20.2,36.4,27.5,56c2.3,13.3-1.2,24.8-10.5,34.5
		c-1.2,0.7-2.2,0.6-3-0.5c-19.6-22.5-26.6-48.5-21-78c0.8-1.8,1.3-3.8,1.5-6c0.3,1.3,0.7,2.7,1,4c0.7-3,1.2-6,1.5-9
		c-0.3-2.2,0-4.2,1-6c3.2-13.6,6.7-27.3,10.5-41c8.2-31,24.4-56.8,48.5-77.5c23.5-16.9,49.5-28.8,78-35.5c14.8,22.8,11.5,42.4-10,59
		c-7.3-14.5-17.2-27.2-29.5-38C230.1,211.5,230.6,213.5,231.5,215.5z"/>
</g>
<g>
	<path class="st5" d="M386.5,353.5c0.8,11.2,1.3,22.5,1.5,34c0.5-2.3,0.7-4.6,0.5-7c0.3,0,0.7,0,1,0c-0.3,4.1,0.1,8.1,1,12
		c-0.3,1.2-0.8,1.2-1.5,0c-0.7,25.1-11.9,43.8-33.5,56c-1.1,1.6-2.5,1.9-4,1c-7-10.8-8.8-22.5-5.5-35c10.7-19.1,23.2-37,37.5-53.5
		c-1.6-0.3-3,0.2-4,1.5c-1.7,0.2-3,0.8-4,2c-13.8,6-25.1,15.1-34,27.5c-3.6,0.1-5.7-1.7-6.5-5.5c0.3-9,2.3-17.7,6-26
		c9.3-21.5,19.3-42.5,30-63c-2.6,2.2-4.4,4.9-5.5,8c-6.4,9.2-13.1,18.2-20,27c-7,8.6-14,17.3-21,26c-9.4-5-15.1-12.8-17-23.5
		c10-24.5,20.7-48.6,32-72.5c1.6-2.1,2.9-4.5,4-7c1.4-2.2,2.3-4.5,2.5-7c-17.5,19.1-33.8,39.1-49,60c-6.8-12.4-11.6-25.6-14.5-39.5
		c1.5-6.1,3.6-11.9,6.5-17.5c5.2-9.7,10.4-19.4,15.5-29c1.7-1.8,3.2-3.8,4.5-6c1-1.3,1.3-2.6,1-4c-13.7,9.7-25.3,21.3-35,35
		c-1-1-2-2-3-3c2.2-4.5,4.6-9.2,7-14c3.7-14,2.2-27.5-4.5-40.5c11.2,4.1,22.2,9.1,33,15c39.6,22.3,63.7,55.8,72.5,100.5
		C382.8,322.8,385,338.8,386.5,353.5z"/>
</g>
<g>
	<path class="st1" d="M127.5,359.5c-5.6,29.5,1.4,55.5,21,78c-9.3-3.7-16.8-9.7-22.5-18c-5.4-8.8-9.7-18.2-13-28
		c0.3-14,3.5-27.3,9.5-40c0-0.3,0-0.7,0-1c1.7-2.1,2.9-4.5,3.5-7c-8.9,7-15.7,15.7-20.5,26c-9.3-18.6-13.1-38.2-11.5-59
		c6.7-8.8,14.2-16.8,22.5-24c2.2-0.6,3.9-1.9,5-4c4-3,8-6,12-9c1.6-1.5,3.3-3,5-4.5c-16.2,3.4-30.5,10.6-43,21.5
		c0-7.2,1.5-14.2,4.5-21c3.1-8.2,6.8-16.2,11-24c1.3-2.7,3.1-4.9,5.5-6.5c14.1-5.9,28.4-10.8,43-14.5c4.3-0.8,8.6-1.5,13-2
		c1-0.5,2-1,3-1.5c-9.2-0.8-18.2-0.7-27,0.5c-5,0.1-9.8,0.7-14.5,2c-0.2-0.3-0.3-0.7-0.5-1c7.1-12.6,16.8-22.8,29-30.5
		c15.7-0.7,31.4-0.2,47,1.5c1.5,0.8,3.2,1.1,5,1c1.7,0.2,3.4,0,5-0.5c-7.6-6.9-16.6-10.4-27-10.5c-0.3-0.7-0.7-1.3-1-2
		c19.7-2.6,39.3-2.5,59,0.5C169.9,213.3,128.9,272.5,127.5,359.5z"/>
</g>
<g>
	<path class="st25" d="M441.5,213.5c-1.3,0-2.7,0-4,0c8.3-3.4,17-5.9,26-7.5c9.1-0.5,18.1-0.1,27,1c-6.3-7.3-13-14.3-20-21
		c-6.7-5-14.1-9-22-12c-12.3-0.2-24.3,1.7-36,5.5c11.3-5.2,23.3-7.7,36-7.5c15,5.3,27.5,14.1,37.5,26.5c3,3.7,6,7.3,9,11
		c0.4,1.1-0.1,1.8-1.5,2c-12.3-1.9-24.6-2.4-37-1.5C451.2,210.6,446.2,211.8,441.5,213.5z"/>
</g>
<g>
	<path class="st1" d="M437.5,213.5c1.3,0,2.7,0,4,0c0.3,0,0.7,0,1,0c15.8,1.2,31.5,4,47,8.5c4,1.4,7.9,3.3,11.5,5.5
		c8.4,14.3,13.9,29.7,16.5,46c-0.3,1.3-0.7,2.7-1,4c-8.1-5.7-17.1-9-27-10c-1.2,0.3-1.2,0.8,0,1.5c1.2,0.8,2.6,1.3,4,1.5
		c0.5,1.4,1.5,2.1,3,2c8.9,6.4,17,13.7,24.5,22c0.7,1.3,1.3,2.7,2,4c2.5,19.7-0.7,38.4-9.5,56c-0.6-0.1-1.1-0.4-1.5-1
		c-2.7-8.9-5.9-17.6-9.5-26c-6.6-25.8-16.1-50.4-28.5-74C464.8,237.4,452.6,224.1,437.5,213.5z"/>
</g>
<g>
	<path class="st26" d="M325.5,67.5c-1.5,4.7-3.4,9.4-5.5,14c1.3-13.1,4.1-26,8.5-38.5c-0.3-0.5-0.7-1-1-1.5
		c-13.4,4.8-24.9,12.5-34.5,23c-1.8,5.9-3.2,11.9-4,18c-1.4,13-2.7,26-4,39c-1.7-2.5-3-5.1-4-8c-1.8-7.2-2.8-14.6-3-22
		c-6,16.3-9.5,33.1-10.5,50.5c2.2,10.9,4.3,21.7,6.5,32.5c6-19.3,13.7-38,23-56c25.4-47.3,64.5-66.6,117.5-58
		c-10.7-0.2-21.3,0-32,0.5c-34.7,3.2-60.8,19.7-78.5,49.5c-11.6,20.6-20.8,42.3-27.5,65c0.8,1.3,2,2.3,3.5,3
		c5.6-22.7,13.9-44.4,25-65c21.2-35.6,52.7-52.6,94.5-51c0,0.3,0,0.7,0,1c-5.7,0.1-11.4,0.6-17,1.5c-42.2,5.6-70.2,28.4-84,68.5
		c2.6,1.3,5,3,7,5c-0.7-0.1-1.4,0-2,0.5c8.5,8.5,17,17,25.5,25.5c2.4-1.5,4.6-3.3,6.5-5.5c-9.5-5.6-18.5-11.8-27-18.5
		c10,5.8,20.2,11.4,30.5,17c10.3-6.4,21.5-8.9,33.5-7.5c-4,3-7.6,6.3-11,10c11.2-1.8,21.9-5.5,32-11c-19.8-14.9-38.5-31.3-56-49
		c3,0.3,5.7,1.5,8,3.5c-2.3,0.3-2.3,1.1,0,2.5c18.2,14.7,36.2,29.5,54,44.5c-1.2,1.1-2.5,1.9-4,2.5c15.5,1.8,30.2,6.5,44,14
		c-13.9,2.6-26.9,7.4-39,14.5c9.3-7.4,20-12.2,32-14.5c-3.1-2.2-6.4-3.9-10-5c-11.8-3.5-23.8-6-36-7.5c-10.6,5.3-21,11-31,17
		c2.9-3,6.2-5.5,10-7.5c-4.9-0.2-9.3,1.3-13,4.5c3.7-5.2,8.1-10.1,13-14.5c-4.7-0.7-9.4-0.4-14,1c-14.5,5.1-26.8,13.4-37,25
		c26.1,4,52.1,8.7,78,14c16,4.3,31,10.8,45,19.5c15.1,10.6,27.3,23.9,36.5,40c12.4,23.6,21.9,48.2,28.5,74
		c-6.2-14.7-12.7-29.4-19.5-44c1.5,16,1.9,32,1,48c8.4,9.4,17.8,17.8,28,25c0.7-0.5,1.2-1.2,1.5-2c8.8-17.6,12-36.3,9.5-56
		c-0.7-1.3-1.3-2.7-2-4c-7.5-8.3-15.6-15.6-24.5-22c10.8,5.9,20.3,13.5,28.5,23c2.2,19.5,0.2,38.5-6,57c-1.2,3-2.8,5.7-5,8
		c-11.9-7.3-22.6-16.3-32-27c-0.3-16-0.7-32-1-48c-0.2-2.9-0.7-5.5-1.5-8c-10.1-20.6-24.1-38.1-42-52.5c-0.8-0.7-1.5-0.5-2,0.5
		c0.7,1.2,1.1,2.6,1,4c-0.3,0-0.7,0-1,0c-0.6-2.3-1.1-4.6-1.5-7c-16.7-11.1-34.8-18.3-54.5-21.5c14.7,10.7,25.7,24.4,33,41
		c-11.1-2.9-22.5-4.9-34-6c15.3,4,29.6,10.2,43,18.5c6.8,15.3,11.2,31.3,13,48c1.5-10.4,2.1-20.9,2-31.5c-0.3-12.2-0.6-24.3-1-36.5
		c4.2,23.4,4.9,47.1,2,71c-1,0-2,0-3,0c0.2,3.7,0,7.3-0.5,11c-3.8-3.8-7.7-7.7-11.5-11.5c-4.1-1-8.1-2-12-3
		c7.7,8,14.2,16.8,19.5,26.5c-0.9,24.1-8.3,46.1-22,66c-2.2-11.5-6.9-21.8-14-31c-0.4,0.2-0.6,0.6-0.5,1c-0.9-1.5-1.7-3.2-2.5-5
		c-0.3,0.3-0.7,0.7-1,1c-0.5,6.7-0.7,13.3-0.5,20c-0.3,0-0.7,0-1,0c0.4-18.7-0.1-37.4-1.5-56c-2.3-31.9-13-60.6-32-86
		c-22.6-26-49.8-45.8-81.5-59.5c-12.6-10.3-26-19.7-40-28c-30.8-18.5-63.8-24.2-99-17c-20,6-39,14.2-57,24.5
		c10.5-7.7,21.8-14.2,34-19.5c27.2-11.9,55.2-14.2,84-7c28,8.4,53.2,21.9,75.5,40.5c-1-18.8-7-35.8-18-51c-3.7-3.8-7.9-6.6-12.5-8.5
		c2.5,6.2,3.9,12.7,4,19.5c-1.7-8.4-4-16.7-7-25c6.2,1.9,11.7,5.6,16.5,11c4.7,6.1,8.4,12.7,11,20c2-21.8,7-42.8,15-63
		c-0.4,12.9,1.3,25.6,5,38c-0.2-16.2,1.5-32.2,5-48c6.2-9.2,14-16.7,23.5-22.5c6.5-3.6,13-7.1,19.5-10.5c-3,10.9-5.8,21.9-8.5,33
		C324.5,66.4,324.9,67.1,325.5,67.5z"/>
</g>
<g>
	<path class="st8" d="M353.5,193.5c30.5-0.9,58.5,7.3,84,24.5c5.5,4.7,10.8,9.5,16,14.5c-0.2,0.3-0.3,0.7-0.5,1
		C424.7,208.6,391.5,195.2,353.5,193.5z"/>
</g>
<g>
	<path class="st5" d="M435.5,229.5c0,1.7,0,3.3,0,5c0.4,12.2,0.7,24.3,1,36.5c0.1,10.6-0.5,21.1-2,31.5c-1.8-16.7-6.2-32.7-13-48
		c-13.4-8.3-27.7-14.5-43-18.5c11.5,1.1,22.9,3.1,34,6c-7.3-16.6-18.3-30.3-33-41c19.7,3.2,37.8,10.4,54.5,21.5
		C434.4,224.9,434.9,227.2,435.5,229.5z"/>
</g>
<g>
	<path class="st1" d="M394.5,287.5c3.7,3,7,6.3,10,10c9.1,9.6,17,20.3,23.5,32c-1.3,20.9-8,39.9-20,57c-3.4-11.1-9-20.7-17-29
		c2.5-79.7-31.3-137.9-101.5-174.5c22.5-1,44.5,1.7,66,8c-12-1.2-23,1.4-33,8c14.3,0.4,28.7,1,43,2c5.1,0.7,10.1,1.7,15,3
		c10.9,9.5,18.4,21,22.5,34.5c-12.5-4.1-25.3-6.3-38.5-6.5c18.9,6.3,36.9,14.4,54,24.5c8.3,17,12.4,35,12.5,54
		c-11.4-13.1-25.3-22.6-41.5-28.5C391.4,283.7,393,285.5,394.5,287.5z"/>
</g>
<g>
	<path class="st27" d="M334.5,196.5c9.7-0.2,19.4,0.3,29,1.5c-10.7,0.7-21.3,0.7-32,0C332.7,197.8,333.7,197.3,334.5,196.5z"/>
</g>
<g>
	<path class="st28" d="M348.5,173.5c-0.1,0.7,0,1.4,0.5,2c0.7-0.8,1.5-1.1,2.5-1c-2.7,2.4-5.5,4.8-8.5,7c-0.7-0.7-0.7-1.3,0-2
		C344.6,177.2,346.5,175.2,348.5,173.5z"/>
</g>
<g>
	<path class="st29" d="M355.5,171.5c-0.8,1.8-2.1,2.8-4,3C352.3,172.7,353.6,171.7,355.5,171.5z"/>
</g>
<g>
	<path class="st30" d="M352.5,168.5c-0.6,2.2-1.9,3.9-4,5C349.1,171.3,350.4,169.6,352.5,168.5z"/>
</g>
<g>
	<path class="st31" d="M355.5,171.5c-1.9,0.2-3.2,1.2-4,3c-1-0.1-1.8,0.2-2.5,1c-0.5-0.6-0.6-1.3-0.5-2c2.1-1.1,3.4-2.8,4-5
		c3.7-3.2,8.1-4.7,13-4.5C361.7,166,358.4,168.5,355.5,171.5z"/>
</g>
<g>
	<path class="st32" d="M244.5,132.5c1.3,4.8,1.8,9.8,1.5,15c-1.1-2.2-2-4.6-2.5-7C244.5,138.1,244.8,135.4,244.5,132.5z"/>
</g>
<g>
	<path class="st33" d="M305.5,138.5c0.5,1.4,1.5,2.1,3,2c8.5,6.7,17.5,12.9,27,18.5c-1.9,2.2-4.1,4-6.5,5.5
		c-8.5-8.5-17-17-25.5-25.5C304.1,138.5,304.8,138.4,305.5,138.5z"/>
</g>
<g>
	<path class="st5" d="M298.5,133.5c7,12.8,16.3,23.6,28,32.5c-4.7,4.7-9.3,9.3-14,14c-8.7,0.7-17.3,0.7-26,0c-1.7-0.3-2.7-1.3-3-3
		c2.8-10.9,5.9-21.8,9.5-32.5C294.4,140.5,296.2,136.8,298.5,133.5z"/>
</g>
<g>
	<path class="st34" d="M148.5,221.5c8.8-1.2,17.8-1.3,27-0.5c-1,0.5-2,1-3,1.5C164.7,221.5,156.7,221.2,148.5,221.5z"/>
</g>
<g>
	<path class="st35" d="M252.5,242.5c-2.7,3.4-3.7,7.4-3,12c-4.2-11.7-9.2-23-15-34c-1.2-1.5-2.2-3.1-3-5c0.6-0.1,1.1-0.4,1.5-1
		C240.2,223.3,246.7,232.7,252.5,242.5z"/>
</g>
<g>
	<path class="st36" d="M304.5,222.5c-6.2,8.8-12.2,17.8-18,27c-0.4-2.6-1.4-5-3-7c6.5-7.6,13.1-15.1,20-22.5c0.7-0.7,1.3-0.7,2,0
		C304.7,220.7,304.4,221.5,304.5,222.5z"/>
</g>
<g>
	<path class="st5" d="M479.5,277.5c0,2,0,4,0,6c-2.1,11.9-4.1,23.9-6,36c-2.8-0.3-5.5-1.2-8-2.5c-4.2-2.7-8.2-5.5-12-8.5
		c0.5-27.8-5.2-54.1-17-79c0.1-1.4-0.3-2.8-1-4c0.5-1,1.2-1.2,2-0.5C455.4,239.4,469.4,256.9,479.5,277.5z"/>
</g>
<g>
	<path class="st37" d="M455.5,235.5c2.3,1.1,3.4,2.7,3.5,5C457.2,239.2,456,237.5,455.5,235.5z"/>
</g>
<g>
	<path class="st38" d="M132.5,342.5c-1,1.8-1.3,3.8-1,6c-0.8,0.8-1.3,1.8-1.5,3c1.5-22.2,5.8-43.9,13-65
		c9.2-26.9,24.7-49.4,46.5-67.5c21.9-16.6,46.1-29.1,72.5-37.5c1.8,0.8,3.3,1.9,4.5,3.5c-9.7,3.1-19.4,6.5-29,10
		c-25,9.4-46.5,23.9-64.5,43.5C149.6,269.1,136.1,303.8,132.5,342.5z"/>
</g>
<g>
	<path class="st39" d="M192.5,247.5c0.1,1.1,0.4,2.1,1,3c-0.9,0.7-1.2,1.7-1,3c-1-3.7-2.3-7.3-4-11c0.3-1.2,0.8-1.2,1.5,0
		C191.1,244.1,191.9,245.7,192.5,247.5z"/>
</g>
<g>
	<path class="st9" d="M159.5,224.5c-14.6,3.7-28.9,8.6-43,14.5c-2.4,1.6-4.2,3.8-5.5,6.5c-4.2,7.8-7.9,15.8-11,24
		c-3,6.8-4.5,13.8-4.5,21c12.5-10.9,26.8-18.1,43-21.5c-1.7,1.5-3.4,3-5,4.5c-16.3,4.1-30.8,12.1-43.5,24c3.1-21.2,10.4-40.9,22-59
		C126.7,230.4,142.6,225.7,159.5,224.5z"/>
</g>
<g>
	<path class="st40" d="M343.5,255.5c-1.1,2.5-2.4,4.9-4,7c-3.7,6-7.3,12-11,18c-1.7-0.2-3-0.8-4-2
		C329.8,269.9,336.1,262.2,343.5,255.5z"/>
</g>
<g>
	<path class="st41" d="M442.5,213.5c18.2-0.5,35.9,2.4,53,8.5c3.3,1.2,6.1,3,8.5,5.5c5.8,10.2,10.4,20.9,14,32
		c2.2,7.2,3.2,14.5,3,22c-8.7-4.9-17.8-8.6-27.5-11c-1.4-0.2-2.8-0.7-4-1.5c-1.2-0.7-1.2-1.2,0-1.5c9.9,1,18.9,4.3,27,10
		c0.3-1.3,0.7-2.7,1-4c-2.6-16.3-8.1-31.7-16.5-46c-3.6-2.2-7.5-4.1-11.5-5.5C474,217.5,458.3,214.7,442.5,213.5z"/>
</g>
<g>
	<path class="st42" d="M436.5,229.5c11.8,24.9,17.5,51.2,17,79C449.3,282,443.6,255.7,436.5,229.5z"/>
</g>
<g>
	<path class="st43" d="M121.5,282.5c-1.1,2.1-2.8,3.4-5,4C117.6,284.4,119.3,283.1,121.5,282.5z"/>
</g>
<g>
	<path class="st44" d="M502.5,327.5c3.6,8.4,6.8,17.1,9.5,26c0.4,0.6,0.9,0.9,1.5,1c-0.3,0.8-0.8,1.5-1.5,2
		c-10.2-7.2-19.6-15.6-28-25c0.9-16,0.5-32-1-48C489.8,298.1,496.3,312.8,502.5,327.5z"/>
</g>
<g>
	<path class="st45" d="M394.5,287.5c7.6,2.8,14.6,6.6,21,11.5c-3.4-0.1-6.8-0.9-10-2.5c-0.6,0.1-0.9,0.5-1,1
		C401.5,293.8,398.2,290.5,394.5,287.5z"/>
</g>
<g>
	<path class="st6" d="M193.5,256.5c3,5.7,5.5,11.7,7.5,18c6.6,18.6,12.5,37.4,17.5,56.5c-5.9,11.4-14.6,19.9-26,25.5
		c-7.1-11.4-13.1-23.4-18-36c5.9,10.4,12.1,20.8,18.5,31c9.3-3.9,16-10.5,20-20c-0.2-5.8-1.2-11.4-3-17
		C204.5,295.1,199,275.8,193.5,256.5z"/>
</g>
<g>
	<path class="st46" d="M479.5,283.5c-0.1,13.4-1.7,26.6-5,39.5c-8.9-1.8-15.9-6.6-21-14.5c3.8,3,7.8,5.8,12,8.5
		c2.5,1.3,5.2,2.2,8,2.5C475.4,307.4,477.4,295.4,479.5,283.5z"/>
</g>
<g>
	<path class="st10" d="M116.5,286.5c-8.3,7.2-15.8,15.2-22.5,24c-1.6,20.8,2.2,40.4,11.5,59c4.8-10.3,11.6-19,20.5-26
		c-0.6,2.5-1.8,4.9-3.5,7c-0.4-1-1.1-1.2-2-0.5c-7.4,8-12.9,17.1-16.5,27.5c-10.5-22-14.2-45-11-69
		C99.8,299.9,107.6,292.6,116.5,286.5z"/>
</g>
<g>
	<path class="st47" d="M160.5,294.5c7.3,18.3,13.4,36.9,18.5,56c1.5,6.6,2.7,13.3,3.5,20c0,7.6-3,13.8-9,18.5c-0.7,0.7-1.3,0.7-2,0
		c-10.5-12.4-20.9-24.9-31-37.5c12.9,7.4,22.9,17.8,30,31c3.5,0.4,6-1.3,7.5-5c0.1-15.7-2.2-31-7-46c-5.1-14.6-9.8-29.3-14-44
		C158.7,289.6,159.9,291.9,160.5,294.5z"/>
</g>
<g>
	<path class="st48" d="M393.5,364.5c0,0.3,0,0.7,0,1c3.7,13.7,4.9,27.7,3.5,42c-7.3,16.3-18.5,29.1-33.5,38.5c-2.6,1.1-5.3,2-8,2.5
		c21.6-12.2,32.8-30.9,33.5-56c0.7,1.2,1.2,1.2,1.5,0c-0.9-3.9-1.3-7.9-1-12c-0.2-6.7,0-13.3,0.5-20c0.3-0.3,0.7-0.7,1-1
		C391.8,361.3,392.6,363,393.5,364.5z"/>
</g>
<g>
	<path class="st47" d="M138.5,349.5c5.8,9.6,11.6,19.3,17.5,29c15.4,24,13.7,46.7-5,68c-13.9-6.6-24.6-16.6-32-30
		c-3.9-7.4-7.2-15.1-10-23c-0.4-15.7,4.1-29.7,13.5-42c-6,12.7-9.2,26-9.5,40c3.3,9.8,7.6,19.2,13,28c5.7,8.3,13.2,14.3,22.5,18
		c0.8,1.1,1.8,1.2,3,0.5c9.3-9.7,12.8-21.2,10.5-34.5c-7.3-19.6-16.5-38.3-27.5-56c0.2-0.3,0.3-0.7,0.5-1
		C136,347.7,137.2,348.7,138.5,349.5z"/>
</g>
<g>
	<path class="st47" d="M375.5,364.5c-11.7,12-24,23.4-37,34c-5-4.5-7.6-10.2-8-17c2.8-9.9,6.3-19.6,10.5-29
		c7.7-16,15.8-31.7,24.5-47c1.1-3.1,2.9-5.8,5.5-8c-10.7,20.5-20.7,41.5-30,63c-3.7,8.3-5.7,17-6,26c0.8,3.8,2.9,5.6,6.5,5.5
		C350.4,379.6,361.7,370.5,375.5,364.5z"/>
</g>
<g>
	<path class="st49" d="M355.5,448.5c2.7-0.5,5.4-1.4,8-2.5c15-9.4,26.2-22.2,33.5-38.5c1.4-14.3,0.2-28.3-3.5-42
		c7,13.8,9.5,28.4,7.5,44c-7.9,16.2-19.1,29.7-33.5,40.5c-5.7,3.3-11.7,5.8-18,7.5c-3.6-7.6-6.5-15.6-8.5-24c-1.8-10-0.1-19.3,5-28
		c9.7-15.5,20.9-29.8,33.5-43c1-1.3,2.4-1.8,4-1.5c-14.3,16.5-26.8,34.4-37.5,53.5c-3.3,12.5-1.5,24.2,5.5,35
		C353,450.4,354.4,450.1,355.5,448.5z"/>
</g>
<g>
	<path class="st50" d="M234.5,220.5c5.8,11,10.8,22.3,15,34c0.9,3.8,1.9,7.7,3,11.5c-0.4,1.5-0.6,3-0.5,4.5
		c7.7,9.4,17.5,13.8,29.5,13c0.3-0.5,0.7-1,1-1.5c-1.6-5.5-2.9-11-4-16.5c1.2-1,1.8-2.3,2-4c1.9-2.4,3.2-5,4-8c1.2-1,1.8-2.3,2-4
		c5.8-9.2,11.8-18.2,18-27c-5.1,9.6-10.3,19.3-15.5,29c-2.9,5.6-5,11.4-6.5,17.5c2.9,13.9,7.7,27.1,14.5,39.5
		c15.2-20.9,31.5-40.9,49-60c-0.2,2.5-1.1,4.8-2.5,7c-7.4,6.7-13.7,14.4-19,23c-6.7,8-13,16.4-19,25c-0.7,0-1,0.3-1,1
		c-2.8,3.6-5.6,7.3-8.5,11c-5.2-8.8-9.2-18.1-12-28c-1.4-0.9-2.9-1.2-4.5-1c1.8,8,0.8,15.7-3,23c2.9,14.9,11.5,24.2,26,28
		c-0.2-1.4,0-2.7,0.5-4c3.5-7.7,7-15.4,10.5-23c0.6-0.9,0.9-1.9,1-3c4.9-8.8,9.6-17.8,14-27c3.7-6,7.3-12,11-18
		c-11.3,23.9-22,48-32,72.5c1.9,10.7,7.6,18.5,17,23.5c7-8.7,14-17.4,21-26c-6.3,10.1-12.8,20.1-19.5,30c-4.7,0.1-8.7-1.9-12-6
		c-2.7-4-5.3-8-8-12c-1.4,4.3-1.7,8.6-1,13c3.8,0.9,5.9,3.3,6.5,7c-2.5,5.8-4.1,11.8-5,18c0.3,1,0.7,2,1,3c3.7,0.4,5.7,2.4,6,6
		c-1.6,4.8-3.4,9.4-5.5,14c-0.5,4-0.7,8-0.5,12c4.7-0.6,7.4,1.4,8,6c-0.3,3.4-1.5,6.4-3.5,9c-1.2,5.9-1.7,11.9-1.5,18
		c12.1,2.2,14.9,8.5,8.5,19c-2.3,6.6-3.1,13.2-2.5,20c5.8,1.7,9.4,5.4,11,11c-3.3,7.9-5.7,16.1-7,24.5c0.2,1.5,0.3,3,0.5,4.5
		c5.6,0.5,8.8,3.5,9.5,9c-0.9,5.3-2.8,10.3-5.5,15c-2.3,5.9-2.8,11.9-1.5,18c7.3,2.5,12,7.3,14,14.5c-1.5,6.1-3.6,12-6.5,17.5
		c-1.3,6.6-1.6,13.3-1,20c1.6-2.1,3.4-2.7,5.5-2c-1.1,4.6-1.3,9.3-0.5,14c3.2-6.8,7.5-12.8,13-18c-2.8,7.8-4.7,16-5.5,24.5
		c0.2,1.8,0.3,3.7,0.5,5.5c0.7-0.8,1.5-1.1,2.5-1c-1.3,1.4-2.8,2.8-4.5,4c-0.7-4.7-0.7-9.3,0-14c1-3.4,1.7-6.7,2-10
		c-4.9,7.3-8.2,15.3-10,24c-0.2-8.5-0.1-17,0.5-25.5c-3,0.4-4.8,2.2-5.5,5.5c-1.1,5.3-1.8,10.6-2,16c-3.7-4.8-6.4-10.2-8-16
		c-7.2,12.3-5.9,23.3,4,33c6.5-4.3,13.7-6.8,21.5-7.5c5.4-5.4,11.4-10.1,18-14c-2.9-1.5-5.9-1.6-9-0.5c0.8-0.8,1.8-1.3,3-1.5
		c4.3-0.7,8.7-0.7,13,0c-7.5,3.8-14.2,8.8-20,15c6.7,0.3,13.3,0.7,20,1c-16.5,0.1-32.1,3.6-47,10.5c-2.2-3-4.8-5.5-8-7.5
		c-6.3-1.2-12.7-1.8-19-2c-0.8,0.3-1.5,0.8-2,1.5c4.8,2.9,9.5,6.1,14,9.5c-5.6-2.3-11.3-5-17-8c-10.9-4.1-21.9-4.1-33,0
		c-5.2,2.3-10.6,4-16,5c1.4-0.4,2.4-1.2,3-2.5c-8.1-1.1-16.1-1.3-24-0.5c2.3-3.2,5.3-5.4,9-6.5c-0.8,1.3-1.8,2.5-3,3.5
		c7.5-0.8,15-0.3,22.5,1.5c9.4-3.3,19.1-5.6,29-7c3.5,0.9,7,1.9,10.5,3c3-2.1,6.3-3.1,10-3c-0.4-5.8,0.1-11.4,1.5-17
		c2.1-3.8,5.3-6.3,9.5-7.5c-10.3-0.4-17.4,4.1-21.5,13.5c1-11.1,5.2-21,12.5-29.5c-5.8,1.3-10.8,4.1-15,8.5
		c4.8-7.7,11.8-11.9,21-12.5c-7.1,7-11.9,15.1-14.5,24.5c4.7-4.2,10.2-6.5,16.5-7c2,0.5,4,1,6,1.5c-10.8,5.2-15.8,13.7-15,25.5
		c4.4-0.6,8.7-1.2,13-2c-1-9.2,1.2-17.5,6.5-25c0.7-1.3,1.3-1.3,2,0c0.7,4.2,2.1,8.2,4,12c2.9-11.8,4.6-23.8,5-36
		c1.9-4.8,3-9.8,3.5-15c-0.1-6.5-3.2-10.5-9.5-12c-0.2,5.7-0.7,11.4-1.5,17c-4.2,2.9-8.9,4.5-14,5c-6.4,0.3-12.8,0-19-1
		c-5.9-0.7-11.5-2.2-17-4.5c-1.1-4.1-1.9-8.2-2.5-12.5c-3.9-0.7-6.6,1-8,5c0.5,5.9,2.3,11.4,5.5,16.5c2.3,11.4,6.1,22.2,11.5,32.5
		c0.3-0.9,0.8-1.6,1.5-2c0,2.8-0.7,5.5-2,8c-2.3-8.7-5.4-17-9.5-25c-2-1.9-3.9-3.9-5.5-6c-0.3,0.2-0.7,0.3-1,0.5
		c2,5.6,2.5,11.5,1.5,17.5c-1.1-1.2-1.9-2.5-2.5-4c0.7-1.1,1-2.5,1-4c-0.9-5-1.4-10-1.5-15c1.5,0.8,2.8,1.8,4,3
		c0.2-0.7,0.3-1.3,0.5-2c-1.5-4.7-3.4-9.4-5.5-14c-1.5-7.3,1-12.6,7.5-16c0.3-1.2,0.7-2.3,1-3.5c-2.1-10.5-5.1-20.6-9-30.5
		c0.7-6.5,4.4-10.2,11-11c-0.1-4.4-0.6-8.7-1.5-13c-3.1-6.1-5.6-12.5-7.5-19c1-4.9,4-7.3,9-7c-0.1-6.1-0.9-12.1-2.5-18
		c-2.8-4.9-5-10-6.5-15.5c1.2-4.6,4.2-6.7,9-6.5c-0.3-9.7-3-18.7-8-27c1-3,3-5,6-6c1-7.8-0.5-15.1-4.5-22c-1.2-6,1.3-9.3,7.5-10
		c-0.1-3.7-0.6-7.4-1.5-11c-2.1-3.9-3.9-7.9-5.5-12c1-3.5,3.3-4.8,7-4c0-4.7-0.5-9.4-1.5-14c-1.7-4.3-3.5-8.4-5.5-12.5
		c0.7-3.2,2.7-4.7,6-4.5c0.2-2.7,0-5.4-0.5-8c-0.3-0.8-0.8-1.5-1.5-2c-10.6,8-21.9,9.5-34,4.5c-3.3-2.3-4.9-5.5-5-9.5
		c-11.7-20.6-23.3-41.3-35-62c-0.6-0.9-0.9-1.9-1-3c13.2,18.4,25,37.7,35.5,58c8.8-11.5,16-24,21.5-37.5
		C245.6,251.8,240.6,236,234.5,220.5z"/>
</g>
<g>
	<path class="st51" d="M280.5,557.5c5.2,1.5,10.6,2.5,16,3c-0.6,11.6,0.1,22.9,2,34c-7.2,0.5-13.8-0.8-20-4
		C279.2,579.5,279.8,568.5,280.5,557.5z"/>
</g>
<g>
	<path class="st52" d="M308.5,549.5c2.4,0.2,3.4,1.5,3,4c1.4-0.2,2.7,0,4,0.5c-3.1,2-6.3,3.8-9.5,5.5c-0.5,11.3-0.7,22.7-0.5,34
		c1.3-0.2,2.3,0.1,3,1c-3.3,0-6.7,0-10,0c-1.9-11.1-2.6-22.4-2-34c-5.4-0.5-10.8-1.5-16-3c-1.7-0.4-3.3-0.9-5-1.5
		c0.7-0.2,1.3-0.3,2-0.5c3.3,0.8,6.6,1.2,10,1c-0.1-1.8,0.2-3.5,1-5C295.2,551.3,301.9,550.7,308.5,549.5z"/>
</g>
<g>
	<path class="st53" d="M308.5,594.5c-0.7-0.9-1.7-1.2-3-1c-0.2-11.3,0-22.7,0.5-34c3.2-1.7,6.4-3.5,9.5-5.5c-1.3-0.5-2.6-0.7-4-0.5
		c0.4-2.5-0.6-3.8-3-4c3.2-1,6.4-2.3,9.5-4c0.2-3.7,0.7-7.4,1.5-11c2.3-1.2,4.5-0.9,6.5,1c0.7,3,0.7,6,0,9c-2.5,4.7-4.2,9.7-5,15
		c-1.1,11-1.6,22-1.5,33C315.8,593.2,312.2,593.8,308.5,594.5z"/>
</g>
<g>
	<path class="st54" d="M288.5,551.5c-0.8,1.5-1.1,3.2-1,5c-3.4,0.2-6.7-0.2-10-1c-0.7,0.2-1.3,0.3-2,0.5c1.7,0.6,3.3,1.1,5,1.5
		c-0.7,11-1.3,22-2,33c-1.6-0.5-3.3-0.9-5-1c-1.9-15.4-5.4-30.4-10.5-45c-1.7-6.2,0.4-10.2,6.5-12c0.8,4.6,1.3,9.3,1.5,14
		C276.3,549.9,282.2,551.6,288.5,551.5z"/>
</g>
<g>
	<path class="st55" d="M277.5,509.5c6.1,1.8,12.5,2.5,19,2c0,12,0,24,0,36c1.3-0.2,2.3,0.1,3,1c-7.4,0.3-14.7-0.1-22-1
		C277.5,534.8,277.5,522.2,277.5,509.5z"/>
</g>
<g>
	<path class="st52" d="M305.5,501.5c0,1.7,0,3.3,0,5c2-0.2,4,0,6,0.5c-1,0.5-2,1-3,1.5c-1.3,12.7-1.3,25.4,0,38c-3,0.5-6,1.2-9,2
		c-0.7-0.9-1.7-1.2-3-1c0-12,0-24,0-36c-6.5,0.5-12.9-0.2-19-2c-1-0.5-2-1-3-1.5c2.6-0.5,5.3-0.7,8-0.5c0-1.7,0-3.3,0-5
		C290.1,503.3,297.8,502.9,305.5,501.5z"/>
</g>
<g>
	<path class="st56" d="M277.5,460.5c0,1.3,0,2.7,0,4c-1.1-0.1-2.1,0-3,0.5c0.7,11.3,1.3,22.7,2,34c-0.2,0.4-0.6,0.6-1,0.5
		c-3.1-0.1-3.4,0.4-1,1.5c2.6,1.1,5.2,1.6,8,1.5c0,1.7,0,3.3,0,5c-2.7-0.2-5.4,0-8,0.5c1,0.5,2,1,3,1.5c0,12.7,0,25.3,0,38
		c-1.4,0.1-2.8-0.3-4-1c-1-11.7-2.5-23.4-4.5-35c-2.4-4.1-4.2-8.4-5.5-13c0.6-3.3,2.6-4.6,6-4c-0.3,1.9,0.2,3.6,1.5,5
		c0.5-7.4,0.2-14.7-1-22c-1.6-6.6-3.8-13.1-6.5-19.5c0.1-1.1,0.4-2.1,1-3c2-0.5,4-0.7,6-0.5c0,1.7,0,3.3,0,5
		C272.9,459.7,275.2,460,277.5,460.5z"/>
</g>
<g>
	<path class="st57" d="M308.5,546.5c-1.3-12.6-1.3-25.3,0-38c1-0.5,2-1,3-1.5c-2-0.5-4-0.7-6-0.5c0-1.7,0-3.3,0-5
		c2.5-1.1,5.1-2,8-2.5c0.5-7.6,3.3-8.4,8.5-2.5c0.9,1.4,1.4,2.9,1.5,4.5c-4.2,13.9-7,28-8.5,42.5
		C312.8,544.4,310.6,545.4,308.5,546.5z"/>
</g>
<g>
	<path class="st58" d="M292.5,500.5c-0.6-9.9-1.3-19.9-2-30c-4.8-1.2-9.4-2.7-14-4.5c5,0.6,10,0.4,15-0.5c0.2-0.6,0.5-1.1,1-1.5
		c-0.9-0.3-1.6-0.8-2-1.5c4,0.2,8,0,12-0.5c2.7-0.2,5-1,7-2.5c1.8-1.4,2.5-3.4,2-6c4.7,0,7,2.4,7,7c-3,11.2-5.2,22.5-6.5,34
		c-1.7,2.6-4.2,4.1-7.5,4.5C300.6,500,296.6,500.5,292.5,500.5z"/>
</g>
<g>
	<path class="st59" d="M277.5,460.5c4.2,1.4,8.5,2.1,13,2c0.4,0.7,1.1,1.2,2,1.5c-0.5,0.4-0.8,0.9-1,1.5c-5,0.9-10,1.1-15,0.5
		c4.6,1.8,9.2,3.3,14,4.5c0.7,10.1,1.4,20.1,2,30c-5.9,0.3-11.5,0-17-1c0.4,0.1,0.8-0.1,1-0.5c-0.7-11.3-1.3-22.7-2-34
		c0.9-0.5,1.9-0.6,3-0.5C277.5,463.2,277.5,461.8,277.5,460.5z"/>
</g>
<g>
	<path class="st60" d="M297.5,427.5c1.2,1.2,1.2,2.4,0,3.5c-7,0.5-14,0.5-21,0c2,0.9,4,1.8,6,2.5c1.3,8.8,1.3,17.5,0,26
		c-3.5-0.1-6.6-1.1-9.5-3c-1.2-10.3-3.5-20.3-7-30c-1-3.1-0.2-5.4,2.5-7c0.7,1.5,1.4,3,2,4.5C279.3,427,288.3,428.1,297.5,427.5z"/>
</g>
<g>
	<path class="st52" d="M309.5,459.5c-5.3,0.8-10.6,1.4-16,2c-3.9-0.1-7.6-0.8-11-2c1.3-8.5,1.3-17.2,0-26c-2-0.7-4-1.6-6-2.5
		c7,0.5,14,0.5,21,0c1.2-1.1,1.2-2.3,0-3.5c2.4-0.8,4.7-1.8,7-3c1.8-1.1,2.4-2.7,2-5c4-0.7,6,1,6,5c0,2.9-0.8,5.6-2.5,8
		C309.5,441.5,309.3,450.5,309.5,459.5z"/>
</g>
<g>
	<path class="st61" d="M304.5,424.5c-7.8,1.2-15.5,1.2-23,0c0.6-0.1,1.1-0.4,1.5-1c0.8-6.7,0.7-13.4-0.5-20c-3.6-1-6.9-2.5-10-4.5
		c5,0.7,10,0.5,15-0.5c-1.4-0.7-2.8-1.3-4-2c6.8,0.1,13.5-0.7,20-2.5c1.7-1.4,2.4-3.2,2-5.5c2,0,4,0,6,0c0.5,4.2-0.6,7.9-3.5,11
		C306.1,407.7,305,416.1,304.5,424.5z"/>
</g>
<g>
	<path class="st62" d="M281.5,394.5c0.6-0.1,1.1-0.4,1.5-1c0.2-6.6,0.7-13.1,1.5-19.5c-4.8-0.5-9.1-2.2-13-5c2.6,0.1,5.3,0.2,8,0.5
		c0-1.3,0-2.7,0-4c7.8,0.5,15.5-0.4,23-2.5c0.8-4.2,2.7-4.7,5.5-1.5c0.2,1.2,0.3,2.3,0.5,3.5c-2.2,8.7-4,17.6-5.5,26.5
		C295.9,394.4,288.8,395.4,281.5,394.5z"/>
</g>
<g>
	<path class="st63" d="M272.5,333.5c5.8,1.6,11.8,2.6,18,3c-2.4,1.3-5.2,2-8.5,2c-3.6-0.2-7.1-0.4-10.5-0.5c3.5,2.7,7.5,4.2,12,4.5
		c0,7,0,14,0,21c1.6-0.3,2.9,0.1,4,1c-4.7,0-9.4-0.2-14-0.5c1.8,1.1,3.8,1.6,6,1.5c0,1.3,0,2.7,0,4c-2.7-0.2-5.4-0.4-8-0.5
		c3.9,2.8,8.2,4.5,13,5c-0.8,6.4-1.3,12.9-1.5,19.5c-0.4,0.6-0.9,0.9-1.5,1c-2.4-0.2-4.7,0-7,0.5c2.9,1.1,5.9,1.6,9,1.5
		c1.2,0.7,2.6,1.3,4,2c-5,1-10,1.2-15,0.5c3.1,2,6.4,3.5,10,4.5c1.2,6.6,1.3,13.3,0.5,20c-0.4,0.6-0.9,0.9-1.5,1
		c-3.4-0.5-6.7-1.1-10-2c-0.9-10.2-2.9-20.2-6-30c-0.2-2.8,1.2-4.5,4-5c0.7,2,1.3,4,2,6c1.4-9.5-0.1-18.5-4.5-27c-0.5-2-0.7-4-0.5-6
		c2.5-0.2,4.3,0.8,5.5,3c0.6-11.1-1.6-21.6-6.5-31.5c0.5-2,1.9-2.9,4-2.5C269.1,332,270.1,333.3,272.5,333.5z"/>
</g>
<g>
	<path class="st64" d="M290.5,336.5c4.3,2.8,8.9,4.5,14,5c-0.9,6.8-2.2,13.4-4,20c-4.2,1.4-8.6,2.4-13,3c-1.1-0.9-2.4-1.3-4-1
		c0-7,0-14,0-21c-4.5-0.3-8.5-1.8-12-4.5c3.4,0.1,6.9,0.2,10.5,0.5C285.3,338.5,288.1,337.8,290.5,336.5z"/>
</g>
<g>
	<path class="st65" d="M272.5,333.5c-1.1-5.6-2.1-11.3-3-17c1.3-2,3-3.7,5-5c2,8.9,6.4,16.4,13,22.5
		C282.5,334.5,277.5,334.3,272.5,333.5z"/>
</g>
<g>
	<path class="st66" d="M245.5,284.5c14.5,2.6,18.6,10.6,12.5,24c-4.5,7.2-11,11.2-19.5,12c-4.8-0.8-8.2-3.5-10-8c0.3-1,1-1.7,2-2
		c4.3,7.5,10.3,9,18,4.5c5.6-3.9,9-9.2,10-16c-1.6-8.1-6.6-12-15-11.5C243.9,286.3,244.6,285.3,245.5,284.5z"/>
</g>
<g>
	<path class="st67" d="M305.5,303.5c1.5,1,2.8,2.1,4,3.5c1.6,0.5,3.3,0.7,5,0.5c-0.1,1.1-0.4,2.1-1,3c-2.9,0-5.6-0.8-8-2.5
		c-0.8-1-1.2-2.2-1-3.5C304.5,303.8,304.8,303.5,305.5,303.5z"/>
</g>
<g>
	<path class="st68" d="M243.5,287.5c8.4-0.5,13.4,3.4,15,11.5c-1,6.8-4.4,12.1-10,16c-7.7,4.5-13.7,3-18-4.5
		C235.1,303,239.4,295.4,243.5,287.5z"/>
</g>
<g>
	<path class="st69" d="M304.5,304.5c-0.2,1.3,0.2,2.5,1,3.5c2.4,1.7,5.1,2.5,8,2.5c-3.5,7.6-7,15.3-10.5,23c-0.5,1.3-0.7,2.6-0.5,4
		c-14.5-3.8-23.1-13.1-26-28c3.8-7.3,4.8-15,3-23c1.6-0.2,3.1,0.1,4.5,1c2.8,9.9,6.8,19.2,12,28
		C298.9,311.8,301.7,308.1,304.5,304.5z"/>
</g>
<g>
	<path class="st70" d="M324.5,278.5c1,1.2,2.3,1.8,4,2c-4.4,9.2-9.1,18.2-14,27c-1.7,0.2-3.4,0-5-0.5c-1.2-1.4-2.5-2.5-4-3.5
		C311.5,294.9,317.8,286.5,324.5,278.5z"/>
</g>
<g>
	<path class="st71" d="M238.5,320.5c8.5-0.8,15-4.8,19.5-12c6.1-13.4,2-21.4-12.5-24c1.3-4.5,3.2-8.8,5.5-13
		c5.6,8.5,13.5,13.5,23.5,15c3.1,24.7-7.9,36.5-33,35.5C240.3,321.8,239.3,321.3,238.5,320.5z"/>
</g>
<g>
	<path class="st69" d="M249.5,254.5c7.1,10.1,16.8,13.8,29,11c1.1,5.5,2.4,11,4,16.5c-0.3,0.5-0.7,1-1,1.5c-12,0.8-21.8-3.6-29.5-13
		c-0.1-1.5,0.1-3,0.5-4.5C251.4,262.2,250.4,258.3,249.5,254.5z"/>
</g>
<g>
	<path class="st72" d="M252.5,242.5c0.7,1,1.3,2,2,3c-0.6,0.1-1.1,0.4-1.5,1c-1.1,6.9,1.4,12.1,7.5,15.5c6.8,3.4,13.5,3.3,20-0.5
		c-0.2,1.7-0.8,3-2,4c-12.2,2.8-21.9-0.9-29-11C248.8,249.9,249.8,245.9,252.5,242.5z"/>
</g>
<g>
	<path class="st73" d="M254.5,245.5c1.3,2.4,2.8,4.8,4.5,7c3.3-1.6,6.3-3.6,9-6c2,2.4,4.4,4.4,7,6c1.7-2.5,3.5-4.8,5.5-7
		c2.6,1.8,4,4.5,4,8c-0.8,3-2.1,5.6-4,8c-6.5,3.8-13.2,3.9-20,0.5c-6.1-3.4-8.6-8.6-7.5-15.5C253.4,245.9,253.9,245.6,254.5,245.5z"
		/>
</g>
<g>
	<path class="st74" d="M283.5,242.5c1.6,2,2.6,4.4,3,7c-0.2,1.7-0.8,3-2,4c0-3.5-1.4-6.2-4-8C281.2,244.2,282.2,243.2,283.5,242.5z"
		/>
</g>
<g>
	<path class="st75" d="M307.5,626.5c0-7.3,0-14.7,0-22c5.5-0.6,10.5-2.4,15-5.5c-6.2,1.4-12.5,2.2-19,2.5c0-1,0-2,0-3
		c1.6,0.3,2.9-0.1,4-1c5.1-0.5,9.8-2.1,14-5c0.8-5.6,1.3-11.3,1.5-17c6.3,1.5,9.4,5.5,9.5,12c-0.5,5.2-1.6,10.2-3.5,15
		c-0.4,12.2-2.1,24.2-5,36c-1.9-3.8-3.3-7.8-4-12c-0.7-1.3-1.3-1.3-2,0c-5.3,7.5-7.5,15.8-6.5,25c-4.3,0.8-8.6,1.4-13,2
		c-0.8-11.8,4.2-20.3,15-25.5C311.5,627.5,309.5,627,307.5,626.5z"/>
</g>
<g>
	<path class="st76" d="M288.5,596.5c-0.8,1.5-1.1,3.2-1,5c-2.7,0-5.3,0-8,0c0.1,10.1,0.1,20.1,0,30c-0.7,0.4-1.2,1.1-1.5,2
		c-5.4-10.3-9.2-21.1-11.5-32.5c-3.2-5.1-5-10.6-5.5-16.5c1.4-4,4.1-5.7,8-5c0.6,4.3,1.4,8.4,2.5,12.5
		C277,594.3,282.6,595.8,288.5,596.5z"/>
</g>
<g>
	<path class="st77" d="M288.5,596.5c6.2,1,12.6,1.3,19,1c-1.1,0.9-2.4,1.3-4,1c0,1,0,2,0,3c6.5-0.3,12.8-1.1,19-2.5
		c-4.5,3.1-9.5,4.9-15,5.5c0,7.3,0,14.7,0,22c-6.3,0.5-11.8,2.8-16.5,7c2.6-9.4,7.4-17.5,14.5-24.5c-9.2,0.6-16.2,4.8-21,12.5
		c-1.7,3.4-3.3,6.7-5,10c0.1-9.9,0.1-19.9,0-30c2.7,0,5.3,0,8,0C287.4,599.7,287.7,598,288.5,596.5z"/>
</g>
<g>
	<path class="st78" d="M279.5,631.5c1.7-3.3,3.3-6.6,5-10c4.2-4.4,9.2-7.2,15-8.5c-7.3,8.5-11.5,18.4-12.5,29.5
		c4.1-9.4,11.2-13.9,21.5-13.5c-4.2,1.2-7.4,3.7-9.5,7.5c-1.4,5.6-1.9,11.2-1.5,17c-3.7-0.1-7,0.9-10,3c-3.5-1.1-7-2.1-10.5-3
		c-9.9,1.4-19.6,3.7-29,7c-7.5-1.8-15-2.3-22.5-1.5c1.2-1,2.2-2.2,3-3.5c4.3-0.9,8.6-1.6,13-2c1,0,2,0,3,0c1.1,0.1,2.1,0,3-0.5
		c-4.7-6.4-10.4-11.7-17-16c2.7,0,5.4,0.7,8,2c3.5,2.6,7.2,4.6,11,6c-1.5-1.5-3-3-4.5-4.5c-1.1-9.4-3.9-18.3-8.5-26.5
		c1.7-0.4,3.4-0.2,5,0.5c0.5,1.4,1.5,2.1,3,2c3,3.3,6,6.6,9,10c0.9,2.1,2.1,4.1,3.5,6c0.9-5.3-0.3-10.2-3.5-14.5
		c0.7-0.7,1.3-0.7,2,0c1.5,1.7,3.2,3.2,5,4.5c0.6,1.5,1.4,2.8,2.5,4c1-6,0.5-11.9-1.5-17.5c0.3-0.2,0.7-0.3,1-0.5
		c1.6,2.1,3.5,4.1,5.5,6c4.1,8,7.2,16.3,9.5,25C278.8,637,279.5,634.3,279.5,631.5z"/>
</g>
<g>
	<path class="st79" d="M241.5,614.5c1.5-0.1,2.5,0.6,3,2C243,616.6,242,615.9,241.5,614.5z"/>
</g>
<g>
	<path class="st80" d="M260.5,622.5c-1.8-1.3-3.5-2.8-5-4.5c-0.7-0.7-1.3-0.7-2,0c3.2,4.3,4.4,9.2,3.5,14.5c-1.4-1.9-2.6-3.9-3.5-6
		c0.9-4.3-0.1-8.3-3-12C255.1,615.1,258.5,617.7,260.5,622.5z"/>
</g>
<g>
	<path class="st81" d="M345.5,646.5c2.2-0.6,3.9-1.9,5-4c0.3-0.8,1-1.2,2-1c3.1-1.1,6.1-1,9,0.5c-6.6,3.9-12.6,8.6-18,14
		c-7.8,0.7-15,3.2-21.5,7.5c-9.9-9.7-11.2-20.7-4-33c1.6,5.8,4.3,11.2,8,16c0.2-5.4,0.9-10.7,2-16c0.7-3.3,2.5-5.1,5.5-5.5
		c-0.6,8.5-0.7,17-0.5,25.5c1.8-8.7,5.1-16.7,10-24c-0.3,3.3-1,6.6-2,10c-0.7,4.7-0.7,9.3,0,14C342.7,649.3,344.2,647.9,345.5,646.5
		z"/>
</g>
<g>
	<path class="st82" d="M241.5,614.5c-1.6-0.7-3.3-0.9-5-0.5c4.6,8.2,7.4,17.1,8.5,26.5c1.5,1.5,3,3,4.5,4.5c-3.8-1.4-7.5-3.4-11-6
		c-2.6-1.3-5.3-2-8-2c6.6,4.3,12.3,9.6,17,16c-0.9,0.5-1.9,0.6-3,0.5c-5.9-8.7-13.6-15.6-23-20.5c7-0.1,13.5,1.7,19.5,5.5
		c-0.2-10.2-3-19.7-8.5-28.5C236,610.4,239,611.9,241.5,614.5z"/>
</g>
<g>
	<path class="st83" d="M350.5,642.5c-1.1,2.1-2.8,3.4-5,4C346.6,644.4,348.3,643.1,350.5,642.5z"/>
</g>
<g>
	<path class="st84" d="M241.5,653.5c-4.4,0.4-8.7,1.1-13,2C232.6,652.8,236.9,652.1,241.5,653.5z"/>
</g>
<g>
	<path class="st85" d="M310.5,653.5c0.9-0.1,1.5,0.2,2,1c-1.9,1.1-3.9,1.3-6,0.5C308.1,654.8,309.4,654.3,310.5,653.5z"/>
</g>
</svg>
