<?xml version="1.0" encoding="utf-8"?>
<!-- Generator: Adobe Illustrator 27.9.0, SVG Export Plug-In . SVG Version: 6.00 Build 0)  -->
<svg version="1.1" id="Capa_1" xmlns="http://www.w3.org/2000/svg" xmlns:xlink="http://www.w3.org/1999/xlink" x="0px" y="0px"
	 viewBox="0 0 575 337" style="enable-background:new 0 0 575 337;" xml:space="preserve">
<style type="text/css">
	.st0{fill-rule:evenodd;clip-rule:evenodd;fill:#644938;}
	.st1{fill-rule:evenodd;clip-rule:evenodd;fill:#EEC8CE;}
	.st2{fill-rule:evenodd;clip-rule:evenodd;fill:#643F30;}
	.st3{fill-rule:evenodd;clip-rule:evenodd;fill:#D9251C;}
	.st4{fill-rule:evenodd;clip-rule:evenodd;fill:#B23C32;}
	.st5{fill-rule:evenodd;clip-rule:evenodd;fill:#768DA4;}
	.st6{fill-rule:evenodd;clip-rule:evenodd;fill:#C52925;}
	.st7{fill-rule:evenodd;clip-rule:evenodd;fill:#3E2D2A;}
	.st8{fill-rule:evenodd;clip-rule:evenodd;fill:#72221B;}
	.st9{fill-rule:evenodd;clip-rule:evenodd;fill:#711E1A;}
	.st10{fill-rule:evenodd;clip-rule:evenodd;fill:#63372D;}
	.st11{fill-rule:evenodd;clip-rule:evenodd;fill:#748AA2;}
	.st12{fill-rule:evenodd;clip-rule:evenodd;fill:#C3CFDA;}
	.st13{fill-rule:evenodd;clip-rule:evenodd;fill:#773329;}
	.st14{fill-rule:evenodd;clip-rule:evenodd;fill:#8A2115;}
	.st15{fill-rule:evenodd;clip-rule:evenodd;fill:#8C3534;}
	.st16{fill-rule:evenodd;clip-rule:evenodd;fill:#291C1C;}
	.st17{fill-rule:evenodd;clip-rule:evenodd;fill:#662C27;}
	.st18{fill-rule:evenodd;clip-rule:evenodd;fill:#F5D8CF;}
	.st19{fill-rule:evenodd;clip-rule:evenodd;fill:#73889B;}
	.st20{fill-rule:evenodd;clip-rule:evenodd;fill:#EEBEB9;}
	.st21{fill-rule:evenodd;clip-rule:evenodd;fill:#291C11;}
	.st22{fill-rule:evenodd;clip-rule:evenodd;fill:#4D2925;}
	.st23{fill-rule:evenodd;clip-rule:evenodd;fill:#533121;}
	.st24{fill-rule:evenodd;clip-rule:evenodd;fill:#802E2D;}
	.st25{fill-rule:evenodd;clip-rule:evenodd;fill:#6D1C1D;}
	.st26{fill-rule:evenodd;clip-rule:evenodd;fill:#4E1B11;}
	.st27{fill-rule:evenodd;clip-rule:evenodd;fill:#52657E;}
	.st28{fill-rule:evenodd;clip-rule:evenodd;fill:#D8251D;}
	.st29{fill-rule:evenodd;clip-rule:evenodd;fill:#DAE3EB;}
	.st30{fill-rule:evenodd;clip-rule:evenodd;fill:#553022;}
	.st31{fill-rule:evenodd;clip-rule:evenodd;fill:#F5E5E0;}
	.st32{fill-rule:evenodd;clip-rule:evenodd;fill:#95ABC3;}
	.st33{fill-rule:evenodd;clip-rule:evenodd;fill:#35322D;}
	.st34{fill-rule:evenodd;clip-rule:evenodd;fill:#C33535;}
	.st35{fill-rule:evenodd;clip-rule:evenodd;fill:#5C3125;}
	.st36{fill-rule:evenodd;clip-rule:evenodd;fill:#D8251C;}
	.st37{fill-rule:evenodd;clip-rule:evenodd;fill:#7B241C;}
	.st38{fill-rule:evenodd;clip-rule:evenodd;fill:#4C1D1A;}
	.st39{fill-rule:evenodd;clip-rule:evenodd;fill:#77322F;}
	.st40{fill-rule:evenodd;clip-rule:evenodd;fill:#F1E9E9;}
	.st41{fill-rule:evenodd;clip-rule:evenodd;fill:#94ABC3;}
	.st42{fill-rule:evenodd;clip-rule:evenodd;fill:#6F7984;}
	.st43{fill-rule:evenodd;clip-rule:evenodd;fill:#C0CDD6;}
	.st44{fill-rule:evenodd;clip-rule:evenodd;fill:#BF2724;}
	.st45{fill-rule:evenodd;clip-rule:evenodd;fill:#7C8B9F;}
	.st46{fill-rule:evenodd;clip-rule:evenodd;fill:#C4D1D9;}
	.st47{fill-rule:evenodd;clip-rule:evenodd;fill:#292724;}
	.st48{fill-rule:evenodd;clip-rule:evenodd;fill:#B32A25;}
	.st49{fill-rule:evenodd;clip-rule:evenodd;fill:#2D2837;}
	.st50{fill-rule:evenodd;clip-rule:evenodd;fill:#94261E;}
	.st51{fill-rule:evenodd;clip-rule:evenodd;fill:#3F271F;}
	.st52{fill-rule:evenodd;clip-rule:evenodd;fill:#943A39;}
	.st53{fill-rule:evenodd;clip-rule:evenodd;fill:#808FA0;}
	.st54{fill-rule:evenodd;clip-rule:evenodd;fill:#738EA7;}
	.st55{fill-rule:evenodd;clip-rule:evenodd;fill:#EBC2AF;}
	.st56{fill-rule:evenodd;clip-rule:evenodd;fill:#4E5E6C;}
	.st57{fill-rule:evenodd;clip-rule:evenodd;fill:#A1251A;}
	.st58{fill-rule:evenodd;clip-rule:evenodd;fill:#687885;}
	.st59{fill-rule:evenodd;clip-rule:evenodd;fill:#832B26;}
	.st60{fill-rule:evenodd;clip-rule:evenodd;fill:#9C3B3A;}
	.st61{fill-rule:evenodd;clip-rule:evenodd;fill:#91A2B5;}
	.st62{fill-rule:evenodd;clip-rule:evenodd;fill:#532820;}
	.st63{fill-rule:evenodd;clip-rule:evenodd;fill:#86211A;}
	.st64{fill-rule:evenodd;clip-rule:evenodd;fill:#933E35;}
	.st65{fill-rule:evenodd;clip-rule:evenodd;fill:#DBE3EC;}
	.st66{fill-rule:evenodd;clip-rule:evenodd;fill:#F8FAFA;}
	.st67{fill-rule:evenodd;clip-rule:evenodd;fill:#302E2E;}
	.st68{fill-rule:evenodd;clip-rule:evenodd;fill:#D6DFE7;}
	.st69{fill-rule:evenodd;clip-rule:evenodd;fill:#F7F9FB;}
	.st70{fill-rule:evenodd;clip-rule:evenodd;fill:#56606D;}
	.st71{fill-rule:evenodd;clip-rule:evenodd;fill:#BCC7D0;}
	.st72{fill-rule:evenodd;clip-rule:evenodd;fill:#942019;}
	.st73{fill-rule:evenodd;clip-rule:evenodd;fill:#516274;}
	.st74{fill-rule:evenodd;clip-rule:evenodd;fill:#768A9E;}
	.st75{fill-rule:evenodd;clip-rule:evenodd;fill:#B12B24;}
	.st76{fill-rule:evenodd;clip-rule:evenodd;fill:#8B241E;}
	.st77{fill-rule:evenodd;clip-rule:evenodd;fill:#C1D0DD;}
	.st78{fill-rule:evenodd;clip-rule:evenodd;fill:#82221E;}
	.st79{fill-rule:evenodd;clip-rule:evenodd;fill:#73869D;}
	.st80{fill-rule:evenodd;clip-rule:evenodd;fill:#7087A1;}
	.st81{fill-rule:evenodd;clip-rule:evenodd;fill:#742227;}
	.st82{fill-rule:evenodd;clip-rule:evenodd;fill:#C2D1DE;}
	.st83{fill-rule:evenodd;clip-rule:evenodd;fill:#29334B;}
	.st84{fill-rule:evenodd;clip-rule:evenodd;fill:#301D15;}
	.st85{fill-rule:evenodd;clip-rule:evenodd;fill:#B32B27;}
	.st86{fill-rule:evenodd;clip-rule:evenodd;fill:#7F1C1C;}
	.st87{fill-rule:evenodd;clip-rule:evenodd;fill:#F5DCD5;}
	.st88{fill-rule:evenodd;clip-rule:evenodd;fill:#30364D;}
	.st89{fill-rule:evenodd;clip-rule:evenodd;fill:#F7F8F9;}
	.st90{fill-rule:evenodd;clip-rule:evenodd;fill:#788CA0;}
	.st91{fill-rule:evenodd;clip-rule:evenodd;fill:#3A434C;}
	.st92{fill-rule:evenodd;clip-rule:evenodd;fill:#BCCEDA;}
	.st93{fill-rule:evenodd;clip-rule:evenodd;fill:#B9CADC;}
	.st94{fill-rule:evenodd;clip-rule:evenodd;fill:#848382;}
	.st95{fill-rule:evenodd;clip-rule:evenodd;fill:#93716C;}
	.st96{fill-rule:evenodd;clip-rule:evenodd;fill:#F6E9E7;}
	.st97{fill-rule:evenodd;clip-rule:evenodd;fill:#D2261F;}
	.st98{fill-rule:evenodd;clip-rule:evenodd;fill:#C13831;}
	.st99{fill-rule:evenodd;clip-rule:evenodd;fill:#5B3328;}
	.st100{fill-rule:evenodd;clip-rule:evenodd;fill:#AE2B22;}
	.st101{fill-rule:evenodd;clip-rule:evenodd;fill:#D7E1EA;}
	.st102{fill-rule:evenodd;clip-rule:evenodd;fill:#982B24;}
	.st103{fill-rule:evenodd;clip-rule:evenodd;fill:#5B2F2A;}
	.st104{fill-rule:evenodd;clip-rule:evenodd;fill:#D4E4EF;}
	.st105{fill-rule:evenodd;clip-rule:evenodd;fill:#642223;}
	.st106{fill-rule:evenodd;clip-rule:evenodd;fill:#2C334D;}
	.st107{fill-rule:evenodd;clip-rule:evenodd;fill:#4F627A;}
	.st108{fill-rule:evenodd;clip-rule:evenodd;fill:#7F8993;}
	.st109{fill-rule:evenodd;clip-rule:evenodd;fill:#D8E4ED;}
	.st110{fill-rule:evenodd;clip-rule:evenodd;fill:#F7F0ED;}
	.st111{fill-rule:evenodd;clip-rule:evenodd;fill:#4D2D2A;}
	.st112{fill-rule:evenodd;clip-rule:evenodd;fill:#B6C8D6;}
	.st113{fill-rule:evenodd;clip-rule:evenodd;fill:#662826;}
	.st114{fill-rule:evenodd;clip-rule:evenodd;fill:#D7261E;}
	.st115{fill-rule:evenodd;clip-rule:evenodd;fill:#F7ECE7;}
	.st116{fill-rule:evenodd;clip-rule:evenodd;fill:#F0BAAD;}
	.st117{fill-rule:evenodd;clip-rule:evenodd;fill:#5B2A20;}
	.st118{fill-rule:evenodd;clip-rule:evenodd;fill:#A9261B;}
	.st119{fill-rule:evenodd;clip-rule:evenodd;fill:#546277;}
	.st120{fill-rule:evenodd;clip-rule:evenodd;fill:#D3E0E9;}
	.st121{fill-rule:evenodd;clip-rule:evenodd;fill:#F7E0D9;}
	.st122{fill-rule:evenodd;clip-rule:evenodd;fill:#7F8891;}
	.st123{fill-rule:evenodd;clip-rule:evenodd;fill:#C3312C;}
	.st124{fill-rule:evenodd;clip-rule:evenodd;fill:#6C221F;}
	.st125{fill-rule:evenodd;clip-rule:evenodd;fill:#B22C28;}
	.st126{fill-rule:evenodd;clip-rule:evenodd;fill:#7F231A;}
	.st127{fill-rule:evenodd;clip-rule:evenodd;fill:#F8EEEA;}
	.st128{fill-rule:evenodd;clip-rule:evenodd;fill:#B22B28;}
	.st129{fill-rule:evenodd;clip-rule:evenodd;fill:#CE736F;}
	.st130{fill-rule:evenodd;clip-rule:evenodd;fill:#F7EAE5;}
	.st131{fill-rule:evenodd;clip-rule:evenodd;fill:#D6261F;}
	.st132{fill-rule:evenodd;clip-rule:evenodd;fill:#C36568;}
	.st133{fill-rule:evenodd;clip-rule:evenodd;fill:#F2E2D7;}
	.st134{fill-rule:evenodd;clip-rule:evenodd;fill:#F1CBC5;}
	.st135{fill-rule:evenodd;clip-rule:evenodd;fill:#8C201D;}
	.st136{fill-rule:evenodd;clip-rule:evenodd;fill:#98281B;}
	.st137{fill-rule:evenodd;clip-rule:evenodd;fill:#782122;}
	.st138{fill-rule:evenodd;clip-rule:evenodd;fill:#7E2124;}
	.st139{fill-rule:evenodd;clip-rule:evenodd;fill:#6A2220;}
	.st140{fill-rule:evenodd;clip-rule:evenodd;fill:#F3C5B9;}
	.st141{fill-rule:evenodd;clip-rule:evenodd;fill:#CC584D;}
	.st142{fill-rule:evenodd;clip-rule:evenodd;fill:#D12B2C;}
	.st143{fill-rule:evenodd;clip-rule:evenodd;fill:#602127;}
	.st144{fill-rule:evenodd;clip-rule:evenodd;fill:#8B251C;}
	.st145{fill-rule:evenodd;clip-rule:evenodd;fill:#F8EAE6;}
	.st146{fill-rule:evenodd;clip-rule:evenodd;fill:#F2BFB3;}
	.st147{fill-rule:evenodd;clip-rule:evenodd;fill:#C5342F;}
	.st148{fill-rule:evenodd;clip-rule:evenodd;fill:#F5DAD7;}
	.st149{fill-rule:evenodd;clip-rule:evenodd;fill:#642024;}
	.st150{fill-rule:evenodd;clip-rule:evenodd;fill:#AE2723;}
	.st151{fill-rule:evenodd;clip-rule:evenodd;fill:#622416;}
	.st152{fill-rule:evenodd;clip-rule:evenodd;fill:#6C241C;}
	.st153{fill-rule:evenodd;clip-rule:evenodd;fill:#662125;}
	.st154{fill-rule:evenodd;clip-rule:evenodd;fill:#90A8BE;}
	.st155{fill-rule:evenodd;clip-rule:evenodd;fill:#F4CEC4;}
	.st156{fill-rule:evenodd;clip-rule:evenodd;fill:#55657B;}
	.st157{fill-rule:evenodd;clip-rule:evenodd;fill:#922725;}
	.st158{fill-rule:evenodd;clip-rule:evenodd;fill:#6A201F;}
	.st159{fill-rule:evenodd;clip-rule:evenodd;fill:#351D14;}
	.st160{fill-rule:evenodd;clip-rule:evenodd;fill:#B12C28;}
	.st161{fill-rule:evenodd;clip-rule:evenodd;fill:#3A1F1A;}
	.st162{fill-rule:evenodd;clip-rule:evenodd;fill:#3C2B25;}
	.st163{fill-rule:evenodd;clip-rule:evenodd;fill:#32231D;}
	.st164{fill-rule:evenodd;clip-rule:evenodd;fill:#922A24;}
	.st165{fill-rule:evenodd;clip-rule:evenodd;fill:#9D2A32;}
	.st166{fill-rule:evenodd;clip-rule:evenodd;fill:#4E4639;}
	.st167{fill-rule:evenodd;clip-rule:evenodd;fill:#531F17;}
	.st168{fill-rule:evenodd;clip-rule:evenodd;fill:#2B221B;}
</style>
<g>
	<path class="st0" d="M167.5,33.5c3-0.3,5.3,0.7,7,3C171.5,36.8,169.2,35.8,167.5,33.5z"/>
</g>
<g>
	<path class="st1" d="M162.5,33.5c0.7,0,1.3,0,2,0c-1.1,3.5-3.5,5.5-7,6C159.2,37.4,160.8,35.4,162.5,33.5z"/>
</g>
<g>
	<path class="st2" d="M174.5,36.5c2.3,0.5,4.3,1.5,6,3C177.8,39.6,175.8,38.6,174.5,36.5z"/>
</g>
<g>
	<path class="st3" d="M164.5,33.5c1,0,2,0,3,0c1.7,2.3,4,3.3,7,3c1.3,2.1,3.3,3.1,6,3c3.6,0.8,7,2.2,10,4c1.8,1.2,3.7,2.5,5.5,4
		c5.7,0.6,11.2,2,16.5,4c0.3,0,0.7,0,1,0c0.1,1.4-0.3,2.8-1,4c3.6,0.8,7,2.1,10,4c0,0.7,0,1.3,0,2c-2.8,0.2-5.1,1.2-7,3
		c0-1.3,0-2.7,0-4c0.2-1.2-0.1-2.2-1-3c-1,0.7-2,1.4-3,2c-0.6-0.3-1.3-0.6-2-1c-1.1,1.3-2.5,2.3-4,3c-0.8-0.8-1.7-0.5-2.5,1
		c-1.3,2-2.7,4-4,6c-0.7,1.9-0.6,3.8,0.5,5.5c-3.8,2.2-3.8,4.2,0,6c-1.9,1-3.9,1.6-6,2c3.3,0.5,6.3,1.7,9,3.5c-1.8,0.8-2.8,2.1-3,4
		c0.9,3,2.4,5.7,4.5,8c0,5,1.2,9.7,3.5,14c0.1,2.3,0.9,4.3,2.5,6c0.3-1,0.7-2,1-3c1.6,2.2,2.9,4.5,4,7c0-4.2-0.8-8.2-2.5-12
		c0.2-1.7,0-3.4-0.5-5c-1.7-2.4-3.2-4.9-4.5-7.5c0.5-0.4,0.8-0.9,1-1.5c-1.7-0.7-3.3-1.3-5-2c1-0.8,2-1.7,3-2.5
		c-0.8-1-1.2-2.2-1-3.5c1.6-0.2,3.1,0.1,4.5,1c1.2,3.2,2.9,6.2,5,9c0.9,4.8,1.7,9.5,2.5,14c0,8.7,0,17.3,0,26c-0.3,1.5,0.1,2.8,1,4
		c2.2,0.5,3.8,1.7,5,3.5c-1.7,1.2-3.3,2.3-5,3.5c-1.1,1.1-1.1,2.1,0,3c2.2-1.8,4.6-3.5,7-5c0.2,0.9,0.5,1.9,1,3c1-1.4,2.4-2,4-2
		c-0.2,1.7,0,3.4,0.5,5c0.7-1.1,1.7-1.7,3-2c5.8,3.4,9,8.4,9.5,15c-1.7-0.2-2.7,0.5-3,2c-3.3,1.7-6.7,3.3-10,5c-3,0.3-4.7,2-5,5
		c-0.3,1.5-1.3,2.2-3,2c0,1,0,2,0,3c-2.3,0-4.7,0-7,0c-9.3,0.5-18.6,0.5-28,0c-3.2-2.5-6.9-3.4-11-2.5c-0.6,1-1.2,1.8-2,2.5
		c-0.8-2.7-1.5-2.5-2,0.5c1.5,4,2.3,8.2,2.5,12.5c1.7,2.3,2.8,4.8,3.5,7.5c-5.7,4.3-10,9.6-13,16c1.1,3.8,2.1,7.6,3,11.5
		c0.7-2.8,1.3-5.5,2-8c0,0.7,0,1.3,0,2c0,1.3,0,2.7,0,4c5,0.2,8.9-1.8,11.5-6c1,0.7,2,1.3,3,2c1.1-6.5,2.8-12.8,5-19
		c1.3-0.7,2.4-1.5,3.5-2.5c5-0.7,10-0.7,15,0c2.3,1,4,2.7,5,5c9.9,2.1,19.9,2.9,30,2.5c13.2,0.1,24.9-3.9,35-12c5-1,10-1.3,15-1
		c0.3,2.4,0,4.8-1,7c-3.5,5.1-6.5,10.5-9,16c-1.7,0-3.3,0-5,0c-0.8,4.6-3.4,6.9-8,7c0,1,0,2,0,3c-2.3,0-4.7,0-7,0c0,1,0,2,0,3
		c-11.5,1.7-23.2,2.5-35,2.5c-4.3,3.9-3.6,6.4,2,7.5c-0.3,2,0.4,3.5,2,4.5c-1.7,1.4-2.4,3.2-2,5.5c5,1.4,10.2,2.4,15.5,3
		c2.7,0.8,4.9,2.1,6.5,4c-3,0-6,0-9,0c-4.3,0-8.7,0-13,0c-9,0-18,0-27,0c-0.5-1.2-1.5-1.9-3-2c-2.5,0.5-5,1.2-7.5,2
		c-5.9-1.2-11.9-1.9-18-2c-7.8,0.2-15.7,0.5-23.5,1c0.5-2.9-0.2-5.2-2-7c0.6-7.7,0-15.1-2-22c0.3-4.4,0-8.7-1-13
		c-3.1-5.8-6.4-11.5-10-17c-3-1.3-5.8-3-8.5-5c-6.5-1.2-12.7-3.2-18.5-6c-3.5-0.2-6.2-1.9-8-5c-2.1-3-4.7-5.4-8-7
		c-1.6-2.4-3.9-3.7-7-4c-1.6,0.8-2.3,2.2-2,4c-2.6-1.2-5.2-2.2-8-3c-0.1-3-1.1-3.8-3-2.5c-3.3,0.5-6.7,0.7-10,0.5
		c-3.2,0.1-6.2,0.7-9,2c0,2.7,0,5.3,0,8c1,0,2,0,3,0c0,1.7,0,3.3,0,5c-2,0-4,0-6,0c0,1,0,2,0,3c2.6-0.3,5.1,0.1,7.5,1
		c0.4-1.3,1.3-1.9,2.5-2c1.6,0.5,3.3,0.9,5,1c-0.3,2.3,0.4,4.3,2,6c4.9,3.6,10.2,6.2,16,8c3,1.9,4.6,4.6,5,8c3,1.5,5.7,3.5,8,6
		c7.4,2,14.1,5.4,20,10c3.3,2.1,6.4,4.4,9.5,7c0.8,2.6,0.6,5.1-0.5,7.5c2.6,1.1,5.2,1.6,8,1.5c0,4.3,0,8.7,0,13c1,0,2,0,3,0
		c5.3,11.8,5.3,23.8,0,36c1,2.3,1.6,4.6,2,7c2.9,3.6,2.6,7-1,10c-2.3,1.2-4.6,2.2-7,3c-5.5-2.2-11.1-3.9-17-5c0-1,0-2,0-3
		c-1,0-2,0-3,0c-0.1-2.1-1.1-3.6-3-4.5c-3.2-1.4-6.5-2.4-10-3c-5.4-3.5-10.6-7.3-15.5-11.5c-2.1-0.8-4.3-1.1-6.5-1c0-1.7,0-3.3,0-5
		c-1.7,0-3.3,0-5,0c-1.3-3.8-3.9-6.2-8-7c0-1,0-2,0-3c-1.7,0-3.3,0-5,0c0-1.7,0-3.3,0-5c-3.3-1.6-6.6-3.3-10-5c0-1,0-2,0-3
		c-3,0.3-4.3-1-4-4c-2,0.1-3.7-0.6-5-2c-1.6-2.5-2.6-5.2-3-8c-1.7,0-3.3,0-5,0c0-1,0-2,0-3c-2.2-0.2-3.8-1.2-5-3
		c-6.8-32.2-3.4-63.2,10-93c3.2-2.4,4.9-5.8,5-10c1.3,0,2.7,0,4,0c0-1.7,0-3.3,0-5c1,0,2,0,3,0c0-1.7,0-3.3,0-5c0.1-3.3,1.8-5,5-5
		c0-1,0-2,0-3c2.9-0.6,4.9-2.3,6-5c6.4-4.9,12.4-10.4,18-16.5c6.4-4.7,13.1-9.1,20-13c6.4-6,13-11.7,20-17c12.2-7.6,24.5-14.9,37-22
		c1.6-0.8,2.6-1.9,3-3.5C161,39,163.4,37,164.5,33.5z"/>
</g>
<g>
	<path class="st4" d="M190.5,43.5c7.5,1.8,14.8,3.8,22,6c0,0.7,0,1.3,0,2c-5.3-2-10.8-3.4-16.5-4C194.2,46,192.3,44.7,190.5,43.5z"
		/>
</g>
<g>
	<path class="st5" d="M154.5,33.5c2.7-1.3,5.3-1.3,8,0c-1.7,1.9-3.3,3.9-5,6c-9.2,5-18.5,9.8-28,14.5c-14,9-27.7,18.5-41,28.5
		c-1.4,0.2-2.7,0-4-0.5c4.9-5.2,10.5-9.2,17-12c2.7-8.7,8.7-12.7,18-12c7.3-4.3,14.3-8.9,21-14c3.8-0.4,6.8-2,9-5
		c2.1-0.3,4.1-0.8,6-1.5c0.9-1.7,2.2-2.9,4-3.5C157.9,33.5,156.2,33.3,154.5,33.5z"/>
</g>
<g>
	<path class="st6" d="M391.5,46.5c0.3,0,0.7,0,1,0c8-0.3,16,0,24,1c-2.2,1-4.6,1.3-7,1c-12.9-0.7-24.6,2.6-35,10
		c-7.3,4.6-13.9,9.9-20,16c-0.2-1.2,0.1-2.2,1-3c4.1-3.7,7.7-7.7,11-12C374.9,54.9,383.2,50.6,391.5,46.5z"/>
</g>
<g>
	<path class="st7" d="M212.5,49.5c3.1,0.2,4.1,1.5,3,4c0-1.3-0.7-2-2-2c-0.3,0-0.7,0-1,0C212.5,50.8,212.5,50.2,212.5,49.5z"/>
</g>
<g>
	<path class="st8" d="M409.5,48.5c0,0.3,0,0.7,0,1c-12.1-0.2-23.1,3.2-33,10c-0.3-0.8-1-1.2-2-1C384.9,51.1,396.6,47.8,409.5,48.5z"
		/>
</g>
<g>
	<path class="st9" d="M406.5,51.5c1.5,0.9,3.2,1.7,5,2.5c0.8,0.7,1.1,1.5,1,2.5c-0.7,0-1.3,0-2,0c-3.2-1.9-6.9-2.6-11-2
		C401.4,52.7,403.8,51.7,406.5,51.5z"/>
</g>
<g>
	<path class="st10" d="M391.5,46.5c-8.3,4.1-16.6,8.4-25,13C373.6,52.8,381.9,48.5,391.5,46.5z"/>
</g>
<g>
	<path class="st11" d="M447.5,49.5c7.5,0.4,13.2,3.9,17,10.5c4.2,2.6,8.5,4.9,13,7c8.3,7.9,15.3,16.7,21,26.5
		c-5.1-6.3-10.8-12.2-17-17.5c-8.9-4.9-17.2-10.6-25-17c-1.6-0.2-2.2,0.6-2,2.5c-3-0.3-5.7-1.5-8-3.5c-1.7-0.7-3.3-0.7-5,0
		c-1.3,2.7-2.7,5.3-4,8c14.2,0.4,26.2,5.6,36,15.5c-4-2-7.6-4.5-11-7.5c-13.7-7-27.7-8.2-42-3.5c-0.7-1.3-1.5-1.3-2.5,0
		c0-4.4,1.5-8.2,4.5-11.5c-0.2-0.4-0.6-0.6-1-0.5c2.3-3.7,5.6-6.2,10-7.5C436.6,48.3,442,47.8,447.5,49.5z"/>
</g>
<g>
	<path class="st12" d="M154.5,33.5c1.7-0.2,3.4,0,5,0.5c-1.8,0.6-3.1,1.8-4,3.5c-1.9,0.7-3.9,1.2-6,1.5c-2.2,3-5.2,4.6-9,5
		c-6.7,5.1-13.7,9.7-21,14c-9.3-0.7-15.3,3.3-18,12c-6.5,2.8-12.1,6.8-17,12c1.3,0.5,2.6,0.7,4,0.5c-2.1,0.7-4.1,1.7-6,3
		c0.1-0.4-0.1-0.8-0.5-1c-3.6,3.6-7.4,5.9-11.5,7c21.1-24.4,46.4-43.2,76-56.5C149.1,34.2,151.8,33.7,154.5,33.5z"/>
</g>
<g>
	<path class="st13" d="M213.5,51.5c1.3,0,2,0.7,2,2c0.7,1.3,1.5,1.3,2.5,0c0.1,2.4,0.9,3,2.5,2c0.9,1.3,1.5,2.6,2,4
		c-3-1.9-6.4-3.2-10-4C213.2,54.3,213.6,52.9,213.5,51.5z"/>
</g>
<g>
	<path class="st14" d="M399.5,54.5c-4.5,3.1-8.8,6.4-13,10c0-0.3,0-0.7,0-1c0.1-1.6,0.8-2.9,2-4C392,57.3,395.6,55.6,399.5,54.5z"/>
</g>
<g>
	<path class="st15" d="M211.5,59.5c-1.4,1.7-2.7,3.4-4,5c-1.8,2.5-2.8,5.5-3,9c-1.2-4-0.9-8,1-12c1.5-0.7,2.9-1.7,4-3
		C210.2,58.9,210.9,59.2,211.5,59.5z"/>
</g>
<g>
	<path class="st16" d="M410.5,56.5c0.7,0,1.3,0,2,0c-0.6,1.9-1.6,3.6-3,5C409.4,59.7,409.7,58,410.5,56.5z"/>
</g>
<g>
	<path class="st17" d="M222.5,59.5c1.7,1.4,3.4,2.7,5,4c-1,0-2,0-3,0c-1-0.3-1.7-1-2-2C222.5,60.8,222.5,60.2,222.5,59.5z"/>
</g>
<g>
	<path class="st18" d="M222.5,61.5c0.3,1,1,1.7,2,2c5.5,8.3,4.8,8.8-2,1.5c-0.7-0.7-1.3-0.7-2,0c-1.9,2.2-4.1,4-6.5,5.5
		c-0.1,3.1,0.4,6.1,1.5,9c-2.7-3-3.7-6.7-3-11c1-1.3,2-2.7,3-4C217.4,62.7,219.7,61.7,222.5,61.5z"/>
</g>
<g>
	<path class="st19" d="M119.5,46.5C102.8,57,87.6,69.7,74,84.5c-2.1,2.6-3.9,5.2-5.5,8c-1.6,1.1-3.1,2.5-4.5,4
		c-6.6,8.9-12.4,18.2-17.5,28c-0.7,0.7-1.3,1.3-2,2c1.3-4.5,3.1-8.9,5.5-13c8-11.3,16-22.7,24-34C84.3,68.2,95.4,58.1,107.5,49
		C111.4,47.5,115.4,46.7,119.5,46.5z"/>
</g>
<g>
	<path class="st20" d="M215.5,60.5c-6.9,3.8-8.6,9.1-5,16c-0.1,2.1,0.6,3.7,2,5c0.1,1.9-0.4,2.2-1.5,1c-1.5-2.6-2.6-5.2-3.5-8
		c-1.1-3.3-1.1-6.6,0-10c1.3-1.6,2.6-3.3,4-5c1-0.6,2-1.3,3-2C215.4,58.3,215.7,59.3,215.5,60.5z"/>
</g>
<g>
	<path class="st21" d="M409.5,61.5c0.1,2.1-0.6,3.7-2,5C407.1,64.2,407.7,62.6,409.5,61.5z"/>
</g>
<g>
	<path class="st22" d="M227.5,63.5c4.1,1.2,7.8,3.2,11,6C234.3,68.3,230.7,66.3,227.5,63.5z"/>
</g>
<g>
	<path class="st23" d="M366.5,59.5c-3.3,4.3-6.9,8.3-11,12c-0.9,0.8-1.2,1.8-1,3c-1,0-2,0-3,0C355.5,68.5,360.5,63.5,366.5,59.5z"/>
</g>
<g>
	<path class="st24" d="M215.5,60.5c0,1.3,0,2.7,0,4c-1,1.3-2,2.7-3,4c-1.9,2.1-2.5,4.8-2,8C206.9,69.6,208.6,64.3,215.5,60.5z"/>
</g>
<g>
	<path class="st25" d="M407.5,66.5c-0.1,1.7-0.5,3.4-1,5c-0.3,0-0.7,0-1,0C405.1,69.2,405.7,67.6,407.5,66.5z"/>
</g>
<g>
	<path class="st26" d="M386.5,63.5c0,0.3,0,0.7,0,1c-2.9,3.8-6.2,7.2-10,10c-0.1-1.4,0.3-2.8,1-4c2-2,4-4,6-6
		C384.4,63.9,385.4,63.5,386.5,63.5z"/>
</g>
<g>
	<path class="st27" d="M421.5,58.5c0.4-0.1,0.8,0.1,1,0.5c-3,3.3-4.5,7.1-4.5,11.5c1-1.3,1.8-1.3,2.5,0c-2.4,1.2-4.4,2.9-6,5
		c-1.4,1.5-2.1,1.2-2-1c0-0.7,0-1.3,0-2c1.4-3.6,2.9-7.2,4.5-11C418.3,60.1,419.8,59.1,421.5,58.5z"/>
</g>
<g>
	<path class="st28" d="M399.5,54.5c4.1-0.6,7.8,0.1,11,2c-0.8,1.5-1.1,3.2-1,5c-1.8,1.1-2.4,2.7-2,5c-1.8,1.1-2.4,2.7-2,5
		c-1,2.4-1.3,5.1-1,8c0,0.7,0,1.3,0,2c-0.8,0.8-1.3,1.8-1.5,3c-0.2,3.7-0.3,7.3-0.5,11c-0.2,5.6,0.5,10.9,2,16c0,1,0,2,0,3
		c0,6,0.5,12,1.5,18c0.3,0.9,0.8,1.6,1.5,2c0,0.3,0,0.7,0,1c-0.5,2.9,0.2,5.2,2,7c-0.2,3,0.5,5.7,2,8c1.6,6.4,3.6,12.8,6,19
		c0.6,3.6,1.6,7.1,3,10.5c0,1.1-0.4,1.9-1,2.5c-2-2.6-4.3-5-7-7c-1.2,3.3-1.3,6.6-0.5,10c3,6.1,6.5,11.7,10.5,17
		c0.2,2.4,1.2,4.4,3,6c1.2-4.2,1.2-8.3,0-12.5c0.3-1,1-1.5,2-1.5c-0.2,1.7,0.5,2.7,2,3c0.2,2.3,0.5,4.7,1,7c0.1,1.5,0.8,2.5,2,3
		c1.9,3.6,3.6,7.5,5,11.5c0.3,1,1,1.5,2,1.5c0,0.7,0,1.3,0,2c0.1,2.3,1.1,4,3,5c0,0.3,0,0.7,0,1c-0.2,4.6,1.5,8.2,5,11
		c0.5,3.8,1.5,7.5,3,11c-0.7,0-1.3,0-2,0c-1.5,4.8-0.8,9.5,2,14c1.3,1,2,2.3,2,4c2.2,0.1,4.2,0.8,6,2c0.7-1.1,1.3-2.1,2-3
		c1.1,0.7,1.7,1.7,2,3c0.7,2.2,1.7,4.2,3,6c0,1.3,0,2.7,0,4c-1,0-2,0-3,0c0,1,0,2,0,3c-3.2-0.2-6.2,0.4-9,2c-5.1-1.8-10.4-2.5-16-2
		c-1-4-3.7-5.7-8-5c-0.5-3.8-1.5-3.8-3,0c-0.3-0.2-0.7-0.3-1-0.5c-0.6-1.8-1.3-3.7-2-5.5c-1-1.4-2.4-2-4-2c-1,0-1.7-0.5-2-1.5
		c-3.8-9.8-8-19.3-12.5-28.5c-3.7-10.1-7.2-20.1-10.5-30c0.1-4.2-0.8-8.2-2.5-12c-0.7-0.8-1.5-1.1-2.5-1
		c-9.8-28.2-16.6-57.2-20.5-87c-0.6-5.7-0.5-11.4,0.5-17c2.4-6.4,4.8-12.7,7-19c3.8-2.8,7.1-6.2,10-10
		C390.7,60.9,395,57.6,399.5,54.5z"/>
</g>
<g>
	<path class="st29" d="M539.5,158.5c-1.5,0.8-2.2,2.1-2,4c0.6,5.4,1.2,10.7,2,16c-0.6,2.7-1.2,5.3-2,8c-0.8-1.2-1.3-2.6-1.5-4
		c-1.7,0.9-3.5,1.2-5.5,1c0.1-3.5,0.9-6.8,2.5-10c0.8-6.4,0.7-12.7-0.5-19c-1.3,2.6-2.4,5.3-3.5,8c-0.4-6-1.1-12-2-18
		c-0.6-1.5-1.4-2.8-2.5-4c-1.5,2-2.2,4.4-2,7c0.7,5.9,1.7,11.7,3,17.5c0,5-1.2,5.5-3.5,1.5c-0.2,2.7,0.3,5.4,1.5,8
		c-0.9,0.8-1.7,0.5-2.5-1c-1,2.9-1.2,5.7-0.5,8.5c-2.1,2.4-2.4,5.1-1,8c3.3,2,6,4.6,8,8c4.4,1.2,8,0.2,11-3c1.6-0.5,3.3-0.7,5-0.5
		c0-3.3,0-6.7,0-10c0.8,2.5,1.3,5.1,1.5,8c1.9,22.3,0.3,44.3-5,66c-4.2,15.5-13.1,27.5-26.5,36c-0.8-0.3-1.5-0.8-2-1.5
		c1.4-0.4,2.4-1.2,3-2.5c1.4-1.1,2.6-2.4,3.5-4c0.7-0.7,0.7-1.3,0-2c-5.4,4.6-11.5,6.8-18.5,6.5c10.1-2.7,16.9-8.9,20.5-18.5
		c0.7-1.3,0.7-2.7,0-4c-4.5,7.1-10,13.3-16.5,18.5c-1.3,0.7-2.7,0.7-4,0c1.7-1.1,2.2-2.6,1.5-4.5c-2.5,3.3-5.6,5.6-9.5,7
		c-1.1-0.9-1.7-2.1-2-3.5c1.3-2.3,2.9-4.3,5-6c4.4-1.4,6.9-4.2,7.5-8.5c-1.7,3.7-4.5,5.8-8.5,6.5c-2.3,3.9-5.6,5.4-10,4.5
		c0,1,0,2,0,3c-4.1-5.6-8.3-11.3-12.5-17c-0.7-0.7-0.7-1.3,0-2c1.6,1.5,2.9,3.2,4,5c0.2-0.3,0.3-0.7,0.5-1
		c-6.1-11.3-12.5-22.3-19-33c-4.1-13.8-9.3-27.1-15.5-40c-1.1-3.3-2-6.6-2.5-10c-0.1-1.9,0.4-2.2,1.5-1c5.8,9.4,12,18.6,18.5,27.5
		c2.1,7.7,3.6,15.5,4.5,23.5c3.5,7.3,6.6,14.6,9.5,22c2.5,2,4.8,4.1,7,6.5c4.6,1.5,9.2,1.8,14,1c4.7-3.3,8.9-7.1,12.5-11.5
		c1-1.9,1.3-3.9,1-6c-1.7,2.3-3.5,4.4-5.5,6.5c-0.9,0.7-1.6,0.5-2-0.5c4.9-5.1,8.2-11.1,10-18c1.2-0.1,2.1-0.7,2.5-2
		c0.5-4.9,1.7-9.5,3.5-14c0-6.7,0-13.3,0-20c1.3-1.4,2-3.2,2-5.5c-0.4-3.8-0.7-7.7-1-11.5c1.7-5.5,2.2-11.1,1.5-17
		c-2.3-10.1-4.9-20.1-8-30c-1.7-0.6-3-1.6-4-3c1.8,7.5,3.3,15.2,4.5,23c-1.8,0.1-3.4-0.2-5-1c-0.9,0.8-1.2,1.8-1,3
		c-4.7-6-10.4-11-17-15c-0.6-0.9-0.9-1.9-1-3c6.8,2.3,12.3,6.3,16.5,12c0.3-7.5-0.7-14.8-3-22c-3.3-6.9-6.3-13.9-9-21
		c-5.8-6.5-11.7-13-17.5-19.5c-6-4.3-12.6-6.3-20-6c-5.9-2.3-10.3-6.3-13-12c-10.7-3.7-19.3-1.2-26,7.5c0-1.7,0-3.3,0-5
		c1.6-2.1,3.6-3.8,6-5c14.3-4.7,28.3-3.5,42,3.5c3.4,3,7,5.5,11,7.5c-9.8-9.9-21.8-15.1-36-15.5c1.3-2.7,2.7-5.3,4-8
		c1.7-0.7,3.3-0.7,5,0c2.3,2,5,3.2,8,3.5c-0.2-1.9,0.4-2.7,2-2.5c7.8,6.4,16.1,12.1,25,17c6.2,5.3,11.9,11.2,17,17.5
		c-5.7-9.8-12.7-18.6-21-26.5c-4.5-2.1-8.8-4.4-13-7c-3.8-6.6-9.5-10.1-17-10.5c-3.4-2.9-7.4-3.7-12-2.5c-3.4,0.5-6.7,1.1-10,2
		c-3,2.5-6.3,4.3-10,5.5c3-4.4,7-7.5,12-9.5c29.8-4.3,54.6,4.9,74.5,27.5C520.7,98.3,533.2,127,539.5,158.5z"/>
</g>
<g>
	<path class="st30" d="M238.5,69.5c7.5,3.2,14.5,7.2,21,12C251.3,79.3,244.3,75.3,238.5,69.5z"/>
</g>
<g>
	<path class="st31" d="M205.5,61.5c-1.9,4-2.2,8-1,12c-0.4,4.2,0.2,8.2,2,12c-0.4,0.7-0.7,1.4-1,2c-0.2,1.3,0.2,2.5,1,3.5
		c-1,0.8-2,1.7-3,2.5c1.7,0.7,3.3,1.3,5,2c-0.2,0.6-0.5,1.1-1,1.5c1.3,2.6,2.8,5.1,4.5,7.5c0.5,1.6,0.7,3.3,0.5,5
		c0.2,1.2-0.1,2.2-1,3c-1.2-0.7-2.6-1.1-4-1c-2.3-4.3-3.5-9-3.5-14c-2.1-2.3-3.6-5-4.5-8c0.2-1.9,1.2-3.2,3-4c-2.7-1.8-5.7-3-9-3.5
		c2.1-0.4,4.1-1,6-2c-3.8-1.8-3.8-3.8,0-6c-1.1-1.7-1.2-3.6-0.5-5.5c1.3-2,2.7-4,4-6C203.8,61,204.7,60.7,205.5,61.5z"/>
</g>
<g>
	<path class="st32" d="M486.5,141.5c-5.4-14.9-10.9-29.9-16.5-45c-5.8-5.8-9-4.5-9.5,4c-1.5,7.8-2.5,15.8-3,24c0,4.3,0,8.7,0,13
		c-2-2.1-3.8-4.5-5.5-7c-1.7-1.3-3.3-1.3-5,0c-0.9,4.9-3.7,7.5-8.5,8c-0.7-8-5-12.3-13-13c-0.1,7.4,0.6,14.7,2,22
		c10.8,1.1,21.4,1.1,32,0c1.4,1.6,1,2.9-1,4c-0.8,2.8-1.5,5.6-2,8.5c0.1,1.3,0.8,2.1,2,2.5c0.2,1-0.2,1.7-1,2
		c-1.2,0.7-1.9,1.8-2,3.5c0.4,3.2,0.9,6.3,1.5,9.5c0.7,0.9,1.5,1.5,2.5,2c2.2,0.2,3.8,1.2,5,3c0.3,0.8,0.8,1.5,1.5,2
		c0.5,6.7,0.7,13.3,0.5,20c-0.8-3.8-1.3-7.8-1.5-12c-1.7,2.1-3.5,4.1-5.5,6c1.8,2,2.8,4.3,3,7c1.3,1.3,2.1,3,2.5,5
		c0.7,4.7,1.7,9.4,3,14c0.5-0.9,0.6-1.9,0.5-3c1,2.5,1.7,5.1,2,8c-1.1,1.4-1.3,3.1-0.5,5c2.6,8.3,6.1,16.1,10.5,23.5
		c3.7,0.9,7.3,1.2,11,1c-0.6-0.4-0.9-0.9-1-1.5c3.3,0.4,6.3-0.2,9-2c0.4,1,1.1,1.2,2,0.5c2-2.1,3.8-4.2,5.5-6.5c0.3,2.1,0,4.1-1,6
		c-3.6,4.4-7.8,8.2-12.5,11.5c-4.8,0.8-9.4,0.5-14-1c-2.2-2.4-4.5-4.5-7-6.5c-2.9-7.4-6-14.7-9.5-22c-0.9-8-2.4-15.8-4.5-23.5
		c-6.5-8.9-12.7-18.1-18.5-27.5c-1.1-1.2-1.6-0.9-1.5,1c-6.5-18-12.3-36.3-17.5-55c-0.2,1.6-0.7,2.9-1.5,4c0-2.6-1-4.6-3-6
		c1-0.1,1.8,0.2,2.5,1c-0.8-10-2.1-20-4-30c-0.5-7-0.7-14-0.5-21c6.7-8.7,15.3-11.2,26-7.5c2.7,5.7,7.1,9.7,13,12
		c7.4-0.3,14,1.7,20,6c5.8,6.5,11.7,13,17.5,19.5c2.7,7.1,5.7,14.1,9,21c2.3,7.2,3.3,14.5,3,22C498.8,147.8,493.3,143.8,486.5,141.5
		z"/>
</g>
<g>
	<path class="st33" d="M405.5,71.5c0.3,0,0.7,0,1,0c-0.3,2.9-1,5.5-2,8C404.2,76.6,404.5,73.9,405.5,71.5z"/>
</g>
<g>
	<path class="st34" d="M212.5,68.5c-0.7,4.3,0.3,8,3,11c-0.5,1.6-0.9,3.3-1,5c-0.1,1.8-0.8,2.2-2,1c1.2-1.5,1.2-2.8,0-4
		c-1.4-1.3-2.1-2.9-2-5C210,73.3,210.6,70.6,212.5,68.5z"/>
</g>
<g>
	<path class="st35" d="M260.5,81.5c1.9,0.8,3.5,1.8,5,3c-1.7,0-3.3,0-5,0C260.5,83.5,260.5,82.5,260.5,81.5z"/>
</g>
<g>
	<path class="st36" d="M224.5,63.5c1,0,2,0,3,0c3.2,2.8,6.8,4.8,11,6c5.8,5.8,12.8,9.8,21,12c0.3,0,0.7,0,1,0c0,1,0,2,0,3
		c1.7,0,3.3,0,5,0c0.8,2.2,2.5,3.2,5,3c1,1.7,2.5,3,4.5,4c8,3.6,15.9,7.6,23.5,12c8.2,4.1,16.5,7.8,25,11c0,1,0,2,0,3c1,0,2,0,3,0
		c0.4,11.1-0.2,22.1-2,33c-0.1-3.8-2.1-5.4-6-5c0.4-3-0.6-4-3-3c-1.2,2.9-2.9,5.6-5,8c-1.3,1.5-3,2.2-5,2c0,1.6-0.6,3-2,4
		c-4.3,1-8.6,1.3-13,1c0.4-0.7,1.1-1.2,2-1.5c-0.3-0.3-0.7-0.7-1-1c1.4-0.2,2.8-0.7,4-1.5c-3.9-1-7.9-1.3-12-1c0,1,0,2,0,3
		c-9.2,0.1-18.2,0.1-27,0c-2.8,2.1-5.8,2.4-9,1c-3.1-1.4-5.8-3.4-8-6c-1.1-2.9-2.5-5.8-4-8.5c-2.3-0.3-4.7-0.7-7-1
		c-0.8-1-1.2-2.2-1-3.5c-2,0-4,0-6,0c-0.9-1.3-1.6-2.8-2-4.5c0.5-5.8,0.5-11.6,0-17.5c0.1-4.2,0.7-8.2,2-12c-0.8-0.9-1.8-1.2-3-1
		c-0.1-2.5,0.6-4.9,2-7c-0.6-1.9-1.6-3.6-3-5c-1-2-2-4-3-6c0.1-1.7,0.5-3.4,1-5c-1.1-2.9-1.6-5.9-1.5-9c2.4-1.5,4.6-3.3,6.5-5.5
		c0.7-0.7,1.3-0.7,2,0C229.3,72.3,230,71.8,224.5,63.5z"/>
</g>
<g>
	<path class="st37" d="M207.5,74.5c0.9,2.8,2,5.4,3.5,8c1.1,1.2,1.6,0.9,1.5-1c1.2,1.2,1.2,2.5,0,4c1.2,1.2,1.9,0.8,2-1c1,2,2,4,3,6
		c-0.1,0.5-0.4,0.9-1,1c-0.8-0.9-1.3-1.9-1.5-3c-0.4,0.5-0.9,0.8-1.5,1c-3.8-3.4-6.5-7.6-8-12.5C205.7,75.6,206.4,74.8,207.5,74.5z"
		/>
</g>
<g>
	<path class="st38" d="M265.5,84.5c1.9,0.6,3.6,1.6,5,3C268,87.7,266.3,86.7,265.5,84.5z"/>
</g>
<g>
	<path class="st39" d="M404.5,81.5c0,10,0,20,0,30c-1.5-5.1-2.2-10.4-2-16c0.2-3.7,0.3-7.3,0.5-11C403.2,83.3,403.7,82.3,404.5,81.5
		z"/>
</g>
<g>
	<path class="st40" d="M157.5,39.5c-0.4,1.6-1.4,2.7-3,3.5c-12.5,7.1-24.8,14.4-37,22c-7,5.3-13.6,11-20,17c-6.9,3.9-13.6,8.3-20,13
		c-5.6,6.1-11.6,11.6-18,16.5c1.3-2.4,2.8-4.8,4.5-7c6.6-5.9,12.8-12.2,18.5-19c1.9-1.3,3.9-2.3,6-3c13.3-10,27-19.5,41-28.5
		C139,49.3,148.3,44.5,157.5,39.5z"/>
</g>
<g>
	<path class="st41" d="M447.5,49.5c-5.5-1.7-10.9-1.2-16,1.5c-4.4,1.3-7.7,3.8-10,7.5c-1.7,0.6-3.2,1.6-4.5,3
		c-1.6,3.8-3.1,7.4-4.5,11c-0.3-1.2-0.8-1.2-1.5,0c-1.2,1.8-2.3,3.7-3.5,5.5c2.1,3.9,2.5,7.9,1,12c0.7,8.8,1.2,17.6,1.5,26.5
		c0.3-0.3,0.7-0.7,1-1c0.2,6.7,2.2,12.7,6,18c0.3,3.7,0.1,7.3-0.5,11c-1.3,0.2-2.5-0.2-3.5-1c0-3.1-1-5.8-3-8
		c-1.5-7.1-3-14.1-4.5-21c-0.3,0-0.7,0-1,0c0-1,0-2,0-3c0-10,0-20,0-30c0-0.7,0-1.3,0-2c1-2.5,1.7-5.1,2-8c0.5-1.6,0.9-3.3,1-5
		c1.4-1.3,2.1-2.9,2-5c1.4-1.4,2.4-3.1,3-5c1-0.7,2-1.3,3-2c3.7-1.2,7-3,10-5.5c3.3-0.9,6.6-1.5,10-2
		C440.1,45.8,444.1,46.6,447.5,49.5z"/>
</g>
<g>
	<path class="st42" d="M473.5,81.5c4.6,3.1,8.7,6.7,12.5,11c0.7,0.7,0.7,1.3,0,2C481.6,90.3,477.5,86,473.5,81.5z"/>
</g>
<g>
	<path class="st43" d="M119.5,46.5c-4.1,0.2-8.1,1-12,2.5C95.4,58.1,84.3,68.2,74,79.5c-8,11.3-16,22.7-24,34
		c-2.4,4.1-4.2,8.5-5.5,13c-0.9,2.6-1.9,5.3-3,8c-2.2,3-3.8,6.3-5,10c-0.7,0.4-1.2,1.1-1.5,2c11.1-40.1,33.6-72.3,67.5-96.5
		c6.2-4.2,12.8-6.1,20-5.5C121.6,45.4,120.6,46.1,119.5,46.5z"/>
</g>
<g>
	<path class="st44" d="M207.5,64.5c-1.1,3.4-1.1,6.7,0,10c-1.1,0.3-1.8,1.1-2,2.5c1.5,4.9,4.2,9.1,8,12.5c0.6-0.2,1.1-0.5,1.5-1
		c0.2,1.1,0.7,2.1,1.5,3c0.6-0.1,0.9-0.5,1-1c1.4,1.4,2.4,3.1,3,5c-1.4,2.1-2.1,4.5-2,7c-1,2.8-1.3,5.8-1,9c-0.8-4.5-1.6-9.2-2.5-14
		c-2.1-2.8-3.8-5.8-5-9c-1.4-0.9-2.9-1.2-4.5-1c0.3-0.6,0.6-1.3,1-2c-1.8-3.8-2.4-7.8-2-12C204.7,70,205.7,67,207.5,64.5z"/>
</g>
<g>
	<path class="st45" d="M82.5,85.5c-5.7,6.8-11.9,13.1-18.5,19c-1.7,2.2-3.2,4.6-4.5,7c-1.1,2.7-3.1,4.4-6,5c4.5-8.3,9.5-16.3,15-24
		c0.7-0.3,1.3-0.7,2-1c4.1-1.1,7.9-3.4,11.5-7C82.4,84.7,82.6,85.1,82.5,85.5z"/>
</g>
<g>
	<path class="st46" d="M470.5,110.5c2.2,2.1,3.7,4.8,4.5,8c3.3,10.3,3.3,20.7,0,31c-0.7,1.8-1.8,3.2-3.5,4c-2.1-0.2-4.1-0.4-6-0.5
		c1.4,1.6,2,3.4,2,5.5c-4.6-6.2-7.3-13.2-8-21c-0.4-12.1,0.3-24.1,2-36c-0.1-7.1,2.4-8.5,7.5-4c0.9,3.8,2,7.4,3.5,11
		c-0.3,1.2-0.8,1.2-1.5,0C470.5,109.1,470.4,109.8,470.5,110.5z"/>
</g>
<g>
	<path class="st47" d="M167.5,33.5c-1,0-2,0-3,0c-0.7,0-1.3,0-2,0c-2.7-1.3-5.3-1.3-8,0c-2.7,0.2-5.4,0.7-8,1.5
		c-29.6,13.3-54.9,32.1-76,56.5c-0.7,0.3-1.3,0.7-2,1c1.6-2.8,3.4-5.4,5.5-8c13.6-14.8,28.8-27.5,45.5-38c1.1-0.4,2.1-1.1,3-2
		c-7.2-0.6-13.8,1.3-20,5.5C68.6,74.2,46.1,106.4,35,146.5c0.3-0.9,0.8-1.6,1.5-2c-13.4,29.8-16.8,60.8-10,93
		c0.6,11.6,4.1,22.3,10.5,32c2.8,2.1,4.8,4.8,6,8c4,4.7,9.2,7,15.5,7c5.1,2.6,10.5,4.6,16,6c0,1,0,2,0,3c-10.3-3.5-20.6-7-31-10.5
		C28,264.8,19.8,243.6,19,219.5C17.4,165,34,117,69,75.5C81.9,61.2,97.1,50,114.5,42c5-0.3,10-0.7,15-1c6.6-3.8,13.6-6.8,21-9
		C156.4,31.1,162.1,31.6,167.5,33.5z"/>
</g>
<g>
	<path class="st48" d="M351.5,74.5c1,0,2,0,3,0c-2.3,4.6-5.1,9-8.5,13c-6.9,11.4-9.4,23.7-7.5,37c-0.8-7.2-1.3-14.5-1.5-22
		c-0.1,1.9-1,3.3-2.5,4c3.6-10.6,9.1-20.3,16.5-29C351.5,76.6,351.6,75.6,351.5,74.5z"/>
</g>
<g>
	<path class="st49" d="M68.5,92.5c-5.5,7.7-10.5,15.7-15,24c0,1,0,2,0,3c-3.2,0-4.9,1.7-5,5c-0.7,0-1.3,0-2,0
		c5.1-9.8,10.9-19.1,17.5-28C65.4,95,66.9,93.6,68.5,92.5z"/>
</g>
<g>
	<path class="st50" d="M225.5,104.5c6-0.3,12,0,18,1c-3,0.3-6,0.7-9,1C231.1,106.5,228.1,105.8,225.5,104.5z"/>
</g>
<g>
	<path class="st51" d="M351.5,74.5c0.1,1.1,0,2.1-0.5,3c-7.4,8.7-12.9,18.4-16.5,29c-2.9,4.5-4.7,9.5-5.5,15c0-3.9-1.8-6.3-5.5-7
		c-8.5-3.2-16.8-6.9-25-11c-7.6-4.4-15.5-8.4-23.5-12c-2-1-3.5-2.3-4.5-4c18.3,9.1,36.8,17.7,55.5,26c5-7.6,9.7-15.6,14-24
		C343.4,84.1,347.2,79.1,351.5,74.5z"/>
</g>
<g>
	<path class="st52" d="M366.5,94.5c-1.3,5.7-1.3,11.4,0,17c-1.3-2.4-2-5.2-2-8.5C364.5,99.7,365.2,96.9,366.5,94.5z"/>
</g>
<g>
	<path class="st53" d="M498.5,93.5c9.1,8.9,16.3,19.2,21.5,31c0.7,1.1,0.6,2.1-0.5,3c-3.8-10.3-9.7-19.3-17.5-27
		C500.3,98.4,499.1,96.1,498.5,93.5z"/>
</g>
<g>
	<path class="st54" d="M412.5,74.5c-0.1,2.2,0.6,2.5,2,1c0,1.7,0,3.3,0,5c-0.2,7,0,14,0.5,21c1.9,10,3.2,20,4,30
		c-0.7-0.8-1.5-1.1-2.5-1c-1.7-10.9-3.2-21.9-4.5-33C411.2,89.7,411.3,82,412.5,74.5z"/>
</g>
<g>
	<path class="st55" d="M212.5,109.5c1.7,3.8,2.5,7.8,2.5,12c-1.1-2.5-2.4-4.8-4-7c-0.3,1-0.7,2-1,3c-1.6-1.7-2.4-3.7-2.5-6
		c1.4-0.1,2.8,0.3,4,1C212.4,111.7,212.7,110.7,212.5,109.5z"/>
</g>
<g>
	<path class="st56" d="M470.5,110.5c1.3,3.3,2.4,6.6,3.5,10c0.9,3.4,0.7,5.1-0.5,5c-1-0.8-1.8-1.8-2.5-3c-0.7-3.5-1.8-6.8-3.5-10
		c-0.5-0.8-1.1-1.1-2-1C466.6,109.2,468.3,108.8,470.5,110.5z"/>
</g>
<g>
	<path class="st57" d="M156.5,98.5c1.3,1.6,2.3,3.4,3,5.5c1.9,6.9,3.3,13.7,4,20.5c-1.7-1.9-2.7-4-3-6.5
		C158.7,111.6,157.4,105.1,156.5,98.5z"/>
</g>
<g>
	<path class="st58" d="M460.5,100.5c0,0.7,0.3,1,1,1c-1.7,11.9-2.4,23.9-2,36c-0.7-4.3-1.3-8.7-2-13
		C458,116.3,459,108.3,460.5,100.5z"/>
</g>
<g>
	<path class="st59" d="M46.5,124.5c0.7,0,1.3,0,2,0c0,1.7,0,3.3,0,5c-1,0-2,0-3,0c0,1.7,0,3.3,0,5c-1.3,0-2.7,0-4,0
		c1.1-2.7,2.1-5.4,3-8C45.2,125.8,45.8,125.2,46.5,124.5z"/>
</g>
<g>
	<path class="st60" d="M404.5,114.5c0.3,0,0.7,0,1,0c0.5,6.7,1.2,13.4,2,20c-0.7-0.4-1.2-1.1-1.5-2
		C405,126.5,404.5,120.5,404.5,114.5z"/>
</g>
<g>
	<path class="st61" d="M465.5,111.5c0.9-0.1,1.5,0.2,2,1c1.7,3.2,2.8,6.5,3.5,10c0.7,1.2,1.5,2.2,2.5,3c-1,2.8-1.3,5.8-1,9
		c-2.9-0.4-5.4,0.2-7.5,2c0,4.5,0.9,8.8,2.5,13c-1.8-1.9-3-4.2-3.5-7c-2-10-2-20,0-30C464.4,111.9,464.9,111.6,465.5,111.5z"/>
</g>
<g>
	<path class="st62" d="M41.5,134.5c-0.1,4.2-1.8,7.6-5,10C37.7,140.8,39.3,137.5,41.5,134.5z"/>
</g>
<g>
	<path class="st63" d="M218.5,102.5c1.2-0.2,2.2,0.1,3,1c-1.3,3.8-1.9,7.8-2,12c0.5,5.9,0.5,11.7,0,17.5c0.4,1.7,1.1,3.2,2,4.5
		c2.9,2.1,5.8,4.4,8.5,7c0.7,0.7,0.7,1.3,0,2c-4.3-2.9-8.5-5.9-12.5-9c0-8.7,0-17.3,0-26C217.2,108.3,217.5,105.3,218.5,102.5z"/>
</g>
<g>
	<path class="st64" d="M407.5,135.5c1.1,2.1,1.8,4.4,2,7C407.7,140.7,407,138.4,407.5,135.5z"/>
</g>
<g>
	<path class="st65" d="M457.5,137.5c0.8,3.3,1.5,6.6,2,10c-10.6,1.1-21.2,1.1-32,0c-1.4-7.3-2.1-14.6-2-22c8,0.7,12.3,5,13,13
		c4.8-0.5,7.6-3.1,8.5-8c1.7-1.3,3.3-1.3,5,0C453.7,133,455.5,135.4,457.5,137.5z"/>
</g>
<g>
	<path class="st66" d="M539.5,158.5c1.8,8.6,3.2,17.2,4,26c0,3.3,0,6.7,0,10c-1.7-0.2-3.4,0-5,0.5c-3,3.2-6.6,4.2-11,3
		c-2-3.4-4.7-6-8-8c-1.4-2.9-1.1-5.6,1-8c-0.7-2.8-0.5-5.6,0.5-8.5c0.8,1.5,1.6,1.8,2.5,1c-1.2-2.6-1.7-5.3-1.5-8
		c2.3,4,3.5,3.5,3.5-1.5c-1.3-5.8-2.3-11.6-3-17.5c-0.2-2.6,0.5-5,2-7c1.1,1.2,1.9,2.5,2.5,4c0.9,6,1.6,12,2,18
		c1.1-2.7,2.2-5.4,3.5-8c1.2,6.3,1.3,12.6,0.5,19c-1.6,3.2-2.4,6.5-2.5,10c2,0.2,3.8-0.1,5.5-1c0.2,1.4,0.7,2.8,1.5,4
		c0.8-2.7,1.4-5.3,2-8c-0.8-5.3-1.4-10.6-2-16C537.3,160.6,538,159.3,539.5,158.5z"/>
</g>
<g>
	<path class="st67" d="M545.5,178.5c0,5.6,0.7,10.9,2,16c2.8,24.3,0.3,47.9-7.5,71c-7.8,17.2-20.3,29.7-37.5,37.5
		c-1.8,0.2-3.7,0.3-5.5,0.5c-3.9-0.2-7.8-0.9-11.5-2c0-1.7,0-3.3,0-5c9.8,5.7,19.1,5,28-2c13.4-8.5,22.3-20.5,26.5-36
		c5.3-21.7,6.9-43.7,5-66c-0.2-2.9-0.7-5.5-1.5-8c-0.8-8.8-2.2-17.4-4-26c-6.3-31.5-18.8-60.2-37.5-86
		c-19.9-22.6-44.7-31.8-74.5-27.5c-5,2-9,5.1-12,9.5c-1,0.7-2,1.3-3,2c0.1-1-0.2-1.8-1-2.5c-1.8-0.8-3.5-1.6-5-2.5
		c2.1,0.3,4.1,0,6-1c-0.8-0.9-1.8-1.2-3-1c0-0.3,0-0.7,0-1c2.4,0.3,4.8,0,7-1c-8-1-16-1.3-24-1c0.4-0.7,1.1-1.2,2-1.5
		c3.2-0.2,6.3-0.3,9.5-0.5c5.8,0.4,11.7,0.6,17.5,0.5c2.7-1.9,5.7-3.2,9-4c38.7-0.7,67.6,15.8,86.5,49.5
		C531.9,118,541.4,147.4,545.5,178.5z"/>
</g>
<g>
	<path class="st68" d="M412.5,72.5c0,0.7,0,1.3,0,2c-1.2,7.5-1.3,15.2-0.5,23c1.3,11.1,2.8,22.1,4.5,33c2,1.4,3,3.4,3,6
		c1.7,8.5,4.1,16.8,7,25c-2.8-3-4.8-6.5-6-10.5c-2.7,0.1-4.5-1.1-5.5-3.5c-0.5,2.1,0,3.9,1.5,5.5c-0.3,0.5-0.7,1-1,1.5
		c-1.2-2.3-2.3-4.7-3.5-7c-0.5,0.9-0.6,1.9-0.5,3c-1.5-2.3-2.2-5-2-8c-0.2-2.6-0.9-4.9-2-7c0-0.3,0-0.7,0-1c-0.8-6.6-1.5-13.3-2-20
		c1.5,6.9,3,13.9,4.5,21c2,2.2,3,4.9,3,8c1,0.8,2.2,1.2,3.5,1c0.6-3.7,0.8-7.3,0.5-11c-3.8-5.3-5.8-11.3-6-18c-0.3,0.3-0.7,0.7-1,1
		c-0.3-8.9-0.8-17.7-1.5-26.5c1.5-4.1,1.1-8.1-1-12c1.2-1.8,2.3-3.7,3.5-5.5C411.7,71.3,412.2,71.3,412.5,72.5z"/>
</g>
<g>
	<path class="st69" d="M515.5,201.5c0.2-4,0-8-0.5-12c-3.8-9.9-7.3-19.9-10.5-30c-0.2-1.2,0.1-2.2,1-3c1.6,0.8,3.2,1.1,5,1
		c-1.2-7.8-2.7-15.5-4.5-23c1,1.4,2.3,2.4,4,3c3.1,9.9,5.7,19.9,8,30c0.7,5.9,0.2,11.5-1.5,17c0.3,3.8,0.6,7.7,1,11.5
		C517.5,198.3,516.8,200.1,515.5,201.5z"/>
</g>
<g>
	<path class="st70" d="M467.5,149.5c0.9,1.1,1.7,1.1,2.5,0c0.8-4.5,2.1-8.9,4-13c0.7,4.4,0.4,8.7-1,13
		C471,153.5,469.1,153.5,467.5,149.5z"/>
</g>
<g>
	<path class="st71" d="M487.5,151.5c0.4,2.5,1.1,4.8,2,7c1.9,7.6,2.2,15.3,1,23c-0.8-0.3-1.2-1-1-2c0.2-5,0-10-0.5-15
		c-0.3,2-0.7,4-1,6c-0.7-3-1-6-1-9c0.6,2.1,1.1,2.3,1.5,0.5c-1.3-5.1-3.3-9.9-6-14.5c-1.1-0.8-2.3-1.4-3.5-2c-0.7-6.7-0.7-13.3,0-20
		C482.5,134,485.3,142.6,487.5,151.5z"/>
</g>
<g>
	<path class="st72" d="M172.5,154.5c-1.5,0.3-2.2,1.3-2,3c-1.5-6.5-2.6-13.2-3.5-20C169,143.2,170.8,148.9,172.5,154.5z"/>
</g>
<g>
	<path class="st73" d="M487.5,144.5c6.6,4,12.3,9,17,15c3.2,10.1,6.7,20.1,10.5,30c0.5,4,0.7,8,0.5,12c0,6.7,0,13.3,0,20
		c0.2-20.3-4.3-39.6-13.5-58c-2.7-4.6-6.6-7.9-11.5-10c-1.1,1.3-1.1,2.6,0,4c-0.7,0-1,0.3-1,1c-0.9-2.2-1.6-4.5-2-7
		C488.4,149.3,488.4,147,487.5,144.5z"/>
</g>
<g>
	<path class="st74" d="M476.5,151.5c-2.5,10.6-1,20.6,4.5,30c0.3,2,0.7,4,1,6c2.1,2.5,3.9,2.5,5.5,0c0.3-2.9,1-5.5,2-8
		c-0.2,1,0.2,1.7,1,2c-2.9,5.7-2.6,11,1,16c-0.5,1.5-1.2,2.9-2,4c-1.4-0.3-2.9-0.6-4.5-1c-2.8-9.1-5.8-18.1-9-27
		c-2.4-5.4-5.2-10.4-8.5-15c0-2.1-0.6-3.9-2-5.5c1.9,0.1,3.9,0.3,6,0.5c-0.4,0.7-1.1,1.2-2,1.5C472.8,155.8,475.2,154.7,476.5,151.5
		z"/>
</g>
<g>
	<path class="st75" d="M324.5,150.5c-2.6,5.6-5.9,10.6-10,15c-2.2-1.4-4.7-2.4-7.5-3c-12.2-1.5-24.3-2.8-36.5-4c6.6-1,13.3-1.3,20-1
		c4.4,0.3,8.7,0,13-1c1.4-1,2-2.4,2-4c2,0.2,3.7-0.5,5-2c2.1-2.4,3.8-5.1,5-8c2.4-1,3.4,0,3,3C322.4,145.1,324.4,146.7,324.5,150.5z
		"/>
</g>
<g>
	<path class="st76" d="M334.5,106.5c-3.7,15.2-6.5,30.5-8.5,46c-2.8,4.1-4.6,8.6-5.5,13.5c-2.5,2.4-4.4,5.2-5.5,8.5
		c-3.4,7.9-6.2,15.9-8.5,24c-1.3,1.4-3,2.1-5,2c0-1.7,0-3.3,0-5c1,0,2,0,3,0c0.6-3.6,1.1-7.3,1.5-11c0.7-1.5,1.9-2.1,3.5-2
		c0.2-2.8,0.9-5.5,2-8c1.8-1.8,2.5-4.1,2-7c-8.5,0.5-16.8-0.3-25-2.5c8.6,0.2,17.3,0.4,26,0.5c4.1-4.4,7.4-9.4,10-15
		c1.8-10.9,2.4-21.9,2-33c-1,0-2,0-3,0c0-1,0-2,0-3c3.7,0.7,5.5,3.1,5.5,7C329.8,116,331.6,111,334.5,106.5z"/>
</g>
<g>
	<path class="st77" d="M464.5,157.5c-0.8,6.3-0.9,12.7-0.5,19c3.3,2.4,6.8,4.4,10.5,6c1.3,1.6,2.3,3.4,3,5.5c-0.5,0.2-1,0.3-1.5,0.5
		c-3.8-2.1-7.6-4.1-11.5-6c-1.2-1.8-2.8-2.8-5-3c-1.7-4.8-2.4-9.8-2-15c0.8-0.3,1.2-1,1-2c0-3.3,0-6.7,0-10
		C462.3,152,464.3,153.6,464.5,157.5z"/>
</g>
<g>
	<path class="st78" d="M230.5,172.5c3.3-1.7,6.7-3.3,10-5c5.7-0.6,11.3-1.5,17-2.5c4.3-0.7,8.7-0.7,13,0c-9.7,1.8-19.3,3.4-29,5
		c-3.2,1.4-6.4,2.9-9.5,4.5C231,174.2,230.5,173.5,230.5,172.5z"/>
</g>
<g>
	<path class="st79" d="M477.5,156.5c0.3-2.6,0-4.9-1-7c0.5-1,1-2,1.5-3c0.2,3.1,0.7,6.1,1.5,9c0.7-0.3,1.3-0.7,2-1
		c1.2,1.2,1.2,2.3,0,3.5c1.7,1.3,3.4,1.8,5,1.5c0.4,7.7-0.1,15.3-1.5,23C480.9,174.1,478.4,165.4,477.5,156.5z"/>
</g>
<g>
	<path class="st80" d="M464.5,157.5c4.7,7.7,8,16,10,25c-3.7-1.6-7.2-3.6-10.5-6C463.6,170.2,463.7,163.8,464.5,157.5z"/>
</g>
<g>
	<path class="st81" d="M172.5,154.5c0.3,8.4,0,16.7-1,25c-1-7.3-1.3-14.6-1-22C170.3,155.8,171,154.8,172.5,154.5z"/>
</g>
<g>
	<path class="st82" d="M476.5,149.5c1,2.1,1.3,4.4,1,7c-0.2,4,0,8,0.5,12c2.5,5.9,4.9,11.9,7,18c0.7,0.8,1.5,1.1,2.5,1
		c-1.6,2.5-3.4,2.5-5.5,0c-0.3-2-0.7-4-1-6c-5.5-9.4-7-19.4-4.5-30C476.5,150.8,476.5,150.2,476.5,149.5z"/>
</g>
<g>
	<path class="st83" d="M457.5,164.5c-0.4,5.2,0.3,10.2,2,15c-1-0.5-1.8-1.1-2.5-2c-0.6-3.2-1.1-6.3-1.5-9.5
		C455.6,166.3,456.3,165.2,457.5,164.5z"/>
</g>
<g>
	<path class="st84" d="M376.5,74.5c-2.2,6.3-4.6,12.6-7,19c-1,5.6-1.1,11.3-0.5,17c3.9,29.8,10.7,58.8,20.5,87c-0.2,1.7,0,3.4,0.5,5
		c1.4,2.9,2.9,5.6,4.5,8c3.3,9.9,6.8,19.9,10.5,30c4.5,9.2,8.7,18.7,12.5,28.5c0.3,1,1,1.5,2,1.5c2.9,7.6,6.4,14.9,10.5,22
		c3,3.9,6.2,7.5,9.5,11c-1.4,0.2-2.7,0-4-0.5c-3.1-3-5.7-6.2-8-9.5c-15.1-27.6-28.1-56.3-39-86c-3-10-6-20-9-30
		c0.1-3.8-0.9-7.1-3-10c-1.4-8.8-3.4-17.4-6-26c-1.5-10-2.8-20-4-30c-1.3-5.6-1.3-11.3,0-17C367,86.3,370.3,79.6,376.5,74.5z"/>
</g>
<g>
	<path class="st85" d="M311.5,174.5c-1.1,2.5-1.8,5.2-2,8c-1.6-0.1-2.8,0.5-3.5,2c-0.4,3.7-0.9,7.4-1.5,11c-1,0-2,0-3,0
		c0,1.7,0,3.3,0,5c2,0.1,3.7-0.6,5-2c0,1.1-0.4,2.1-1,3c-2.9,1.5-5.9,2.5-9,3c-3.6,9.8-7.9,19.1-13,28c-1-0.1-1.8,0.2-2.5,1
		c-0.2,2.1-0.7,4.1-1.5,6c-1.8,1.8-3.1,3.8-4,6c0,1-0.5,1.7-1.5,2c-1.6-1.4-3.4-2-5.5-2c0,1,0,2,0,3c-2.6,0.1-5.1,0.7-7.5,2
		c-7-1.7-14.1-2.7-21.5-3c-3.2-0.9-6.2-2.3-9-4c-5.6-1.1-6.3-3.6-2-7.5c11.8,0,23.5-0.8,35-2.5c0-1,0-2,0-3c2.3,0,4.7,0,7,0
		c0-1,0-2,0-3c4.6-0.1,7.2-2.4,8-7c1.7,0,3.3,0,5,0c2.5-5.5,5.5-10.9,9-16c1-2.2,1.3-4.6,1-7c-5-0.3-10,0-15,1
		c-10.1,8.1-21.8,12.1-35,12c0-1,0-2,0-3c-8.7,0-17.3,0-26,0c0.2-1.2-0.1-2.2-1-3c-1.7-0.7-3.3-1.3-5-2c-1.3-1-1.3-2,0-3
		c4.9-2.4,9.5-5,14-8c1.5-1,3.2-1.3,5-1c0-1,0-2,0-3c3.7,0.3,6.3-1.2,8-4.5c2.7-0.3,5.3-0.7,8-1c1.5-1.1,2.2-2.6,2-4.5
		c5.2-1.3,10.2-3.2,15-5.5c11-1.7,22-1.8,33-0.5c0,1,0,2,0,3C301.5,174.5,306.5,174.5,311.5,174.5z"/>
</g>
<g>
	<path class="st86" d="M376.5,167.5c2.1,2.9,3.1,6.2,3,10C377.7,174.5,376.7,171.2,376.5,167.5z"/>
</g>
<g>
	<path class="st87" d="M76.5,174.5c6.9,4.6,13.6,9.6,20,15c-1.1,1.1-2.4,1.3-4,0.5c-6-4-12-8-18-12c-4.8-1.9-9.8-3.2-15-4
		c1.6-0.2,2.9-0.7,4-1.5c3.3,0.2,6.7,0,10-0.5C75.4,170.7,76.4,171.5,76.5,174.5z"/>
</g>
<g>
	<path class="st88" d="M490.5,157.5c5,2.8,8.8,6.8,11.5,12c9.6,20.9,12.1,42.6,7.5,65c0.1-1.9-0.3-3.7-1-5.5c1.4-2.3,2-4.8,2-7.5
		c-1.6-5.9-2.3-11.9-2-18c-4.1,0.1-8.1,0.2-12,0.5c-1-4.1-1.3-8.2-1-12.5c1.3,0.2,2.5-0.2,3.5-1c0-5.8,0.9-11.5,2.5-17
		c-7.5-15.9-9.5-15.6-6,1c-2.1,3.7-3.1,7.7-3,12c0.1,2.5,0.8,4.9,2,7c-1.3,3.7-2.3,7.4-3,11c-0.4-2.3-1-2.2-2,0.5
		c-2.6,2-5.1,1.9-7.5-0.5c-0.7-1.2-0.6-2.2,0.5-3c0.1,2.2,1.2,3.2,3.5,3c2.3,0.2,3.4-0.8,3.5-3c0.8-1.1,1.5-2.5,2-4
		c-3.6-5-3.9-10.3-1-16c1.2-7.7,0.9-15.4-1-23C489.5,157.8,489.8,157.5,490.5,157.5z"/>
</g>
<g>
	<path class="st89" d="M426.5,161.5c5.5,15.2,10.9,30.6,16,46c0.1,0.7,0,1.4-0.5,2c-5.7-5-9-11.4-10-19c-4.9-7-8-14.7-9.5-23
		c-1,0-2,0-3,0c0,1.3,0,2.7,0,4c-0.7-0.7-1.3-1.3-2-2c-2.4-6.2-4.4-12.6-6-19c-0.1-1.1,0-2.1,0.5-3c1.2,2.3,2.3,4.7,3.5,7
		c0.3-0.5,0.7-1,1-1.5c-1.5-1.6-2-3.4-1.5-5.5c1,2.4,2.8,3.6,5.5,3.5C421.7,155,423.7,158.5,426.5,161.5z"/>
</g>
<g>
	<path class="st90" d="M438.5,187.5c0.5,3.4,1.4,6.7,2.5,10c6.2,12.9,11.4,26.2,15.5,40c-0.7-0.7-1.3-1.3-2-2
		c-3.6-9.6-7.6-18.9-12-28c-5.1-15.4-10.5-30.8-16-46c-2.9-8.2-5.3-16.5-7-25c0.8-1.1,1.3-2.4,1.5-4
		C426.2,151.2,432,169.5,438.5,187.5z"/>
</g>
<g>
	<path class="st91" d="M486.5,141.5c0.1,1.1,0.4,2.1,1,3c0.9,2.5,0.9,4.8,0,7c-2.2-8.9-5-17.5-8.5-26c-0.7,6.7-0.7,13.3,0,20
		c1.2,0.6,2.4,1.2,3.5,2c2.7,4.6,4.7,9.4,6,14.5c-0.4,1.8-0.9,1.6-1.5-0.5c0,3,0.3,6,1,9c0.3-2,0.7-4,1-6c0.5,5,0.7,10,0.5,15
		c-1,2.5-1.7,5.1-2,8c-1,0.1-1.8-0.2-2.5-1c-2.1-6.1-4.5-12.1-7-18c-0.5-4-0.7-8-0.5-12c0.9,8.9,3.4,17.6,7.5,26
		c1.4-7.7,1.9-15.3,1.5-23c-1.6,0.3-3.3-0.2-5-1.5c1.2-1.2,1.2-2.3,0-3.5c-0.7,0.3-1.3,0.7-2,1c-0.8-2.9-1.3-5.9-1.5-9
		c-0.5,1-1,2-1.5,3c0,0.7,0,1.3,0,2c-1.3,3.2-3.7,4.3-7,3.5c0.9-0.3,1.6-0.8,2-1.5c1.7-0.8,2.8-2.2,3.5-4c3.3-10.3,3.3-20.7,0-31
		c-0.8-3.2-2.3-5.9-4.5-8c-0.1-0.7,0-1.4,0.5-2c0.7,1.2,1.2,1.2,1.5,0c-1.5-3.6-2.6-7.2-3.5-11c-5.1-4.5-7.6-3.1-7.5,4
		c-0.7,0-1-0.3-1-1c0.5-8.5,3.7-9.8,9.5-4C475.6,111.6,481.1,126.6,486.5,141.5z"/>
</g>
<g>
	<path class="st92" d="M467.5,158.5c3.3,4.6,6.1,9.6,8.5,15c3.2,8.9,6.2,17.9,9,27c1.6,0.4,3.1,0.7,4.5,1c-0.1,2.2-1.2,3.2-3.5,3
		c-2.3,0.2-3.4-0.8-3.5-3c0.2-1-0.2-1.7-1-2C478,185.4,473.4,171.7,467.5,158.5z"/>
</g>
<g>
	<path class="st93" d="M515.5,221.5c-1.8,4.5-3,9.1-3.5,14c-0.4,1.3-1.2,1.9-2.5,2c0-0.7,0-1.3,0-2c0-0.3,0-0.7,0-1
		c4.6-22.4,2.1-44.1-7.5-65c-2.7-5.2-6.5-9.2-11.5-12c-1.1-1.4-1.1-2.7,0-4c4.9,2.1,8.8,5.4,11.5,10
		C511.2,181.9,515.7,201.2,515.5,221.5z"/>
</g>
<g>
	<path class="st94" d="M545.5,178.5c1.5,5.1,2.1,10.4,2,16C546.2,189.4,545.5,184.1,545.5,178.5z"/>
</g>
<g>
	<path class="st95" d="M422.5,181.5c2.4,3.2,4.1,6.9,5,11c-1.2-0.1-2.1-0.7-2.5-2C423.6,187.6,422.7,184.6,422.5,181.5z"/>
</g>
<g>
	<path class="st96" d="M419.5,182.5c4.3,7.1,6.2,14.7,5.5,23c-0.4-1.4-1.2-2.4-2.5-3c-4-5.3-7.5-10.9-10.5-17
		c-0.8-3.4-0.7-6.7,0.5-10C415.2,177.5,417.5,179.9,419.5,182.5z"/>
</g>
<g>
	<path class="st97" d="M217.5,137.5c4,3.1,8.2,6.1,12.5,9c0.7-0.7,0.7-1.3,0-2c-2.7-2.6-5.6-4.9-8.5-7c2,0,4,0,6,0
		c-0.2,1.3,0.2,2.5,1,3.5c2.3,0.3,4.7,0.7,7,1c1.5,2.7,2.9,5.6,4,8.5c2.2,2.6,4.9,4.6,8,6c3.2,1.4,6.2,1.1,9-1
		c8.8,0.1,17.8,0.1,27,0c0-1,0-2,0-3c4.1-0.3,8.1,0,12,1c-1.2,0.8-2.6,1.3-4,1.5c0.3,0.3,0.7,0.7,1,1c-0.9,0.3-1.6,0.8-2,1.5
		c-6.7-0.3-13.4,0-20,1c12.2,1.2,24.3,2.5,36.5,4c2.8,0.6,5.3,1.6,7.5,3c-8.7-0.1-17.4-0.3-26-0.5c8.2,2.2,16.5,3,25,2.5
		c0.5,2.9-0.2,5.2-2,7c-5,0-10,0-15,0c0-1,0-2,0-3c-11-1.3-22-1.2-33,0.5c-4.8,2.3-9.8,4.2-15,5.5c0.2,1.9-0.5,3.4-2,4.5
		c-2.7,0.3-5.3,0.7-8,1c-1.7,3.3-4.3,4.8-8,4.5c0,1,0,2,0,3c-1.8-0.3-3.5,0-5,1c-4.5,3-9.1,5.6-14,8c-1.3,1-1.3,2,0,3
		c1.7,0.7,3.3,1.3,5,2c0.9,0.8,1.2,1.8,1,3c8.7,0,17.3,0,26,0c0,1,0,2,0,3c-10.1,0.4-20.1-0.4-30-2.5c-1-2.3-2.7-4-5-5
		c-5-0.7-10-0.7-15,0c-1.1,1-2.2,1.8-3.5,2.5c-2.2,6.2-3.9,12.5-5,19c-1-0.7-2-1.3-3-2c-2.6,4.2-6.5,6.2-11.5,6c0-1.3,0-2.7,0-4
		c0.8,0.9,1.6,1.9,2.5,3c2.7-0.7,4.9-2.2,6.5-4.5c-0.5-1.6-1.2-3.1-2-4.5c2.5-0.7,5-1.4,7.5-2c0.3-3.5,0.8-7,1.5-10.5
		c-0.2-0.9-0.6-1.7-1-2.5c2.4-0.5,4.4-1.5,6-3c-2.9-0.6-5.9-0.6-9,0c0.3,1.9,0,3.6-1,5c-2.1-0.1-2.4-1.1-1-3c-1.3-6.6-3.3-13.3-6-20
		c0.8-0.7,1.4-1.5,2-2.5c4.1-0.9,7.8,0,11,2.5c-3.4,0-6.7-0.3-10-1c0,1.3,0,2.7,0,4c8.9,1.9,17.9,2.4,27,1.5c2.2-0.6,4.2-1.4,6-2.5
		c5.4,0.6,10.4-0.1,15-2c0.8-2.2,2.5-3.2,5-3c0-1.3,0-2.7,0-4c-1.8,0.3-3.5,1-5,2c0.3-3,2-4.7,5-5c0,1,0.5,1.7,1.5,2
		c3.1-1.6,6.3-3.1,9.5-4.5c9.7-1.6,19.3-3.2,29-5c-4.3-0.7-8.7-0.7-13,0c-5.7,1-11.3,1.9-17,2.5c0.3-1.5,1.3-2.2,3-2
		c-0.5-6.6-3.7-11.6-9.5-15c-1.3,0.3-2.3,0.9-3,2c-0.5-1.6-0.7-3.3-0.5-5c-1.6,0-3,0.6-4,2c-0.5-1.1-0.8-2.1-1-3
		c-2.4,1.5-4.8,3.2-7,5c-1.1-0.9-1.1-1.9,0-3c1.7-1.2,3.3-2.3,5-3.5c-1.2-1.8-2.8-3-5-3.5C217.6,140.3,217.2,139,217.5,137.5z"/>
</g>
<g>
	<path class="st98" d="M417.5,169.5c0.7,0.7,1.3,1.3,2,2c1.4,3.2,2.4,6.5,3,10c0.2,3.1,1.1,6.1,2.5,9c0.4,1.3,1.2,1.9,2.5,2
		c0,0.3,0,0.7,0,1s0,0.7,0,1c-1,0-1.7,0.5-2,1.5c1.2,4.2,1.2,8.3,0,12.5c-1.8-1.6-2.8-3.6-3-6c1.3,0.6,2.1,1.6,2.5,3
		c0.7-8.3-1.2-15.9-5.5-23c0.6-0.6,1-1.4,1-2.5C419.1,176.6,418.1,173.1,417.5,169.5z"/>
</g>
<g>
	<path class="st99" d="M427.5,193.5c1.2,1,1.8,2.3,2,4c-1.5-0.3-2.2-1.3-2-3C427.5,194.2,427.5,193.8,427.5,193.5z"/>
</g>
<g>
	<path class="st100" d="M389.5,197.5c1-0.1,1.8,0.2,2.5,1c1.7,3.8,2.6,7.8,2.5,12c-1.6-2.4-3.1-5.1-4.5-8
		C389.5,200.9,389.3,199.2,389.5,197.5z"/>
</g>
<g>
	<path class="st101" d="M466.5,204.5c0.1,5.7,0.8,11.4,2,17c0.1,1.1,0,2.1-0.5,3c-1.3-4.6-2.3-9.3-3-14c-0.4-2-1.2-3.7-2.5-5
		c-0.2-2.7-1.2-5-3-7c2-1.9,3.8-3.9,5.5-6C465.2,196.7,465.7,200.7,466.5,204.5z"/>
</g>
<g>
	<path class="st102" d="M429.5,197.5c1.2,2.1,2.2,4.5,3,7c0,1,0,2,0,3c-1.2-0.5-1.9-1.5-2-3C430,202.2,429.7,199.8,429.5,197.5z"/>
</g>
<g>
	<path class="st103" d="M432.5,204.5c1.5,2.5,2.8,5.2,4,8c1,2.7,2,5.3,3,8c-1,0-1.7-0.5-2-1.5c-1.4-4-3.1-7.9-5-11.5
		C432.5,206.5,432.5,205.5,432.5,204.5z"/>
</g>
<g>
	<path class="st104" d="M462.5,205.5c2.8,11.3,4.9,22.6,6.5,34c-4-12.5-7-25.2-9-38C460.6,203.1,461.4,204.4,462.5,205.5z"/>
</g>
<g>
	<path class="st105" d="M117.5,228.5c-5.9-4.6-12.6-8-20-10c-2.3-2.5-5-4.5-8-6c-0.4-3.4-2-6.1-5-8c-5.8-1.8-11.1-4.4-16-8
		c-1.6-1.7-2.3-3.7-2-6c-1.7-0.1-3.4-0.5-5-1c-1.8-2.7-2.8-5.7-3-9c4.6,0.1,7.2,2.4,8,7c2.2,0.7,4.4,1.7,6.5,3c2,2.2,4.2,4.2,6.5,6
		c8.6,5.1,16.9,10.4,25,16c0,1,0,2,0,3c2.2,0.9,4.6,1.6,7,2c0.8,4.4,3.5,7.1,8,8C119.7,227.2,119,228.2,117.5,228.5z"/>
</g>
<g>
	<path class="st106" d="M457.5,124.5c0.7,4.3,1.3,8.7,2,13c0.7,7.8,3.4,14.8,8,21c5.9,13.2,10.5,26.9,14,41c0.1,0.4-0.1,0.8-0.5,1
		c-1.1-3.3-2.9-3.8-5.5-1.5c-1.9,2.9-2.4,6.1-1.5,9.5c2.4,2.2,4.5,4.5,6.5,7c-2.6,6.7-3.5,13.7-2.5,21c3.9,4.4,6.7,9.4,8.5,15
		c4.3-1.4,6.1-4.4,5.5-9c5.5-6.5,8.7-14,9.5-22.5c-0.4-0.9-1.1-1.6-2-2c-4-0.4-8-0.4-12,0c3.3-3.6,7-6.8,11-9.5c-3-0.4-5.3-1.7-7-4
		c0.7-3.6,1.7-7.3,3-11c-1.2-2.1-1.9-4.5-2-7c-0.1-4.3,0.9-8.3,3-12c-3.5-16.6-1.5-16.9,6-1c-1.6,5.5-2.5,11.2-2.5,17
		c-1,0.8-2.2,1.2-3.5,1c-0.3,4.3,0,8.4,1,12.5c3.9-0.3,7.9-0.4,12-0.5c-0.3,6.1,0.4,12.1,2,18c0,2.7-0.6,5.2-2,7.5
		c0.7,1.8,1.1,3.6,1,5.5c0,0.3,0,0.7,0,1c-8.9,25.2-20.6,26.5-35,4c-1.3-3.3-2.7-6.7-4-10c-0.3-2.9-1-5.5-2-8
		c-1.2-5.6-1.9-11.3-2-17c0.2-6.7,0-13.3-0.5-20c-0.7-0.5-1.2-1.2-1.5-2c3.9,1.9,7.7,3.9,11.5,6c0.5-0.2,1-0.3,1.5-0.5
		c-0.7-2.1-1.7-3.9-3-5.5c-2-9-5.3-17.3-10-25c-0.2-3.9-2.2-5.5-6-5c0,3.3,0,6.7,0,10c-1.2-0.4-1.9-1.2-2-2.5c0.5-2.9,1.2-5.7,2-8.5
		c2-1.1,2.4-2.4,1-4c-0.5-3.4-1.2-6.7-2-10C457.5,133.2,457.5,128.8,457.5,124.5z"/>
</g>
<g>
	<path class="st107" d="M481.5,199.5c0.8,0.3,1.2,1,1,2c-1.1,0.8-1.2,1.8-0.5,3c2.4,2.4,4.9,2.5,7.5,0.5c1-2.7,1.6-2.8,2-0.5
		c1.7,2.3,4,3.6,7,4c-4,2.7-7.7,5.9-11,9.5c4-0.4,8-0.4,12,0c0.9,0.4,1.6,1.1,2,2c-0.8,8.5-4,16-9.5,22.5c0.6,4.6-1.2,7.6-5.5,9
		c-1.8-5.6-4.6-10.6-8.5-15c-1-7.3-0.1-14.3,2.5-21c-2-2.5-4.1-4.8-6.5-7c-0.9-3.4-0.4-6.6,1.5-9.5c2.6-2.3,4.4-1.8,5.5,1.5
		C481.4,200.3,481.6,199.9,481.5,199.5z"/>
</g>
<g>
	<path class="st108" d="M514.5,247.5c3.3-14.1,5.5-28.5,6.5-43c0.3,12.8-1.1,25.5-4,38C516.6,244.5,515.8,246.2,514.5,247.5z"/>
</g>
<g>
	<path class="st109" d="M442.5,207.5c4.4,9.1,8.4,18.4,12,28c0.1,0.4-0.1,0.8-0.5,1c-2.9-2.9-4.8-6.4-5.5-10.5
		c-1.6-0.5-3.3-0.7-5-0.5c1.4-3.1,1.2-6.1-0.5-9c-2.3-1.2-4.4-2.6-6.5-4c-1.2-2.8-2.5-5.5-4-8c-0.8-2.5-1.8-4.9-3-7
		c-0.2-1.7-0.8-3-2-4c0-0.3,0-0.7,0-1c-0.9-4.1-2.6-7.8-5-11c-0.6-3.5-1.6-6.8-3-10c0-1.3,0-2.7,0-4c1,0,2,0,3,0
		c1.5,8.3,4.6,16,9.5,23c1,7.6,4.3,14,10,19C442.5,208.9,442.6,208.2,442.5,207.5z"/>
</g>
<g>
	<path class="st110" d="M353.5,207.5c0.2,6.5,1.9,12.5,5,18c-0.4,2.5-1.1,4.8-2,7c-1.5-1.3-3.2-2.3-5-3c-5.1-1.2-10.5-1.3-16-0.5
		c-0.6,0.4-0.9,0.9-1,1.5c-5.4,2.9-10.8,6.1-16,9.5c-10.3,3.7-20.7,7.3-31,11c-6.2,6.6-13.5,11.4-22,14.5c-10.4,3.3-21.1,5.5-32,6.5
		c-6.7,3.1-13.7,4.2-21,3.5c-1.2-0.7-2.6-1.3-4-2c1.7-0.6,3-1.6,4-3c3.5-1.3,7.2-2.1,11-2.5c9.7-0.3,19.3-0.7,29-1
		c11.8-2.4,21.4-8,29-17c10.9-5.3,21.6-10.9,32-17c8.9-2.5,16.6-7,23-13.5c4.5-0.5,8.2-2.5,11-6c-1.6-2.4-1.2-4.4,1-6c1,0,2,0,3,0
		c-0.1-1.1,0-2.1,0.5-3C352.2,205.7,352.7,206.7,353.5,207.5z"/>
</g>
<g>
	<path class="st111" d="M439.5,222.5c1.8,1.2,2.8,2.8,3,5C440.6,226.5,439.6,224.8,439.5,222.5z"/>
</g>
<g>
	<path class="st36" d="M351.5,229.5c1.8,0.7,3.5,1.7,5,3c0.1,0.5,0.4,0.9,1,1c0.8-1.2,1.3-2.6,1.5-4c4.4,5.4,7.7,11.4,10,18
		c0.8,1,1.7,2,2.5,3c0.9-0.8,1.2-1.8,1-3c1.7,1,3,2.5,4,4.5c8.3,17.5,17.8,34,28.5,49.5c6.6,8.3,13.5,16.3,20.5,24
		c2.3,1.1,4.6,1.1,7,0c1.7,0,3.3,0,5,0c0,1,0,2,0,3c-5.8,1.4-11.8,2.1-18,2c-5.5-1-11.1-1.3-17-1c-8.5-1.6-17.1-2.6-26-3
		c0-1,0-2,0-3c-4.4,0.3-8.7,0-13-1c-6-3-12.4-5.7-19-8c-3.6-3.1-7.9-4.8-13-5c-1.6-3.4-4.3-4.7-8-4c0.2-1.3-0.2-2.5-1-3.5
		c-4,0.4-7-1.1-9-4.5c-0.8-0.9-1.8-1.2-3-1c0.2-1.2-0.1-2.2-1-3c-3-3-6-6-9-9c-1.2-0.9-2.5-1.3-4-1c0-1,0-2,0-3
		c-2.5-1.4-5.1-2.4-8-3c0-2.3,0-4.7,0-7c2.6-1.3,5.3-2.6,8-4c3.1-3.4,6.4-6.4,10-9c-5.2-0.8-8.5,1.2-10,6c-3.6,1.8-7.3,3.5-11,5
		c-6.4,2.1-12.7,4.5-19,7c-2.3-0.2-4.3-1.1-6-2.5c3-0.4,5.7-1.6,8-3.5c-0.8-0.9-1.8-1.2-3-1c0-1,0-2,0-3c8.5-3.1,15.8-7.9,22-14.5
		c10.3-3.7,20.7-7.3,31-11c5.2-3.4,10.6-6.6,16-9.5C340.1,229.6,345.8,229.3,351.5,229.5z"/>
</g>
<g>
	<path class="st112" d="M526.5,201.5c2.3,2.6,4.6,2.6,7,0c1.7,2,3.3,4,5,6c0.8-1.1,1.4-2.3,2-3.5c0.9-0.6,1.8-0.5,2.5,0.5
		c0.5,7.7,0.2,15.4-1,23c-0.7,1.3-1.7,2.3-3,3c-2.1,8.9-3.5,17.9-4,27c-3.4,3.4-7.3,5.9-11.5,7.5c5.2-6.4,6.4-13.6,3.5-21.5
		c-3.8,9.1-7.8,18.1-12,27c-2.4,2.5-5.3,4-8.5,4.5c3.7-6.6,7.6-13.1,11.5-19.5c2.8-10.7,5.8-21.4,9-32
		C527.4,216.2,527.2,208.8,526.5,201.5z"/>
</g>
<g>
	<path class="st113" d="M442.5,228.5c2.2,3.3,3.9,7,5,11C444,236.7,442.3,233.1,442.5,228.5z"/>
</g>
<g>
	<path class="st114" d="M409.5,49.5c1.2-0.2,2.2,0.1,3,1c-1.9,1-3.9,1.3-6,1c-2.7,0.2-5.1,1.2-7,3c-3.9,1.1-7.5,2.8-11,5
		c-1.2,1.1-1.9,2.4-2,4c-1.1,0-2.1,0.4-3,1c-2,2-4,4-6,6c-0.7,1.2-1.1,2.6-1,4c-6.2,5.1-9.5,11.8-10,20c-1.3,2.4-2,5.2-2,8.5
		c0,3.3,0.7,6.1,2,8.5c1.2,10,2.5,20,4,30c2.6,8.6,4.6,17.2,6,26c0.2,3.7,1.2,7,3,10c3,10,6,20,9,30c10.9,29.7,23.9,58.4,39,86
		c-1.8,1.9-2.8,4.3-3,7c-3.4,0.3-6.7,0-10-1c-2.1-1.4-4.5-2.4-7-3c-0.4-1.7-1.4-2.7-3-3c-1.6-1-2.9-2.3-4-4c-4.1-7-8.5-13.8-13-20.5
		c-13.4-27.3-24.4-55.7-33-85c-3.9-18.3-8.1-36.4-12.5-54.5c-0.7-9-0.7-18,0-27c7.6-17.4,19.1-31.7,34.5-43
		C386.4,52.7,397.4,49.3,409.5,49.5z"/>
</g>
<g>
	<path class="st115" d="M371.5,193.5c1.5,0,2.7,0.7,3.5,2c2.7,6.8,6.5,13,11.5,18.5c-0.3,0.5-0.7,1-1,1.5c-4.8-3.1-6.1-1.9-4,3.5
		c0,2-0.5,3.8-1.5,5.5c-1.8-2.7-2.8-5.7-3-9c-1.7-1.4-3-3-4-5C372.1,204.9,371.6,199.2,371.5,193.5z"/>
</g>
<g>
	<path class="st116" d="M358.5,225.5c5,7,9.7,14.4,14,22c0.2,1.2-0.1,2.2-1,3c-0.8-1-1.7-2-2.5-3c-2.3-6.6-5.6-12.6-10-18
		c-0.2,1.4-0.7,2.8-1.5,4c-0.6-0.1-0.9-0.5-1-1C357.4,230.3,358.1,228,358.5,225.5z"/>
</g>
<g>
	<path class="st117" d="M447.5,239.5c3.7,6.4,7.1,13.1,10,20c-2.8-2.8-5.1-5.8-7-9C449,247,448,243.3,447.5,239.5z"/>
</g>
<g>
	<path class="st118" d="M306.5,257.5c7.7-3.3,15.7-6.5,24-9.5c0.9-1.4,1.2-2.9,1-4.5c1.7,0,3.3,0,5,0c0,1.3,0,2.7,0,4c-1,0-2,0-3,0
		c0,1,0,2,0,3c-1.7,0-3.3,0-5,0c0,1,0,2,0,3C321.1,254.5,313.7,255.8,306.5,257.5z"/>
</g>
<g>
	<path class="st119" d="M509.5,235.5c0,0.7,0,1.3,0,2c-1.8,6.9-5.1,12.9-10,18c-2.7,1.8-5.7,2.4-9,2c-8.4-3.1-13.8-9.1-16-18
		C488.9,262,500.6,260.7,509.5,235.5z"/>
</g>
<g>
	<path class="st120" d="M470.5,229.5c1.3,3.3,2.7,6.7,4,10c2.2,8.9,7.6,14.9,16,18c0.1,0.6,0.4,1.1,1,1.5c-3.7,0.2-7.3-0.1-11-1
		c-4.4-7.4-7.9-15.2-10.5-23.5C469.2,232.6,469.4,230.9,470.5,229.5z"/>
</g>
<g>
	<path class="st121" d="M448.5,250.5c3.3,5.6,6.6,11.3,10,17c-1.1,0.6-2.1,0.1-3-1.5c-1.5-1-3.2-1.5-5-1.5
		C447.7,260,447,255.3,448.5,250.5z"/>
</g>
<g>
	<path class="st122" d="M514.5,247.5c-0.7,5.7-2.6,11.1-5.5,16C510.3,258,512.2,252.7,514.5,247.5z"/>
</g>
<g>
	<path class="st123" d="M448.5,250.5c0.7,0,1.3,0,2,0c1.9,3.2,4.2,6.2,7,9c0.9,2.6,1.9,5.3,3,8c-0.7,0.9-1.3,1.9-2,3
		c-1.8-1.2-3.8-1.9-6-2c0-1.7-0.7-3-2-4c1.8,0,3.5,0.5,5,1.5c0.9,1.6,1.9,2.1,3,1.5C455.1,261.8,451.8,256.1,448.5,250.5z"/>
</g>
<g>
	<path class="st124" d="M139.5,300.5c-0.4-2.4-1-4.7-2-7c5.3-12.2,5.3-24.2,0-36c-0.3-3.4,0-6.7,1-10c0.6,3.6,1.7,6.9,3.5,10
		c0.6,6.9,1.4,13.7,2.5,20.5c-0.2,2.5-0.3,5-0.5,7.5c-1.8,1.8-2.6,4-2.5,6.5c0.5,2.8,0.9,5.6,1,8.5
		C141.5,300.5,140.5,300.5,139.5,300.5z"/>
</g>
<g>
	<path class="st125" d="M26.5,237.5c1.2,1.8,2.8,2.8,5,3c0,1,0,2,0,3c1.7,0,3.3,0,5,0c0.4,2.8,1.4,5.5,3,8c1.3,1.4,3,2.1,5,2
		c-0.3,3,1,4.3,4,4c0,1,0,2,0,3c3.4,1.7,6.7,3.4,10,5c0,1.7,0,3.3,0,5c1.7,0,3.3,0,5,0c0,1,0,2,0,3c4.1,0.8,6.7,3.2,8,7
		c1.7,0,3.3,0,5,0c0,1.7,0,3.3,0,5c2.2-0.1,4.4,0.2,6.5,1c4.9,4.2,10.1,8,15.5,11.5c3.5,0.6,6.8,1.6,10,3c1.9,0.9,2.9,2.4,3,4.5
		c-12.6-4.5-24.9-9.5-37-15c-5.5-1.4-10.9-3.4-16-6c-6.3,0-11.5-2.3-15.5-7c-1.2-3.2-3.2-5.9-6-8C30.6,259.8,27.1,249.1,26.5,237.5z
		"/>
</g>
<g>
	<path class="st126" d="M306.5,257.5c-3.6,2.6-6.9,5.6-10,9c-2.7,1.4-5.4,2.7-8,4c-4.1,1.9-8.1,4.1-12,6.5c-6.3,2.1-12.6,4-19,5.5
		c0.8-0.8,1.8-1.3,3-1.5c-0.6-0.5-1.3-0.6-2-0.5c6.9-3,14.3-5.5,22-7.5c2.2-1.1,3.9-2.6,5-4.5c3.7-1.5,7.4-3.2,11-5
		C298,258.8,301.3,256.8,306.5,257.5z"/>
</g>
<g>
	<path class="st127" d="M410.5,272.5c0,2.3,0,4.7,0,7c-2,0-4,0-6,0c-0.1-2.8-0.7-5.5-2-8C405.6,267.3,408.2,267.7,410.5,272.5z"/>
</g>
<g>
	<path class="st128" d="M288.5,270.5c0,2.3,0,4.7,0,7c2.9,0.6,5.5,1.6,8,3c0,1,0,2,0,3c1.5-0.3,2.8,0.1,4,1c3,3,6,6,9,9
		c0.9,0.8,1.2,1.8,1,3c1.2-0.2,2.2,0.1,3,1c2,3.4,5,4.9,9,4.5c0.8,1,1.2,2.2,1,3.5c3.7-0.7,6.4,0.6,8,4c5.1,0.2,9.4,1.9,13,5
		c6.6,2.3,13,5,19,8c4.3,1,8.6,1.3,13,1c0,1,0,2,0,3c8.9,0.4,17.5,1.4,26,3c-31-0.5-62-0.8-93-1c-13,0-26,0-39,0
		c-13-2-26.3-2.6-40-2c-22.7,0-45.4-1-68-3c-2.5-1.7-5.5-2.7-9-3c-2.1-5.5-3.4-11.2-4-17c-0.1-3,0.5-5.7,2-8c0,1,0.5,1.7,1.5,2
		c9.9-1,19.8-2.3,29.5-4c9.6-0.2,18.9-1.2,28-3c15.9-1.6,31.6-4.3,47-8c6.4-1.5,12.7-3.4,19-5.5
		C280.4,274.6,284.4,272.4,288.5,270.5z"/>
</g>
<g>
	<path class="st129" d="M410.5,272.5c1,2.4,1.3,5.1,1,8c-2.6,0.3-4.9,0-7-1c2,0,4,0,6,0C410.5,277.2,410.5,274.8,410.5,272.5z"/>
</g>
<g>
	<path class="st130" d="M376.5,275.5c6,0.2,7.3,2.7,4,7.5C375.6,282.7,374.3,280.2,376.5,275.5z"/>
</g>
<g>
	<path class="st131" d="M338.5,124.5c5.7,29.7,13,59,22,88c3.2,8.8,6.7,17.5,10.5,26c0.7,3,1.2,6,1.5,9c-4.3-7.6-9-15-14-22
		c-3.1-5.5-4.8-11.5-5-18c-0.6-5.6-2.1-10.9-4.5-16c-0.2,4.4,0.3,8.7,1.5,13c-0.4,1.2-1.1,2.2-2,3c-2.2,1.6-2.6,3.6-1,6
		c-2.8,3.5-6.5,5.5-11,6c-6.4,6.5-14.1,11-23,13.5c-10.4,6.1-21.1,11.7-32,17c-7.6,9-17.2,14.6-29,17c-9.7,0.3-19.3,0.7-29,1
		c-3.8,0.4-7.5,1.2-11,2.5c-16,3.3-32,6.7-48,10c-0.7,0-1.3,0-2,0c-0.1-1.1-0.8-1.8-2-2c-2.4,1.5-5.1,2.2-8,2c0,2.1,1,3.5,3,4
		c3,1.3,6,1.3,9,0c4.5-2.9,9.5-4.7,15-5.5c10.9-2.1,21.9-3.3,33-3.5c7.3,0.7,14.3-0.4,21-3.5c10.9-1,21.6-3.2,32-6.5c0,1,0,2,0,3
		c1.2-0.2,2.2,0.1,3,1c-2.3,1.9-5,3.1-8,3.5c1.7,1.4,3.7,2.3,6,2.5c6.3-2.5,12.6-4.9,19-7c-1.1,1.9-2.8,3.4-5,4.5
		c-7.7,2-15.1,4.5-22,7.5c-20,1.3-39.6,4-59,8c-7.4,1.6-14.7,2.9-22,4c-5.8,1-11.8,1.3-18,1c-2.7-3.2-5.7-6.2-9-9
		c-1.1,1.2-1.3,2.6-0.5,4c1.4,1.6,2.9,2.9,4.5,4c1.1,2.4,0.1,3.4-3,3c-1.5,2.3-2.1,5-2,8c0.6,5.8,1.9,11.5,4,17c3.5,0.3,6.5,1.3,9,3
		c-1.9,0.5-3.7,1.1-5.5,2c-9.1-3.3-17.6-7.3-25.5-12c2.4-0.8,4.7-1.8,7-3c3.6-3,3.9-6.4,1-10c1,0,2,0,3,0c-0.1-2.9-0.5-5.7-1-8.5
		c-0.1-2.5,0.7-4.7,2.5-6.5c0.2-2.5,0.3-5,0.5-7.5c-1.1-6.8-1.9-13.6-2.5-20.5c-1.8-3.1-2.9-6.4-3.5-10c-1,3.3-1.3,6.6-1,10
		c-1,0-2,0-3,0c0-4.3,0-8.7,0-13c-2.8,0.1-5.4-0.4-8-1.5c1.1-2.4,1.3-4.9,0.5-7.5c-3.1-2.6-6.2-4.9-9.5-7c1.5-0.3,2.2-1.3,2-3
		c-4.5-0.9-7.2-3.6-8-8c-2.4-0.4-4.8-1.1-7-2c0-1,0-2,0-3c-8.1-5.6-16.4-10.9-25-16c-2.3-1.8-4.5-3.8-6.5-6c-2.1-1.3-4.3-2.3-6.5-3
		c-0.8-4.6-3.4-6.9-8-7c0.2,3.3,1.2,6.3,3,9c-1.2,0.1-2.1,0.7-2.5,2c-2.4-0.9-4.9-1.3-7.5-1c0-1,0-2,0-3c2,0,4,0,6,0
		c0-1.7,0-3.3,0-5c-1,0-2,0-3,0c0-2.7,0-5.3,0-8c2.8-1.3,5.8-1.9,9-2c-1.1,0.8-2.4,1.3-4,1.5c5.2,0.8,10.2,2.1,15,4c6,4,12,8,18,12
		c1.6,0.8,2.9,0.6,4-0.5c2.7,2.1,5,4.6,7,7.5c1.6,1.1,3.2,1.9,5,2.5c-0.1,1,0.2,1.8,1,2.5c2.9,0.9,5.2,2.5,7,5
		c0.9,0.5,1.9,0.6,3,0.5c0,1,0,2,0,3c1,0,2,0,3,0c1.5,1.2,3,2.5,4.5,4c3.3,5.8,7.2,11.1,11.5,16c2.1,3.5,3.5,7.4,4,11.5
		c0.3,1,1,1.5,2,1.5c1.8,9,3.6,18,5.5,27c0.7,2.7,2.3,4.3,5,5c4.2-2.3,8.3-4.7,12.5-7c3.8,0.6,3.8,1.6,0,3c0.9,1.1,1.9,1.2,3,0.5
		c1.6-1,3.2-1.8,5-2.5c1.4-1,2-2.4,2-4c-8.6,0.4-16.9,1.6-25,3.5c-1-5.5-2-11-3-16.5c1.8,1.8,2.5,4.1,2,7c7.8-0.5,15.7-0.8,23.5-1
		c6.1,0.1,12.1,0.8,18,2c2.5-0.8,5-1.5,7.5-2c1.5,0.1,2.5,0.8,3,2c0,1,0,2,0,3c9-1.2,18-1.2,27,0c0-1,0-2,0-3c4.3,0,8.7,0,13,0
		c8.1,3.5,15.3,1.8,21.5-5c0.7-0.7,0.7-1.3,0-2c-3.9,3-8,5.3-12.5,7c-1.6-1.9-3.8-3.2-6.5-4c-5.3-0.6-10.5-1.6-15.5-3
		c-0.4-2.3,0.3-4.1,2-5.5c-1.6-1-2.3-2.5-2-4.5c2.8,1.7,5.8,3.1,9,4c7.4,0.3,14.5,1.3,21.5,3c2.4-1.3,4.9-1.9,7.5-2c0-1,0-2,0-3
		c2.1,0,3.9,0.6,5.5,2c1-0.3,1.5-1,1.5-2c2-0.7,4-1.3,6-2c1.5-3.5,2.1-7.2,2-11c5.1-8.9,9.4-18.2,13-28c3.1-0.5,6.1-1.5,9-3
		c0.6-0.9,1-1.9,1-3c2.3-8.1,5.1-16.1,8.5-24c1.1-3.3,3-6.1,5.5-8.5c0.9-4.9,2.7-9.4,5.5-13.5c2-15.5,4.8-30.8,8.5-46
		c1.5-0.7,2.4-2.1,2.5-4C337.2,110,337.7,117.3,338.5,124.5z"/>
</g>
<g>
	<path class="st132" d="M162.5,280.5c0.7,0,1.3,0,2,0c-1.6,1.1-3.3,2.3-5,3.5c1.6,0.5,3.3,0.7,5,0.5c-3,1.3-6,1.3-9,0
		C157.8,283.3,160.2,282,162.5,280.5z"/>
</g>
<g>
	<path class="st133" d="M162.5,280.5c-2.3,1.5-4.7,2.8-7,4c-2-0.5-3-1.9-3-4c2.9,0.2,5.6-0.5,8-2
		C161.7,278.7,162.4,279.4,162.5,280.5z"/>
</g>
<g>
	<path class="st134" d="M212.5,270.5c-1,1.4-2.3,2.4-4,3c1.4,0.7,2.8,1.3,4,2c-11.1,0.2-22.1,1.4-33,3.5c-5.5,0.8-10.5,2.6-15,5.5
		c-1.7,0.2-3.4,0-5-0.5c1.7-1.2,3.4-2.4,5-3.5C180.5,277.2,196.5,273.8,212.5,270.5z"/>
</g>
<g>
	<path class="st135" d="M243.5,260.5c3,0,6,0,9,0c4.5-1.7,8.6-4,12.5-7c0.7,0.7,0.7,1.3,0,2C258.8,262.3,251.6,264,243.5,260.5z"/>
</g>
<g>
	<path class="st136" d="M203.5,260.5c9,0,18,0,27,0c0,1,0,2,0,3c-9-1.2-18-1.2-27,0C203.5,262.5,203.5,261.5,203.5,260.5z"/>
</g>
<g>
	<path class="st137" d="M147.5,230.5c2,6.9,2.6,14.3,2,22c1,5.5,2,11,3,16.5c8.1-1.9,16.4-3.1,25-3.5c0,1.6-0.6,3-2,4
		c-1.8,0.7-3.4,1.5-5,2.5c-1.1,0.7-2.1,0.6-3-0.5c3.8-1.4,3.8-2.4,0-3c-4.2,2.3-8.3,4.7-12.5,7c-2.7-0.7-4.3-2.3-5-5
		c-1.9-9-3.7-18-5.5-27c1,0,2,0,3,0C147.5,239.2,147.5,234.8,147.5,230.5z"/>
</g>
<g>
	<path class="st138" d="M283.5,232.5c0.1,3.8-0.5,7.5-2,11c-2,0.7-4,1.3-6,2c0.9-2.2,2.2-4.2,4-6c0.8-1.9,1.3-3.9,1.5-6
		C281.7,232.7,282.5,232.4,283.5,232.5z"/>
</g>
<g>
	<path class="st139" d="M129.5,235.5c1,0,2,0,3,0c0.8,2.5,1.8,5,3,7.5c-1.7,0.7-3.4,0.5-5-0.5C129.5,240.3,129.2,237.9,129.5,235.5z
		"/>
</g>
<g>
	<path class="st140" d="M128.5,222.5c2.6,3,5.3,6,8,9c1.1,1.1,1.1,2.1,0,3C132.6,231.4,129.9,227.4,128.5,222.5z"/>
</g>
<g>
	<path class="st141" d="M351.5,229.5c-5.7-0.2-11.4,0.1-17,1c0.1-0.6,0.4-1.1,1-1.5C341,228.2,346.4,228.3,351.5,229.5z"/>
</g>
<g>
	<path class="st142" d="M177.5,208.5c0.2,2,0,4-0.5,6c-2,1.3-4.2,2.3-6.5,3c-0.9,0.8-1.2,1.8-1,3c-1.8-0.7-2.3-2-1.5-4
		C170.5,213,173.7,210.4,177.5,208.5z"/>
</g>
<g>
	<path class="st143" d="M109.5,189.5c5.8,2.8,12,4.8,18.5,6c2.7,2,5.5,3.7,8.5,5c3.6,5.5,6.9,11.2,10,17c1,4.3,1.3,8.6,1,13
		c0,4.3,0,8.7,0,13c-1,0-2,0-3,0c-1,0-1.7-0.5-2-1.5c-0.5-4.1-1.9-8-4-11.5c-4.3-4.9-8.2-10.2-11.5-16c-1.5-1.5-3-2.8-4.5-4
		c-2.8-4.7-6.3-9-10.5-13c-1.4-1.4-2.3-3.1-2.5-5C103.3,190.5,103.3,189.5,109.5,189.5z"/>
</g>
<g>
	<path class="st144" d="M174.5,182.5c2.7,6.7,4.7,13.4,6,20c-1.4,1.9-1.1,2.9,1,3c-0.9,1.5-2.3,2.5-4,3c-3.8,1.9-7,4.5-9.5,8
		c-0.8,2-0.3,3.3,1.5,4c0.8,0.3,1.2,1,1,2c-0.7,2.5-1.3,5.2-2,8c-0.9-3.9-1.9-7.7-3-11.5c3-6.4,7.3-11.7,13-16
		c-0.7-2.7-1.8-5.2-3.5-7.5c-0.2-4.3-1-8.5-2.5-12.5C173,180,173.7,179.8,174.5,182.5z"/>
</g>
<g>
	<path class="st145" d="M170.5,224.5c0-0.7,0-1.3,0-2c0.2-1-0.2-1.7-1-2c-0.2-1.2,0.1-2.2,1-3c2.3-0.7,4.5-1.7,6.5-3
		c0.5-2,0.7-4,0.5-6c1.7-0.5,3.1-1.5,4-3c1-1.4,1.3-3.1,1-5c3.1-0.6,6.1-0.6,9,0c-1.6,1.5-3.6,2.5-6,3c0.4,0.8,0.8,1.6,1,2.5
		c-0.7,3.5-1.2,7-1.5,10.5c-2.5,0.6-5,1.3-7.5,2c0.8,1.4,1.5,2.9,2,4.5c-1.6,2.3-3.8,3.8-6.5,4.5
		C172.1,226.4,171.3,225.4,170.5,224.5z"/>
</g>
<g>
	<path class="st146" d="M353.5,207.5c-0.8-0.8-1.3-1.8-1.5-3c-0.5,0.9-0.6,1.9-0.5,3c-1,0-2,0-3,0c0.9-0.8,1.6-1.8,2-3
		c-1.2-4.3-1.7-8.6-1.5-13C351.4,196.6,352.9,201.9,353.5,207.5z"/>
</g>
<g>
	<path class="st147" d="M93.5,177.5c-1.8,0.1-2.2,0.8-1,2c2.9,2.6,5.9,4.3,9,5c1.8,3.1,4.5,4.8,8,5c-6.2,0-6.2,1,0,3
		c0.2,1.9,1.1,3.6,2.5,5c4.2,4,7.7,8.3,10.5,13c-1,0-2,0-3,0c0-1,0-2,0-3c-1.1,0.1-2.1,0-3-0.5c-1.8-2.5-4.1-4.1-7-5
		c-0.8-0.7-1.1-1.5-1-2.5c1-0.4,1.2-1.1,0.5-2c-3.9-3.5-7.4-7.4-10.5-11.5c-3.7-2.2-7-4.9-10-8c-0.8-0.7-1.5-0.5-2,0.5
		c3.7,3.4,7.1,7.1,10,11c-6.4-5.4-13.1-10.4-20-15c2.8,0.8,5.4,1.8,8,3c-0.3-1.8,0.4-3.2,2-4C89.6,173.8,91.9,175.1,93.5,177.5z"/>
</g>
<g>
	<path class="st148" d="M108.5,199.5c-1.8-0.6-3.4-1.4-5-2.5c-2-2.9-4.3-5.4-7-7.5c-2.9-3.9-6.3-7.6-10-11c0.5-1,1.2-1.2,2-0.5
		c3,3.1,6.3,5.8,10,8c3.1,4.1,6.6,8,10.5,11.5C109.7,198.4,109.5,199.1,108.5,199.5z"/>
</g>
<g>
	<path class="st149" d="M187.5,182.5c7.3,2,14.9,2.6,23,2c-1.8,1.1-3.8,1.9-6,2.5c-9.1,0.9-18.1,0.4-27-1.5c0-1.3,0-2.7,0-4
		C180.8,182.2,184.1,182.5,187.5,182.5z"/>
</g>
<g>
	<path class="st150" d="M187.5,182.5c9.4,0.5,18.7,0.5,28,0c3.2,1.2,6.5,1.2,10,0c-4.6,1.9-9.6,2.6-15,2
		C202.4,185.1,194.8,184.5,187.5,182.5z"/>
</g>
<g>
	<path class="st151" d="M225.5,182.5c-3.5,1.2-6.8,1.2-10,0c2.3,0,4.7,0,7,0c0-1,0-2,0-3c1.7,0.2,2.7-0.5,3-2c1.5-1,3.2-1.7,5-2
		c0,1.3,0,2.7,0,4C228,179.3,226.3,180.3,225.5,182.5z"/>
</g>
<g>
	<path class="st152" d="M93.5,177.5c3.3,1.6,5.9,4,8,7c-3.1-0.7-6.1-2.4-9-5C91.3,178.3,91.7,177.6,93.5,177.5z"/>
</g>
<g>
	<path class="st153" d="M258.5,280.5c0.7-0.1,1.4,0,2,0.5c-1.2,0.2-2.2,0.7-3,1.5c-15.4,3.7-31.1,6.4-47,8c-4.1,0.6-7.8-0.1-11-2
		C218.9,284.5,238.5,281.8,258.5,280.5z"/>
</g>
<g>
	<path class="st154" d="M436.5,212.5c2.1,1.4,4.2,2.8,6.5,4c1.7,2.9,1.9,5.9,0.5,9c1.7-0.2,3.4,0,5,0.5c0.7,4.1,2.6,7.6,5.5,10.5
		c0.4-0.2,0.6-0.6,0.5-1c0.7,0.7,1.3,1.3,2,2c6.5,10.7,12.9,21.7,19,33c-0.2,0.3-0.3,0.7-0.5,1c-1.1-1.8-2.4-3.5-4-5
		c-0.7,0.7-0.7,1.3,0,2c4.2,5.7,8.4,11.4,12.5,17c3.9,7.6,10.2,10.8,19,9.5c3.9-1.8,7.9-3.3,12-4.5c-0.6,1.3-1.6,2.1-3,2.5
		c0.5,0.7,1.2,1.2,2,1.5c-8.9,7-18.2,7.7-28,2c-3.6-3.1-7.1-6.4-10.5-10c-4-5.7-8.1-11-12.5-16c-0.3-1.3-0.9-2.3-2-3
		c-1.1-2.7-2.1-5.4-3-8c-2.9-6.9-6.3-13.6-10-20c-1.1-4-2.8-7.7-5-11c0-0.3,0-0.7,0-1c-0.2-2.2-1.2-3.8-3-5c0-0.7,0-1.3,0-2
		C438.5,217.8,437.5,215.2,436.5,212.5z"/>
</g>
<g>
	<path class="st155" d="M159.5,293.5c-1.7-0.1-3.4-0.5-5-1c-1.6-1.1-3.1-2.4-4.5-4c-0.8-1.4-0.6-2.8,0.5-4
		C153.8,287.3,156.8,290.3,159.5,293.5z"/>
</g>
<g>
	<path class="st156" d="M514.5,290.5c-4.1,1.2-8.1,2.7-12,4.5c-8.8,1.3-15.1-1.9-19-9.5c0-1,0-2,0-3c4.4,0.9,7.7-0.6,10-4.5
		c4-0.7,6.8-2.8,8.5-6.5c-0.6,4.3-3.1,7.1-7.5,8.5c-2.1,1.7-3.7,3.7-5,6c0.3,1.4,0.9,2.6,2,3.5c3.9-1.4,7-3.7,9.5-7
		c0.7,1.9,0.2,3.4-1.5,4.5c1.3,0.7,2.7,0.7,4,0c6.5-5.2,12-11.4,16.5-18.5c0.7,1.3,0.7,2.7,0,4c-3.6,9.6-10.4,15.8-20.5,18.5
		c7,0.3,13.1-1.9,18.5-6.5c0.7,0.7,0.7,1.3,0,2C517.1,288.1,515.9,289.4,514.5,290.5z"/>
</g>
<g>
	<path class="st157" d="M199.5,288.5c3.2,1.9,6.9,2.6,11,2c-9.1,1.8-18.4,2.8-28,3c-1.4-1-3.1-1.3-5-1
		C184.8,291.4,192.1,290.1,199.5,288.5z"/>
</g>
<g>
	<path class="st158" d="M154.5,292.5c1.6,0.5,3.3,0.9,5,1c6.2,0.3,12.2,0,18-1c1.9-0.3,3.6,0,5,1c-9.7,1.7-19.6,3-29.5,4
		c-1-0.3-1.5-1-1.5-2C154.6,295.9,155.6,294.9,154.5,292.5z"/>
</g>
<g>
	<path class="st159" d="M374.5,58.5c1-0.2,1.7,0.2,2,1c-15.4,11.3-26.9,25.6-34.5,43c-0.7,9-0.7,18,0,27
		c4.4,18.1,8.6,36.2,12.5,54.5c8.6,29.3,19.6,57.7,33,85c4.5,6.7,8.9,13.5,13,20.5c1.1,1.7,2.4,3,4,4c0.9,2,1.9,4,3,6
		c6.6,7.4,12.8,15,18.5,23c2,0.9,4.2,1.3,6.5,1c0,0.7,0,1.3,0,2c-2.4,1.1-4.7,1.1-7,0c-7-7.7-13.9-15.7-20.5-24
		c-10.7-15.5-20.2-32-28.5-49.5c-1-2-2.3-3.5-4-4.5c-0.3-3-0.8-6-1.5-9c-3.8-8.5-7.3-17.2-10.5-26c-9-29-16.3-58.3-22-88
		c-1.9-13.3,0.6-25.6,7.5-37c3.4-4,6.2-8.4,8.5-13C360.6,68.4,367.2,63.1,374.5,58.5z"/>
</g>
<g>
	<path class="st160" d="M419.5,270.5c1.6,0,3,0.6,4,2c0.7,1.8,1.4,3.7,2,5.5c0.3,0.2,0.7,0.3,1,0.5c1.5-3.8,2.5-3.8,3,0
		c4.3-0.7,7,1,8,5c5.6-0.5,10.9,0.2,16,2c2.8-1.6,5.8-2.2,9-2c0-1,0-2,0-3c1,0,2,0,3,0c0-1.3,0-2.7,0-4c5.2,7.4,11,14.4,17.5,21
		c0.7,1,0.7,2,0,3c-13.6,12.2-28.1,13.2-43.5,3c-3.3-3.5-6.5-7.1-9.5-11C425.9,285.4,422.4,278.1,419.5,270.5z"/>
</g>
<g>
	<path class="st161" d="M462.5,270.5c4.4,5,8.5,10.3,12.5,16c3.4,3.6,6.9,6.9,10.5,10c0,1.7,0,3.3,0,5c-6.1,4.7-12.7,8.4-20,11
		c-1.7,3.7-4.4,6.4-8,8c1.2-1.8,2.7-3.4,4.5-5c0.5-0.9,0.6-1.9,0.5-3c-6.6,0.7-12.8-0.6-18.5-4c-2.2-1.2-3.7-2.8-4.5-5
		c15.4,10.2,29.9,9.2,43.5-3c0.7-1,0.7-2,0-3c-6.5-6.6-12.3-13.6-17.5-21C464.2,274.7,463.2,272.7,462.5,270.5z"/>
</g>
<g>
	<path class="st162" d="M74.5,290.5c12.1,5.5,24.4,10.5,37,15c1,0,2,0,3,0c0,1,0,2,0,3c5.9,1.1,11.5,2.8,17,5
		c7.9,4.7,16.4,8.7,25.5,12c1.8-0.9,3.6-1.5,5.5-2c22.6,2,45.3,3,68,3c0,0.7,0,1.3,0,2c-21.7,0-43.4-1-65-3c-1.7,0.2-3.3,0.3-5,0.5
		c-1,1.5-2.3,2.3-4,2.5c-27.1-12.2-54.4-23.9-82-35C74.5,292.5,74.5,291.5,74.5,290.5z"/>
</g>
<g>
	<path class="st128" d="M404.5,293.5c1.6,0.3,2.6,1.3,3,3c2.5,0.6,4.9,1.6,7,3c3.3,1,6.6,1.3,10,1c0.2-2.7,1.2-5.1,3-7
		c2.3,3.3,4.9,6.5,8,9.5c1.3,0.5,2.6,0.7,4,0.5c0.8,2.2,2.3,3.8,4.5,5c5.7,3.4,11.9,4.7,18.5,4c0.1,1.1,0,2.1-0.5,3
		c-1.8,1.6-3.3,3.2-4.5,5c-4.5-0.4-8.7,0.6-12.5,3c-2.4-1-4.9-1.6-7.5-2c-2.1,0.1-3.8,0.7-5,2c-2.3,0.3-4.5-0.1-6.5-1
		c-5.7-8-11.9-15.6-18.5-23C406.4,297.5,405.4,295.5,404.5,293.5z"/>
</g>
<g>
	<path class="st163" d="M457.5,320.5c-4.7,3.4-10.1,5.4-16,6c-0.4,1-1,1.7-2,2c0-1.7,0-3.3,0-5c-2.3,0-4.7,0-7,0
		c1.2-1.3,2.9-1.9,5-2c2.6,0.4,5.1,1,7.5,2C448.8,321.1,453,320.1,457.5,320.5z"/>
</g>
<g>
	<path class="st164" d="M432.5,323.5c2.3,0,4.7,0,7,0c0,1.7,0,3.3,0,5c-0.7,0-1.3,0-2,0c0-1,0-2,0-3c-1.7,0-3.3,0-5,0
		C432.5,324.8,432.5,324.2,432.5,323.5z"/>
</g>
<g>
	<path class="st165" d="M230.5,326.5c13.7-0.6,27,0,40,2c-13.3,0-26.7,0-40,0C230.5,327.8,230.5,327.2,230.5,326.5z"/>
</g>
<g>
	<path class="st166" d="M230.5,328.5c13.3,0,26.7,0,40,0c13,0,26,0,39,0c-4.1,0.8-8.5,1.3-13,1.5c23.3,0.5,46.7,0.7,70,0.5
		c0,0.3,0,0.7,0,1C321,331.9,275.6,330.9,230.5,328.5z"/>
</g>
<g>
	<path class="st167" d="M309.5,328.5c31,0.2,62,0.5,93,1c5.9-0.3,11.5,0,17,1c-17.7,0-35.3,0-53,0c-23.3,0.2-46.7,0-70-0.5
		C301,329.8,305.4,329.3,309.5,328.5z"/>
</g>
<g>
	<path class="st168" d="M437.5,328.5c0.7,0,1.3,0,2,0c-0.1,0.6-0.4,1.1-1,1.5c-2.8,0.2-5.5,0.9-8,2c-21.3,0.2-42.7,0-64-0.5
		c0-0.3,0-0.7,0-1c17.7,0,35.3,0,53,0C425.7,330.6,431.7,329.9,437.5,328.5z"/>
</g>
</svg>
