<?xml version="1.0" encoding="UTF-8"?>
<!DOCTYPE svg PUBLIC "-//W3C//DTD SVG 1.1//EN" "http://www.w3.org/Graphics/SVG/1.1/DTD/svg11.dtd">
<svg xmlns="http://www.w3.org/2000/svg" version="1.1" width="403px" height="571px" style="shape-rendering:geometricPrecision; text-rendering:geometricPrecision; image-rendering:optimizeQuality; fill-rule:evenodd; clip-rule:evenodd" xmlns:xlink="http://www.w3.org/1999/xlink">
<g><path style="opacity:1" fill="#fdf100" d="M -0.5,-0.5 C 133.833,-0.5 268.167,-0.5 402.5,-0.5C 402.5,189.833 402.5,380.167 402.5,570.5C 268.167,570.5 133.833,570.5 -0.5,570.5C -0.5,380.167 -0.5,189.833 -0.5,-0.5 Z"/></g>
<g><path style="opacity:1" fill="#2e2814" d="M 170.5,98.5 C 168.508,98.6715 166.842,98.0049 165.5,96.5C 164.784,97.311 163.95,97.9777 163,98.5C 161.923,97.5705 160.756,96.9038 159.5,96.5C 155.725,96.6157 154.058,98.6157 154.5,102.5C 151.402,102.244 148.402,101.578 145.5,100.5C 144.368,98.5331 144.701,96.6998 146.5,95C 149.681,92.9083 152.681,90.575 155.5,88C 156.793,87.51 158.127,87.3433 159.5,87.5C 159.5,86.1667 159.5,84.8333 159.5,83.5C 162.325,83.0807 164.491,84.0807 166,86.5C 166.253,89.2004 166.253,91.867 166,94.5C 167.397,96.0703 168.897,97.4036 170.5,98.5 Z"/></g>
<g><path style="opacity:1" fill="#ddde51" d="M 159.5,96.5 C 157.833,96.5 156.167,96.5 154.5,96.5C 154.238,95.0222 154.571,93.6888 155.5,92.5C 156.719,91.7366 157.719,90.7366 158.5,89.5C 160.615,91.6152 160.949,93.9486 159.5,96.5 Z"/></g>
<g><path style="opacity:1" fill="#363112" d="M 155.5,105.5 C 157.468,111.301 157.801,117.301 156.5,123.5C 156.167,123.5 155.833,123.5 155.5,123.5C 155.279,117.71 155.279,111.71 155.5,105.5 Z"/></g>
<g><path style="opacity:1" fill="#231f1e" d="M 159.5,96.5 C 160.756,96.9038 161.923,97.5705 163,98.5C 163.95,97.9777 164.784,97.311 165.5,96.5C 166.842,98.0049 168.508,98.6715 170.5,98.5C 170.421,99.9305 170.754,101.264 171.5,102.5C 169.833,103.167 168.167,103.833 166.5,104.5C 164.739,108.303 163.739,112.303 163.5,116.5C 165.818,117.709 168.151,119.043 170.5,120.5C 170.665,123.518 170.498,126.518 170,129.5C 168.684,126.972 167.517,126.972 166.5,129.5C 165.817,129.137 165.15,128.804 164.5,128.5C 163.833,127.167 163.167,127.167 162.5,128.5C 161.849,127.909 161.182,127.243 160.5,126.5C 159.833,130.167 159.167,133.833 158.5,137.5C 157.833,134.358 157.166,131.358 156.5,128.5C 156.5,126.833 156.5,125.167 156.5,123.5C 157.801,117.301 157.468,111.301 155.5,105.5C 155.737,104.209 155.404,103.209 154.5,102.5C 154.058,98.6157 155.725,96.6157 159.5,96.5 Z"/></g>
<g><path style="opacity:1" fill="#e2dc3c" d="M 145.5,100.5 C 148.402,101.578 151.402,102.244 154.5,102.5C 155.404,103.209 155.737,104.209 155.5,105.5C 155.279,111.71 155.279,117.71 155.5,123.5C 155.042,133.161 154.709,142.828 154.5,152.5C 153.766,153.708 153.433,155.041 153.5,156.5C 150.287,156.19 147.287,156.523 144.5,157.5C 144.167,157.5 143.833,157.5 143.5,157.5C 145.988,155.612 148.988,154.945 152.5,155.5C 152.936,144.471 152.936,133.471 152.5,122.5C 153.952,119.225 154.619,115.725 154.5,112C 155.231,105.231 152.231,102.397 145.5,103.5C 145.5,102.5 145.5,101.5 145.5,100.5 Z"/></g>
<g><path style="opacity:1" fill="#2a2313" d="M 170.5,98.5 C 172.453,99.6258 173.953,101.292 175,103.5C 175.831,110.192 175.664,116.858 174.5,123.5C 172.545,124.28 171.545,125.78 171.5,128C 172.264,132.47 172.597,136.97 172.5,141.5C 172.241,145.24 172.574,148.906 173.5,152.5C 176.768,153.487 180.102,153.82 183.5,153.5C 183.5,156.167 183.5,158.833 183.5,161.5C 183.843,163.483 183.176,164.817 181.5,165.5C 172.619,165.853 163.952,166.853 155.5,168.5C 153.167,168.5 150.833,168.5 148.5,168.5C 147.167,168.5 145.833,168.5 144.5,168.5C 144.5,167.167 144.5,165.833 144.5,164.5C 145.468,162.393 145.802,160.059 145.5,157.5C 146.5,157.5 147.5,157.5 148.5,157.5C 148.5,159.5 148.5,161.5 148.5,163.5C 149.833,163.5 151.167,163.5 152.5,163.5C 152.5,162.167 152.5,160.833 152.5,159.5C 153.873,159.343 155.207,159.51 156.5,160C 155.663,161.011 155.33,162.178 155.5,163.5C 160.489,164.222 165.489,164.388 170.5,164C 167.957,163.86 165.623,163.194 163.5,162C 169.491,161.501 175.491,161.334 181.5,161.5C 181.799,159.396 181.466,157.396 180.5,155.5C 179.571,156.689 179.238,158.022 179.5,159.5C 178.167,159.5 176.833,159.5 175.5,159.5C 174.265,156.92 172.599,154.587 170.5,152.5C 168.813,144.42 166.813,136.42 164.5,128.5C 165.15,128.804 165.817,129.137 166.5,129.5C 167.517,126.972 168.684,126.972 170,129.5C 170.498,126.518 170.665,123.518 170.5,120.5C 168.151,119.043 165.818,117.709 163.5,116.5C 163.739,112.303 164.739,108.303 166.5,104.5C 168.167,103.833 169.833,103.167 171.5,102.5C 170.754,101.264 170.421,99.9305 170.5,98.5 Z"/></g>
<g><path style="opacity:1" fill="#bac242" d="M 171.5,109.5 C 172.641,112.64 172.808,115.973 172,119.5C 171.617,120.056 171.117,120.389 170.5,120.5C 170.5,118.5 170.5,116.5 170.5,114.5C 170.216,112.585 170.549,110.919 171.5,109.5 Z"/></g>
<g><path style="opacity:1" fill="#c5c794" d="M 171.5,109.5 C 170.549,110.919 170.216,112.585 170.5,114.5C 169.197,111.645 169.197,108.645 170.5,105.5C 171.429,106.689 171.762,108.022 171.5,109.5 Z"/></g>
<g><path style="opacity:1" fill="#2a250c" d="M 162.5,128.5 C 161.85,130.435 161.517,132.435 161.5,134.5C 160.833,137.833 160.167,141.167 159.5,144.5C 158.518,147.962 158.185,151.629 158.5,155.5C 162.452,154.728 166.452,154.395 170.5,154.5C 170.5,155.5 170.5,156.5 170.5,157.5C 166.818,157.665 163.152,157.499 159.5,157C 158.151,156.228 157.318,155.061 157,153.5C 155.294,154.308 154.461,155.641 154.5,157.5C 152.5,157.5 150.5,157.5 148.5,157.5C 147.5,157.5 146.5,157.5 145.5,157.5C 145.802,160.059 145.468,162.393 144.5,164.5C 144.5,162.167 144.5,159.833 144.5,157.5C 147.287,156.523 150.287,156.19 153.5,156.5C 153.433,155.041 153.766,153.708 154.5,152.5C 155.631,144.686 156.298,136.686 156.5,128.5C 157.166,131.358 157.833,134.358 158.5,137.5C 159.167,133.833 159.833,130.167 160.5,126.5C 161.182,127.243 161.849,127.909 162.5,128.5 Z"/></g>
<g><path style="opacity:1" fill="#e4e13a" d="M 246.5,155.5 C 246.784,153.585 246.451,151.919 245.5,150.5C 240.289,149.053 234.955,147.72 229.5,146.5C 228.833,146.5 228.167,146.5 227.5,146.5C 226.081,145.549 224.415,145.216 222.5,145.5C 222.5,153.833 222.5,162.167 222.5,170.5C 222.214,185.869 222.547,201.202 223.5,216.5C 222.222,216.782 221.222,217.449 220.5,218.5C 219.531,195.176 218.864,171.843 218.5,148.5C 218.5,146.833 218.5,145.167 218.5,143.5C 211.95,143.454 205.617,144.121 199.5,145.5C 195.5,145.5 191.5,145.5 187.5,145.5C 187.02,150.822 186.687,156.155 186.5,161.5C 185.566,162.568 185.232,163.901 185.5,165.5C 190.619,164.897 195.285,165.564 199.5,167.5C 197.901,167.232 196.568,167.566 195.5,168.5C 194.167,168.5 192.833,168.5 191.5,168.5C 189.833,168.5 188.167,168.5 186.5,168.5C 182.774,168.823 179.107,168.489 175.5,167.5C 177.631,166.831 179.631,166.165 181.5,165.5C 183.176,164.817 183.843,163.483 183.5,161.5C 184.477,158.713 184.81,155.713 184.5,152.5C 186.115,150.026 186.448,147.36 185.5,144.5C 194.988,143.943 204.321,142.943 213.5,141.5C 216.454,141.291 219.121,141.958 221.5,143.5C 222.167,142.833 222.833,142.167 223.5,141.5C 231.159,144.996 239.159,147.329 247.5,148.5C 247.802,151.059 247.468,153.393 246.5,155.5 Z"/></g>
<g><path style="opacity:1" fill="#a69f3f" d="M 172.5,141.5 C 173.236,144.695 173.903,148.029 174.5,151.5C 177.768,152.487 181.102,152.82 184.5,152.5C 184.81,155.713 184.477,158.713 183.5,161.5C 183.5,158.833 183.5,156.167 183.5,153.5C 180.102,153.82 176.768,153.487 173.5,152.5C 172.574,148.906 172.241,145.24 172.5,141.5 Z"/></g>
<g><path style="opacity:1" fill="#847b22" d="M 218.5,148.5 C 217.566,147.432 217.232,146.099 217.5,144.5C 211.509,144.966 205.509,145.299 199.5,145.5C 205.617,144.121 211.95,143.454 218.5,143.5C 218.5,145.167 218.5,146.833 218.5,148.5 Z"/></g>
<g><path style="opacity:1" fill="#736a2d" d="M 155.5,123.5 C 155.833,123.5 156.167,123.5 156.5,123.5C 156.5,125.167 156.5,126.833 156.5,128.5C 156.298,136.686 155.631,144.686 154.5,152.5C 154.709,142.828 155.042,133.161 155.5,123.5 Z"/></g>
<g><path style="opacity:1" fill="#f8f01c" d="M 159.5,144.5 C 160.167,141.167 160.833,137.833 161.5,134.5C 162.151,133.909 162.818,133.243 163.5,132.5C 164.552,138.681 166.218,144.681 168.5,150.5C 168.182,151.647 167.516,152.481 166.5,153C 164.19,153.497 161.857,153.663 159.5,153.5C 159.5,150.5 159.5,147.5 159.5,144.5 Z"/></g>
<g><path style="opacity:1" fill="#282412" d="M 229.5,146.5 C 234.955,147.72 240.289,149.053 245.5,150.5C 245.287,157.174 244.954,163.841 244.5,170.5C 244.802,173.059 244.468,175.393 243.5,177.5C 242.286,169 242.286,160.667 243.5,152.5C 239.983,155.297 236.983,154.797 234.5,151C 232.866,150.506 231.199,150.34 229.5,150.5C 229.5,149.167 229.5,147.833 229.5,146.5 Z"/></g>
<g><path style="opacity:1" fill="#2a2414" d="M 218.5,148.5 C 218.864,171.843 219.531,195.176 220.5,218.5C 218.833,218.5 217.167,218.5 215.5,218.5C 215.5,217.5 215.5,216.5 215.5,215.5C 206.167,214.833 206.167,214.167 215.5,213.5C 215.334,208.489 215.501,203.489 216,198.5C 216.889,199.888 217.389,199.722 217.5,198C 216.833,194 216.167,190 215.5,186C 216.507,184.48 217.173,182.813 217.5,181C 216.667,175.167 215.833,169.333 215,163.5C 213.989,162.663 212.822,162.33 211.5,162.5C 212.326,159.757 213.659,157.257 215.5,155C 214.692,154.692 214.025,154.192 213.5,153.5C 215.173,151.477 215.84,149.144 215.5,146.5C 208.145,147.468 200.812,147.468 193.5,146.5C 194.406,149.436 195.072,152.436 195.5,155.5C 194.167,155.5 192.833,155.5 191.5,155.5C 191.662,153.473 191.495,151.473 191,149.5C 189.347,151.232 188.514,153.399 188.5,156C 188.833,157.833 189.167,159.667 189.5,161.5C 190.429,160.311 190.762,158.978 190.5,157.5C 196.189,159.783 202.189,161.116 208.5,161.5C 208.402,166.266 207.736,170.933 206.5,175.5C 205.549,174.081 205.216,172.415 205.5,170.5C 205.5,169.5 205.5,168.5 205.5,167.5C 206.434,166.432 206.768,165.099 206.5,163.5C 199.852,164.139 193.186,164.473 186.5,164.5C 186.5,163.5 186.5,162.5 186.5,161.5C 186.687,156.155 187.02,150.822 187.5,145.5C 191.5,145.5 195.5,145.5 199.5,145.5C 205.509,145.299 211.509,144.966 217.5,144.5C 217.232,146.099 217.566,147.432 218.5,148.5 Z"/></g>
<g><path style="opacity:1" fill="#d7d34f" d="M 164.5,128.5 C 166.813,136.42 168.813,144.42 170.5,152.5C 170.5,153.167 170.5,153.833 170.5,154.5C 166.452,154.395 162.452,154.728 158.5,155.5C 158.185,151.629 158.518,147.962 159.5,144.5C 159.5,147.5 159.5,150.5 159.5,153.5C 161.857,153.663 164.19,153.497 166.5,153C 167.516,152.481 168.182,151.647 168.5,150.5C 166.218,144.681 164.552,138.681 163.5,132.5C 162.818,133.243 162.151,133.909 161.5,134.5C 161.517,132.435 161.85,130.435 162.5,128.5C 163.167,127.167 163.833,127.167 164.5,128.5 Z"/></g>
<g><path style="opacity:1" fill="#231f1f" d="M 227.5,146.5 C 228.167,146.5 228.833,146.5 229.5,146.5C 229.5,147.833 229.5,149.167 229.5,150.5C 231.199,150.34 232.866,150.506 234.5,151C 236.983,154.797 239.983,155.297 243.5,152.5C 242.286,160.667 242.286,169 243.5,177.5C 243.357,189.506 243.023,201.506 242.5,213.5C 242.5,213.833 242.5,214.167 242.5,214.5C 237.833,214.833 233.167,215.167 228.5,215.5C 227.172,210.712 226.505,205.546 226.5,200C 226.533,194.298 226.866,188.631 227.5,183C 224.459,171.048 223.459,158.882 224.5,146.5C 225.5,146.5 226.5,146.5 227.5,146.5 Z"/></g>
<g><path style="opacity:1" fill="#221d23" d="M 170.5,152.5 C 172.599,154.587 174.265,156.92 175.5,159.5C 176.833,159.5 178.167,159.5 179.5,159.5C 179.238,158.022 179.571,156.689 180.5,155.5C 181.466,157.396 181.799,159.396 181.5,161.5C 175.491,161.334 169.491,161.501 163.5,162C 165.623,163.194 167.957,163.86 170.5,164C 165.489,164.388 160.489,164.222 155.5,163.5C 155.33,162.178 155.663,161.011 156.5,160C 155.207,159.51 153.873,159.343 152.5,159.5C 152.5,160.833 152.5,162.167 152.5,163.5C 151.167,163.5 149.833,163.5 148.5,163.5C 148.5,161.5 148.5,159.5 148.5,157.5C 150.5,157.5 152.5,157.5 154.5,157.5C 154.461,155.641 155.294,154.308 157,153.5C 157.318,155.061 158.151,156.228 159.5,157C 163.152,157.499 166.818,157.665 170.5,157.5C 170.5,156.5 170.5,155.5 170.5,154.5C 170.5,153.833 170.5,153.167 170.5,152.5 Z"/></g>
<g><path style="opacity:1" fill="#9e954a" d="M 143.5,157.5 C 143.833,157.5 144.167,157.5 144.5,157.5C 144.5,159.833 144.5,162.167 144.5,164.5C 144.5,165.833 144.5,167.167 144.5,168.5C 145.833,168.5 147.167,168.5 148.5,168.5C 147.081,169.451 145.415,169.784 143.5,169.5C 143.5,165.5 143.5,161.5 143.5,157.5 Z"/></g>
<g><path style="opacity:1" fill="#b4af42" d="M 245.5,150.5 C 246.451,151.919 246.784,153.585 246.5,155.5C 246.5,159.167 246.5,162.833 246.5,166.5C 245.833,167.833 245.167,169.167 244.5,170.5C 244.954,163.841 245.287,157.174 245.5,150.5 Z"/></g>
<g><path style="opacity:1" fill="#b8b549" d="M 186.5,161.5 C 186.5,162.5 186.5,163.5 186.5,164.5C 193.186,164.473 199.852,164.139 206.5,163.5C 206.768,165.099 206.434,166.432 205.5,167.5C 205.5,166.5 205.5,165.5 205.5,164.5C 203.571,164.231 201.905,164.731 200.5,166C 201.416,166.278 202.082,166.778 202.5,167.5C 201.5,167.5 200.5,167.5 199.5,167.5C 195.285,165.564 190.619,164.897 185.5,165.5C 185.232,163.901 185.566,162.568 186.5,161.5 Z"/></g>
<g><path style="opacity:1" fill="#c2bc4c" d="M 181.5,165.5 C 179.631,166.165 177.631,166.831 175.5,167.5C 179.107,168.489 182.774,168.823 186.5,168.5C 182.382,169.709 178.049,170.376 173.5,170.5C 173.389,169.883 173.056,169.383 172.5,169C 166.843,168.501 161.176,168.334 155.5,168.5C 163.952,166.853 172.619,165.853 181.5,165.5 Z"/></g>
<g><path style="opacity:1" fill="#3f340b" d="M 195.5,168.5 C 196.568,167.566 197.901,167.232 199.5,167.5C 200.5,167.5 201.5,167.5 202.5,167.5C 202.405,169.786 201.738,171.786 200.5,173.5C 200.817,169.828 199.151,168.162 195.5,168.5 Z"/></g>
<g><path style="opacity:1" fill="#e7e33d" d="M 148.5,168.5 C 150.833,168.5 153.167,168.5 155.5,168.5C 161.176,168.334 166.843,168.501 172.5,169C 173.056,169.383 173.389,169.883 173.5,170.5C 172.5,170.5 171.5,170.5 170.5,170.5C 158.827,171.427 147.16,172.427 135.5,173.5C 135.5,174.833 135.5,176.167 135.5,177.5C 134.374,180.465 133.374,183.465 132.5,186.5C 132.041,181.19 133.041,176.19 135.5,171.5C 138.144,170.705 140.811,170.038 143.5,169.5C 145.415,169.784 147.081,169.451 148.5,168.5 Z"/></g>
<g><path style="opacity:1" fill="#251c21" d="M 191.5,168.5 C 192.833,168.5 194.167,168.5 195.5,168.5C 199.151,168.162 200.817,169.828 200.5,173.5C 200.5,174.167 200.5,174.833 200.5,175.5C 199.5,175.5 198.5,175.5 197.5,175.5C 196.012,180.359 195.345,185.359 195.5,190.5C 194.084,187.933 192.584,185.266 191,182.5C 190.23,178.159 190.73,173.992 192.5,170C 191.944,169.617 191.611,169.117 191.5,168.5 Z"/></g>
<g><path style="opacity:1" fill="#3a3211" d="M 170.5,170.5 C 162.804,172.753 154.804,173.919 146.5,174C 146.833,174.333 147.167,174.667 147.5,175C 143.19,175.007 139.19,175.841 135.5,177.5C 135.5,176.167 135.5,174.833 135.5,173.5C 147.16,172.427 158.827,171.427 170.5,170.5 Z"/></g>
<g><path style="opacity:1" fill="#443d16" d="M 205.5,170.5 C 205.216,172.415 205.549,174.081 206.5,175.5C 204.799,181.729 203.466,188.063 202.5,194.5C 203.552,194.351 204.552,194.517 205.5,195C 203.751,195.785 202.084,196.618 200.5,197.5C 201.86,188.325 203.527,179.325 205.5,170.5 Z"/></g>
<g><path style="opacity:1" fill="#231f1f" d="M 186.5,168.5 C 188.167,168.5 189.833,168.5 191.5,168.5C 191.611,169.117 191.944,169.617 192.5,170C 190.73,173.992 190.23,178.159 191,182.5C 192.584,185.266 194.084,187.933 195.5,190.5C 190.344,191.782 185.011,192.782 179.5,193.5C 174.522,193.096 169.855,194.096 165.5,196.5C 164.095,201.857 162.762,207.191 161.5,212.5C 161.69,214.856 162.857,216.523 165,217.5C 168.398,218.955 171.898,219.955 175.5,220.5C 181.081,222.767 186.415,225.434 191.5,228.5C 191.859,230.371 192.859,231.871 194.5,233C 201.175,233.18 203.175,236.347 200.5,242.5C 203.487,242.578 204.153,241.411 202.5,239C 205.34,235.411 206.673,236.078 206.5,241C 205.716,244.31 205.05,247.643 204.5,251C 205.658,256.453 206.492,261.953 207,267.5C 207.308,266.692 207.808,266.025 208.5,265.5C 209.217,268.271 209.551,270.937 209.5,273.5C 196.513,274.666 183.513,274.833 170.5,274C 166.708,273.311 164.708,271.144 164.5,267.5C 162.394,267.321 160.728,266.321 159.5,264.5C 161.745,262.24 164.411,260.906 167.5,260.5C 167.5,261.5 167.5,262.5 167.5,263.5C 168.5,263.5 169.5,263.5 170.5,263.5C 168.182,255.186 164.182,254.353 158.5,261C 156.803,261.384 155.137,261.218 153.5,260.5C 147.13,255.131 141.463,249.131 136.5,242.5C 137.082,241.069 137.915,239.736 139,238.5C 139.854,236.393 139.188,235.059 137,234.5C 135.832,235.509 134.665,236.509 133.5,237.5C 132.571,236.311 132.238,234.978 132.5,233.5C 134.355,233.728 135.188,233.061 135,231.5C 132.38,229.533 129.546,227.866 126.5,226.5C 126.069,225.707 125.735,224.873 125.5,224C 127.117,220.026 127.95,215.859 128,211.5C 129.153,213.497 130.653,213.83 132.5,212.5C 130.63,207.739 129.963,202.739 130.5,197.5C 131.008,193.803 131.674,190.136 132.5,186.5C 133.374,183.465 134.374,180.465 135.5,177.5C 139.19,175.841 143.19,175.007 147.5,175C 147.167,174.667 146.833,174.333 146.5,174C 154.804,173.919 162.804,172.753 170.5,170.5C 171.5,170.5 172.5,170.5 173.5,170.5C 178.049,170.376 182.382,169.709 186.5,168.5 Z"/></g>
<g><path style="opacity:1" fill="#271e10" d="M 227.5,146.5 C 226.5,146.5 225.5,146.5 224.5,146.5C 223.459,158.882 224.459,171.048 227.5,183C 226.866,188.631 226.533,194.298 226.5,200C 226.505,205.546 227.172,210.712 228.5,215.5C 228.5,216.167 228.167,216.5 227.5,216.5C 226.5,216.5 225.5,216.5 224.5,216.5C 224.22,200.993 223.553,185.66 222.5,170.5C 222.5,162.167 222.5,153.833 222.5,145.5C 224.415,145.216 226.081,145.549 227.5,146.5 Z"/></g>
<g><path style="opacity:1" fill="#2d260f" d="M 200.5,175.5 C 199.277,180.757 197.611,185.757 195.5,190.5C 195.345,185.359 196.012,180.359 197.5,175.5C 198.5,175.5 199.5,175.5 200.5,175.5 Z"/></g>
<g><path style="opacity:1" fill="#a8a736" d="M 267.5,175.5 C 267.5,178.5 267.5,181.5 267.5,184.5C 266.833,185.833 266.167,187.167 265.5,188.5C 265.156,183.878 265.823,179.545 267.5,175.5 Z"/></g>
<g><path style="opacity:1" fill="#2e2714" d="M 260.5,166.5 C 256.715,166.369 253.048,165.702 249.5,164.5C 248.958,175.254 250.292,185.754 253.5,196C 253.291,197.871 252.291,199.038 250.5,199.5C 249.516,202.428 249.183,205.428 249.5,208.5C 253.198,208.552 256.865,208.886 260.5,209.5C 260.273,206.562 261.273,204.229 263.5,202.5C 262.949,205.807 262.616,209.14 262.5,212.5C 257.968,212.182 253.634,212.515 249.5,213.5C 248.5,213.5 247.5,213.5 246.5,213.5C 246.34,196.463 247.007,179.463 248.5,162.5C 252.805,163.235 256.805,164.568 260.5,166.5 Z"/></g>
<g><path style="opacity:1" fill="#231e1f" d="M 260.5,166.5 C 261.167,166.5 261.833,166.5 262.5,166.5C 264.117,167.038 265.784,167.371 267.5,167.5C 267.5,170.167 267.5,172.833 267.5,175.5C 265.823,179.545 265.156,183.878 265.5,188.5C 264.51,193.081 263.843,197.747 263.5,202.5C 261.273,204.229 260.273,206.562 260.5,209.5C 256.865,208.886 253.198,208.552 249.5,208.5C 249.183,205.428 249.516,202.428 250.5,199.5C 252.291,199.038 253.291,197.871 253.5,196C 250.292,185.754 248.958,175.254 249.5,164.5C 253.048,165.702 256.715,166.369 260.5,166.5 Z"/></g>
<g><path style="opacity:1" fill="#eae531" d="M 205.5,167.5 C 205.5,168.5 205.5,169.5 205.5,170.5C 203.527,179.325 201.86,188.325 200.5,197.5C 197.615,197.194 194.948,197.527 192.5,198.5C 191.835,200.369 191.169,202.369 190.5,204.5C 189.818,203.757 189.151,203.091 188.5,202.5C 188.715,200.821 188.048,199.821 186.5,199.5C 185.833,199.5 185.167,199.5 184.5,199.5C 182.167,199.5 179.833,199.5 177.5,199.5C 175.833,199.5 174.167,199.5 172.5,199.5C 172.187,203.042 172.521,206.375 173.5,209.5C 178.565,214.213 184.232,218.213 190.5,221.5C 192.598,220.086 193.598,220.752 193.5,223.5C 195.099,223.768 196.432,223.434 197.5,222.5C 198.167,222.5 198.833,222.5 199.5,222.5C 200.5,222.5 201.5,222.5 202.5,222.5C 201.791,223.404 200.791,223.737 199.5,223.5C 199.343,224.873 199.51,226.207 200,227.5C 202.34,230.071 204.506,232.737 206.5,235.5C 201.349,233.424 196.349,231.09 191.5,228.5C 186.415,225.434 181.081,222.767 175.5,220.5C 172.345,217.752 168.678,215.752 164.5,214.5C 163.798,208.7 164.631,203.034 167,197.5C 171.239,196.096 175.406,194.762 179.5,193.5C 185.011,192.782 190.344,191.782 195.5,190.5C 197.611,185.757 199.277,180.757 200.5,175.5C 200.5,174.833 200.5,174.167 200.5,173.5C 201.738,171.786 202.405,169.786 202.5,167.5C 202.082,166.778 201.416,166.278 200.5,166C 201.905,164.731 203.571,164.231 205.5,164.5C 205.5,165.5 205.5,166.5 205.5,167.5 Z"/></g>
<g><path style="opacity:1" fill="#231f20" d="M 215.5,218.5 C 214.508,218.328 213.842,218.662 213.5,219.5C 208.556,219.754 203.889,220.754 199.5,222.5C 198.833,222.5 198.167,222.5 197.5,222.5C 196.5,222.5 195.5,222.5 194.5,222.5C 193.339,214.545 192.672,206.545 192.5,198.5C 194.948,197.527 197.615,197.194 200.5,197.5C 202.084,196.618 203.751,195.785 205.5,195C 204.552,194.517 203.552,194.351 202.5,194.5C 203.466,188.063 204.799,181.729 206.5,175.5C 207.736,170.933 208.402,166.266 208.5,161.5C 202.189,161.116 196.189,159.783 190.5,157.5C 190.762,158.978 190.429,160.311 189.5,161.5C 189.167,159.667 188.833,157.833 188.5,156C 188.514,153.399 189.347,151.232 191,149.5C 191.495,151.473 191.662,153.473 191.5,155.5C 192.833,155.5 194.167,155.5 195.5,155.5C 195.072,152.436 194.406,149.436 193.5,146.5C 200.812,147.468 208.145,147.468 215.5,146.5C 215.84,149.144 215.173,151.477 213.5,153.5C 214.025,154.192 214.692,154.692 215.5,155C 213.659,157.257 212.326,159.757 211.5,162.5C 212.822,162.33 213.989,162.663 215,163.5C 215.833,169.333 216.667,175.167 217.5,181C 217.173,182.813 216.507,184.48 215.5,186C 216.167,190 216.833,194 217.5,198C 217.389,199.722 216.889,199.888 216,198.5C 215.501,203.489 215.334,208.489 215.5,213.5C 206.167,214.167 206.167,214.833 215.5,215.5C 215.5,216.5 215.5,217.5 215.5,218.5 Z"/></g>
<g><path style="opacity:1" fill="#a59f3e" d="M 177.5,199.5 C 176.432,200.434 175.099,200.768 173.5,200.5C 173.5,203.5 173.5,206.5 173.5,209.5C 172.521,206.375 172.187,203.042 172.5,199.5C 174.167,199.5 175.833,199.5 177.5,199.5 Z"/></g>
<g><path style="opacity:1" fill="#302710" d="M 179.5,193.5 C 175.406,194.762 171.239,196.096 167,197.5C 164.631,203.034 163.798,208.7 164.5,214.5C 168.678,215.752 172.345,217.752 175.5,220.5C 171.898,219.955 168.398,218.955 165,217.5C 162.857,216.523 161.69,214.856 161.5,212.5C 162.762,207.191 164.095,201.857 165.5,196.5C 169.855,194.096 174.522,193.096 179.5,193.5 Z"/></g>
<g><path style="opacity:1" fill="#d4d444" d="M 262.5,166.5 C 261.833,166.5 261.167,166.5 260.5,166.5C 256.805,164.568 252.805,163.235 248.5,162.5C 247.007,179.463 246.34,196.463 246.5,213.5C 245.167,213.5 243.833,213.5 242.5,213.5C 243.023,201.506 243.357,189.506 243.5,177.5C 244.468,175.393 244.802,173.059 244.5,170.5C 245.167,169.167 245.833,167.833 246.5,166.5C 246.343,167.873 246.51,169.207 247,170.5C 247.498,167.518 247.665,164.518 247.5,161.5C 252.427,161.299 257.093,162.299 261.5,164.5C 262.298,164.957 262.631,165.624 262.5,166.5 Z"/></g>
<g><path style="opacity:1" fill="#8e8334" d="M 222.5,170.5 C 223.553,185.66 224.22,200.993 224.5,216.5C 225.5,216.5 226.5,216.5 227.5,216.5C 227.5,216.833 227.5,217.167 227.5,217.5C 225.901,217.768 224.568,217.434 223.5,216.5C 222.547,201.202 222.214,185.869 222.5,170.5 Z"/></g>
<g><path style="opacity:1" fill="#f0e92b" d="M 267.5,184.5 C 267.626,192.324 266.626,199.991 264.5,207.5C 266.401,208.935 266.734,210.602 265.5,212.5C 267.71,213.766 269.71,215.266 271.5,217C 270.66,218.171 269.827,219.338 269,220.5C 267.266,218.549 265.099,217.549 262.5,217.5C 262.665,221.182 262.499,224.848 262,228.5C 261.385,231.303 260.218,233.636 258.5,235.5C 258.5,234.833 258.5,234.167 258.5,233.5C 258.5,232.167 258.5,230.833 258.5,229.5C 260.37,226.191 261.37,222.525 261.5,218.5C 248.313,222.757 235.313,227.59 222.5,233C 219.832,233.567 217.166,234.067 214.5,234.5C 215.164,239.473 215.497,244.473 215.5,249.5C 214.143,243.58 212.477,237.58 210.5,231.5C 205.167,230.833 205.167,230.167 210.5,229.5C 210.5,228.5 210.5,227.5 210.5,226.5C 211.5,226.5 212.5,226.5 213.5,226.5C 213.687,229.026 215.02,230.693 217.5,231.5C 223.536,229.649 229.203,226.982 234.5,223.5C 239.132,222.672 243.798,222.172 248.5,222C 247.692,221.692 247.025,221.192 246.5,220.5C 247.99,219.174 249.324,217.674 250.5,216C 250.167,215.667 249.833,215.333 249.5,215C 259.802,214.259 259.802,213.759 249.5,213.5C 253.634,212.515 257.968,212.182 262.5,212.5C 262.616,209.14 262.949,205.807 263.5,202.5C 263.843,197.747 264.51,193.081 265.5,188.5C 266.167,187.167 266.833,185.833 267.5,184.5 Z"/></g>
<g><path style="opacity:1" fill="#d7d644" d="M 192.5,198.5 C 192.672,206.545 193.339,214.545 194.5,222.5C 195.5,222.5 196.5,222.5 197.5,222.5C 196.432,223.434 195.099,223.768 193.5,223.5C 193.598,220.752 192.598,220.086 190.5,221.5C 190.208,215.123 189.541,208.79 188.5,202.5C 189.151,203.091 189.818,203.757 190.5,204.5C 191.169,202.369 191.835,200.369 192.5,198.5 Z"/></g>
<g><path style="opacity:1" fill="#2e2712" d="M 177.5,199.5 C 179.833,199.5 182.167,199.5 184.5,199.5C 184.631,200.239 184.464,200.906 184,201.5C 182.644,200.62 181.144,200.286 179.5,200.5C 179.5,201.833 179.5,203.167 179.5,204.5C 181.167,204.5 182.833,204.5 184.5,204.5C 184.5,205.5 184.5,206.5 184.5,207.5C 182.167,207.5 179.833,207.5 177.5,207.5C 177.657,206.127 177.49,204.793 177,203.5C 175.681,205.25 175.181,207.25 175.5,209.5C 178.582,210.13 181.582,211.13 184.5,212.5C 182.973,214.33 183.473,215.33 186,215.5C 186.833,215.167 187.667,214.833 188.5,214.5C 186.63,209.739 185.963,204.739 186.5,199.5C 188.048,199.821 188.715,200.821 188.5,202.5C 189.541,208.79 190.208,215.123 190.5,221.5C 184.232,218.213 178.565,214.213 173.5,209.5C 173.5,206.5 173.5,203.5 173.5,200.5C 175.099,200.768 176.432,200.434 177.5,199.5 Z"/></g>
<g><path style="opacity:1" fill="#211e28" d="M 184.5,199.5 C 185.167,199.5 185.833,199.5 186.5,199.5C 185.963,204.739 186.63,209.739 188.5,214.5C 187.667,214.833 186.833,215.167 186,215.5C 183.473,215.33 182.973,214.33 184.5,212.5C 181.582,211.13 178.582,210.13 175.5,209.5C 175.181,207.25 175.681,205.25 177,203.5C 177.49,204.793 177.657,206.127 177.5,207.5C 179.833,207.5 182.167,207.5 184.5,207.5C 184.5,206.5 184.5,205.5 184.5,204.5C 182.833,204.5 181.167,204.5 179.5,204.5C 179.5,203.167 179.5,201.833 179.5,200.5C 181.144,200.286 182.644,200.62 184,201.5C 184.464,200.906 184.631,200.239 184.5,199.5 Z"/></g>
<g><path style="opacity:1" fill="#c8c445" d="M 242.5,214.5 C 237.731,216.075 232.731,217.075 227.5,217.5C 227.5,217.167 227.5,216.833 227.5,216.5C 228.167,216.5 228.5,216.167 228.5,215.5C 233.167,215.167 237.833,214.833 242.5,214.5 Z"/></g>
<g><path style="opacity:1" fill="#c7c147" d="M 213.5,219.5 C 210.314,221.874 206.647,222.874 202.5,222.5C 201.5,222.5 200.5,222.5 199.5,222.5C 203.889,220.754 208.556,219.754 213.5,219.5 Z"/></g>
<g><path style="opacity:1" fill="#fbf00d" d="M 242.5,213.5 C 243.833,213.5 245.167,213.5 246.5,213.5C 247.5,213.5 248.5,213.5 249.5,213.5C 259.802,213.759 259.802,214.259 249.5,215C 249.833,215.333 250.167,215.667 250.5,216C 249.324,217.674 247.99,219.174 246.5,220.5C 247.025,221.192 247.692,221.692 248.5,222C 243.798,222.172 239.132,222.672 234.5,223.5C 229.203,226.982 223.536,229.649 217.5,231.5C 215.02,230.693 213.687,229.026 213.5,226.5C 212.5,226.5 211.5,226.5 210.5,226.5C 210.5,227.5 210.5,228.5 210.5,229.5C 205.167,230.167 205.167,230.833 210.5,231.5C 212.477,237.58 214.143,243.58 215.5,249.5C 215.5,253.167 215.5,256.833 215.5,260.5C 215.66,262.199 215.494,263.866 215,265.5C 214.692,264.692 214.192,264.025 213.5,263.5C 212.193,254.849 211.026,246.182 210,237.5C 209.617,236.944 209.117,236.611 208.5,236.5C 208.158,235.662 207.492,235.328 206.5,235.5C 204.506,232.737 202.34,230.071 200,227.5C 199.51,226.207 199.343,224.873 199.5,223.5C 200.791,223.737 201.791,223.404 202.5,222.5C 206.647,222.874 210.314,221.874 213.5,219.5C 213.842,218.662 214.508,218.328 215.5,218.5C 217.167,218.5 218.833,218.5 220.5,218.5C 221.222,217.449 222.222,216.782 223.5,216.5C 224.568,217.434 225.901,217.768 227.5,217.5C 232.731,217.075 237.731,216.075 242.5,214.5C 242.5,214.167 242.5,213.833 242.5,213.5 Z"/></g>
<g><path style="opacity:1" fill="#282216" d="M 130.5,197.5 C 129.963,202.739 130.63,207.739 132.5,212.5C 130.653,213.83 129.153,213.497 128,211.5C 127.95,215.859 127.117,220.026 125.5,224C 125.735,224.873 126.069,225.707 126.5,226.5C 129.546,227.866 132.38,229.533 135,231.5C 135.188,233.061 134.355,233.728 132.5,233.5C 132.238,234.978 132.571,236.311 133.5,237.5C 134.665,236.509 135.832,235.509 137,234.5C 139.188,235.059 139.854,236.393 139,238.5C 137.915,239.736 137.082,241.069 136.5,242.5C 131.063,238.069 126.397,233.069 122.5,227.5C 125.018,217.309 127.684,207.309 130.5,197.5 Z"/></g>
<g><path style="opacity:1" fill="#231e20" d="M 258.5,229.5 C 258.5,230.833 258.5,232.167 258.5,233.5C 257.076,235.515 256.41,237.848 256.5,240.5C 254.37,248.085 252.704,255.751 251.5,263.5C 250.691,265.028 250.024,266.694 249.5,268.5C 247.243,269.613 246.576,271.279 247.5,273.5C 238.859,274.498 230.192,274.831 221.5,274.5C 221.351,273.448 221.517,272.448 222,271.5C 223.865,273.855 226.031,274.022 228.5,272C 227.5,271.5 226.5,271 225.5,270.5C 223.676,263.536 222.009,256.536 220.5,249.5C 220.833,247.167 221.167,244.833 221.5,242.5C 223.321,241.272 224.321,239.606 224.5,237.5C 222.738,237.357 221.071,237.691 219.5,238.5C 218.682,241.107 218.182,243.774 218,246.5C 217.211,242.909 217.378,239.409 218.5,236C 224.125,234.452 227.125,236.619 227.5,242.5C 229.896,240.933 232.563,240.1 235.5,240C 236.687,238.981 237.687,237.814 238.5,236.5C 239.689,235.571 241.022,235.238 242.5,235.5C 242.281,236.675 242.614,237.675 243.5,238.5C 246.683,237.177 248.35,234.844 248.5,231.5C 246.5,231.5 244.5,231.5 242.5,231.5C 242.5,230.167 242.5,228.833 242.5,227.5C 246.771,228.64 251.105,229.14 255.5,229C 252.992,228.885 250.992,227.885 249.5,226C 249.833,225.5 250.167,225 250.5,224.5C 252.264,226.479 254.264,226.812 256.5,225.5C 252.89,223.288 253.557,222.288 258.5,222.5C 258.5,224.833 258.5,227.167 258.5,229.5 Z"/></g>
<g><path style="opacity:1" fill="#928e32" d="M 258.5,233.5 C 258.5,234.167 258.5,234.833 258.5,235.5C 258.5,236.167 258.5,236.833 258.5,237.5C 257.833,238.5 257.167,239.5 256.5,240.5C 256.41,237.848 257.076,235.515 258.5,233.5 Z"/></g>
<g><path style="opacity:1" fill="#262114" d="M 191.5,228.5 C 196.349,231.09 201.349,233.424 206.5,235.5C 207.492,235.328 208.158,235.662 208.5,236.5C 209.366,248.224 210.699,259.891 212.5,271.5C 212.5,272.833 212.5,274.167 212.5,275.5C 197.5,275.5 182.5,275.5 167.5,275.5C 165.139,273.806 163.139,271.806 161.5,269.5C 158.833,266.5 156.167,263.5 153.5,260.5C 155.137,261.218 156.803,261.384 158.5,261C 164.182,254.353 168.182,255.186 170.5,263.5C 169.5,263.5 168.5,263.5 167.5,263.5C 167.5,262.5 167.5,261.5 167.5,260.5C 164.411,260.906 161.745,262.24 159.5,264.5C 160.728,266.321 162.394,267.321 164.5,267.5C 164.708,271.144 166.708,273.311 170.5,274C 183.513,274.833 196.513,274.666 209.5,273.5C 209.551,270.937 209.217,268.271 208.5,265.5C 207.808,266.025 207.308,266.692 207,267.5C 206.492,261.953 205.658,256.453 204.5,251C 205.05,247.643 205.716,244.31 206.5,241C 206.673,236.078 205.34,235.411 202.5,239C 204.153,241.411 203.487,242.578 200.5,242.5C 203.175,236.347 201.175,233.18 194.5,233C 192.859,231.871 191.859,230.371 191.5,228.5 Z"/></g>
<g><path style="opacity:1" fill="#c9c64a" d="M 215.5,249.5 C 216.857,255.31 217.857,261.31 218.5,267.5C 218.5,269.167 218.5,270.833 218.5,272.5C 217.823,268.429 216.823,264.429 215.5,260.5C 215.5,256.833 215.5,253.167 215.5,249.5 Z"/></g>
<g><path style="opacity:1" fill="#e6e02f" d="M 258.5,237.5 C 257.76,243.536 256.76,249.536 255.5,255.5C 257.375,259.653 256.041,262.32 251.5,263.5C 252.704,255.751 254.37,248.085 256.5,240.5C 257.167,239.5 257.833,238.5 258.5,237.5 Z"/></g>
<g><path style="opacity:1" fill="#251f18" d="M 258.5,229.5 C 258.5,227.167 258.5,224.833 258.5,222.5C 253.557,222.288 252.89,223.288 256.5,225.5C 254.264,226.812 252.264,226.479 250.5,224.5C 250.167,225 249.833,225.5 249.5,226C 250.992,227.885 252.992,228.885 255.5,229C 251.105,229.14 246.771,228.64 242.5,227.5C 242.5,228.833 242.5,230.167 242.5,231.5C 244.5,231.5 246.5,231.5 248.5,231.5C 248.35,234.844 246.683,237.177 243.5,238.5C 242.614,237.675 242.281,236.675 242.5,235.5C 241.022,235.238 239.689,235.571 238.5,236.5C 237.687,237.814 236.687,238.981 235.5,240C 232.563,240.1 229.896,240.933 227.5,242.5C 227.125,236.619 224.125,234.452 218.5,236C 217.378,239.409 217.211,242.909 218,246.5C 218.182,243.774 218.682,241.107 219.5,238.5C 221.071,237.691 222.738,237.357 224.5,237.5C 224.321,239.606 223.321,241.272 221.5,242.5C 221.167,244.833 220.833,247.167 220.5,249.5C 222.009,256.536 223.676,263.536 225.5,270.5C 226.5,271 227.5,271.5 228.5,272C 226.031,274.022 223.865,273.855 222,271.5C 221.517,272.448 221.351,273.448 221.5,274.5C 230.192,274.831 238.859,274.498 247.5,273.5C 246.576,271.279 247.243,269.613 249.5,268.5C 249.279,271.067 248.612,273.401 247.5,275.5C 238.5,275.5 229.5,275.5 220.5,275.5C 220.435,272.572 219.768,269.905 218.5,267.5C 217.857,261.31 216.857,255.31 215.5,249.5C 215.497,244.473 215.164,239.473 214.5,234.5C 217.166,234.067 219.832,233.567 222.5,233C 235.313,227.59 248.313,222.757 261.5,218.5C 261.37,222.525 260.37,226.191 258.5,229.5 Z"/></g>
<g><path style="opacity:1" fill="#e9e331" d="M 208.5,236.5 C 209.117,236.611 209.617,236.944 210,237.5C 211.026,246.182 212.193,254.849 213.5,263.5C 214.192,264.025 214.692,264.692 215,265.5C 215.494,263.866 215.66,262.199 215.5,260.5C 216.823,264.429 217.823,268.429 218.5,272.5C 219.434,273.568 219.768,274.901 219.5,276.5C 229.015,276.827 238.348,276.494 247.5,275.5C 248.612,273.401 249.279,271.067 249.5,268.5C 250.024,266.694 250.691,265.028 251.5,263.5C 251.5,267.833 251.5,272.167 251.5,276.5C 250.448,276.351 249.448,276.517 248.5,277C 249.481,284.413 249.814,291.913 249.5,299.5C 248.833,297.833 248.167,296.167 247.5,294.5C 247.5,292.833 247.5,291.167 247.5,289.5C 247.5,286.833 247.5,284.167 247.5,281.5C 221.833,281.5 196.167,281.5 170.5,281.5C 170.5,280.5 170.5,279.5 170.5,278.5C 164.563,278.563 161.563,275.563 161.5,269.5C 163.139,271.806 165.139,273.806 167.5,275.5C 182.658,276.496 197.991,276.83 213.5,276.5C 213.784,274.585 213.451,272.919 212.5,271.5C 210.699,259.891 209.366,248.224 208.5,236.5 Z"/></g>
<g><path style="opacity:1" fill="#4f400c" d="M 218.5,267.5 C 219.768,269.905 220.435,272.572 220.5,275.5C 229.5,275.5 238.5,275.5 247.5,275.5C 238.348,276.494 229.015,276.827 219.5,276.5C 219.768,274.901 219.434,273.568 218.5,272.5C 218.5,270.833 218.5,269.167 218.5,267.5 Z"/></g>
<g><path style="opacity:1" fill="#756827" d="M 212.5,271.5 C 213.451,272.919 213.784,274.585 213.5,276.5C 197.991,276.83 182.658,276.496 167.5,275.5C 182.5,275.5 197.5,275.5 212.5,275.5C 212.5,274.167 212.5,272.833 212.5,271.5 Z"/></g>
<g><path style="opacity:1" fill="#2a230c" d="M 170.5,281.5 C 196.167,281.5 221.833,281.5 247.5,281.5C 247.5,284.167 247.5,286.833 247.5,289.5C 246.532,287.393 246.198,285.059 246.5,282.5C 239.159,282.334 231.826,282.5 224.5,283C 220.911,283.037 217.578,283.87 214.5,285.5C 207.836,284.205 201.002,283.538 194,283.5C 186.067,283.64 178.234,284.307 170.5,285.5C 170.5,284.167 170.5,282.833 170.5,281.5 Z"/></g>
<g><path style="opacity:1" fill="#221e21" d="M 247.5,289.5 C 247.5,291.167 247.5,292.833 247.5,294.5C 247.982,302.123 246.815,302.456 244,295.5C 242.681,297.25 242.181,299.25 242.5,301.5C 244.167,301.5 245.833,301.5 247.5,301.5C 247.665,304.518 247.498,307.518 247,310.5C 245.684,307.972 244.517,307.972 243.5,310.5C 242.614,309.675 242.281,308.675 242.5,307.5C 218.006,306.856 193.673,307.523 169.5,309.5C 168.571,308.311 168.238,306.978 168.5,305.5C 193.176,305.833 217.842,305.5 242.5,304.5C 218.509,303.5 194.509,303.167 170.5,303.5C 170.5,298.167 170.5,292.833 170.5,287.5C 170.5,286.833 170.5,286.167 170.5,285.5C 178.234,284.307 186.067,283.64 194,283.5C 201.002,283.538 207.836,284.205 214.5,285.5C 217.578,283.87 220.911,283.037 224.5,283C 231.826,282.5 239.159,282.334 246.5,282.5C 246.198,285.059 246.532,287.393 247.5,289.5 Z"/></g>
<g><path style="opacity:1" fill="#231f11" d="M 170.5,287.5 C 170.5,292.833 170.5,298.167 170.5,303.5C 194.509,303.167 218.509,303.5 242.5,304.5C 217.842,305.5 193.176,305.833 168.5,305.5C 168.238,306.978 168.571,308.311 169.5,309.5C 193.673,307.523 218.006,306.856 242.5,307.5C 242.281,308.675 242.614,309.675 243.5,310.5C 244.517,307.972 245.684,307.972 247,310.5C 247.498,307.518 247.665,304.518 247.5,301.5C 245.833,301.5 244.167,301.5 242.5,301.5C 242.181,299.25 242.681,297.25 244,295.5C 246.815,302.456 247.982,302.123 247.5,294.5C 248.167,296.167 248.833,297.833 249.5,299.5C 249.5,302.167 249.5,304.833 249.5,307.5C 249.5,308.833 249.5,310.167 249.5,311.5C 222.167,311.5 194.833,311.5 167.5,311.5C 167.5,309.5 167.5,307.5 167.5,305.5C 167.771,299.25 168.771,293.25 170.5,287.5 Z"/></g>
<g><path style="opacity:1" fill="#7b7238" d="M 167.5,305.5 C 167.5,307.5 167.5,309.5 167.5,311.5C 194.833,311.5 222.167,311.5 249.5,311.5C 249.5,310.167 249.5,308.833 249.5,307.5C 250.451,308.919 250.784,310.585 250.5,312.5C 222.5,312.5 194.5,312.5 166.5,312.5C 166.198,309.941 166.532,307.607 167.5,305.5 Z"/></g>
<g><path style="opacity:1" fill="#efe00d" d="M 177.5,411.5 C 206.546,412.033 235.546,411.199 264.5,409C 270.287,409.044 272.62,406.211 271.5,400.5C 234.867,398.545 198.2,398.045 161.5,399C 157.687,400.262 153.687,400.929 149.5,401C 148.816,402.693 147.816,404.193 146.5,405.5C 150.078,407.303 153.745,408.636 157.5,409.5C 150.925,409.699 144.592,408.532 138.5,406C 137.663,404.989 137.33,403.822 137.5,402.5C 141.241,400.647 145.907,399.48 151.5,399C 159.138,398.024 166.805,397.357 174.5,397C 208.509,396.333 242.509,396.667 276.5,398C 282.581,399.605 288.581,401.438 294.5,403.5C 295.282,405.329 294.616,406.829 292.5,408C 266.338,412.064 240.005,414.231 213.5,414.5C 201.283,414.328 189.283,413.328 177.5,411.5 Z"/></g>
<g><path style="opacity:1" fill="#e1d21a" d="M 177.5,411.5 C 170.823,410.927 164.157,410.26 157.5,409.5C 153.745,408.636 150.078,407.303 146.5,405.5C 147.816,404.193 148.816,402.693 149.5,401C 153.687,400.929 157.687,400.262 161.5,399C 198.2,398.045 234.867,398.545 271.5,400.5C 272.62,406.211 270.287,409.044 264.5,409C 235.546,411.199 206.546,412.033 177.5,411.5 Z"/></g>
<g><path style="opacity:1" fill="#cebe23" d="M 184.5,400.5 C 201.503,400.333 218.503,400.5 235.5,401C 250.156,403.353 250.156,405.687 235.5,408C 219.833,408.667 204.167,408.667 188.5,408C 184.812,407.81 181.312,406.976 178,405.5C 177.312,404.668 177.479,404.002 178.5,403.5C 180.604,402.481 182.604,401.481 184.5,400.5 Z"/></g>
</svg>
