<?xml version="1.0" encoding="utf-8"?>
<!-- Generator: Adobe Illustrator 27.9.0, SVG Export Plug-In . SVG Version: 6.00 Build 0)  -->
<svg version="1.1" id="Capa_1" xmlns="http://www.w3.org/2000/svg" xmlns:xlink="http://www.w3.org/1999/xlink" x="0px" y="0px"
	 viewBox="0 0 583 356" style="enable-background:new 0 0 583 356;" xml:space="preserve">
<style type="text/css">
	.st0{fill-rule:evenodd;clip-rule:evenodd;fill:#E6C645;}
	.st1{fill-rule:evenodd;clip-rule:evenodd;fill:#79522F;}
	.st2{fill-rule:evenodd;clip-rule:evenodd;fill:#3E3A33;}
	.st3{fill-rule:evenodd;clip-rule:evenodd;fill:#362E21;}
	.st4{fill-rule:evenodd;clip-rule:evenodd;fill:#AF8F2A;}
	.st5{fill-rule:evenodd;clip-rule:evenodd;fill:#EDC91A;}
	.st6{fill-rule:evenodd;clip-rule:evenodd;fill:#A0904F;}
	.st7{fill-rule:evenodd;clip-rule:evenodd;fill:#A4924C;}
	.st8{fill-rule:evenodd;clip-rule:evenodd;fill:#837220;}
	.st9{fill-rule:evenodd;clip-rule:evenodd;fill:#686562;}
	.st10{fill-rule:evenodd;clip-rule:evenodd;fill:#C2C1C1;}
	.st11{fill-rule:evenodd;clip-rule:evenodd;fill:#29241D;}
	.st12{fill-rule:evenodd;clip-rule:evenodd;fill:#533B26;}
	.st13{fill-rule:evenodd;clip-rule:evenodd;fill:#AE8356;}
	.st14{fill-rule:evenodd;clip-rule:evenodd;fill:#79512F;}
	.st15{fill-rule:evenodd;clip-rule:evenodd;fill:#382F1D;}
	.st16{fill-rule:evenodd;clip-rule:evenodd;fill:#473F2F;}
	.st17{fill-rule:evenodd;clip-rule:evenodd;fill:#382D1E;}
	.st18{fill-rule:evenodd;clip-rule:evenodd;fill:#AD8E2A;}
	.st19{fill-rule:evenodd;clip-rule:evenodd;fill:#433C30;}
	.st20{fill-rule:evenodd;clip-rule:evenodd;fill:#493921;}
	.st21{fill-rule:evenodd;clip-rule:evenodd;fill:#9E8B3A;}
	.st22{fill-rule:evenodd;clip-rule:evenodd;fill:#8F7F43;}
	.st23{fill-rule:evenodd;clip-rule:evenodd;fill:#907E33;}
	.st24{fill-rule:evenodd;clip-rule:evenodd;fill:#8B7B35;}
	.st25{fill-rule:evenodd;clip-rule:evenodd;fill:#ECC819;}
</style>
<g>
	<path class="st0" d="M222.5,82.5c26.3,11.2,52.6,22.3,79,33.5c-16.9,5.9-33.5,12.1-50,18.5c-1-0.2-1.7,0.2-2,1
		c-2.9,0.7-5.8,1.7-8.5,3c-6,21.2-11.5,42.6-16.5,64C222.9,162.7,222.2,122.7,222.5,82.5z"/>
</g>
<g>
	<path class="st1" d="M216.5,83.5c1.8-1,3.8-1.3,6-1c-0.3,40.2,0.4,80.2,2,120c-0.7,0.9-1.7,1.2-3,1c-6.2-21.4-12.7-42.7-19.5-64
		c-0.4-1.9-1.6-2.9-3.5-3c-19.7-7.4-39.4-14.7-59-22c2.1,0,4.1-0.3,6-1c-1,0.9-1,1.5,0,2c5.9-2.8,11.9-5.3,18-7.5
		c1.2-0.7,1.2-1.2,0-1.5c0.3-0.8,1-1.2,2-1c0.1,0.5,0.4,0.9,1,1c11.7-4.2,23-9,34-14.5c-0.2-0.4-0.6-0.6-1-0.5c4-1.5,8-3.4,12-5.5
		c-0.6-0.5-1.3-0.6-2-0.5c1.8-1.3,3.5-1,5,1c1.9-1.1,3.9-1.9,6-2.5C219.2,83.5,217.9,83.3,216.5,83.5z"/>
</g>
<g>
	<path class="st2" d="M216.5,83.5c1.4-0.2,2.7,0,4,0.5c-2.1,0.6-4.1,1.4-6,2.5c-1.5-2-3.2-2.3-5-1c-12.3,1.3-24.7,2.6-37,4
		c-1.7,0-3.3,0-5,0C183.4,85.5,199.8,83.5,216.5,83.5z"/>
</g>
<g>
	<path class="st3" d="M363.5,93.5c-1.3,0-2,0.7-2,2c-35.9,13.7-72.1,27-108.5,40c-0.8-0.1-1.3-0.4-1.5-1c16.5-6.4,33.1-12.6,50-18.5
		c-26.4-11.2-52.7-22.3-79-33.5c10.4-5.8,21.1-11.3,32-16.5c5.5-2.7,11.1-4.9,17-6.5C302.5,70.3,333.1,81.6,363.5,93.5z"/>
</g>
<g>
	<path class="st4" d="M271.5,61.5c30,9.8,59.7,20.6,89,32.5c-17.2,7-34.5,13.6-52,20c-2.3,0.7-4.7,0.7-7,0
		c-25.1-10.4-50.1-21.1-75-32C241.6,75.1,256.6,68.3,271.5,61.5z"/>
</g>
<g>
	<path class="st5" d="M68.5,127.5c1.2-0.2,2.2,0.1,3,1c1.1,3.8,2.4,7.5,4,11c-7,0.7-14,1.3-21,2c-7.2,0.3-14.2,0-21-1
		c2.7,0.1,5-0.6,7-2c2.1-0.7,4.1-1.7,6-3c2.7,0.1,5-0.6,7-2C58.4,131.5,63.4,129.5,68.5,127.5z"/>
</g>
<g>
	<path class="st6" d="M53.5,133.5c-2,1.4-4.3,2.1-7,2C48.5,134.1,50.8,133.4,53.5,133.5z"/>
</g>
<g>
	<path class="st7" d="M40.5,138.5c-2,1.4-4.3,2.1-7,2C35.5,139.1,37.8,138.4,40.5,138.5z"/>
</g>
<g>
	<path class="st8" d="M75.5,139.5c0.5,0.1,0.9,0.4,1,1c-7.3,1-14.6,1.3-22,1C61.5,140.8,68.5,140.2,75.5,139.5z"/>
</g>
<g>
	<path class="st9" d="M30.5,141.5c15.3,0.7,30.7,1.3,46,2c-16.3,0.2-32.7,0-49-0.5C28.2,142,29.2,141.5,30.5,141.5z"/>
</g>
<g>
	<path class="st10" d="M233.5,347.5c45.2-19.7,90.8-38.4,137-56c-1.1-43.7-2.1-87.3-3-131c23.7-6,47.6-11.6,71.5-17
		c3.5,0.3,7,0.8,10.5,1.5c22.3,6.8,44.7,13.7,67,20.5c8.6-2.5,17.2-4.4,26-5.5c-3.5,3.7-7.2,7.2-11,10.5c7.4,4,15,7.5,23,10.5
		c-21.8,6.9-43.8,13.3-66,19c-28.7,35.3-57.3,70.7-86,106C346.3,320.6,290,334.5,233.5,347.5z"/>
</g>
<g>
	<path class="st11" d="M367.5,160.5c0.9,43.7,1.9,87.3,3,131c-46.2,17.6-91.8,36.3-137,56c-4.6,1.5-9.3,2.7-14,3.5
		c-47.1-19.9-94.2-39.8-141.5-59.5c-0.2-49.5-0.7-98.8-1.5-148c-15.3-0.7-30.7-1.3-46-2c0.9-0.6,1.9-0.9,3-1c6.8,1,13.8,1.3,21,1
		c7.4,0.3,14.7,0,22-1c-0.1-0.6-0.5-0.9-1-1c-1.6-3.5-2.9-7.2-4-11c-0.8-0.9-1.8-1.2-3-1c0.6-0.7,1.3-1.3,2-2
		C65,113,59.9,100.3,55,87.5c-0.7-1.1-0.6-2.1,0.5-3c13.3,4.4,26.3,9.4,39,15c-12.2-3.4-24.2-7.4-36-12c6.7,19.2,14.4,38.1,23,56.5
		c44.3,18.8,88.7,37.8,133,57c1.1,0.7,2.1,0.6,3-0.5c-6.7-20.2-13-40.6-19-61c0-1,0-2,0-3c1.9,0.1,3.1,1.1,3.5,3
		c6.8,21.3,13.3,42.6,19.5,64c1.3,0.2,2.3-0.1,3-1c5-21.4,10.5-42.8,16.5-64c2.7-1.3,5.6-2.3,8.5-3c-1,1.5-2.8,2.9-5.5,4
		c-5.1,20-10.6,39.8-16.5,59.5c45.7-18,91.4-36.5,137-55.5c7.9-17.8,14.9-36,21-54.5c-0.3-0.5-0.7-1-1-1.5c-7.6,3-15.2,5.6-23,8
		c0-1.3,0.7-2,2-2c9.1-3,18.1-6.4,27-10c0.3,0.3,0.7,0.7,1,1c-1.7,5.1-3.7,10.1-6,15c0.3,0.7,0.7,1.3,1,2c11.1,4.1,22.1,8.5,33,13
		c-17.5,9.6-34.8,19.5-52,29.5C366.2,149.6,366.2,155.1,367.5,160.5z"/>
</g>
<g>
	<path class="st12" d="M364.5,196.5c1.4,24.8,2.1,49.8,2,75C364.9,246.7,364.2,221.7,364.5,196.5z"/>
</g>
<g>
	<path class="st13" d="M79.5,147.5c46.9,19.6,93.9,38.9,141,58c0.3,47.7,0,95.3-1,143c-46.2-19.7-92.5-39.1-139-58
		C80.2,242.8,79.9,195.2,79.5,147.5z"/>
</g>
<g>
	<path class="st14" d="M364.5,196.5c-0.3,25.2,0.4,50.2,2,75c0,6,0,12,0,18c-46.1,18.2-92.1,36.7-138,55.5c-1.6,0.7-3.1,0.6-4.5-0.5
		c-0.8-46-0.7-92,0.5-138c2.7-0.7,4.3-2.3,5-5c44.2-18.6,88.6-36.9,133-55C364.2,163.1,364.9,179.8,364.5,196.5z"/>
</g>
<g>
	<path class="st15" d="M122.5,109.5c5.8,1.4,11.4,3,17,5c19.6,7.3,39.3,14.6,59,22c0,1,0,2,0,3c-0.8-0.7-1.4-1.5-2-2.5
		C171.4,128.6,146.8,119.5,122.5,109.5z"/>
</g>
<g>
	<path class="st16" d="M108.5,104.5c3.6,0.5,7.1,1.5,10.5,3c2-1.1,4.2-1.8,6.5-2c-1.1,1.1-2.4,1.9-4,2.5c0.6,0.4,0.9,0.9,1,1.5
		C117.4,108.9,112.7,107.3,108.5,104.5z"/>
</g>
<g>
	<path class="st17" d="M163.5,106.5c1.2,0.3,1.2,0.8,0,1.5c-6.1,2.2-12.1,4.7-18,7.5c-1-0.5-1-1.1,0-2
		C151.4,110.9,157.4,108.5,163.5,106.5z"/>
</g>
<g>
	<path class="st18" d="M384.5,103.5c2.4,0.3,4.7,0.8,7,1.5c7.6,3.3,15.3,6.4,23,9.5c-13.5,7.6-27.2,14.9-41,22
		C376.2,125.4,379.8,114.4,384.5,103.5z"/>
</g>
<g>
	<path class="st19" d="M94.5,99.5c5.1,0.6,9.8,2.2,14,5C103.5,103.6,98.8,101.9,94.5,99.5z"/>
</g>
<g>
	<path class="st20" d="M199.5,91.5c0.4-0.1,0.8,0.1,1,0.5c-11,5.5-22.3,10.3-34,14.5c-0.6-0.1-0.9-0.5-1-1
		C176.7,100.7,188,96,199.5,91.5z"/>
</g>
<g>
	<path class="st21" d="M142.5,99.5c-1.6,1.6-3.6,2.2-6,2C138.1,99.9,140.1,99.3,142.5,99.5z"/>
</g>
<g>
	<path class="st22" d="M151.5,95.5c-1.7,2.3-4,3.3-7,3C146.4,96.7,148.8,95.7,151.5,95.5z"/>
</g>
<g>
	<path class="st23" d="M162.5,91.5c-1.7,2.3-4,3.3-7,3C157.4,92.7,159.8,91.7,162.5,91.5z"/>
</g>
<g>
	<path class="st24" d="M167.5,89.5c1.7,0,3.3,0,5,0c-3.1,1.1-6.5,1.7-10,2C163.8,90.1,165.4,89.4,167.5,89.5z"/>
</g>
<g>
	<path class="st14" d="M249.5,135.5c0.3-0.8,1-1.2,2-1c0.2,0.6,0.7,0.9,1.5,1c36.4-13,72.6-26.3,108.5-40c7.8-2.4,15.4-5,23-8
		c0.3,0.5,0.7,1,1,1.5c-6.1,18.5-13.1,36.7-21,54.5c-45.6,19-91.3,37.5-137,55.5c5.9-19.7,11.4-39.5,16.5-59.5
		C246.7,138.4,248.5,137,249.5,135.5z"/>
</g>
<g>
	<path class="st4" d="M94.5,99.5c4.3,2.4,9,4.1,14,5c4.2,2.8,8.9,4.4,14,5c24.3,10,48.9,19.1,74,27.5c0.6,1,1.2,1.8,2,2.5
		c6,20.4,12.3,40.8,19,61c-0.9,1.1-1.9,1.2-3,0.5c-44.3-19.2-88.7-38.2-133-57c-8.6-18.4-16.3-37.3-23-56.5
		C70.3,92.1,82.3,96.1,94.5,99.5z"/>
</g>
<g>
	<path class="st25" d="M209.5,85.5c0.7-0.1,1.4,0,2,0.5c-4,2.1-8,4-12,5.5c-11.5,4.5-22.8,9.2-34,14c-1-0.2-1.7,0.2-2,1
		c-6.1,2-12.1,4.4-18,7c-1.9,0.7-3.9,1-6,1c-5.6-2-11.2-3.6-17-5c-0.1-0.6-0.4-1.1-1-1.5c1.6-0.6,2.9-1.4,4-2.5c3.6-1.6,7.2-3,11-4
		c2.4,0.2,4.4-0.4,6-2c0.3-0.8,1-1.2,2-1c3,0.3,5.3-0.7,7-3c1.1-0.9,2.4-1.3,4-1c3,0.3,5.3-0.7,7-3c3.5-0.3,6.9-0.9,10-2
		C184.8,88.1,197.2,86.8,209.5,85.5z"/>
</g>
</svg>
