<?xml version="1.0" encoding="utf-8"?>
<!-- Generator: Adobe Illustrator 27.9.0, SVG Export Plug-In . SVG Version: 6.00 Build 0)  -->
<svg version="1.1" id="Capa_1" xmlns="http://www.w3.org/2000/svg" xmlns:xlink="http://www.w3.org/1999/xlink" x="0px" y="0px"
	 viewBox="0 0 769 479" style="enable-background:new 0 0 769 479;" xml:space="preserve">
<style type="text/css">
	.st0{fill-rule:evenodd;clip-rule:evenodd;fill:#003485;}
	.st1{fill-rule:evenodd;clip-rule:evenodd;fill:#5274AC;}
	.st2{fill-rule:evenodd;clip-rule:evenodd;fill:#92A7CA;}
	.st3{fill-rule:evenodd;clip-rule:evenodd;fill:#B5C2DB;}
	.st4{fill-rule:evenodd;clip-rule:evenodd;fill:#A9B9D5;}
	.st5{fill-rule:evenodd;clip-rule:evenodd;fill:#CAD4E5;}
	.st6{fill-rule:evenodd;clip-rule:evenodd;fill:#CBD5E5;}
	.st7{fill-rule:evenodd;clip-rule:evenodd;fill:#C9D3E5;}
	.st8{fill-rule:evenodd;clip-rule:evenodd;fill:#194790;}
	.st9{fill-rule:evenodd;clip-rule:evenodd;fill:#3E64A2;}
	.st10{fill-rule:evenodd;clip-rule:evenodd;fill:#5979AE;}
</style>
<g>
	<path class="st0" d="M138.5,16.5c-0.7,113.7,0,227,2,340c60.8,1,121.8,1.3,183,1c0-63,0-126,0-189c40.3,0,80.7,0,121,0
		c0,100.3,0,200.7,0,301c-142.3,0-284.7,0-427,0c0-151,0-302,0-453C57.8,16.5,98.2,16.5,138.5,16.5z"/>
</g>
<g>
	<path class="st1" d="M138.5,16.5c2,113,2.7,226.3,2,340C138.5,243.5,137.8,130.2,138.5,16.5z"/>
</g>
<g>
	<path class="st0" d="M171.5,16.5c141.7,0,283.3,0,425,0c-0.7,113.7,0,227,2,340c9.3,0,18.7,0,28,0c0.7,0,1.3,0,2,0
		c1-62.2,1.3-124.5,1-187c40,0,80,0,120,0c0,100,0,200,0,300c-91.3,0-182.7,0-274,0c0-113.3,0-226.7,0-340c-61.2-0.3-122.2,0-183,1
		c0,62.3,0,124.7,0,187c-40.3,0-80.7,0-121,0C171.5,217.2,171.5,116.8,171.5,16.5z"/>
</g>
<g>
	<path class="st2" d="M596.5,16.5c2,113,2.7,226.3,2,340C596.5,243.5,595.8,130.2,596.5,16.5z"/>
</g>
<g>
	<path class="st3" d="M628.5,16.5c0,37.7,0,75.3,0,113c40.3,0,80.7,0,121,0c-40.8,1-81.8,1.3-123,1
		C625.8,92.2,626.5,54.2,628.5,16.5z"/>
</g>
<g>
	<path class="st0" d="M628.5,16.5c40.3,0,80.7,0,121,0c0,37.7,0,75.3,0,113c-40.3,0-80.7,0-121,0C628.5,91.8,628.5,54.2,628.5,16.5z
		"/>
</g>
<g>
	<path class="st4" d="M292.5,130.5c60.8-1,121.8-1.3,183-1c0,113.3,0,226.7,0,340c-1-112.8-1.3-225.8-1-339
		C413.8,130.5,353.2,130.5,292.5,130.5z"/>
</g>
<g>
	<path class="st5" d="M444.5,168.5c-40.3,0-80.7,0-121,0c19.8-1.3,40-2,60.5-2S424.7,167.2,444.5,168.5z"/>
</g>
<g>
	<path class="st6" d="M749.5,168.5c-40.3,0-80.7,0-121,0c19.8-1.3,40-2,60.5-2S729.7,167.2,749.5,168.5z"/>
</g>
<g>
	<path class="st7" d="M628.5,168.5c0,62.7,0,125.3,0,188c-0.7,0-1.3,0-2,0C625.8,293.5,626.5,230.8,628.5,168.5z"/>
</g>
<g>
	<path class="st8" d="M628.5,168.5c40.3,0,80.7,0,121,0c0,0.3,0,0.7,0,1c-40,0-80,0-120,0c0.3,62.5,0,124.8-1,187
		C628.5,293.8,628.5,231.2,628.5,168.5z"/>
</g>
<g>
	<path class="st9" d="M171.5,16.5c0,100.3,0,200.7,0,301c40.3,0,80.7,0,121,0c-40.3,2-81,2.7-122,2
		C170.2,218.3,170.5,117.3,171.5,16.5z"/>
</g>
<g>
	<path class="st10" d="M323.5,168.5c0,63,0,126,0,189c-61.2,0.3-122.2,0-183-1c60.7,0,121.3,0,182,0
		C322.2,293.7,322.5,231,323.5,168.5z"/>
</g>
</svg>
