<?xml version="1.0" encoding="utf-8"?>
<!-- Generator: Adobe Illustrator 27.9.0, SVG Export Plug-In . SVG Version: 6.00 Build 0)  -->
<svg version="1.1" id="Capa_1" xmlns="http://www.w3.org/2000/svg" xmlns:xlink="http://www.w3.org/1999/xlink" x="0px" y="0px"
	 viewBox="0 0 500 484" style="enable-background:new 0 0 500 484;" xml:space="preserve">
<style type="text/css">
	.st0{fill-rule:evenodd;clip-rule:evenodd;fill:#CECDCD;}
	.st1{fill-rule:evenodd;clip-rule:evenodd;fill:#EBEAEA;}
	.st2{fill-rule:evenodd;clip-rule:evenodd;fill:#F8F8F8;}
	.st3{fill-rule:evenodd;clip-rule:evenodd;fill:#B8B8B8;}
	.st4{fill-rule:evenodd;clip-rule:evenodd;fill:#7A7977;}
	.st5{fill-rule:evenodd;clip-rule:evenodd;fill:#989796;}
	.st6{fill-rule:evenodd;clip-rule:evenodd;fill:#E8F0CF;}
	.st7{fill-rule:evenodd;clip-rule:evenodd;fill:#FCFDF9;}
	.st8{fill-rule:evenodd;clip-rule:evenodd;fill:#ABAAA9;}
	.st9{fill-rule:evenodd;clip-rule:evenodd;fill:#C2DB9A;}
	.st10{fill-rule:evenodd;clip-rule:evenodd;fill:#F2F6E2;}
	.st11{fill-rule:evenodd;clip-rule:evenodd;fill:#DCE9BD;}
	.st12{fill-rule:evenodd;clip-rule:evenodd;fill:#DEDEDE;}
	.st13{fill-rule:evenodd;clip-rule:evenodd;fill:#9AC868;}
	.st14{fill-rule:evenodd;clip-rule:evenodd;fill:#EFEEC6;}
	.st15{fill-rule:evenodd;clip-rule:evenodd;fill:#DCE4AD;}
	.st16{fill-rule:evenodd;clip-rule:evenodd;fill:#ADD07F;}
	.st17{fill-rule:evenodd;clip-rule:evenodd;fill:#696665;}
	.st18{fill-rule:evenodd;clip-rule:evenodd;fill:#F4F7E4;}
	.st19{fill-rule:evenodd;clip-rule:evenodd;fill:#EAF1D1;}
	.st20{fill-rule:evenodd;clip-rule:evenodd;fill:#BFBEBD;}
	.st21{fill-rule:evenodd;clip-rule:evenodd;fill:#DFEECB;}
	.st22{fill-rule:evenodd;clip-rule:evenodd;fill:#E9EAE9;}
	.st23{fill-rule:evenodd;clip-rule:evenodd;fill:#B1D392;}
	.st24{fill-rule:evenodd;clip-rule:evenodd;fill:#F6F7F6;}
	.st25{fill-rule:evenodd;clip-rule:evenodd;fill:#E7E7E6;}
	.st26{fill-rule:evenodd;clip-rule:evenodd;fill:#AED380;}
	.st27{fill-rule:evenodd;clip-rule:evenodd;fill:#201D19;}
	.st28{fill-rule:evenodd;clip-rule:evenodd;fill:#211E1A;}
	.st29{fill-rule:evenodd;clip-rule:evenodd;fill:#929090;}
	.st30{fill-rule:evenodd;clip-rule:evenodd;fill:#EEEFEB;}
	.st31{fill-rule:evenodd;clip-rule:evenodd;fill:#F1F6EB;}
	.st32{fill-rule:evenodd;clip-rule:evenodd;fill:#848381;}
	.st33{fill-rule:evenodd;clip-rule:evenodd;fill:#524F4D;}
	.st34{fill-rule:evenodd;clip-rule:evenodd;fill:#737271;}
	.st35{fill-rule:evenodd;clip-rule:evenodd;fill:#D8E8B9;}
	.st36{fill-rule:evenodd;clip-rule:evenodd;fill:#504E4B;}
	.st37{fill-rule:evenodd;clip-rule:evenodd;fill:#6CA37D;}
	.st38{fill-rule:evenodd;clip-rule:evenodd;fill:#B1D582;}
	.st39{fill-rule:evenodd;clip-rule:evenodd;fill:#EBEDC3;}
	.st40{fill-rule:evenodd;clip-rule:evenodd;fill:#C4DEA7;}
	.st41{fill-rule:evenodd;clip-rule:evenodd;fill:#C0DDA5;}
	.st42{fill-rule:evenodd;clip-rule:evenodd;fill:#65A174;}
	.st43{fill-rule:evenodd;clip-rule:evenodd;fill:#96C17D;}
	.st44{fill-rule:evenodd;clip-rule:evenodd;fill:#D4D4D3;}
	.st45{fill-rule:evenodd;clip-rule:evenodd;fill:#808385;}
	.st46{fill-rule:evenodd;clip-rule:evenodd;fill:#C3D992;}
	.st47{fill-rule:evenodd;clip-rule:evenodd;fill:#DFE7B2;}
	.st48{fill-rule:evenodd;clip-rule:evenodd;fill:#C5DB97;}
	.st49{fill-rule:evenodd;clip-rule:evenodd;fill:#D4D3D3;}
	.st50{fill-rule:evenodd;clip-rule:evenodd;fill:#E4E3E4;}
	.st51{fill-rule:evenodd;clip-rule:evenodd;fill:#6E7377;}
	.st52{fill-rule:evenodd;clip-rule:evenodd;fill:#E4E4E3;}
	.st53{fill-rule:evenodd;clip-rule:evenodd;fill:#F1ECCB;}
	.st54{fill-rule:evenodd;clip-rule:evenodd;fill:#DBE4AC;}
	.st55{fill-rule:evenodd;clip-rule:evenodd;fill:#CDDEA0;}
	.st56{fill-rule:evenodd;clip-rule:evenodd;fill:#9A999A;}
	.st57{fill-rule:evenodd;clip-rule:evenodd;fill:#787675;}
	.st58{fill-rule:evenodd;clip-rule:evenodd;fill:#BAD58A;}
	.st59{fill-rule:evenodd;clip-rule:evenodd;fill:#212019;}
	.st60{fill-rule:evenodd;clip-rule:evenodd;fill:#B5D471;}
	.st61{fill-rule:evenodd;clip-rule:evenodd;fill:#1B6A3B;}
	.st62{fill-rule:evenodd;clip-rule:evenodd;fill:#246B39;}
	.st63{fill-rule:evenodd;clip-rule:evenodd;fill:#186A3A;}
	.st64{fill-rule:evenodd;clip-rule:evenodd;fill:#1B6B3B;}
	.st65{fill-rule:evenodd;clip-rule:evenodd;fill:#A7CE77;}
	.st66{fill-rule:evenodd;clip-rule:evenodd;fill:#1C6C3C;}
	.st67{fill-rule:evenodd;clip-rule:evenodd;fill:#206B3C;}
	.st68{fill-rule:evenodd;clip-rule:evenodd;fill:#21201A;}
	.st69{fill-rule:evenodd;clip-rule:evenodd;fill:#AFD281;}
	.st70{fill-rule:evenodd;clip-rule:evenodd;fill:#D4E1A7;}
	.st71{fill-rule:evenodd;clip-rule:evenodd;fill:#ABCF7A;}
	.st72{fill-rule:evenodd;clip-rule:evenodd;fill:#C0C0C0;}
	.st73{fill-rule:evenodd;clip-rule:evenodd;fill:#8D8B8A;}
	.st74{fill-rule:evenodd;clip-rule:evenodd;fill:#5E666B;}
	.st75{fill-rule:evenodd;clip-rule:evenodd;fill:#F2EFCB;}
	.st76{fill-rule:evenodd;clip-rule:evenodd;fill:#A6CD75;}
	.st77{fill-rule:evenodd;clip-rule:evenodd;fill:#4A5633;}
	.st78{fill-rule:evenodd;clip-rule:evenodd;fill:#1F6C3B;}
	.st79{fill-rule:evenodd;clip-rule:evenodd;fill:#216D3A;}
	.st80{fill-rule:evenodd;clip-rule:evenodd;fill:#1A6E3C;}
	.st81{fill-rule:evenodd;clip-rule:evenodd;fill:#1E683B;}
	.st82{fill-rule:evenodd;clip-rule:evenodd;fill:#D9E5AE;}
	.st83{fill-rule:evenodd;clip-rule:evenodd;fill:#B7B7B7;}
	.st84{fill-rule:evenodd;clip-rule:evenodd;fill:#E7EABA;}
	.st85{fill-rule:evenodd;clip-rule:evenodd;fill:#CEDE9F;}
	.st86{fill-rule:evenodd;clip-rule:evenodd;fill:#A4A4A4;}
	.st87{fill-rule:evenodd;clip-rule:evenodd;fill:#C4C4C4;}
	.st88{fill-rule:evenodd;clip-rule:evenodd;fill:#939495;}
	.st89{fill-rule:evenodd;clip-rule:evenodd;fill:#797D81;}
	.st90{fill-rule:evenodd;clip-rule:evenodd;fill:#ACABAB;}
</style>
<g>
	<path class="st0" d="M315.5,16.5c-2.5-1.1-4.6-1.1-6.5,0c-0.8-2.4-1.6-2.2-2.5,0.5c6,2.3,12,4.7,18,7c0.9,1.4,1.2,2.9,1,4.5
		c-1.3,0-2.7,0-4,0c0,1.3,0,2.7,0,4c-14-5.1-28.3-8.7-43-11c-9.1-1.2-18.1-2.2-27-3c6.2,0.5,12.2-0.2,18-2c0-1.6,0.6-3,2-4
		c-1.2-1.6-2.9-2.4-5-2.5c-15.7-0.7-31.3-0.7-47,0c-5.5,0.4-10.9,1.2-16,2.5c-28.3,4.3-54.7,14-79,29c-0.7,0.1-1.4,0-2-0.5
		c0.8-1,1.2-2.2,1-3.5C176.7,6.4,233.7-2.8,294.5,10C301.8,11.4,308.8,13.6,315.5,16.5z"/>
</g>
<g>
	<path class="st1" d="M251.5,18.5c-17.5-0.4-34.8,0.9-52,4c-0.8-0.9-1-1.9-0.5-3c0.7,1,1.6,1.1,2.5,0.5c1.5-2.7,3.5-5.1,6-7
		c-1.3-0.5-2.6-0.7-4-0.5c5.1-1.3,10.5-2.1,16-2.5c15.7-0.7,31.3-0.7,47,0c2.1,0.1,3.8,0.9,5,2.5c-1.4,1-2,2.4-2,4
		C263.7,18.3,257.7,19,251.5,18.5z"/>
</g>
<g>
	<path class="st2" d="M203.5,12.5c1.4-0.2,2.7,0,4,0.5c-2.5,1.9-4.5,4.3-6,7c-0.9,0.6-1.8,0.5-2.5-0.5c-0.5,1.1-0.3,2.1,0.5,3
		c-20.3,4.6-39.7,11.6-58,21C80.3,76.3,41.8,126.6,26,194.5c-3.4,18.2-4.9,36.5-4.5,55c-0.4,5.7-1,11.4-2,17c-2-0.3-3.5,0.4-4.5,2
		c-0.4-0.6-0.9-0.9-1.5-1c-0.6-6.3-0.9-12.6-1-19c-0.5-89.9,36.8-158.9,112-207C148.8,26.5,175.2,16.8,203.5,12.5z"/>
</g>
<g>
	<path class="st3" d="M315.5,16.5c21.6,6.5,41.6,16.1,60,29c-1.4,0.4-2.3,1.4-2.5,3c-0.5-0.9-0.6-1.9-0.5-3c-1.3,0-2.7,0-4,0
		c-0.6,2-1.3,4-2,6c0.1,1.3,0.4,2.4,1,3.5c-0.5,0.2-1,0.3-1.5,0.5c-6-3.7-12.1-7.1-18.5-10c-8.4-4.8-17-9.2-26-13c0-1.3,0-2.7,0-4
		c1.3,0,2.7,0,4,0c0.2-1.6-0.1-3.1-1-4.5c-6-2.3-12-4.7-18-7c0.9-2.7,1.7-2.9,2.5-0.5C310.9,15.4,313,15.4,315.5,16.5z"/>
</g>
<g>
	<path class="st4" d="M251.5,18.5c8.9,0.8,17.9,1.8,27,3c0,1,0,2,0,3c-2,0-4,0-6,0c-45.1-6-87.8,1.3-128,22c0-1,0-2,0-3
		c-1,0-2,0-3,0c18.3-9.4,37.7-16.4,58-21C216.7,19.4,234,18.1,251.5,18.5z"/>
</g>
<g>
	<path class="st5" d="M278.5,21.5c14.7,2.3,29,5.9,43,11c9,3.8,17.6,8.2,26,13c-1.5,0.8-3.2,1.1-5,1c-22.3-10.8-45.6-18.2-70-22
		c2,0,4,0,6,0C278.5,23.5,278.5,22.5,278.5,21.5z"/>
</g>
<g>
	<path class="st6" d="M275.5,34.5c-11.5,1.1-23.2,2.3-35,3.5c-7.3,1.5-14.3,3.6-21,6.5c-3.9,1-7.9,1.3-12,1c0,4,0,8,0,12
		c-2,0.4-3.9,0.4-5.5,0c-3.7,3.3-7.3,6.6-11,10c-0.3,2.9-0.8,5.7-1.5,8.5c0.3,1.7,1.3,2.7,3,3c-0.9,0.3-1.6,0.8-2,1.5
		c-7.5,2.7-14.8,5.7-22,9c-0.1-1.2-0.7-2.1-2-2.5c1.6-0.5,3.3-0.7,5-0.5c-0.2-4.7,0-9.3,0.5-14c0.3,1,0.7,2,1,3
		c1.5-3.9,2.6-7.9,3.5-12c4.2,0.3,6.2-1.7,6-6c2.4,0.2,4.7,0,7-0.5c0.5-1.7,0.6-3.6,0.5-5.5c2.3-1.8,4.5-3.8,6.5-6
		c2.4-0.6,4.4-1.8,6-3.5c1.6-0.5,3.3-0.7,5-0.5c0-1,0-2,0-3c5.9-1.8,11.9-3.3,18-4.5c-2-0.5-4-0.7-6-0.5c6.1-1.5,12.4-2.2,19-2
		C250.9,32,263.2,33,275.5,34.5z"/>
</g>
<g>
	<path class="st7" d="M168.5,45.5c1,1.3,2.3,2,4,2c0,1.3,0,2.7,0,4c-1,0-2,0-3,0c-0.3,2-0.7,4-1,6c-1.7,0-3.3,0-5,0
		c-2.2,5.7-3.2,11.7-3,18c-1,0-2,0-3,0c-0.6,5.9-1,11.8-1,17.5c0.9,0.3,1.6,0.8,2,1.5c-5.9,4-11.9,8-18,12c-5,0.2-10-0.5-15-2
		c0,1,0,2,0,3c-7.5,0.3-15-0.1-22.5-1c-6.4,0.5-12.6,1.8-18.5,4c-0.3,2-0.7,4-1,6c-2.3,0-4.7,0-7,0c0,1.3,0,2.7,0,4
		c-1.3,0-2.7,0-4,0c4.8-8.8,10.8-16.8,18-24c11.3-11.8,23.6-22.3,37-31.5c11.8-6.8,23.8-13.2,36-19
		C165.1,45.5,166.8,45.3,168.5,45.5z"/>
</g>
<g>
	<path class="st8" d="M347.5,45.5c6.4,2.9,12.5,6.3,18.5,10c0.5-0.2,1-0.3,1.5-0.5c-0.6-1.1-0.9-2.2-1-3.5c0.7-2,1.4-4,2-6
		c1.3,0,2.7,0,4,0c-0.1,1.1,0,2.1,0.5,3c0.2-1.6,1.1-2.6,2.5-3c25,16.3,45.7,37,62,62c0,5,0,10,0,15c-2,0-4,0-6,0
		c-7.5-11.2-15.8-21.9-25-32c-1.7-1.3-3.3-2.7-5-4c-0.7,0.7-1.3,1.4-2,2c-17.3-16.3-36.3-30.3-57-42C344.3,46.6,346,46.3,347.5,45.5
		z"/>
</g>
<g>
	<path class="st9" d="M375.5,95.5c-1.4,0.1-2.8-0.3-4-1c-11.8-10.1-24-19.8-36.5-29c-0.4,0.5-0.9,0.8-1.5,1c-3.3-1.4-6.3-3.2-9-5.5
		c-12.2-3-24.7-4.8-37.5-5.5c-7.4-0.2-14.8,0.5-22,2c-0.9-0.2-1.7-0.6-2.5-1c-2.4,1.8-5,2.8-8,3c0,3.3,0,6.7,0,10
		c-1.4-0.2-2.7,0-4,0.5c3.3,0.3,6.7,0.7,10,1c-7.9,1.4-15.9,1.9-24,1.5c1.2-1.4,0.7-2.4-1.5-3c-0.8-1.9-1.3-3.9-1.5-6c1,0,2,0,3,0
		c-0.1-2.4,0.9-4.2,3-5.5c2.3-0.5,4.3-1.5,6-3c3-0.5,6-0.7,9-0.5c0-1,0-2,0-3c10.9,0.2,21.7-0.5,32.5-2c9,0.4,17.8,1.7,26.5,4
		c0,1,0,2,0,3c4,0.3,8,0.7,12,1c0,1,0,2,0,3c6.7,0.6,12.4,3.5,17,8.5c8.1,3.9,15.6,8.8,22.5,14.5c1.2,1.8,2.3,3.7,3.5,5.5
		c1.9,1.4,3.7,1.9,5.5,1.5C374.6,92.2,375.1,93.8,375.5,95.5z"/>
</g>
<g>
	<path class="st10" d="M219.5,33.5c2-0.2,4,0,6,0.5c-6.1,1.2-12.1,2.7-18,4.5c0,1,0,2,0,3c-1.7-0.2-3.4,0-5,0.5
		c-1.6,1.7-3.6,2.9-6,3.5c-2,2.2-4.2,4.2-6.5,6c0.1,1.9,0,3.8-0.5,5.5c-2.3,0.5-4.6,0.7-7,0.5c0.2,4.3-1.8,6.3-6,6
		c-0.9,4.1-2,8.1-3.5,12c-0.3-1-0.7-2-1-3c-0.5,4.7-0.7,9.3-0.5,14c-1.7-0.2-3.4,0-5,0.5c1.3,0.4,1.9,1.3,2,2.5
		c-3.3,1.7-6.6,3.3-10,5c-0.4-0.7-1.1-1.2-2-1.5c0-5.7,0.4-11.6,1-17.5c1,0,2,0,3,0c-0.2-6.3,0.8-12.3,3-18c1.7,0,3.3,0,5,0
		c0.3-2,0.7-4,1-6c1,0,2,0,3,0c0-1.3,0-2.7,0-4c-1.7,0-3-0.7-4-2c0.1-0.6,0.4-1.1,1-1.5c8.7-2.9,17.3-5.6,26-8
		C203.4,34.2,211.4,33.4,219.5,33.5z"/>
</g>
<g>
	<path class="st11" d="M275.5,34.5c7,1.3,14,2.5,21,3.5c-1.8,1.3-3.8,1.8-6,1.5c-8.1-0.8-16.1-0.7-24,0.5c7.8,0.9,15.5,1.8,23,2.5
		c-17.7-1-35,0.7-52,5c0.1,1.5-0.3,2.8-1,4c-3.7-0.1-7.4,0.3-11,1c0,1,0,2,0,3c-2.1,0.7-4.3,1.4-6.5,2c-2.4-0.9-4.6-0.7-6.5,0.5
		c0.7,5.3,1.3,10.7,2,16c-1.2,0.2-2.2,0.7-3,1.5c-7.2,1-14.2,2.7-21,5c0.4-0.7,1.1-1.2,2-1.5c-1.7-0.3-2.7-1.3-3-3
		c0.7-2.8,1.2-5.6,1.5-8.5c3.7-3.4,7.3-6.7,11-10c1.6,0.4,3.5,0.4,5.5,0c0-4,0-8,0-12c4.1,0.3,8.1,0,12-1c6.7-2.9,13.7-5,21-6.5
		C252.3,36.8,264,35.6,275.5,34.5z"/>
</g>
<g>
	<path class="st12" d="M123.5,37.5c0.2,1.3-0.2,2.5-1,3.5c0.6,0.5,1.3,0.6,2,0.5C49.3,89.6,12,158.6,12.5,248.5
		c-0.7-7.8-1.3-15.8-2-24c-1.1,0.9-1.1,1.9,0,3c-0.5,1-1,2-1.5,3c-0.5,7.7-0.7,15.3-0.5,23c-3.2-82,27.2-148.9,91-200.5
		C107.4,47.6,115.4,42.4,123.5,37.5z"/>
</g>
<g>
	<path class="st13" d="M154.5,400.5c0-1,0-2,0-3c-3.3-1.2-6.6-2.3-10-3.5c-4.1-4.9-9.1-8.6-15-11c-2.1-2.6-4.5-4.9-7-7
		c-0.9-0.5-1.9-0.6-3-0.5c-0.3-3.7-2.3-5.7-6-6c0.1-1.1,0-2.1-0.5-3c-12.7-12.7-22.8-27-30.5-43c-0.5-0.8-1.1-1.1-2-1
		c0.2-1.4,0-2.7-0.5-4c-3.9-7-7.3-14.3-10-22c-2.4-7.8-4.4-15.8-6-24c-1-8.8-0.3-17.5,2-26c0.5,2.6,0.7,5.3,0.5,8c2,0,4,0,6,0
		c-0.2,1.2,0.1,2.2,1,3c1.1-1.9,2-3.9,2.5-6c0.5-9.7,0.7-19.3,0.5-29c1.3-3.9,2-7.9,2-12c0.2-3,0.5-6,1-9c1.8-6.6,3.8-13.3,6-20
		c3-5.8,5.6-11.8,8-18c3.5-6.9,7.5-13.6,12-20c6-8,12.3-15.6,19-23c5.7-4.3,11-9,16-14c6.1-4,12.1-8,18-12c3.4-1.7,6.7-3.3,10-5
		c7.2-3.3,14.5-6.3,22-9c6.8-2.3,13.8-4,21-5c4.7-0.7,9.3-1.3,14-2c13.7-0.2,27.4,0.1,41,1c9.4,2.9,19.1,5.2,29,7
		c11,7.4,15,4.4,12-9c14.4,0.4,26.7,5.6,37,15.5c3.2,1.9,6.6,3.5,10,5c4.2,4.7,8.9,8.9,14,12.5c1.6,5.5,5.3,8.6,11,9.5
		c7.4,10,14.8,20.2,22,30.5c4,8,8,16,12,24c26.3,72.4,14.6,137.5-35,195.5c-5.1,1.3-8.5,4.5-10,9.5c-4.5,3-8.5,6.5-12,10.5
		c-6.9,3.6-13.2,7.9-19,13c-43.5,24.1-89.8,30.6-139,19.5c-9.9-3.7-19.9-7.2-30-10.5C164.5,403.5,159.9,401.4,154.5,400.5z"/>
</g>
<g>
	<path class="st14" d="M331.5,50.5c-4.2,0.4-7.5-1.1-10-4.5c-10.6-2.2-20.9-4.4-31-6.5c2.2,0.3,4.2-0.2,6-1.5c-7-1-14-2.2-21-3.5
		c-12.3-1.5-24.6-2.5-37-3c-6.6-0.2-12.9,0.5-19,2c-8.1-0.1-16.1,0.7-24,2.5c-8.7,2.4-17.3,5.1-26,8c-0.6,0.4-0.9,0.9-1,1.5
		c-1.7-0.2-3.4,0-5,0.5c-12.2,5.8-24.2,12.2-36,19c-13.4,9.2-25.7,19.7-37,31.5c0.1-1.4,0.1-2.9,0-4.5c3.1-2.5,5.8-5.5,8-9
		c0.9-0.5,1.9-0.6,3-0.5c-0.2-1.6,0.1-3.1,1-4.5c2.1-0.3,4.1-0.8,6-1.5c1.7-3.4,3.3-6.7,5-10c2.8-2.6,5.8-5.1,9-7.5
		c2.1-1.7,4.4-2.9,7-3.5c5.2-0.4,10.2-1.6,15-3.5c0.8-1,1.2-2.2,1-3.5c3,0.1,5.6-0.8,8-2.5c-0.7-0.3-1.3-0.7-2-1
		c3.1-2.3,6.4-2.8,10-1.5c5.9-1.6,11.6-3.8,17-6.5c6.6-0.5,12.6-2.5,18-6c15.5-1.5,31-2.6,46.5-3.5c11.8,0.4,23.7,0.7,35.5,1
		c0,1.3,0,2.7,0,4c7.7,0.3,15.4,0.8,23,1.5c2.7,1.7,5.7,2.7,9,3c2.1,1.3,3.1,3.1,3,5.5C320.6,43.1,326.6,45.8,331.5,50.5z"/>
</g>
<g>
	<path class="st15" d="M331.5,55.5c10.3,5.2,20.7,10.3,31,15.5c8.9,7.9,18,15.4,27.5,22.5c1.6,2.1,2.8,4.4,3.5,7
		c2.2,0.7,4.1,2.1,5.5,4c4.3,5.3,8.7,10.6,13,16c4.6,9.3,9.3,18.6,14,28c4.3,3.9,6.2,8.9,5.5,15c-1,0-2,0-3,0
		c0.7-7.4-1.8-13.4-7.5-18c-1.1-4.3-3.3-8-6.5-11c-2.4-4.1-4.2-8.4-5.5-13c-2.5-0.6-4.5-1.9-6-4c-3.8-4.1-6.9-8.3-9.5-12.5
		c0.3-0.3,0.7-0.7,1-1c-4.7-3.1-9.1-6.8-13-11c0.3-0.3,0.7-0.7,1-1c-3-2-5.4-4.7-7-8c-1.6-0.7-2.8-0.2-3.5,1.5
		c-3.2-2.7-6.4-5.5-9.5-8.5c-1.5-1-3.2-1.5-5-1.5c0.2-1.2-0.1-2.2-1-3c-5.1-2.1-9.8-4.9-14-8.5c1.3-0.7,1.3-1.3,0-2
		c-2.9-1.3-5.9-2.3-9-3C332.2,58.2,331.5,57,331.5,55.5z"/>
</g>
<g>
	<path class="st16" d="M413.5,157.5c-3.2-5.4-6.4-11.1-9.5-17c-2.8-1.9-4.7-4.5-5.5-8c-3.8-2.9-6.6-6.6-8.5-11
		c-2.4-2.2-4.5-4.5-6.5-7c-2-0.7-4-1.6-6-2.5c-3.6-3.7-7.1-7.5-10.5-11.5c-0.3,0.3-0.7,0.7-1,1c-2-1.2-2.9-2.7-2.5-4.5
		c-1.3-1.1-2.4-1.3-3.5-0.5c-3.5-3.9-7.7-7-12.5-9.5c0.3-0.3,0.7-0.7,1-1c-1.9-1-3.9-1.6-6-2c-11.4-10.4-25.1-15.2-41-14.5
		c0,4,0,8,0,12c-2,0-4,0-6,0c-9.9-1.8-19.6-4.1-29-7c2,0,4,0,6,0c0-3.7,0-7.3,0-11c-1.1,0.1-2.1,0-3-0.5c3.5-1,7-1.8,10.5-2.5
		c3.7,0.5,7.6,0.5,11.5,0c10,1.5,20,2.6,30,3.5c1.8,0.3,2.1,1,1,2c5.7,1,11,3,16,6c2.3,1,4,2.7,5,5c1.9,0.8,3.9,1.3,6,1.5
		c0,1,0,2,0,3c4.5,0.4,7.8,2.6,10,6.5c2.7,1.3,5.3,2.7,8,4c-0.7,0.7-1.3,1.3-2,2c3,0.7,5.7,2.1,8,4c-1.1,0.2-2.1,0.7-3,1.5
		c1.3,1.6,2.9,2.8,5,3.5c1.3,0.7,1.3,1.3,0,2c1,1.8,2.1,2.3,3.5,1.5c1.3,2,2.7,4,4,6c3,0.3,4.7,2,5,5c3.3,0.8,5.4,2.8,6.5,6
		c1.8,0.6,3.3,1.6,4.5,3c3.3,4.7,6.7,9.4,10,14C410.4,146.2,411.9,151.9,413.5,157.5z"/>
</g>
<g>
	<path class="st17" d="M141.5,43.5c1,0,2,0,3,0c0,1,0,2,0,3c-5.5,2.3-10.5,5.3-15,9c-2.6,0.6-4.9,1.8-7,3.5c-3.2,2.4-6.2,4.9-9,7.5
		c-47.3,35.3-75.8,82.3-85.5,141c-3,20.3-3.2,40.7-0.5,61c0,2.3,0,4.7,0,7c-1,0-2,0-3,0c-1.3-8.8-2.3-17.4-3-26
		c-0.4-18.5,1.1-36.8,4.5-55C41.8,126.6,80.3,76.3,141.5,43.5z"/>
</g>
<g>
	<path class="st18" d="M140.5,106.5c-5,5-10.3,9.7-16,14c-1,0-2,0-3,0c0-1,0-2,0-3c-8.7-0.4-17,1.1-25,4.5c-3.5,2.7-7.5,4.5-12,5.5
		c-2.8,3.4-6.4,5.2-11,5.5c-0.6,4.2-2.8,5.4-6.5,3.5c-1.4,2.6-2.5,5.2-3.5,8c-1.2,0.9-2.5,1.3-4,1c0-2,0-4,0-6c0.8-0.3,1.2-1,1-2
		c3.3-6.2,7.3-11.9,12-17c1.3,0,2.7,0,4,0c0-1.3,0-2.7,0-4c2.3,0,4.7,0,7,0c0.3-2,0.7-4,1-6c5.9-2.2,12.1-3.5,18.5-4
		c7.5,0.9,15,1.3,22.5,1c0-1,0-2,0-3C130.5,106,135.5,106.7,140.5,106.5z"/>
</g>
<g>
	<path class="st19" d="M124.5,120.5c-6.7,7.4-13,15-19,23c-1,0.2-1.7-0.2-2-1c-1.5-2.4-2.1-5.1-2-8c-7.6,2.3-14.9,5.4-22,9.5
		c-1.8,2.5-3.8,4.8-6,7c-2.3,0.5-4.6,0.7-7,0.5c0.5,3.1-0.5,5.4-3,7c-0.7,1.7-1.3,3.3-2,5c-2.3,1.8-4.7,3.7-7,5.5
		c0.3,0.3,0.7,0.7,1,1c-1.7,2.6-3.5,5.1-5.5,7.5c-3,9.2-6.5,18.2-10.5,27c-1.2-2.9-1.3-5.9-0.5-9c5-19.4,11.8-38.1,20.5-56
		c0,2,0,4,0,6c1.5,0.3,2.8-0.1,4-1c1-2.8,2.1-5.4,3.5-8c3.7,1.9,5.9,0.7,6.5-3.5c4.6-0.3,8.2-2.1,11-5.5c4.5-1,8.5-2.8,12-5.5
		c8-3.4,16.3-4.9,25-4.5c0,1,0,2,0,3C122.5,120.5,123.5,120.5,124.5,120.5z"/>
</g>
<g>
	<path class="st20" d="M431.5,122.5c3,6,6,12,9,18c-1-0.1-1.8,0.2-2.5,1c-0.9-1.6-1.5-3.3-2-5c-0.7-0.8-1.5-1.1-2.5-1
		c-9.6-16.9-21-32.6-34-47c0.7-0.6,1.3-1.3,2-2c1.7,1.3,3.3,2.7,5,4C415.7,100.6,424,111.3,431.5,122.5z"/>
</g>
<g>
	<path class="st21" d="M313.5,138.5c-2,0.7-4,1.3-6,2c-6.1,0-12.1,0.7-18,2c-0.3-0.8-1-1.2-2-1C295.9,137.8,304.5,136.8,313.5,138.5
		z"/>
</g>
<g>
	<path class="st22" d="M199.5,138.5c2.8,0.2,4.9,1.6,6.5,4c9,12.6,10.8,26.3,5.5,41c-4.3,6.9-9.6,12.9-16,18c-9.1,4.4-18.8,6.1-29,5
		c-13.5-4.1-22.8-12.8-28-26c5.7-6.1,12.1-11.4,19-16c0,1.3,0,2.7,0,4c4,16.3,13.7,20.8,29,13.5c9.1-9.8,9.1-19.5,0-29
		c-1.2-0.8-2.6-1.3-4-1.5c-0.7-0.9-1.7-1.2-3-1C185.5,145.5,192.1,141.5,199.5,138.5z"/>
</g>
<g>
	<path class="st23" d="M313.5,138.5c8.5,0.2,16.5,2.2,24,6c-0.1,1.2-0.7,2.1-2,2.5c0.9,0.7,1.5,1.5,2,2.5c-3.8-2-7.8-3.9-12-5.5
		c-4.2-0.5-8.2-1.4-12-2.5c-1.8-1-3.8-1.3-6-1C309.5,139.8,311.5,139.2,313.5,138.5z"/>
</g>
<g>
	<path class="st24" d="M301.5,142.5c4.6,0.8,9.3,1.7,14,2.5c-1.9,0.9-2.9,2.4-3,4.5c-1.7,0-3.3,0-5,0c-0.7,0-1.3,0-2,0
		c-6.6,1.1-7.1,2.8-1.5,5c0.8,2.6,0.6,5.1-0.5,7.5c-4.8,2.2-7.9,0.7-9.5-4.5c-1.1,1.5-2,3.2-2.5,5c-1.3,2.8-1.3,5.4,0,8c0,1,0,2,0,3
		c-0.4,2.5,0.3,4.7,2,6.5c-1.7,2-3.1,1.8-4-0.5c-3.7-0.5-7-1.8-10-4c-1.2,1-2.3,2-3.5,3c-1.1-0.9-2.2-1.6-3.5-2
		c-5-9.9-3-18.4,6-25.5C285.3,145.9,293,143.1,301.5,142.5z"/>
</g>
<g>
	<path class="st25" d="M301.5,142.5c3.8-1,7.8-1.3,12-1c3.8,1.1,7.8,2,12,2.5c4.2,1.6,8.2,3.5,12,5.5c4,2.9,7.2,6.5,9.5,11
		c0.7,5,0.5,10-0.5,15c-6,9-14.3,14.3-25,16c-15.5,3.4-29.8,0.9-43-7.5c-2.6-2.1-4.6-4.6-6-7.5c1.3,0.4,2.4,1.1,3.5,2
		c1.2-1,2.3-2,3.5-3c3,2.2,6.3,3.5,10,4c0.9,2.3,2.3,2.5,4,0.5c-1.7-1.8-2.4-4-2-6.5c5.9,11.6,14.9,14.8,27,9.5
		c7.6-5.7,10.1-13.2,7.5-22.5c-2.4-3.9-5.6-6.9-9.5-9c-1.2-0.8-2.5-1.5-4-2c0.1-2.1,1.1-3.6,3-4.5
		C310.8,144.2,306.1,143.3,301.5,142.5z"/>
</g>
<g>
	<path class="st26" d="M337.5,144.5c2.5,1.7,5.2,3.2,8,4.5c1.6,2.4,2.9,4.9,4,7.5c-3.6-0.1-3.8,0.9-0.5,3c2.7,6.1,1.9,11.4-2.5,16
		c1-5,1.2-10,0.5-15c-2.3-4.5-5.5-8.1-9.5-11c-0.5-1-1.1-1.8-2-2.5C336.8,146.6,337.4,145.7,337.5,144.5z"/>
</g>
<g>
	<path class="st27" d="M316.5,151.5c3.9,2.1,7.1,5.1,9.5,9c2.6,9.3,0.1,16.8-7.5,22.5c-12.1,5.3-21.1,2.1-27-9.5c0-1,0-2,0-3
		c10.2,3.3,17.7,0.3,22.5-9C313.9,157.7,314.8,154.4,316.5,151.5z"/>
</g>
<g>
	<path class="st28" d="M182.5,151.5c1.4,0.2,2.8,0.7,4,1.5c9.1,9.5,9.1,19.2,0,29c-15.3,7.3-25,2.8-29-13.5c10,5.8,17.5,3.4,22.5-7
		C179.9,157.7,180.8,154.4,182.5,151.5z"/>
</g>
<g>
	<path class="st29" d="M305.5,149.5c3.9,12.1-0.4,16.7-13,14c0-0.7-0.3-1-1-1c0.5-1.8,1.4-3.5,2.5-5c1.6,5.2,4.7,6.7,9.5,4.5
		c1.1-2.4,1.3-4.9,0.5-7.5C298.4,152.3,298.9,150.6,305.5,149.5z"/>
</g>
<g>
	<path class="st30" d="M172.5,154.5c-0.3,3.3-1.6,6.2-4,8.5c-2.4,0.7-4.4,0.2-6-1.5C165.5,158.7,168.8,156.3,172.5,154.5z"/>
</g>
<g>
	<path class="st31" d="M287.5,141.5c1-0.2,1.7,0.2,2,1c-9.6,3.4-16.8,9.8-21.5,19c-2,9.6,0.8,17.2,8.5,23c0.1,0.7,0,1.4-0.5,2
		c-0.7-0.8-1.5-1.1-2.5-1c-13-11.7-13.3-23.8-1-36.5C277,145.4,282,142.9,287.5,141.5z"/>
</g>
<g>
	<path class="st32" d="M176.5,151.5c0.4,4.4-0.3,8.5-2,12.5c-2.7,0.5-5.2,1.3-7.5,2.5c-2.5-0.3-4.7-1.3-6.5-3c0-1.3,0.7-2,2-2
		c1.6,1.7,3.6,2.2,6,1.5c2.4-2.3,3.7-5.2,4-8.5C173.8,153.5,175.1,152.5,176.5,151.5z"/>
</g>
<g>
	<path class="st33" d="M179.5,150.5c1.3-0.2,2.3,0.1,3,1c-1.8,2.9-2.6,6.2-2.5,10c-5,10.4-12.5,12.8-22.5,7c0-1.3,0-2.7,0-4
		c0.9-0.6,1.9-0.9,3-1c1.8,1.7,4,2.7,6.5,3c2.3-1.2,4.8-2,7.5-2.5c1.7-4,2.4-8.1,2-12.5C177.6,151.4,178.6,151.1,179.5,150.5z"/>
</g>
<g>
	<path class="st34" d="M305.5,149.5c0.7,0,1.3,0,2,0c2.5,1.5,3.5,3.8,3,7c-0.5,7-4.3,10.3-11.5,10c-3,0.5-5.1-0.5-6.5-3
		C305.1,166.2,309.4,161.6,305.5,149.5z"/>
</g>
<g>
	<path class="st35" d="M103.5,142.5c0.3,0.8,1,1.2,2,1c-4.5,6.4-8.5,13.1-12,20c-4.8,0-9.8,0.2-15,0.5c-1,4-3.5,6.1-7.5,6.5
		c0.3,3.4-1.2,5.1-4.5,5c-1.1-0.1-2.1,0-3,0.5c-3.1,3-5.2,6.5-6.5,10.5c-2.1,0.8-3.8,2.1-5,4c-0.3,3.9-1.3,7.5-3,11
		c-0.3-0.7-0.7-1.3-1-2c-0.1,2.2-0.9,3.8-2.5,5c1.1-6,3.2-11.7,6.5-17c0.5-2,0.7-4,0.5-6c1.6,0.2,3.1-0.1,4.5-1
		c0.7-3.6,1.2-7.3,1.5-11c1.1,0.1,2.1,0,3-0.5c1.2-3.4,3.3-6.6,6.5-9.5c1.1-1.5,2.6-2.2,4.5-2c-0.1-4.7,2.2-6.9,7-6.5
		c1.9-1.4,3.6-3.1,5-5c3.7,0,6.8-1.1,9.5-3.5C97.5,143.5,100.7,143.5,103.5,142.5z"/>
</g>
<g>
	<path class="st36" d="M307.5,149.5c1.7,0,3.3,0,5,0c1.5,0.5,2.8,1.2,4,2c-1.8,2.9-2.6,6.2-2.5,10c-4.8,9.3-12.3,12.3-22.5,9
		c-1.3-2.6-1.3-5.2,0-8c0.7,0,1,0.3,1,1c1.4,2.5,3.5,3.5,6.5,3c7.2,0.3,11-3,11.5-10C311,153.3,310,151,307.5,149.5z"/>
</g>
<g>
	<path class="st37" d="M307.5,140.5c2.2-0.3,4.2,0,6,1c-4.2-0.3-8.2,0-12,1c-8.5,0.6-16.2,3.4-23,8.5c-9,7.1-11,15.6-6,25.5
		c1.4,2.9,3.4,5.4,6,7.5c13.2,8.4,27.5,10.9,43,7.5c-7.3,2.6-15,3.6-23,3c-7.7-2.2-15.1-5.5-22-10c-7.7-5.8-10.5-13.4-8.5-23
		c4.7-9.2,11.9-15.6,21.5-19C295.4,141.2,301.4,140.5,307.5,140.5z"/>
</g>
<g>
	<path class="st38" d="M211.5,183.5c5.3-14.7,3.5-28.4-5.5-41c-1.6-2.4-3.7-3.8-6.5-4c2.6-2,5.6-2.8,9-2.5
		c10.1,10.8,13.6,23.3,10.5,37.5c-0.3-3.3-0.7-6.7-1-10c0,6.7-1.5,13.1-4.5,19C213,183.3,212.4,183.6,211.5,183.5z"/>
</g>
<g>
	<path class="st39" d="M60.5,137.5c0.2,1-0.2,1.7-1,2c-8.7,17.9-15.5,36.6-20.5,56c-0.8,3.1-0.7,6.1,0.5,9c4-8.8,7.5-17.8,10.5-27
		c2-2.4,3.8-4.9,5.5-7.5c-0.3-0.3-0.7-0.7-1-1c2.3-1.8,4.7-3.7,7-5.5c0.7-1.7,1.3-3.3,2-5c2.5-1.6,3.5-3.9,3-7c2.4,0.2,4.7,0,7-0.5
		c2.2-2.2,4.2-4.5,6-7c7.1-4.1,14.4-7.2,22-9.5c-0.1,2.9,0.5,5.6,2,8c-2.8,1-6,1-9.5,0c-2.7,2.4-5.8,3.5-9.5,3.5
		c-1.4,1.9-3.1,3.6-5,5c-4.8-0.4-7.1,1.8-7,6.5c-1.9-0.2-3.4,0.5-4.5,2c-3.2,2.9-5.3,6.1-6.5,9.5c-0.9,0.5-1.9,0.6-3,0.5
		c-0.3,3.7-0.8,7.4-1.5,11c-1.4,0.9-2.9,1.2-4.5,1c0.2,2,0,4-0.5,6c-3.3,5.3-5.4,11-6.5,17c-1.3,0-2.7,0-4,0c-2.6,9.8-4,19.8-4,30
		c-1.2-0.2-2.2,0.1-3,1c0.6,16.3,2.3,32.6,5,49c3.2,10.7,6.2,21.4,9,32c1,0,2,0,3,0c-0.1,4.2,0.7,8.2,2.5,12c3.9,6.6,7.9,13.3,12,20
		c0.5,1.3,0.7,2.6,0.5,4c-0.8-1.2-1.8-2.2-3-3c-3.4-6.6-6.9-13.3-10.5-20c-4-0.7-6.2-3-6.5-7c-1.2,0.2-2.2-0.1-3-1
		c-0.6-2.9-1.9-5.3-4-7c0-0.3,0-0.7,0-1c0.2-4,0-8-0.5-12c-0.4-1.2-1.1-2.2-2-3c-6.2-26.9-8.2-54.3-6-82c1.6-15.6,4.7-30.8,9.5-45.5
		c-0.3-1-0.7-2-1-3c1.2-3.6,2.6-7.1,4-10.5c1.5,0.3,2.8-0.1,4-1c0.8-1.3,1.8-2.5,3-3.5c-0.3-0.3-0.7-0.7-1-1c2.9-0.7,3.6-2.2,2-4.5
		c2.4-3.8,4.6-7.8,6.5-12C61,132.9,61.9,133.6,60.5,137.5z"/>
</g>
<g>
	<path class="st40" d="M136.5,182.5c1.5,3.4,3.4,6.7,5.5,10c3,2.9,5.9,5.9,8.5,9c-1-0.1-1.8,0.2-2.5,1c-1.5-2-3.3-3.3-5.5-4
		c-4.4-3.5-7.4-8-9-13.5C134.1,183.7,135.1,182.9,136.5,182.5z"/>
</g>
<g>
	<path class="st41" d="M276.5,184.5c6.9,4.5,14.3,7.8,22,10c-8,0.9-15.4-0.9-22-5.5c-1.2-1-2.2-2.2-3-3.5c1-0.1,1.8,0.2,2.5,1
		C276.5,185.9,276.6,185.2,276.5,184.5z"/>
</g>
<g>
	<path class="st42" d="M138.5,180.5c5.2,13.2,14.5,21.9,28,26c-2.4,0.2-4.7,0-7-0.5c-3.1-1.5-6.1-3-9-4.5c-2.6-3.1-5.5-6.1-8.5-9
		c-2.1-3.3-4-6.6-5.5-10C136.8,181.5,137.5,180.8,138.5,180.5z"/>
</g>
<g>
	<path class="st43" d="M142.5,198.5c2.2,0.7,4,2,5.5,4c0.7-0.8,1.5-1.1,2.5-1c2.9,1.5,5.9,3,9,4.5c2.3,0.5,4.6,0.7,7,0.5
		c10.2,1.1,19.9-0.6,29-5c-1.6,3.2-4.3,4.7-8,4.5c-1.3,1-2.7,2-4,3c-6.9,0.2-13.7,0.7-20.5,1.5C154.9,209.3,148.1,205.3,142.5,198.5
		z"/>
</g>
<g>
	<path class="st44" d="M433.5,135.5c1-0.1,1.8,0.2,2.5,1c0.5,1.7,1.1,3.4,2,5c0.7-0.8,1.5-1.1,2.5-1c2.9,5.5,5.7,11.2,8.5,17
		c2.8,8.5,5.6,16.8,8.5,25c3.6,15.1,6,30.5,7,46c0.3,8.2,0,16.2-1,24c-2-9.9-3.3-19.9-4-30C457.2,191.5,448.5,162.5,433.5,135.5z"/>
</g>
<g>
	<path class="st45" d="M473.5,228.5c-1,2.4-1.3,5.1-1,8c-1,0-2,0-3,0c0,1,0,2,0,3c-1.3,0.2-2.5-0.2-3.5-1c-0.2-3.5-0.7-6.9-1.5-10
		c-1-15.5-3.4-30.9-7-46c0.7-0.9,1.7-1.2,3-1c0-1,0-2,0-3c1.6,0.2,3.1-0.1,4.5-1C470.5,194,473.4,211,473.5,228.5z"/>
</g>
<g>
	<path class="st46" d="M376.5,95.5c1.2,0.7,2.5,1.1,4,1c0,4,2,6,6,6c-0.2,4.2,1.8,6.4,6,6.5c2.1,2.5,4.4,4.9,7,7
		c-0.3,0.3-0.7,0.7-1,1c8.1,9.7,15.6,19.9,22.5,30.5c1.1,2.9,1.8,5.9,2,9c2.2,2.3,3.9,5,5,8c1.2,6,3.2,11.7,6,17
		c-0.5,8.2,0.8,16.2,4,24c2,23,2,46,0,69c-2,5.8-3.5,11.8-4.5,18c-0.5,2.8-1.7,5.1-3.5,7c-0.8,3.6-1.4,7.3-2,11
		c-3.6,6.9-7.4,13.6-11.5,20c0.4-4.1,1.9-7.8,4.5-11c0.3-3,0.7-6,1-9c19.3-47,19.3-94,0-141c-0.3-3-0.7-6-1-9
		c-9.5-20.6-22.1-38.9-38-55C380.2,102.5,378,99.2,376.5,95.5z"/>
</g>
<g>
	<path class="st47" d="M66.5,175.5c0.5,3.9-1.2,6.2-5,7c-0.8,1.6-1.1,3.2-1,5c-1,0-2,0-3,0c-4,9.5-7.4,19.2-10,29
		c-2.7,13.4-5,26.9-7,40.5c1.6,1.8,2.4,4,2.5,6.5c0.5,16.8,4.2,32.8,11,48c0.5,3.7,0.7,7.3,0.5,11c1.3,0,2.7,0,4,0
		c-0.9,4.9,0.4,8.9,4,12c2.8,5.2,5.3,10.5,7.5,16c10.8,14.4,22.3,27.5,34.5,39.5c8.2,6.7,16.2,13.5,24,20.5
		c-13.8-6.7-26-15.7-36.5-27c-0.3-1.8-1.1-3.3-2.5-4.5c-1.7-1.7-3.7-2.9-6-3.5c-1.7-2.3-2.9-5-3.5-8c-0.7-1.3-1.3-1.3-2,0
		c-1.4-2.8-3.2-5.2-5.5-7c-3.1-1.8-5.1-4.5-6-8c0.2-1.4,0-2.7-0.5-4c-4.1-6.7-8.1-13.4-12-20c-1.8-3.8-2.6-7.8-2.5-12c-1,0-2,0-3,0
		c-2.8-10.6-5.8-21.3-9-32c-2.7-16.4-4.4-32.7-5-49c0.8-0.9,1.8-1.2,3-1c0-10.2,1.4-20.2,4-30c1.3,0,2.7,0,4,0
		c1.6-1.2,2.4-2.8,2.5-5c0.3,0.7,0.7,1.3,1,2c1.7-3.5,2.7-7.1,3-11c1.2-1.9,2.9-3.2,5-4c1.3-4,3.4-7.5,6.5-10.5
		C64.4,175.5,65.4,175.4,66.5,175.5z"/>
</g>
<g>
	<path class="st48" d="M85.5,181.5c-2.2,6.7-4.2,13.4-6,20c-0.9,0.7-1.2,1.7-1,3c-4,0-8,0-12,0c0,2,0,4,0,6c-3.3-0.1-4.8,1.6-4.5,5
		c-1,0.8-2.2,1.2-3.5,1c0,2,0,4,0,6c-1,0-2,0-3,0c0.3,2.5-0.5,4.5-2.5,6c-1.5,13.6-1.8,27.3-1,41c2.2,9.6,4.6,19.3,7,29
		c3.4,9.8,7.1,19.5,11,29c2.5,2.6,4.5,5.6,6,9c0.5,1.3,0.7,2.6,0.5,4c1,0,2,0,3,0c0.3,2.5,1.1,4.9,2.5,7c3.2,2.3,5.3,5.3,6.5,9
		c5.4,5.8,10.6,11.8,15.5,18c1,0.8,2.2,1.2,3.5,1c-0.2,1.2,0.1,2.2,1,3c1.2,1.8,2.9,2.8,5,3c0,1,0,2,0,3c7.4,5.3,14.8,10.8,22,16.5
		c2.3,1.1,4.6,2,7,2.5c-0.2,1.3,0.2,2.5,1,3.5c4.5,0.9,8.5,2.9,12,6c53.9,25,108.5,27,164,6c8.6-4.3,17.3-8.7,26-13
		c7.6-5.6,15.3-11.3,23-17c0.8-1,1.2-2.2,1-3.5c1.8,0,3.5-0.5,5-1.5c6.4-6.9,12.9-13.8,19.5-20.5c0.5-0.9,0.6-1.9,0.5-3c1,0,2,0,3,0
		c-1.6,2.6-3.3,5.3-5,8c0.2,0.6,0.5,1.1,1,1.5c-2,1.1-4,2.2-6,3.5c-0.7,1.2-1.1,2.6-1,4c-4,0-6,2-6,6c-1.8,0-3.5,0.5-5,1.5
		c-1.3,3.4-3.3,6.2-6,8.5c-5.3,3-10,6.6-14,11c-3.6,2.1-7.6,3.2-12,3.5c-1.2,1.4-2.5,2.5-4,3.5c-8.1,2.6-15.6,6.3-22.5,11
		c-1.5-1.3-2.7-1-3.5,1c-7.1,2.2-14.1,4.7-21,7.5c-6.8,0.6-13.4,1.8-20,3.5c-21.3,2.4-42.6,2.5-64,0.5c-12.3-2.6-24.3-5.8-36-9.5
		c-2.1,0.3-4.1,0-6-1c-11.5-6-23.2-11.9-35-17.5c-4-3.7-8-7.3-12-11c-2.5-1.7-5.1-3-8-4c-11.1-10-20.6-21.2-28.5-33.5
		c-1.3-2.1-3.1-3.1-5.5-3c0.2-1.4,0-2.7-0.5-4c-5.8-10.3-11.3-20.6-16.5-31c-1.7-11.7-5.4-22.7-11-33c-3.7-16.8-4.9-33.8-3.5-51
		c2.5-10.9,5.6-21.6,9.5-32c1,0,2,0,3,0c-0.2-1.7,0-3.4,0.5-5c3.1-4.6,5.6-9.6,7.5-15c3.8-1.6,7.8-2.6,12-3c2.1,0.1,4,0.8,5.5,2
		C84.3,182.6,84.8,181.9,85.5,181.5z"/>
</g>
<g>
	<path class="st49" d="M12.5,248.5c0.1,6.4,0.4,12.7,1,19c2.3,14.5,5.5,28.8,9.5,43c1.7,0.6,3.5,0.6,5.5,0c0.3-4,0.6-7.6,1-11
		c6.9,23.9,17.6,45.9,32,66c0,0.7,0,1.3,0,2c-0.8,1.7-1.8,3.4-3,5c-1,1.9-1.3,3.9-1,6c-1.1-0.1-2.1,0-3,0.5c0.8,0.7,1.1,1.5,1,2.5
		c-28.8-37.7-44.4-80.4-47-128c-0.2-7.7,0-15.3,0.5-23c0.5-1,1-2,1.5-3c-1.1-1.1-1.1-2.1,0-3C11.2,232.7,11.8,240.7,12.5,248.5z"/>
</g>
<g>
	<path class="st50" d="M21.5,249.5c0.7,8.6,1.7,17.2,3,26c1.4,8,3.1,16,5,24c-0.4,3.4-0.7,7-1,11c-2,0.6-3.8,0.6-5.5,0
		c-4-14.2-7.2-28.5-9.5-43c0.6,0.1,1.1,0.4,1.5,1c1-1.6,2.5-2.3,4.5-2C20.5,260.9,21.1,255.2,21.5,249.5z"/>
</g>
<g>
	<path class="st51" d="M464.5,228.5c0.8,3.1,1.3,6.5,1.5,10c1,0.8,2.2,1.2,3.5,1c0-1,0-2,0-3c1,0,2,0,3,0c-0.3-2.9,0-5.6,1-8
		c1.6,22-0.4,43.6-6,65c-2.2-1.4-3.9-0.7-5,2c-0.9,4-1.6,8-2,12c-1,0-2,0-3,0c0,1,0,2,0,3c-1.3,0-2.7,0-4,0c0.3,2-0.3,3.3-2,4
		c7.4-20,11.4-40.6,12-62C464.5,244.7,464.8,236.7,464.5,228.5z"/>
</g>
<g>
	<path class="st52" d="M459.5,222.5c0.7,10.1,2,20.1,4,30c-0.6,21.4-4.6,42-12,62c-22,58-61,100.4-117,127c-0.4-1.2-1.2-1.9-2.5-2
		c-4.9,2.7-10.1,4.3-15.5,5c74.9-29.9,121.7-84.3,140.5-163C459,261.9,459.9,242.2,459.5,222.5z"/>
</g>
<g>
	<path class="st53" d="M113.5,66.5c-1.7,3.3-3.3,6.6-5,10c-1.9,0.7-3.9,1.2-6,1.5c-0.9,1.4-1.2,2.9-1,4.5c-1.1-0.1-2.1,0-3,0.5
		c-2.2,3.5-4.9,6.5-8,9c0.1,1.6,0.1,3.1,0,4.5c-7.2,7.2-13.2,15.2-18,24c-4.7,5.1-8.7,10.8-12,17c1.4-3.9,0.5-4.6-2.5-2
		c-1.9,4.2-4.1,8.2-6.5,12c1.6,2.3,0.9,3.8-2,4.5c0.3,0.3,0.7,0.7,1,1c-1.2,1-2.2,2.2-3,3.5c-1.2,0.9-2.5,1.3-4,1
		c-1.4,3.4-2.8,6.9-4,10.5c0.3,1,0.7,2,1,3c-4.8,14.7-7.9,29.9-9.5,45.5c-2.2,27.7-0.2,55.1,6,82c0.9,0.8,1.6,1.8,2,3
		c0.5,4,0.7,8,0.5,12c-2.4-4.3-4.3-9-5.5-14c-2.5-10.4-4.7-20.7-6.5-31c-2.7-20.3-2.5-40.7,0.5-61C37.7,148.8,66.2,101.8,113.5,66.5
		z"/>
</g>
<g>
	<path class="st54" d="M431.5,163.5c1.6,1.2,2.4,2.8,2.5,5c1.3,0.7,2.7,1.3,4,2c3.3,15.7,6.6,30,10,43c6.8,69.4-14,128.2-62.5,176.5
		c-1.3,0.5-2.6,0.7-4,0.5c0.2,1.9-0.5,3.4-2,4.5c-5.1,3-10.1,6.2-15,9.5c-1.8,3.6-4.4,6.4-8,8.5c-2.2,1-4.5,1.7-7,2
		c-1,2.3-3,4.3-6,6c-5.3,2.6-10.8,4.8-16.5,6.5c-1.5,1.2-3,2.3-4.5,3.5c-4.9,1.3-9.9,2.3-15,3c1.3,0.7,1.3,1.3,0,2
		c-10.7,2.5-21.4,5.1-32,8c-21.7,2-43.3,2-65,0c-7.7-1.1-14.7-3.6-21-7.5c9.8,2.3,19.8,3.7,30,4c7.7,1.6,15.5,2.2,23.5,2
		c14.5-1,29-2.2,43.5-3.5c10.7-4,21.7-7.5,33-10.5c0-1,0-2,0-3c4.1-1,8.1-2.1,12-3.5c2.5-2.4,5.5-4.1,9-5c-1.3-0.7-1.3-1.3,0-2
		c3.1-2.2,6.4-3.9,10-5c1.9-1.7,3.5-3.5,5-5.5c5-2.8,10-5.6,15-8.5c2.5-2.5,5-5,7.5-7.5c0.3,0.3,0.7,0.7,1,1
		c2.3-6.1,6.4-10.2,12.5-12.5c0.2-3.2,2.2-4.8,6-5c1.3-1,1.3-2,0-3c4.4-4.2,7.7-9,10-14.5c1.3,0.2,2.5-0.2,3.5-1
		c2.6-9.2,7.2-17.2,14-24c0.5-4.6,2.1-8.6,5-12c0.9-3.6,1.6-7.3,2-11c2.4-2.5,4.1-5.5,5-9c2.4-11.3,4.3-22.6,5.5-34c1,0,2,0,3,0
		c0.5-19.8-0.2-39.4-2-59c-1,0-2,0-3,0C438.2,190.6,435.2,177,431.5,163.5z"/>
</g>
<g>
	<path class="st55" d="M331.5,55.5c0,1.5,0.7,2.7,2,3.5c3.1,0.7,6.1,1.7,9,3c1.3,0.7,1.3,1.3,0,2c4.2,3.6,8.9,6.4,14,8.5
		c0.9,0.8,1.2,1.8,1,3c1.8,0,3.5,0.5,5,1.5c3.1,3,6.3,5.8,9.5,8.5c0.7-1.7,1.9-2.2,3.5-1.5c1.6,3.3,4,6,7,8c-0.3,0.3-0.7,0.7-1,1
		c3.9,4.2,8.3,7.9,13,11c-0.3,0.3-0.7,0.7-1,1c2.6,4.2,5.7,8.4,9.5,12.5c1.5,2.1,3.5,3.4,6,4c1.3,4.6,3.1,8.9,5.5,13
		c3.2,3,5.4,6.7,6.5,11c5.7,4.6,8.2,10.6,7.5,18c1,0,2,0,3,0c3.7,13.5,6.7,27.1,9,41c1,0,2,0,3,0c1.8,19.6,2.5,39.2,2,59
		c-1,0-2,0-3,0c-1.2,11.4-3.1,22.7-5.5,34c-0.9,3.5-2.6,6.5-5,9c-0.4,3.7-1.1,7.4-2,11c-2.9,3.4-4.5,7.4-5,12
		c-6.8,6.8-11.4,14.8-14,24c-1,0.8-2.2,1.2-3.5,1c-2.3,5.5-5.6,10.3-10,14.5c1.3,1,1.3,2,0,3c-3.8,0.2-5.8,1.8-6,5
		c-6.1,2.3-10.2,6.4-12.5,12.5c-0.3-0.3-0.7-0.7-1-1c-2.5,2.5-5,5-7.5,7.5c-5,2.9-10,5.7-15,8.5c4-4.4,8.7-8,14-11
		c2.7-2.3,4.7-5.1,6-8.5c1.5-1,3.2-1.5,5-1.5c0-4,2-6,6-6c-0.1-1.4,0.3-2.8,1-4c2-1.3,4-2.4,6-3.5c-0.5-0.4-0.8-0.9-1-1.5
		c1.7-2.7,3.4-5.4,5-8c0-1.8,0.5-3.5,1.5-5c5.9-8.5,11.7-16.8,17.5-25c4.1-6.4,7.9-13.1,11.5-20c0.6-3.7,1.2-7.4,2-11
		c1.8-1.9,3-4.2,3.5-7c1-6.2,2.5-12.2,4.5-18c2-23,2-46,0-69c-3.2-7.8-4.5-15.8-4-24c-2.8-5.3-4.8-11-6-17c-1.1-3-2.8-5.7-5-8
		c-0.2-3.1-0.9-6.1-2-9c-6.9-10.6-14.4-20.8-22.5-30.5c0.3-0.3,0.7-0.7,1-1c-2.6-2.1-4.9-4.5-7-7c-4.2-0.1-6.2-2.3-6-6.5
		c-4,0-6-2-6-6c-1.5,0.1-2.8-0.3-4-1c-0.3,0-0.7,0-1,0c-0.4-1.7-0.9-3.3-1.5-5c-1.8,0.4-3.6-0.1-5.5-1.5c-1.2-1.8-2.3-3.7-3.5-5.5
		c-6.9-5.7-14.4-10.6-22.5-14.5c-4.6-5-10.3-7.9-17-8.5c0-1,0-2,0-3c-4-0.3-8-0.7-12-1c0-1,0-2,0-3c-8.7-2.3-17.5-3.6-26.5-4
		c-10.8,1.5-21.6,2.2-32.5,2c0,1,0,2,0,3c-3-0.2-6,0-9,0.5c-1.7,1.5-3.7,2.5-6,3c-2.1,1.3-3.1,3.1-3,5.5c-1,0-2,0-3,0
		c0.2,2.1,0.7,4.1,1.5,6c2.2,0.6,2.7,1.6,1.5,3c-3.9-0.3-7.5,0-11,1c-4.7,0.7-9.3,1.3-14,2c0.8-0.8,1.8-1.3,3-1.5
		c-0.7-5.3-1.3-10.7-2-16c1.9-1.2,4.1-1.4,6.5-0.5c2.2-0.6,4.4-1.3,6.5-2c0-1,0-2,0-3c3.6-0.7,7.3-1.1,11-1c6.2-0.8,12.2-2.3,18-4.5
		c21-1.7,41.5,0.1,61.5,5.5c0.3-0.3,0.7-0.7,1-1C321.8,53.4,326.6,54.7,331.5,55.5z"/>
</g>
<g>
	<path class="st56" d="M437.5,107.5c41.6,62.6,51.8,130.3,30.5,203C446,376.2,403.8,424,341.5,454c-15.8,6.9-32.1,12.1-49,15.5
		c-3.9,0.3-7.5,0-11-1c4.6-1.5,9.3-2.8,14-4c79-20.3,133.8-68.3,164.5-144c3-8.9,5.5-17.9,7.5-27c5.6-21.4,7.6-43,6-65
		c-0.1-17.5-3-34.5-8.5-51c-1.4,0.9-2.9,1.2-4.5,1c0,1,0,2,0,3c-1.3-0.2-2.3,0.1-3,1c-2.9-8.2-5.7-16.5-8.5-25
		c-2.8-5.8-5.6-11.5-8.5-17c-3-6-6-12-9-18c2,0,4,0,6,0C437.5,117.5,437.5,112.5,437.5,107.5z"/>
</g>
<g>
	<path class="st57" d="M27.5,268.5c1.8,10.3,4,20.6,6.5,31c1.2,5,3.1,9.7,5.5,14c0,0.3,0,0.7,0,1c5.4,15.5,12.4,30.2,21,44
		c0.5,2.3,1.5,4.3,3,6c-0.5,0.8-1.1,1.1-2,1c-14.4-20.1-25.1-42.1-32-66c-1.9-8-3.6-16-5-24c1,0,2,0,3,0
		C27.5,273.2,27.5,270.8,27.5,268.5z"/>
</g>
<g>
	<path class="st58" d="M375.5,95.5c0.3,0,0.7,0,1,0c1.5,3.7,3.7,7,6.5,10c15.9,16.1,28.5,34.4,38,55c0.3,3,0.7,6,1,9
		c19.3,47,19.3,94,0,141c-0.3,3-0.7,6-1,9c-2.6,3.2-4.1,6.9-4.5,11c-5.8,8.2-11.6,16.5-17.5,25c-1,1.5-1.5,3.2-1.5,5c-1,0-2,0-3,0
		c0.1,1.1,0,2.1-0.5,3c-6.6,6.7-13.1,13.6-19.5,20.5c-1.5,1-3.2,1.5-5,1.5c0.2,1.3-0.2,2.5-1,3.5c-7.7,5.7-15.4,11.4-23,17
		c-8.7,4.3-17.4,8.7-26,13c-55.5,21-110.1,19-164-6c-3.5-3.1-7.5-5.1-12-6c-0.8-1-1.2-2.2-1-3.5c-2.4-0.5-4.7-1.4-7-2.5
		c-7.2-5.7-14.6-11.2-22-16.5c0-1,0-2,0-3c-2.1-0.2-3.8-1.2-5-3c-0.9-0.8-1.2-1.8-1-3c-1.3,0.2-2.5-0.2-3.5-1
		c-4.9-6.2-10.1-12.2-15.5-18c-1.2-3.7-3.3-6.7-6.5-9c-1.4-2.1-2.2-4.5-2.5-7c-1,0-2,0-3,0c0.2-1.4,0-2.7-0.5-4
		c-1.5-3.4-3.5-6.4-6-9c-3.9-9.5-7.6-19.2-11-29c-2.4-9.7-4.8-19.4-7-29c-0.8-13.7-0.5-27.4,1-41c2-1.5,2.8-3.5,2.5-6c1,0,2,0,3,0
		c0-2,0-4,0-6c1.3,0.2,2.5-0.2,3.5-1c-0.3-3.4,1.2-5.1,4.5-5c0-2,0-4,0-6c4,0,8,0,12,0c-0.2-1.3,0.1-2.3,1-3c-0.5,3-0.8,6-1,9
		c-1.9,0.8-3.9,0.8-6,0c0,1.7,0,3.3,0,5c-2-0.3-4-0.7-6-1c0.2-1.2-0.1-2.2-1-3c-8.9,19.4-11.7,39.8-8.5,61c3,14.4,7,28.4,12,42
		c4.6,8.2,8.9,16.5,13,25c1,0.8,2.2,1.2,3.5,1c0.6,4.9,2.7,8.9,6.5,12c1,2.3,2,4.7,3,7c0.3-0.7,0.7-1.3,1-2c1.1,4.5,3.7,7.5,8,9
		c0.2,1.4,0.7,2.8,1.5,4c3.2,0.9,5.9,2.6,8,5c2.5,2.7,4.9,5.7,7,9c1.8,0.6,3.5,1.4,5,2.5c-0.3,0.3-0.7,0.7-1,1
		c9.3,6.3,18.6,12.6,28,19c2.5,1.3,5.2,1.8,8,1.5c-0.2,1.3,0.2,2.5,1,3.5c3.6,1.4,7.2,2.2,11,2.5c-0.3,1.5,0.1,2.8,1,4
		c2.9,0.7,5.9,1.2,9,1.5c3.1,2.8,6.8,4.5,11,5c12.7,1.2,25.4,2.9,38,5c21.6,0.6,43-1.7,64-7c-0.3-0.3-0.7-0.7-1-1c6-1.3,12-2.6,18-4
		c1.3-0.7,1.3-1.3,0-2c9.6-2.6,18.2-6.8,26-12.5c2.3-0.9,4.6-1.8,7-2.5c1.1-3.4,3.4-5,7-5c2.7-1.3,4.7-3.3,6-6
		c3.4,0.3,5.1-1.2,5-4.5c3.8,0.4,5.9-1.2,6.5-5c1.2-1.4,2.7-2.2,4.5-2.5c0.6-2.2,1.8-4,3.5-5.5c0.3,0.3,0.7,0.7,1,1
		c1.4-2.3,2.9-4.4,4.5-6.5c0.9-0.5,1.9-0.6,3-0.5c1.2-3.1,3.4-5.4,6.5-7c0.4-3.6,2.1-6.2,5-8c3-5.7,6.7-11,11-16
		c11.5-22.8,19.5-46.8,24-72c1.9-24.8,0-49.3-5.5-73.5c-3.9-9.6-7.4-19.5-10.5-29.5c-0.8-1.6-1.9-2.6-3.5-3
		c-1.6-5.6-3.1-11.3-4.5-17c-3.3-4.6-6.7-9.3-10-14c-1.2-1.4-2.7-2.4-4.5-3c-1.1-3.2-3.2-5.2-6.5-6c-0.3-3-2-4.7-5-5
		c-1.3-2-2.7-4-4-6c-1.4,0.8-2.5,0.3-3.5-1.5c1.3-0.7,1.3-1.3,0-2c-2.1-0.7-3.7-1.9-5-3.5c0.9-0.8,1.9-1.3,3-1.5c-2.3-1.9-5-3.3-8-4
		c0.7-0.7,1.3-1.3,2-2c-2.7-1.3-5.3-2.7-8-4c-2.2-3.9-5.5-6.1-10-6.5c0-1,0-2,0-3c-2.1-0.2-4.1-0.7-6-1.5c-1-2.3-2.7-4-5-5
		c-5-3-10.3-5-16-6c1.1-1,0.8-1.7-1-2c-10-0.9-20-2-30-3.5c-3.9,0.5-7.8,0.5-11.5,0c-3.5,0.7-7,1.5-10.5,2.5c0.9,0.5,1.9,0.6,3,0.5
		c0,3.7,0,7.3,0,11c-2,0-4,0-6,0c-13.6-0.9-27.3-1.2-41-1c3.5-1,7.1-1.3,11-1c8.1,0.4,16.1-0.1,24-1.5c-3.3-0.3-6.7-0.7-10-1
		c1.3-0.5,2.6-0.7,4-0.5c0-3.3,0-6.7,0-10c3-0.2,5.6-1.2,8-3c0.8,0.4,1.6,0.8,2.5,1c7.2-1.5,14.6-2.2,22-2
		c12.8,0.7,25.3,2.5,37.5,5.5c2.7,2.3,5.7,4.1,9,5.5c0.6-0.2,1.1-0.5,1.5-1c12.5,9.2,24.7,18.9,36.5,29
		C372.7,95.2,374.1,95.6,375.5,95.5z"/>
</g>
<g>
	<path class="st59" d="M373.5,275.5c0,0.3,0,0.7,0,1c-12.6,18.5-25.4,36.8-38.5,55c-0.5-0.6-0.6-1.3-0.5-2c-2.3-12.4-4.6-24.8-7-37
		c0.1-1.9-0.4-2.2-1.5-1c-11.1,20.5-21.9,41.2-32.5,62c-0.8,1.3-1.4,1.3-2,0c-11.8-18.6-23.8-37-36-55c0.1-0.9-0.2-1.5-1-2
		c-4.7,13.2-9.1,26.5-13,40c-2.7,7.9-5.2,15.9-7.5,24c-0.7,1.3-1.3,2.7-2,4c-0.4-0.6-0.9-0.9-1.5-1c-14.7-13-29.7-25.7-45-38
		c-0.1-0.5-0.4-0.9-1-1c-2,16.3-3.1,32.6-3.5,49c-0.7-0.9-1.5-1.5-2.5-2c-15.9-11.7-31.5-23.7-47-36c-1-1.3-1.6-0.9-2,1
		c1.5,7.7,2.8,15.3,4,23c0,1.3,0,2.7,0,4c-0.8-1.2-1.5-2.5-2-4c-3.5-13.3-6.8-26.7-10-40c18.3,14.5,36.5,29.1,54.5,44
		c0.5-0.6,0.6-1.3,0.5-2c1-15,1.6-30,2-45c1.3-1,2.6-0.8,4,0.5c15.6,12,31,24.3,46,37c1.3,0.5,2,0,2-1.5c6.9-21.1,13.3-42.4,19-64
		c0.9-2.6,2.1-2.6,3.5,0c12.8,18.4,26.2,36.4,40,54c0.4-0.2,0.6-0.6,0.5-1c11.2-19.6,22.2-39.3,33-59c0.3-2.2,1-2.4,2-0.5
		c2.7,11.5,5.5,23,8.5,34.5c0.7,1.2,1.2,1.2,1.5,0c8.3-10,16.7-20,25-30C366.9,282.8,370.2,279.1,373.5,275.5z"/>
</g>
<g>
	<path class="st60" d="M255.5,298.5c0,0.3,0,0.7,0,1c-5,14.8-9.8,29.8-14.5,45c-0.2-2.7,0-5.3,0.5-8c3.9-13.5,8.3-26.8,13-40
		C255.3,297,255.6,297.6,255.5,298.5z"/>
</g>
<g>
	<path class="st61" d="M249.5,288.5c-5.7,21.6-12.1,42.9-19,64c-1.5,0.1-2.5-0.6-3-2c6.5-21.4,13.2-42.8,20-64
		C248.2,287.2,248.8,287.9,249.5,288.5z"/>
</g>
<g>
	<path class="st62" d="M363.5,286.5c-8.3,10-16.7,20-25,30c-0.2-1.4,0-2.7,0.5-4C347,303.6,355.2,295,363.5,286.5z"/>
</g>
<g>
	<path class="st63" d="M327.5,292.5c2.4,12.2,4.7,24.6,7,37c-1,0.5-1.8,1.1-2.5,2c-2.7-10.7-4.8-21.5-6.5-32.5
		C325.9,296.7,326.5,294.5,327.5,292.5z"/>
</g>
<g>
	<path class="st64" d="M255.5,298.5c12.2,18,24.2,36.4,36,55c-1-0.1-1.8,0.2-2.5,1c-10.9-16.2-21.6-32.5-32-49
		c-1.1-1.8-1.6-3.8-1.5-6C255.5,299.2,255.5,298.8,255.5,298.5z"/>
</g>
<g>
	<path class="st65" d="M76.5,222.5c0.2,9.7,0,19.3-0.5,29c-0.5,2.1-1.4,4.1-2.5,6c-0.9-0.8-1.2-1.8-1-3c-2,0-4,0-6,0
		c0.2-2.7,0-5.4-0.5-8c-2.3,8.5-3,17.2-2,26c1.6,8.2,3.6,16.2,6,24c2.7,7.7,6.1,15,10,22c0.5,1.3,0.7,2.6,0.5,4
		c-1.7,0.2-3.4,0-5-0.5c-7.9-16.7-13.4-34.2-16.5-52.5c-0.6-14.3,1.8-27.9,7-41c0.5,2,0.7,4,0.5,6c3,0,6,0,9,0
		C75.2,230.3,75.5,226.3,76.5,222.5z"/>
</g>
<g>
	<path class="st66" d="M326.5,282.5c-10.8,19.7-21.8,39.4-33,59c-0.7-1.6-0.9-3.3-0.5-5c10.3-19.1,20.8-38.1,31.5-57
		C325.2,280.6,325.8,281.6,326.5,282.5z"/>
</g>
<g>
	<path class="st67" d="M360.5,260.5c9.1,0.9,16.6,4.9,22.5,12c2.9,3.1,4.7,6.8,5.5,11c-3.7-3.5-7.5-6.8-11.5-10c-1.2,1-2.3,2-3.5,3
		c0-0.3,0-0.7,0-1c0-1.5,0.7-2.7,2-3.5c-4.6-5.1-10.3-8.5-17-10C359,261.3,359.7,260.8,360.5,260.5z"/>
</g>
<g>
	<path class="st68" d="M388.5,283.5c-0.8-4.2-2.6-7.9-5.5-11c-5.9-7.1-13.4-11.1-22.5-12C379.5,256.5,388.8,264.2,388.5,283.5z"/>
</g>
<g>
	<path class="st69" d="M78.5,210.5c0,4.1-0.7,8.1-2,12c-1,3.8-1.3,7.8-1,12c-3,0-6,0-9,0c0.2-2,0-4-0.5-6c-5.2,13.1-7.6,26.7-7,41
		c3.1,18.3,8.6,35.8,16.5,52.5c1.6,0.5,3.3,0.7,5,0.5c-0.2,4,0.6,7.6,2.5,11c0.7,1.3,1.3,1.3,2,0c1.3,3.6,2.5,7.3,3.5,11
		c0.8,0.9,1.8,1.2,3,1c0,4.8,2.2,8.1,6.5,10c1,1.5,1.5,3.2,1.5,5c3.2,0.1,5.1,1.7,5.5,5c1.3,0.7,2.7,1.3,4,2c1.4,2.8,2.9,5.5,4.5,8
		c-2.1-2.4-4.8-4.1-8-5c-0.8-1.2-1.3-2.6-1.5-4c-4.3-1.5-6.9-4.5-8-9c-0.3,0.7-0.7,1.3-1,2c-1-2.3-2-4.7-3-7
		c-3.8-3.1-5.9-7.1-6.5-12c-1.3,0.2-2.5-0.2-3.5-1c-4.1-8.5-8.4-16.8-13-25c-5-13.6-9-27.6-12-42c-3.2-21.2-0.4-41.6,8.5-61
		c0.9,0.8,1.2,1.8,1,3c2,0.3,4,0.7,6,1c0-1.7,0-3.3,0-5C74.6,211.3,76.6,211.3,78.5,210.5z"/>
</g>
<g>
	<path class="st70" d="M93.5,163.5c-2.4,6.2-5,12.2-8,18c-0.7,0.4-1.2,1.1-1.5,2c-1.5-1.2-3.4-1.9-5.5-2c-4.2,0.4-8.2,1.4-12,3
		c-1.9,5.4-4.4,10.4-7.5,15c-0.5,1.6-0.7,3.3-0.5,5c-1,0-2,0-3,0c-3.9,10.4-7,21.1-9.5,32c-1.4,17.2-0.2,34.2,3.5,51
		c5.6,10.3,9.3,21.3,11,33c5.2,10.4,10.7,20.7,16.5,31c0.5,1.3,0.7,2.6,0.5,4c2.4-0.1,4.2,0.9,5.5,3c7.9,12.3,17.4,23.5,28.5,33.5
		c2.9,1,5.5,2.3,8,4c4,3.7,8,7.3,12,11c11.8,5.6,23.5,11.5,35,17.5c1.9,1,3.9,1.3,6,1c-0.2,1.2,0.1,2.2,1,3c3.9,1.1,7.6,2.6,11,4.5
		c9.8,1.3,19.5,2.9,29,5c2.2,0.6,4.2,1.4,6,2.5c-10.2-0.3-20.2-1.7-30-4c-1.7,0.2-3.4,0-5-0.5c-10.3-3.7-20.6-7.3-31-11
		c-8.8-4.4-17.1-9.2-25-14.5c-7.8-7-15.8-13.8-24-20.5c-12.2-12-23.7-25.1-34.5-39.5c-2.2-5.5-4.7-10.8-7.5-16
		c-3.6-3.1-4.9-7.1-4-12c-1.3,0-2.7,0-4,0c0.2-3.7,0-7.3-0.5-11c-6.8-15.2-10.5-31.2-11-48c-0.1-2.5-0.9-4.7-2.5-6.5
		c2-13.6,4.3-27.1,7-40.5c2.6-9.8,6-19.5,10-29c1,0,2,0,3,0c-0.1-1.8,0.2-3.4,1-5c3.8-0.8,5.5-3.1,5-7c3.3,0.1,4.8-1.6,4.5-5
		c4-0.4,6.5-2.5,7.5-6.5C83.7,163.7,88.7,163.5,93.5,163.5z"/>
</g>
<g>
	<path class="st71" d="M413.5,157.5c1.6,0.4,2.7,1.4,3.5,3c3.1,10,6.6,19.9,10.5,29.5c5.5,24.2,7.4,48.7,5.5,73.5
		c-4.5,25.2-12.5,49.2-24,72c-4.3,5-8,10.3-11,16c-2.9,1.8-4.6,4.4-5,8c-3.1,1.6-5.3,3.9-6.5,7c-1.1-0.1-2.1,0-3,0.5
		c-1.6,2.1-3.1,4.2-4.5,6.5c-0.3-0.3-0.7-0.7-1-1c-1.7,1.5-2.9,3.3-3.5,5.5c-1.8,0.3-3.3,1.1-4.5,2.5c-0.6,3.8-2.7,5.4-6.5,5
		c0.1,3.3-1.6,4.8-5,4.5c-1.3,2.7-3.3,4.7-6,6c-3.6,0-5.9,1.6-7,5c-2.4,0.7-4.7,1.6-7,2.5c-7.8,5.7-16.4,9.9-26,12.5
		c1.3,0.7,1.3,1.3,0,2c-6,1.4-12,2.7-18,4c0.3,0.3,0.7,0.7,1,1c-21,5.3-42.4,7.6-64,7c-12.6-2.1-25.3-3.8-38-5
		c-4.2-0.5-7.9-2.2-11-5c-3.1-0.3-6.1-0.8-9-1.5c-0.9-1.2-1.3-2.5-1-4c-3.8-0.3-7.4-1.1-11-2.5c-0.8-1-1.2-2.2-1-3.5
		c-2.8,0.3-5.5-0.2-8-1.5c-9.4-6.4-18.7-12.7-28-19c0.3-0.3,0.7-0.7,1-1c-1.5-1.1-3.2-1.9-5-2.5c-2.1-3.3-4.5-6.3-7-9
		c2.5,1.6,5.2,3.1,8,4.5c0.5,3.4,2.5,5.2,6,5.5c2.1,4.5,5.4,6,10,4.5c5.1,4.6,10.7,8.1,17,10.5c5.4,0.9,10,3,14,6.5
		c10.1,3.3,20.1,6.8,30,10.5c49.2,11.1,95.5,4.6,139-19.5c5.8-5.1,12.1-9.4,19-13c3.5-4,7.5-7.5,12-10.5c1.5-5,4.9-8.2,10-9.5
		c49.6-58,61.3-123.1,35-195.5c-4-8-8-16-12-24c-7.2-10.3-14.6-20.5-22-30.5c-5.7-0.9-9.4-4-11-9.5c-5.1-3.6-9.8-7.8-14-12.5
		c-3.4-1.5-6.8-3.1-10-5c-10.3-9.9-22.6-15.1-37-15.5c3,13.4-1,16.4-12,9c2,0,4,0,6,0c0-4,0-8,0-12c15.9-0.7,29.6,4.1,41,14.5
		c2.1,0.4,4.1,1,6,2c-0.3,0.3-0.7,0.7-1,1c4.8,2.5,9,5.6,12.5,9.5c1.1-0.8,2.2-0.6,3.5,0.5c-0.4,1.8,0.5,3.3,2.5,4.5
		c0.3-0.3,0.7-0.7,1-1c3.4,4,6.9,7.8,10.5,11.5c2,0.9,4,1.8,6,2.5c2,2.5,4.1,4.8,6.5,7c1.9,4.4,4.7,8.1,8.5,11
		c0.8,3.5,2.7,6.1,5.5,8C407.1,146.4,410.3,152.1,413.5,157.5z"/>
</g>
<g>
	<path class="st72" d="M61.5,367.5c15.2,20.1,32.9,37.8,53,53c1.5,2.4,2.1,5.1,2,8c-1,0-2,0-3,0c-0.1,2.7,0.2,5.4,1,8
		c-23.1-14.5-42.8-32.8-59-55c0.1-1-0.2-1.8-1-2.5c0.9-0.5,1.9-0.6,3-0.5c-0.3-2.1,0-4.1,1-6C59.7,370.9,60.7,369.2,61.5,367.5z"/>
</g>
<g>
	<path class="st73" d="M60.5,358.5c20.5,29.5,46.2,53.5,77,72c-1.5,0.8-3.2,1.1-5,1c-6.3-3.2-12.3-6.8-18-11
		c-20.1-15.2-37.8-32.9-53-53c0-0.7,0-1.3,0-2c0.9,0.1,1.5-0.2,2-1C62,362.8,61,360.8,60.5,358.5z"/>
</g>
<g>
	<path class="st74" d="M467.5,293.5c-2,9.1-4.5,18.1-7.5,27c-30.7,75.7-85.5,123.7-164.5,144c-8-0.3-8-0.7,0-1c-1-5,1-7.4,6-7
		c0-1,0-2,0-3c11.3-3.1,22.3-7.1,33-12c56-26.6,95-69,117-127c1.7-0.7,2.3-2,2-4c1.3,0,2.7,0,4,0c0-1,0-2,0-3c1,0,2,0,3,0
		c0.4-4,1.1-8,2-12C463.6,292.8,465.3,292.1,467.5,293.5z"/>
</g>
<g>
	<path class="st75" d="M272.5,24.5c24.4,3.8,47.7,11.2,70,22c20.7,11.7,39.7,25.7,57,42c13,14.4,24.4,30.1,34,47
		c15,27,23.7,56,26,87c0.4,19.7-0.5,39.4-2.5,59c-18.8,78.7-65.6,133.1-140.5,163c-11.5,3.7-23.1,6.9-35,9.5
		c-12.6,1.7-25.3,2.8-38,3.5c-37.6-0.4-73-9.4-106-27c-30.8-18.5-56.5-42.5-77-72c-8.6-13.8-15.6-28.5-21-44c2.1,1.7,3.4,4.1,4,7
		c0.8,0.9,1.8,1.2,3,1c0.3,4,2.5,6.3,6.5,7c3.6,6.7,7.1,13.4,10.5,20c1.2,0.8,2.2,1.8,3,3c0.9,3.5,2.9,6.2,6,8
		c1.5,7.2,5.5,12.9,12,17c1.4,1.5,1.7,3,1,4.5c5.2,5.2,10.3,10.3,15.5,15.5c1.1-1.2,2.3-1.2,3.5,0c4.8,3.7,9.1,7.9,13,12.5
		c5.2,1,9.2,3.9,12,8.5c2.6,0.7,5.1,1.7,7.5,3c0.3-0.3,0.7-0.7,1-1c0.5,0.9,0.6,1.9,0.5,3c2.2,0.1,4.2,0.8,6,2
		c1.2,0.8,1.2,1.6,0,2.5c1.3,0.3,2.4,0.8,3.5,1.5c1-1,2.2-1.2,3.5-0.5c11.5,5.8,23.5,10.5,36,14c1.4,0.4,2.4,1.2,3,2.5
		c26.2,4.7,52.5,5.9,79,3.5c11.5-2.4,23.2-4.5,35-6.5c0.7,0.3,1.3,0.7,2,1c2.2-1.5,4.5-2.5,7-3c0-1,0-2,0-3
		c28.9-9.4,53.9-24.9,75-46.5c1-0.3,2-0.7,3-1c20.8-21.7,36.9-46.5,48.5-74.5c0.5-1.6,0.7-3.3,0.5-5c2,0.3,3.5-0.4,4.5-2
		c1.2-11.2,3.4-22.2,6.5-33c2.7-23.7,2.7-47.3,0-71c-3.7-15.3-8.2-30.3-13.5-45c-9.7-22.8-22.9-43.1-39.5-61c-1.3-0.6-2.6-1.1-4-1.5
		c-2.2-3.5-5-6.3-8.5-8.5c-0.4-1.4-0.9-2.7-1.5-4c-4.5-3.7-8.8-7.5-13-11.5c-2.1-0.3-4.1-0.8-6-1.5c-7.3-6.1-15.3-11-24-14.5
		c-2.9-3.1-6.2-5.2-10-6.5c-4.9-4.7-10.9-7.4-18-8c0.1-2.4-0.9-4.2-3-5.5c-3.3-0.3-6.3-1.3-9-3c-7.6-0.7-15.3-1.2-23-1.5
		c0-1.3,0-2.7,0-4c-11.8-0.3-23.7-0.6-35.5-1c-15.5,0.9-31,2-46.5,3.5c-5.4,3.5-11.4,5.5-18,6c-5.4,2.7-11.1,4.9-17,6.5
		c-3.6-1.3-6.9-0.8-10,1.5c0.7,0.3,1.3,0.7,2,1c-2.4,1.7-5,2.6-8,2.5c0.2,1.3-0.2,2.5-1,3.5c-4.8,1.9-9.8,3.1-15,3.5
		c4.5-3.7,9.5-6.7,15-9C184.7,25.8,227.4,18.5,272.5,24.5z"/>
</g>
<g>
	<path class="st76" d="M80.5,322.5c0.9-0.1,1.5,0.2,2,1c7.7,16,17.8,30.3,30.5,43c0.5,0.9,0.6,1.9,0.5,3c3.7,0.3,5.7,2.3,6,6
		c1.1-0.1,2.1,0,3,0.5c2.5,2.1,4.9,4.4,7,7c5.9,2.4,10.9,6.1,15,11c3.4,1.2,6.7,2.3,10,3.5c0,1,0,2,0,3c-6.3-2.4-11.9-5.9-17-10.5
		c-4.6,1.5-7.9,0-10-4.5c-3.5-0.3-5.5-2.1-6-5.5c-2.8-1.4-5.5-2.9-8-4.5c-1.6-2.5-3.1-5.2-4.5-8c-1.3-0.7-2.7-1.3-4-2
		c-0.4-3.3-2.3-4.9-5.5-5c0-1.8-0.5-3.5-1.5-5c-4.3-1.9-6.5-5.2-6.5-10c-1.2,0.2-2.2-0.1-3-1c-1-3.7-2.2-7.4-3.5-11
		c-0.7,1.3-1.3,1.3-2,0C81.1,330.1,80.3,326.5,80.5,322.5z"/>
</g>
<g>
	<path class="st77" d="M133.5,359.5c0.9,4.1,1.9,8.2,3,12.5c-0.2,0.8-0.3,1.7-0.5,2.5c-1.6-3.5-2.4-7.2-2.5-11
		C133.5,362.2,133.5,360.8,133.5,359.5z"/>
</g>
<g>
	<path class="st78" d="M131.5,335.5c15.5,12.3,31.1,24.3,47,36c-0.9,0.8-1.9,1-3,0.5c-14.3-11-28.7-22-43-33
		C131.7,338,131.3,336.8,131.5,335.5z"/>
</g>
<g>
	<path class="st79" d="M185.5,325.5c15.3,12.3,30.3,25,45,38c-0.9,0.8-1.9,1-3,0.5c-13.8-11.8-27.7-23.7-41.5-35.5
		C185.5,327.6,185.4,326.6,185.5,325.5z"/>
</g>
<g>
	<path class="st80" d="M178.5,316.5c-0.4,15-1,30-2,45c-0.6-0.3-1.3-0.6-2-1c-1-15.4-0.5-30.7,1.5-46
		C176.7,315.4,177.5,316,178.5,316.5z"/>
</g>
<g>
	<path class="st81" d="M121.5,319.5c3.2,13.3,6.5,26.7,10,40c-5.1-13.4-10.1-26.9-15-40.5c1.5-0.5,2.7,0,3.5,1.5
		c0.3-0.7,0.7-1.3,1-2C121.4,318.7,121.6,319.1,121.5,319.5z"/>
</g>
<g>
	<path class="st82" d="M289.5,42.5c9,1,18,2.3,27,4c3.1,1.4,6.1,3.1,9,5c1.9,1,3.9,1.3,6,1c0,1,0,2,0,3c-4.9-0.8-9.7-2.1-14.5-4
		c-0.3,0.3-0.7,0.7-1,1c-20-5.4-40.5-7.2-61.5-5.5c-5.8,2.2-11.8,3.7-18,4.5c0.7-1.2,1.1-2.5,1-4C254.5,43.2,271.8,41.5,289.5,42.5z
		"/>
</g>
<g>
	<path class="st83" d="M114.5,420.5c5.7,4.2,11.7,7.8,18,11c7.9,4.8,16,9.1,24.5,13c-0.1,3.1-1.6,5.6-4.5,7.5c8,4.1,16.4,7.2,25,9.5
		c2.2,1.1,4.5,1.7,7,2c0.2,1.3-0.2,2.5-1,3.5c1.2,0.2,2.2,0.7,3,1.5c-26.1-6.2-50.1-16.9-72-32c-0.8-2.6-1.1-5.3-1-8c1,0,2,0,3,0
		C116.6,425.6,116,422.9,114.5,420.5z"/>
</g>
<g>
	<path class="st84" d="M290.5,39.5c10.1,2.1,20.4,4.3,31,6.5c2.5,3.4,5.8,4.9,10,4.5c3.8,1.3,7.1,3.4,10,6.5
		c8.7,3.5,16.7,8.4,24,14.5c1.9,0.7,3.9,1.2,6,1.5c4.2,4,8.5,7.8,13,11.5c0.6,1.3,1.1,2.6,1.5,4c3.5,2.2,6.3,5,8.5,8.5
		c1.4,0.4,2.7,0.9,4,1.5c16.6,17.9,29.8,38.2,39.5,61c5.3,14.7,9.8,29.7,13.5,45c2.7,23.7,2.7,47.3,0,71c-3.1,10.8-5.3,21.8-6.5,33
		c-1,1.6-2.5,2.3-4.5,2c0.2,1.7,0,3.4-0.5,5c-11.6,28-27.7,52.8-48.5,74.5c-1,0.3-2,0.7-3,1c-21.1,21.6-46.1,37.1-75,46.5
		c0,1,0,2,0,3c-2.5,0.5-4.8,1.5-7,3c-0.7-0.3-1.3-0.7-2-1c-11.8,2-23.5,4.1-35,6.5c-26.5,2.4-52.8,1.2-79-3.5
		c-0.6-1.3-1.6-2.1-3-2.5c-12.5-3.5-24.5-8.2-36-14c-1.3-0.7-2.5-0.5-3.5,0.5c-1.1-0.7-2.2-1.2-3.5-1.5c1.2-0.9,1.2-1.7,0-2.5
		c-1.8-1.2-3.8-1.9-6-2c0.1-1.1,0-2.1-0.5-3c-0.3,0.3-0.7,0.7-1,1c-2.4-1.3-4.9-2.3-7.5-3c-2.8-4.6-6.8-7.5-12-8.5
		c-3.9-4.6-8.2-8.8-13-12.5c-1.2-1.2-2.4-1.2-3.5,0c-5.2-5.2-10.3-10.3-15.5-15.5c0.7-1.5,0.4-3-1-4.5c-6.5-4.1-10.5-9.8-12-17
		c2.3,1.8,4.1,4.2,5.5,7c0.7-1.3,1.3-1.3,2,0c0.6,3,1.8,5.7,3.5,8c2.3,0.6,4.3,1.8,6,3.5c1.4,1.2,2.2,2.7,2.5,4.5
		c10.5,11.3,22.7,20.3,36.5,27c7.9,5.3,16.2,10.1,25,14.5c10.4,3.7,20.7,7.3,31,11c1.6,0.5,3.3,0.7,5,0.5c6.3,3.9,13.3,6.4,21,7.5
		c21.7,2,43.3,2,65,0c10.6-2.9,21.3-5.5,32-8c1.3-0.7,1.3-1.3,0-2c5.1-0.7,10.1-1.7,15-3c1.5-1.2,3-2.3,4.5-3.5
		c5.7-1.7,11.2-3.9,16.5-6.5c3-1.7,5-3.7,6-6c2.5-0.3,4.8-1,7-2c3.6-2.1,6.2-4.9,8-8.5c4.9-3.3,9.9-6.5,15-9.5
		c1.5-1.1,2.2-2.6,2-4.5c1.4,0.2,2.7,0,4-0.5c48.5-48.3,69.3-107.1,62.5-176.5c-3.4-13-6.7-27.3-10-43c-1.3-0.7-2.7-1.3-4-2
		c-0.1-2.2-0.9-3.8-2.5-5c0.7-6.1-1.2-11.1-5.5-15c-4.7-9.4-9.4-18.7-14-28c-4.3-5.4-8.7-10.7-13-16c-1.4-1.9-3.3-3.3-5.5-4
		c-0.7-2.6-1.9-4.9-3.5-7c-9.5-7.1-18.6-14.6-27.5-22.5c-10.3-5.2-20.7-10.3-31-15.5c0-1,0-2,0-3c-2.1,0.3-4.1,0-6-1
		c-2.9-1.9-5.9-3.6-9-5c-9-1.7-18-3-27-4c-7.5-0.7-15.2-1.6-23-2.5C274.4,38.8,282.4,38.6,290.5,39.5z"/>
</g>
<g>
	<path class="st85" d="M355.5,404.5c-1.5,2-3.1,3.8-5,5.5c-3.6,1.1-6.9,2.8-10,5c-1.3,0.7-1.3,1.3,0,2c-3.5,0.9-6.5,2.6-9,5
		c-3.9,1.4-7.9,2.5-12,3.5c0,1,0,2,0,3c-11.3,3-22.3,6.5-33,10.5c-14.5,1.3-29,2.5-43.5,3.5c-8,0.2-15.8-0.4-23.5-2
		c-1.8-1.1-3.8-1.9-6-2.5c-9.5-2.1-19.2-3.7-29-5c-3.4-1.9-7.1-3.4-11-4.5c-0.9-0.8-1.2-1.8-1-3c11.7,3.7,23.7,6.9,36,9.5
		c21.4,2,42.7,1.9,64-0.5c6.6-1.7,13.2-2.9,20-3.5c6.9-2.8,13.9-5.3,21-7.5c0.8-2,2-2.3,3.5-1c6.9-4.7,14.4-8.4,22.5-11
		c1.5-1,2.8-2.1,4-3.5C347.9,407.7,351.9,406.6,355.5,404.5z"/>
</g>
<g>
	<path class="st86" d="M137.5,430.5c33,17.6,68.4,26.6,106,27c0.1,1-0.2,1.8-1,2.5c4.7,0.5,9.3,0.7,14,0.5c-13.2,1-26.5,1-40,0
		c-10.7-3-21.7-4.9-33-5.5c-2.2,2-4.2,4.2-6,6.5c-8.6-2.3-17-5.4-25-9.5c2.9-1.9,4.4-4.4,4.5-7.5c-8.5-3.9-16.6-8.2-24.5-13
		C134.3,431.6,136,431.3,137.5,430.5z"/>
</g>
<g>
	<path class="st87" d="M334.5,441.5c-10.7,4.9-21.7,8.9-33,12c-14.7,3.8-29.7,6.1-45,7c-4.7,0.2-9.3,0-14-0.5c0.8-0.7,1.1-1.5,1-2.5
		c12.7-0.7,25.4-1.8,38-3.5c11.9-2.6,23.5-5.8,35-9.5c5.4-0.7,10.6-2.3,15.5-5C333.3,439.6,334.1,440.3,334.5,441.5z"/>
</g>
<g>
	<path class="st88" d="M216.5,460.5c-0.7,0.9-1.7,1.2-3,1c0,2.3,0,4.7,0,7c1.3-0.2,2.3,0.1,3,1c-10.9-1-21.5-3-32-6
		c-2.5-0.3-4.8-0.9-7-2c1.8-2.3,3.8-4.5,6-6.5C194.8,455.6,205.8,457.5,216.5,460.5z"/>
</g>
<g>
	<path class="st89" d="M301.5,453.5c0,1,0,2,0,3c-5-0.4-7,2-6,7c-8,0.3-8,0.7,0,1c-4.7,1.2-9.4,2.5-14,4c-12.7,1-25.3,2-38,3
		c-9-0.3-18-0.9-27-2c-0.7-0.9-1.7-1.2-3-1c0-2.3,0-4.7,0-7c1.3,0.2,2.3-0.1,3-1c13.5,1,26.8,1,40,0
		C271.8,459.6,286.8,457.3,301.5,453.5z"/>
</g>
<g>
	<path class="st90" d="M184.5,463.5c10.5,3,21.1,5,32,6c9,1.1,18,1.7,27,2c12.7-1,25.3-2,38-3c3.5,1,7.1,1.3,11,1
		c-35.3,8.2-70.6,7.8-106-1c-0.8-0.8-1.8-1.3-3-1.5C184.3,466,184.7,464.8,184.5,463.5z"/>
</g>
</svg>
