<?xml version="1.0" encoding="utf-8"?>
<!-- Generator: Adobe Illustrator 27.9.0, SVG Export Plug-In . SVG Version: 6.00 Build 0)  -->
<svg version="1.1" id="Capa_1" xmlns="http://www.w3.org/2000/svg" xmlns:xlink="http://www.w3.org/1999/xlink" x="0px" y="0px"
	 viewBox="0 0 490 482" style="enable-background:new 0 0 490 482;" xml:space="preserve">
<style type="text/css">
	.st0{fill-rule:evenodd;clip-rule:evenodd;fill:#CECDCD;}
	.st1{fill-rule:evenodd;clip-rule:evenodd;fill:#EBEAEA;}
	.st2{fill-rule:evenodd;clip-rule:evenodd;fill:#F8F8F8;}
	.st3{fill-rule:evenodd;clip-rule:evenodd;fill:#7A7877;}
	.st4{fill-rule:evenodd;clip-rule:evenodd;fill:#F2EBCB;}
	.st5{fill-rule:evenodd;clip-rule:evenodd;fill:#FDF5D0;}
	.st6{fill-rule:evenodd;clip-rule:evenodd;fill:#FCF2C2;}
	.st7{fill-rule:evenodd;clip-rule:evenodd;fill:#F8E48F;}
	.st8{fill-rule:evenodd;clip-rule:evenodd;fill:#FEF9E3;}
	.st9{fill-rule:evenodd;clip-rule:evenodd;fill:#9E9C9B;}
	.st10{fill-rule:evenodd;clip-rule:evenodd;fill:#F7DB73;}
	.st11{fill-rule:evenodd;clip-rule:evenodd;fill:#FEFEFC;}
	.st12{fill-rule:evenodd;clip-rule:evenodd;fill:#B1B0B0;}
	.st13{fill-rule:evenodd;clip-rule:evenodd;fill:#FEFCF3;}
	.st14{fill-rule:evenodd;clip-rule:evenodd;fill:#F6D04B;}
	.st15{fill-rule:evenodd;clip-rule:evenodd;fill:#F7CC34;}
	.st16{fill-rule:evenodd;clip-rule:evenodd;fill:#DEDEDE;}
	.st17{fill-rule:evenodd;clip-rule:evenodd;fill:#F5CB0D;}
	.st18{fill-rule:evenodd;clip-rule:evenodd;fill:#F4C601;}
	.st19{fill-rule:evenodd;clip-rule:evenodd;fill:#F8EBAD;}
	.st20{fill-rule:evenodd;clip-rule:evenodd;fill:#F8DF84;}
	.st21{fill-rule:evenodd;clip-rule:evenodd;fill:#F9E79D;}
	.st22{fill-rule:evenodd;clip-rule:evenodd;fill:#F6EDC4;}
	.st23{fill-rule:evenodd;clip-rule:evenodd;fill:#F5D44B;}
	.st24{fill-rule:evenodd;clip-rule:evenodd;fill:#F5D75F;}
	.st25{fill-rule:evenodd;clip-rule:evenodd;fill:#F6D133;}
	.st26{fill-rule:evenodd;clip-rule:evenodd;fill:#FEF9E2;}
	.st27{fill-rule:evenodd;clip-rule:evenodd;fill:#FDF6D2;}
	.st28{fill-rule:evenodd;clip-rule:evenodd;fill:#F4DF7F;}
	.st29{fill-rule:evenodd;clip-rule:evenodd;fill:#A4A3A3;}
	.st30{fill-rule:evenodd;clip-rule:evenodd;fill:#FDF3C6;}
	.st31{fill-rule:evenodd;clip-rule:evenodd;fill:#FAEAA5;}
	.st32{fill-rule:evenodd;clip-rule:evenodd;fill:#C4C3C2;}
	.st33{fill-rule:evenodd;clip-rule:evenodd;fill:#F4E28B;}
	.st34{fill-rule:evenodd;clip-rule:evenodd;fill:#696765;}
	.st35{fill-rule:evenodd;clip-rule:evenodd;fill:#F7ECBE;}
	.st36{fill-rule:evenodd;clip-rule:evenodd;fill:#EBEAE9;}
	.st37{fill-rule:evenodd;clip-rule:evenodd;fill:#F6F6F5;}
	.st38{fill-rule:evenodd;clip-rule:evenodd;fill:#211E19;}
	.st39{fill-rule:evenodd;clip-rule:evenodd;fill:#FBF6E1;}
	.st40{fill-rule:evenodd;clip-rule:evenodd;fill:#F6F4EC;}
	.st41{fill-rule:evenodd;clip-rule:evenodd;fill:#F9ECB3;}
	.st42{fill-rule:evenodd;clip-rule:evenodd;fill:#898786;}
	.st43{fill-rule:evenodd;clip-rule:evenodd;fill:#555250;}
	.st44{fill-rule:evenodd;clip-rule:evenodd;fill:#F8E696;}
	.st45{fill-rule:evenodd;clip-rule:evenodd;fill:#B9B7B7;}
	.st46{fill-rule:evenodd;clip-rule:evenodd;fill:#221F1A;}
	.st47{fill-rule:evenodd;clip-rule:evenodd;fill:#F7CD45;}
	.st48{fill-rule:evenodd;clip-rule:evenodd;fill:#797775;}
	.st49{fill-rule:evenodd;clip-rule:evenodd;fill:#F6EBB5;}
	.st50{fill-rule:evenodd;clip-rule:evenodd;fill:#4C4846;}
	.st51{fill-rule:evenodd;clip-rule:evenodd;fill:#F4D782;}
	.st52{fill-rule:evenodd;clip-rule:evenodd;fill:#FBF1C5;}
	.st53{fill-rule:evenodd;clip-rule:evenodd;fill:#EAE9E8;}
	.st54{fill-rule:evenodd;clip-rule:evenodd;fill:#9C8447;}
	.st55{fill-rule:evenodd;clip-rule:evenodd;fill:#F6E195;}
	.st56{fill-rule:evenodd;clip-rule:evenodd;fill:#7E8184;}
	.st57{fill-rule:evenodd;clip-rule:evenodd;fill:#F1EACA;}
	.st58{fill-rule:evenodd;clip-rule:evenodd;fill:#A38A4A;}
	.st59{fill-rule:evenodd;clip-rule:evenodd;fill:#F7DB83;}
	.st60{fill-rule:evenodd;clip-rule:evenodd;fill:#D1B56D;}
	.st61{fill-rule:evenodd;clip-rule:evenodd;fill:#F4D05D;}
	.st62{fill-rule:evenodd;clip-rule:evenodd;fill:#F7D672;}
	.st63{fill-rule:evenodd;clip-rule:evenodd;fill:#C5A864;}
	.st64{fill-rule:evenodd;clip-rule:evenodd;fill:#F3CC4D;}
	.st65{fill-rule:evenodd;clip-rule:evenodd;fill:#F4DB6C;}
	.st66{fill-rule:evenodd;clip-rule:evenodd;fill:#F4D550;}
	.st67{fill-rule:evenodd;clip-rule:evenodd;fill:#F6E38D;}
	.st68{fill-rule:evenodd;clip-rule:evenodd;fill:#656C71;}
	.st69{fill-rule:evenodd;clip-rule:evenodd;fill:#E1E0E0;}
	.st70{fill-rule:evenodd;clip-rule:evenodd;fill:#F4DD78;}
	.st71{fill-rule:evenodd;clip-rule:evenodd;fill:#E2DFD5;}
	.st72{fill-rule:evenodd;clip-rule:evenodd;fill:#7A7876;}
	.st73{fill-rule:evenodd;clip-rule:evenodd;fill:#A98C39;}
	.st74{fill-rule:evenodd;clip-rule:evenodd;fill:#999899;}
	.st75{fill-rule:evenodd;clip-rule:evenodd;fill:#24201A;}
	.st76{fill-rule:evenodd;clip-rule:evenodd;fill:#CFCFCF;}
	.st77{fill-rule:evenodd;clip-rule:evenodd;fill:#F6D13F;}
	.st78{fill-rule:evenodd;clip-rule:evenodd;fill:#907732;}
	.st79{fill-rule:evenodd;clip-rule:evenodd;fill:#E4E3E1;}
	.st80{fill-rule:evenodd;clip-rule:evenodd;fill:#F5DD78;}
	.st81{fill-rule:evenodd;clip-rule:evenodd;fill:#CCC1AA;}
	.st82{fill-rule:evenodd;clip-rule:evenodd;fill:#584D36;}
	.st83{fill-rule:evenodd;clip-rule:evenodd;fill:#F7ECBC;}
	.st84{fill-rule:evenodd;clip-rule:evenodd;fill:#F6E8A4;}
	.st85{fill-rule:evenodd;clip-rule:evenodd;fill:#F6E8A6;}
	.st86{fill-rule:evenodd;clip-rule:evenodd;fill:#F5E28C;}
	.st87{fill-rule:evenodd;clip-rule:evenodd;fill:#F5DB6D;}
	.st88{fill-rule:evenodd;clip-rule:evenodd;fill:#F6EEC9;}
	.st89{fill-rule:evenodd;clip-rule:evenodd;fill:#C0C0C0;}
	.st90{fill-rule:evenodd;clip-rule:evenodd;fill:#8C8A88;}
	.st91{fill-rule:evenodd;clip-rule:evenodd;fill:#F5E391;}
	.st92{fill-rule:evenodd;clip-rule:evenodd;fill:#5C656A;}
	.st93{fill-rule:evenodd;clip-rule:evenodd;fill:#F6D134;}
	.st94{fill-rule:evenodd;clip-rule:evenodd;fill:#B7B7B7;}
	.st95{fill-rule:evenodd;clip-rule:evenodd;fill:#F5D860;}
	.st96{fill-rule:evenodd;clip-rule:evenodd;fill:#F4DD75;}
	.st97{fill-rule:evenodd;clip-rule:evenodd;fill:#F4E38B;}
	.st98{fill-rule:evenodd;clip-rule:evenodd;fill:#F7ECBB;}
	.st99{fill-rule:evenodd;clip-rule:evenodd;fill:#C5C4C3;}
	.st100{fill-rule:evenodd;clip-rule:evenodd;fill:#6D7377;}
	.st101{fill-rule:evenodd;clip-rule:evenodd;fill:#7F8386;}
</style>
<g>
	<path class="st0" d="M309.5,15.5c-2.5-1.1-4.6-1.1-6.5,0c-0.8-2.4-1.6-2.2-2.5,0.5c6,2.3,12,4.7,18,7c0.9,1.4,1.2,2.9,1,4.5
		c-1.3,0-2.7,0-4,0c0,1.3,0,2.7,0,4c-14-5.1-28.3-8.7-43-11c-9.1-1.2-18.1-2.2-27-3c6.2,0.5,12.2-0.2,18-2c0-1.6,0.6-3,2-4
		c-1.2-1.6-2.9-2.4-5-2.5c-15.7-0.7-31.3-0.7-47,0c-5.5,0.4-10.9,1.2-16,2.5c-28.3,4.3-54.7,14-79,29c-0.7,0.1-1.4,0-2-0.5
		c0.8-1,1.2-2.2,1-3.5C170.7,5.4,227.7-3.8,288.5,9C295.8,10.4,302.8,12.6,309.5,15.5z"/>
</g>
<g>
	<path class="st1" d="M245.5,17.5c-17.5-0.4-34.8,0.9-52,4c-0.8-0.9-1-1.9-0.5-3c0.7,1,1.6,1.1,2.5,0.5c1.5-2.7,3.5-5.1,6-7
		c-1.3-0.5-2.6-0.7-4-0.5c5.1-1.3,10.5-2.1,16-2.5c15.7-0.7,31.3-0.7,47,0c2.1,0.1,3.8,0.9,5,2.5c-1.4,1-2,2.4-2,4
		C257.7,17.3,251.7,18,245.5,17.5z"/>
</g>
<g>
	<path class="st2" d="M197.5,11.5c1.4-0.2,2.7,0,4,0.5c-2.5,1.9-4.5,4.3-6,7c-0.9,0.6-1.8,0.5-2.5-0.5c-0.5,1.1-0.3,2.1,0.5,3
		c-20.3,4.6-39.7,11.6-58,21C74.3,75.3,35.8,125.6,20,193.5c-3.4,18.2-4.9,36.5-4.5,55c-0.4,5.7-1,11.4-2,17c-2-0.3-3.5,0.4-4.5,2
		c-0.4-0.6-0.9-0.9-1.5-1c-0.6-6.3-0.9-12.6-1-19c-0.5-89.9,36.8-158.9,112-207C142.8,25.5,169.2,15.8,197.5,11.5z"/>
</g>
<g>
	<path class="st3" d="M245.5,17.5c8.9,0.8,17.9,1.8,27,3c0,1,0,2,0,3c-2,0-4,0-6,0c-46.1-5.9-89.8,1.8-131,23
		c-0.1-0.6-0.4-1.1-1-1.5c1.2-1,2.5-1.5,4-1.5c-0.8-0.9-1.8-1.2-3-1c18.3-9.4,37.7-16.4,58-21C210.7,18.4,228,17.1,245.5,17.5z"/>
</g>
<g>
	<path class="st4" d="M266.5,23.5c13.4,2.2,26.8,5.4,40,9.5c6.9,1.8,13.3,4.6,19,8.5c-2.4,0.2-4.7,0-7-0.5c-5.4-3.1-11.1-5.8-17-8
		c-3.9,0-7.6-0.8-11-2.5c-1.1,0.5-2.3,0.9-3.5,1c-7.4-2.4-14.9-4.6-22.5-6.5c-16.5,0.7-33,0.6-49.5-0.5c-3.2,0.2-6.4,0.7-9.5,1.5
		c0.3,0.3,0.7,0.7,1,1c-10.2,2.6-20.5,4.6-31,6c-9,3.3-18,6.4-27,9.5c-1.2,1-2.2,2.2-3,3.5c-1.3,0.7-2.5,0.5-3.5-0.5
		c-1.9,1.5-4.1,2.7-6.5,3.5c-0.5,1.8-1.5,3.6-3,5.5c-4.4,0.8-8.4,2.6-12,5.5c-3.1,3.8-7,6.6-11.5,8.5c-0.8-0.1-1.4-0.5-2-1
		c-5.3,4.5-10.2,9.5-14.5,15c-1.6,0.5-2.8,1.5-3.5,3c-0.3-0.3-0.7-0.7-1-1c-3.5,7.6-9,13-16.5,16c-1.7,3.7-3.3,7.3-5,11
		c-1,0-2,0-3,0c0,3.1-0.5,6.1-1.5,9c-3.4,2.5-5.6,5.9-6.5,10c-1,0-2,0-3,0c0.2,1.7,0,3.4-0.5,5c-3.1,5.9-5.9,11.9-8.5,18
		c-0.6,1.5-1.6,2.5-3,3c-1,0-1.7,0.5-2,1.5c-0.4,1.5-1.1,2.8-2,4c1.1,1.6,0.6,2.8-1.5,3.5c-0.1,3.4-1.6,5.7-4.5,7
		c13.6-41.4,37.3-75.9,71-103.5c10.8-8.3,22.2-15.8,34-22.5C176.7,25.3,220.4,17.6,266.5,23.5z"/>
</g>
<g>
	<path class="st5" d="M219.5,31.5c-8.5,3.8-17.1,7.3-26,10.5c-6.2,4-11.8,8.5-17,13.5c-3.5,7.9-4.5,16.1-3,24.5
		c-1.6,0.9-3.3,1.5-5,2c0.8,1,1.2,2.2,1,3.5c-2.4,1.5-5.1,2.5-8,3c-5.2-1.3-4.8-2.2,1-2.5c-1.6-0.5-3.3-0.7-5-0.5
		c-0.8-13.4,3.2-24.9,12-34.5c4.5-4,9.2-7.9,14-11.5c2.3-0.7,4.6-1.2,7-1.5c-1.4-1.3-3.1-1.8-5-1.5
		C196.5,33.4,207.8,31.7,219.5,31.5z"/>
</g>
<g>
	<path class="st6" d="M219.5,31.5c7.7-0.2,15.3,0,23,0.5c-18.3,1.1-35,6.8-50,17c-3.9,4.1-7.3,8.6-10,13.5c-1,6-1.3,12-1,18
		c-4,1.7-8,3.3-12,5c0.2-1.3-0.2-2.5-1-3.5c1.7-0.5,3.4-1.1,5-2c-1.5-8.4-0.5-16.6,3-24.5c5.2-5,10.8-9.5,17-13.5
		C202.4,38.8,211,35.3,219.5,31.5z"/>
</g>
<g>
	<path class="st7" d="M321.5,50.5c3.3-0.2,5.9,1,8,3.5c4.7-0.5,8.4,1.2,11,5c8.7,4.7,17,9.8,25,15.5c2.4,3.7,5.4,6.7,9,9
		c0,0.3,0,0.7,0,1c-4.3-0.7-7.3-3.1-9-7c-2.8-1.6-5.5-3.5-8-5.5c-3.3-1.5-6.6-2.7-10-3.5c-5-5.2-11-8.8-18-11
		c-0.8-0.7-1.5-1.6-2-2.5c-5.3-1.8-10.6-3.3-16-4.5c-6.9-3.8-14.2-6.3-22-7.5c-17.6-1.6-35-0.1-52,4.5c-3,3-6.4,5.7-10,8
		c0.8,0.9,1.8,1.2,3,1c0.3,3.7,0,7.4-1,11c-1.2,1-2.5,1.9-4,2.5c3.9,0.2,7.5,0.7,11,1.5c-5-0.1-10,0.2-15,1c-1.5-0.8-3.1-1.3-5-1.5
		c10.6-0.8,10.6-1.3,0-1.5c0.3-4.6,0-9.1-1-13.5c1.7-1.7,3.7-2.5,6-2.5c-0.1-1.1,0-2.1,0.5-3c2.6-1.7,5.1-3.5,7.5-5.5
		c11.8-2.1,23.7-4.3,35.5-6.5c3,0,5.8,0.6,8.5,2c0.9-0.5,1.9-0.8,3-1c6.3,1.3,12.6,2.2,19,2.5C304.1,45.3,312.7,48.1,321.5,50.5z"/>
</g>
<g>
	<path class="st8" d="M185.5,36.5c1.9-0.3,3.6,0.2,5,1.5c-2.4,0.3-4.7,0.8-7,1.5c-4.8,3.6-9.5,7.5-14,11.5
		c-8.8,9.6-12.8,21.1-12,34.5c1.7-0.2,3.4,0,5,0.5c-5.8,0.3-6.2,1.2-1,2.5c-5.3,3.3-10.6,6.6-16,10c-2.3-3.2-1.3-5.4,3-6.5
		c-1.6-1.8-2.4-4-2.5-6.5c-0.9-8.3,0.3-16.3,3.5-24c1.7-4,4.4-7.8,8-11.5c-1.3-0.7-1.3-1.3,0-2c-0.9-0.5-1.9-0.6-3-0.5
		c1.8-1.4,3.8-2.6,6-3.5C168.8,41.5,177.2,39,185.5,36.5z"/>
</g>
<g>
	<path class="st9" d="M272.5,20.5c14.7,2.3,29,5.9,43,11c19.9,8.1,38.6,18.6,56,31.5c-0.5,0.6-0.9,1.2-1,2c0.9,1.1,1.6,2.2,2,3.5
		c-9.1-6.4-18.4-12.6-28-18.5c-6.2-3.4-12.5-6.3-19-8.5c-5.7-3.9-12.1-6.7-19-8.5c-13.2-4.1-26.6-7.3-40-9.5c2,0,4,0,6,0
		C272.5,22.5,272.5,21.5,272.5,20.5z"/>
</g>
<g>
	<path class="st10" d="M311.5,50.5c5.4,1.2,10.7,2.7,16,4.5c0.5,0.9,1.2,1.8,2,2.5c7,2.2,13,5.8,18,11c5.7,5.7,12.1,10.7,19,15
		c-7.8-3.4-14.8-8.1-21-14c-4.1-1.9-8.1-4-12-6.5c-6.9-2.1-13.6-5-20-8.5c-11.9-2.2-23.9-3.3-36-3.5c-3.7,0.6-7.4,1.5-11,2.5
		c0.2,0.3,0.3,0.7,0.5,1c5.5-1.8,11-2,16.5-0.5c-5,0-9.6,1.2-14,3.5c-0.9,1-1.5,2.2-2,3.5c0.6,2.5,0.9,5,1,7.5c0,2.5-0.7,4.5-2,6
		c-8.1-1-16.1-2-24-3c0.6-1.3,1.6-2.1,3-2.5c-1.7-3.9-2.6-8-2.5-12.5c-0.2,2.1-0.7,4.1-1.5,6c-0.8-2.6-1.3-5.3-1.5-8
		c-0.4,0.5-0.9,0.8-1.5,1c-1-1.5-1.3-3.2-1-5c12.3-2.5,24.8-4.2,37.5-5C287.3,46.4,299.5,48.1,311.5,50.5z"/>
</g>
<g>
	<path class="st11" d="M92.5,88.5c14.8-15.1,31.8-27.1,51-36c1.5-0.8,2.8-0.8,4,0c-1.5,1.3-3.2,2.3-5,3c-1.1,1.8-1.1,3.6,0,5.5
		c-1.1,1.4-1.9,2.9-2.5,4.5c-0.2,5.4-0.7,10.7-1.5,16c1,5.3,1.3,10.6,1,16c-1.9,0.5-3.7,1.1-5.5,2c-4.7-1.9-9.6-3.8-14.5-5.5
		c-1.7-0.7-3.4-0.5-5,0.5c-1.1-1.2-2.4-2.1-4-2.5c-4.1-0.3-8.1-1.1-12-2.5c-2-0.1-3.6,0.6-5,2C92.6,90.7,92.3,89.7,92.5,88.5z"/>
</g>
<g>
	<path class="st12" d="M309.5,15.5c37.8,12.2,70.5,32.5,98,61c-1.6,0-3-0.6-4-2c-1.6,2.4-2.2,5.1-2,8c-2.2,0.1-4.2,0.7-6,2
		c2.7,2.4,5,5,7,8c0.1,0.4-0.1,0.8-0.5,1c-1.6-1.4-3.4-2-5.5-2c-8-7.7-16-15.3-24-23c-0.4-1.3-1.1-2.4-2-3.5c0.1-0.8,0.5-1.4,1-2
		c-17.4-12.9-36.1-23.4-56-31.5c0-1.3,0-2.7,0-4c1.3,0,2.7,0,4,0c0.2-1.6-0.1-3.1-1-4.5c-6-2.3-12-4.7-18-7c0.9-2.7,1.7-2.9,2.5-0.5
		C304.9,14.4,307,14.4,309.5,15.5z"/>
</g>
<g>
	<path class="st13" d="M151.5,47.5c1,0,2,0,3,0c1.1-0.1,2.1,0,3,0.5c-1.3,0.7-1.3,1.3,0,2c-3.6,3.7-6.3,7.5-8,11.5
		c-3.2,7.7-4.4,15.7-3.5,24c0.1,2.5,0.9,4.7,2.5,6.5c-4.3,1.1-5.3,3.3-3,6.5c-3.5,2.6-7.2,4.9-11,7c-1.2-2.1-2.9-2.1-5,0
		c-5.6-1.2-11-3.2-16-6c-7.6-1.2-15.3-1.3-23-0.5c-3.4,0.9-6.6,2.4-9.5,4.5c-0.5-0.9-0.6-1.9-0.5-3c3.1-4.9,7.1-8.9,12-12
		c-0.2,1.2,0.1,2.2,1,3c1.4-1.4,3-2.1,5-2c3.9,1.4,7.9,2.2,12,2.5c1.6,0.4,2.9,1.3,4,2.5c1.6-1,3.3-1.2,5-0.5
		c4.9,1.7,9.8,3.6,14.5,5.5c1.8-0.9,3.6-1.5,5.5-2c0.3-5.4,0-10.7-1-16c0.8-5.3,1.3-10.6,1.5-16c0.6-1.6,1.4-3.1,2.5-4.5
		c-1.1-1.9-1.1-3.7,0-5.5c1.8-0.7,3.5-1.7,5-3c-1.2-0.8-2.5-0.8-4,0c2.2-1.5,4.6-2.8,7-4C151.2,48.5,151.5,48.2,151.5,47.5z"/>
</g>
<g>
	<path class="st14" d="M322.5,65.5c-3.9-1.3-7.9-2.5-12-3.5c-4.7-0.5-9.4-0.3-14,0.5c-0.7,5.8-0.3,11.6,1,17.5c-0.6,1-1.2,1.8-2,2.5
		c-4.8-1.2-9.5-2.5-14-4c5-0.2,5.7-1.6,2-4c-1.9-5.6-0.9-10.5,3-14.5c-1.8-0.2-3.4-0.7-5-1.5c1-2.5,2.2-2.5,3.5,0
		c0.5-0.5,1-1,1.5-1.5c7-0.7,14-0.7,21,0C313,59,318,61.8,322.5,65.5z"/>
</g>
<g>
	<path class="st15" d="M322.5,65.5c3.9,2.3,7.9,4.7,12,7c0.4,0.7,0.7,1.4,1,2c-5.3-2.5-10.6-5-16-7.5c-5.1-1.9-10.1-1.9-15,0
		c2.9,0,3.9,1.2,3,3.5c0.9,0.9,1.9,1.6,3,2c-0.3,5.1,0.1,10.1,1,15c-1.2,1.1-2.6,1.3-4,0.5c-4.2-1.6-8.2-3.5-12-5.5
		c0.8-0.7,1.4-1.5,2-2.5c-1.3-5.9-1.7-11.7-1-17.5c4.6-0.8,9.3-1,14-0.5C314.6,63,318.6,64.2,322.5,65.5z"/>
</g>
<g>
	<path class="st16" d="M117.5,36.5c0.2,1.3-0.2,2.5-1,3.5c0.6,0.5,1.3,0.6,2,0.5C43.3,88.6,6,157.6,6.5,247.5
		c-0.7-7.8-1.3-15.8-2-24c-1.1,0.9-1.1,1.9,0,3c-0.5,1-1,2-1.5,3c-0.5,7.7-0.7,15.3-0.5,23c-3.2-82,27.2-148.9,91-200.5
		C101.4,46.6,109.4,41.4,117.5,36.5z"/>
</g>
<g>
	<path class="st17" d="M335.5,74.5c4.7,5.9,10.7,10,18,12.5c3.3,2.5,5.6,5.6,7,9.5c1.2,0.9,2.5,1.3,4,1c2.6,4.1,5.7,7.7,9.5,11
		c0.5,0.9,0.6,1.9,0.5,3c3.4-0.2,5.4,1.5,6,5c6.4,3.5,10.8,8.8,13,16c1.4,2,3,3.7,5,5c0.9,3.4,2,6.7,3.5,10
		c24.9,43.6,30.5,89.9,17,139c-0.3-0.3-0.7-0.7-1-1c-0.1,7.2-2.3,13.7-6.5,19.5c-1.2,4.4-2,8.9-2.5,13.5c-4.5,10.7-10.9,20.4-19,29
		c-1,2.3-2,4.7-3,7c-3.7,3.9-7.5,7.5-11.5,11c-2.2,2.8-3.9,5.8-5,9c-1.3,0-2.7,0-4,0c-1.9,3.2-4.2,6.2-7,9c-8.6,6.2-17.6,11.9-27,17
		c-0.9,0.8-1.2,1.8-1,3c-2.1-0.3-4.1,0-6,1c-3.5,3.3-7.5,5.8-12,7.5c-13.2,5.4-26.9,9.4-41,12c-25.7,3.2-51.3,3.2-77,0
		c-6.2-2.2-12.5-4.2-19-6c-10-5.2-20.3-9.7-31-13.5c-0.7-1-1.3-2-2-3c-12.8-8.1-24.8-17.1-36-27c-1.1,0.1-2.1,0-3-0.5
		c-20.3-19.6-35.8-42.4-46.5-68.5c0.5-5.6-1.1-10.2-5-14c-0.1-10.5-1.2-20.8-3.5-31c0.2-3.2,1.1-6.2,2.5-9c1-1.3,1.8-1.3,2.5,0
		c2.1,3.1,3.8,6.6,5,10.5c-0.6,1.6-1,3.2-1,5c0.6,4.2,1.5,8.4,2.5,12.5c1.7,0.9,3.5,1.2,5.5,1c0.4,4.5-0.3,8.8-2,13
		c1.4,3.2,2.4,6.6,3,10c1.7,0,3.3,0,5,0c0,4,0,8,0,12c2,0,4,0,6,0c0.3,2.6-0.3,5-2,7c1.5,1.4,2.1,3,2,5c1.7,0,3.3,0,5,0
		c-0.2,2.7,0,5.4,0.5,8c2.5,1.7,4,4,4.5,7c1.3,1,2.7,2,4,3c0.7-0.3,1.3-0.7,2-1c1,1.9,1.3,3.9,1,6c2,0,4,0,6,0
		c-0.1,2.8-0.2,5.4-0.5,8c8.7,8.7,16.2,16.2,22.5,22.5c2,0.5,4,0.3,6-0.5c2.3,0.3,2.7,1.3,1,3c1.2,2.5,3.2,3.5,6,3
		c-0.1,1.1,0,2.1,0.5,3c2,1,3.6,2.3,5,4c2-0.9,4.2-1.3,6.5-1c0,2,0,4,0,6c1.6,0,3.1,0.4,4.5,1c2.3-1.6,4.8-2.3,7.5-2
		c-0.5,3.2,0.5,5.7,3,7.5c2.9-0.8,5.9-1.3,9-1.5c0,2,0,4,0,6c3.2-0.1,6.2,0.6,9,2c2.6-1.2,5.2-1.8,8-2c-0.2,1.6,0.1,3.1,1,4.5
		c2.6,1.2,5.3,2.2,8,3c7-0.5,14-1,21-1.5c0,1.7,0,3.3,0,5c11.7,0,23.3,0,35,0c0-1.7,0-3.3,0-5c7.1-0.4,14.1,0.2,21,2
		c4.5-2,9.1-3,14-3c0.4-5.3,2.9-6.3,7.5-3c7.5-3,15-6,22.5-9c0-1.7,0-3.3,0-5c6.8,1.1,12.5-0.9,17-6c0.8-1.6,1.1-3.2,1-5
		c2.4,0.1,4.7,0.3,7,0.5c2.3-3.2,5.3-5.3,9-6.5c1-1.9,1.3-3.9,1-6c2,0,4,0,6,0c0-2,0-4,0-6c2,0,4,0,6,0c0-2,0-4,0-6c2,0,4,0,6,0
		c0-2,0-4,0-6c5.7-0.3,9.4-3.3,11-9c1.1-0.6,2.1-1.5,3-2.5c-1.7-1.4-2.4-3.2-2-5.5c5,1,7-1,6-6c1.3,0,2.7,0,4,0c0-2.1,0.6-3.9,2-5.5
		c-0.9-2-1.3-4.2-1-6.5c2,0,4,0,6,0c0.1-1.7,0.8-3.2,2-4.5c-1.6-2.3-2.3-4.8-2-7.5c2,0,4,0,6,0c0-3.1,0.7-6.1,2-9
		c-1.3-2.6-1.8-5.2-1.5-8c1.8-0.7,3.4-1,5-1c0.3-3,1.2-5.9,2.5-8.5c-1.7-4.7-2.4-9.5-2-14.5c1.7,0,3.3,0,5,0
		c0.6-9.8,1.3-19.7,2-29.5c-0.7-9.8-1.4-19.7-2-29.5c-1.7,0-3.3,0-5,0c0.1-5.8,0.6-11.4,1.5-17c-1.2-1.8-1.8-3.8-2-6
		c-1.6,0-3.2-0.3-5-1c-0.5-1.6-0.7-3.3-0.5-5c1,0,2,0,3,0c-1.2-4.1-2.7-8.1-4.5-12c-0.8,3.9-1.3,3.9-1.5,0c-1,0-2,0-3,0
		c-0.3-2.7,0.4-5.2,2-7.5c-1.2-1.3-1.9-2.8-2-4.5c-2,0-4,0-6,0c0.8-3.9,0.6-7.5-0.5-11c-1.4-0.9-2.9-1.2-4.5-1c1-5-1-7-6-6
		c-0.4-2.3,0.3-4.1,2-5.5c-3.4-3-6.1-6.5-8-10.5c-1.9-1-3.9-1.3-6-1c0-2,0-4,0-6c-2,0-4,0-6,0c0-2,0-4,0-6c-2,0-4,0-6,0c0-2,0-4,0-6
		c-2,0-4,0-6,0c0.5-3.2-0.5-5.7-3-7.5c-0.9-0.6-1.8-0.5-2.5,0.5c-2.4-4.6-6.3-6.2-11.5-5c0.3-3.7-1.2-6.3-4.5-8
		c-4.1-2.6-8.6-3.6-13.5-3c0.3-1.8,0-3.5-1-5c-2.6,21.2-4.1,20.8-4.5-1c-1.1-0.8-2.3-1.5-3.5-2c-1.1-0.4-2.1-1.1-3-2
		c0.9-2.3-0.1-3.5-3-3.5c4.9-1.9,9.9-1.9,15,0C324.9,69.5,330.2,72,335.5,74.5z"/>
</g>
<g>
	<path class="st18" d="M236.5,71.5c2,0,4,0,6,0c7.9,1,15.9,2,24,3c5,1,10,2.3,15,4c4.5,1.5,9.2,2.8,14,4c3.8,2,7.8,3.9,12,5.5
		c1.4,0.8,2.8,0.6,4-0.5c-0.9-4.9-1.3-9.9-1-15c1.2,0.5,2.4,1.2,3.5,2c0.4,21.8,1.9,22.2,4.5,1c1,1.5,1.3,3.2,1,5
		c4.9-0.6,9.4,0.4,13.5,3c3.3,1.7,4.8,4.3,4.5,8c5.2-1.2,9.1,0.4,11.5,5c0.7-1,1.6-1.1,2.5-0.5c2.5,1.8,3.5,4.3,3,7.5c2,0,4,0,6,0
		c0,2,0,4,0,6c2,0,4,0,6,0c0,2,0,4,0,6c2,0,4,0,6,0c0,2,0,4,0,6c2.1-0.3,4.1,0,6,1c1.9,4,4.6,7.5,8,10.5c-1.7,1.4-2.4,3.2-2,5.5
		c5-1,7,1,6,6c1.6-0.2,3.1,0.1,4.5,1c1.1,3.5,1.3,7.1,0.5,11c2,0,4,0,6,0c0.1,1.7,0.8,3.2,2,4.5c-1.6,2.3-2.3,4.8-2,7.5c1,0,2,0,3,0
		c0.2,3.9,0.7,3.9,1.5,0c1.8,3.9,3.3,7.9,4.5,12c-1,0-2,0-3,0c-0.2,1.7,0,3.4,0.5,5c1.8,0.7,3.4,1,5,1c0.2,2.2,0.8,4.2,2,6
		c-0.9,5.6-1.4,11.2-1.5,17c1.7,0,3.3,0,5,0c0.6,9.8,1.3,19.7,2,29.5c-0.7,9.8-1.4,19.7-2,29.5c-1.7,0-3.3,0-5,0
		c-0.4,5,0.3,9.8,2,14.5c-1.3,2.6-2.2,5.5-2.5,8.5c-1.6,0-3.2,0.3-5,1c-0.3,2.8,0.2,5.4,1.5,8c-1.3,2.9-2,5.9-2,9c-2,0-4,0-6,0
		c-0.3,2.7,0.4,5.2,2,7.5c-1.2,1.3-1.9,2.8-2,4.5c-2,0-4,0-6,0c-0.3,2.3,0.1,4.5,1,6.5c-1.4,1.6-2,3.4-2,5.5c-1.3,0-2.7,0-4,0
		c1,5-1,7-6,6c-0.4,2.3,0.3,4.1,2,5.5c-0.9,1-1.9,1.9-3,2.5c-1.6,5.7-5.3,8.7-11,9c0,2,0,4,0,6c-2,0-4,0-6,0c0,2,0,4,0,6
		c-2,0-4,0-6,0c0,2,0,4,0,6c-2,0-4,0-6,0c0.3,2.1,0,4.1-1,6c-3.7,1.2-6.7,3.3-9,6.5c-2.3-0.2-4.6-0.4-7-0.5c0.1,1.8-0.2,3.4-1,5
		c-4.5,5.1-10.2,7.1-17,6c0,1.7,0,3.3,0,5c-7.5,3-15,6-22.5,9c-4.6-3.3-7.1-2.3-7.5,3c-4.9,0-9.5,1-14,3c-6.9-1.8-13.9-2.4-21-2
		c0,1.7,0,3.3,0,5c-11.7,0-23.3,0-35,0c0-1.7,0-3.3,0-5c-7,0.5-14,1-21,1.5c-2.7-0.8-5.4-1.8-8-3c-0.9-1.4-1.2-2.9-1-4.5
		c-2.8,0.2-5.4,0.8-8,2c-2.8-1.4-5.8-2.1-9-2c0-2,0-4,0-6c-3.1,0.2-6.1,0.7-9,1.5c-2.5-1.8-3.5-4.3-3-7.5c-2.7-0.3-5.2,0.4-7.5,2
		c-1.4-0.6-2.9-1-4.5-1c0-2,0-4,0-6c-2.3-0.3-4.5,0.1-6.5,1c-1.4-1.7-3-3-5-4c-0.5-0.9-0.6-1.9-0.5-3c-2.8,0.5-4.8-0.5-6-3
		c1.7-1.7,1.3-2.7-1-3c-2,0.8-4,1-6,0.5c-6.3-6.3-13.8-13.8-22.5-22.5c0.3-2.6,0.4-5.2,0.5-8c-2,0-4,0-6,0c0.3-2.1,0-4.1-1-6
		c-0.7,0.3-1.3,0.7-2,1c-1.3-1-2.7-2-4-3c-0.5-3-2-5.3-4.5-7c-0.5-2.6-0.7-5.3-0.5-8c-1.7,0-3.3,0-5,0c0.1-2-0.5-3.6-2-5
		c1.7-2,2.3-4.4,2-7c-2,0-4,0-6,0c0-4,0-8,0-12c-1.7,0-3.3,0-5,0c-0.6-3.4-1.6-6.8-3-10c1.7-4.2,2.4-8.5,2-13c-2,0.2-3.8-0.1-5.5-1
		c-1-4.1-1.9-8.3-2.5-12.5c0-1.8,0.4-3.4,1-5c-1.2-3.9-2.9-7.4-5-10.5c4.4-0.2,8.2,1.4,11.5,5c1-2.5,2.2-2.5,3.5,0
		c1-9.6,1.3-19.3,1-29c1-7,1.7-14,2-21c2.2-8.4,4.5-16.7,7-25c0.6-0.9,0.9-1.9,1-3c3.3-7.3,6.7-14.7,10-22c1.6-2.2,2.9-4.5,4-7
		c5.3-7,10.6-14,16-21c1.3-1.7,2.7-3.3,4-5c2.3-1.7,4.3-3.7,6-6c5-3.7,9.7-7.7,14-12c3.8-2.1,7.5-4.4,11-7c5.4-3.4,10.7-6.7,16-10
		c2.9-0.5,5.6-1.5,8-3c4-1.7,8-3.3,12-5c3.5-0.6,6.8-1.6,10-3c9.8-2.7,19.8-4.4,30-5C226.5,71.7,231.5,71.4,236.5,71.5z"/>
</g>
<g>
	<path class="st19" d="M401.5,107.5c-3.7-1.1-6-3.6-7-7.5c-4.6-2.2-8.2-5.6-11-10c-2.9-2.4-5.9-4.6-9-6.5c-3.6-2.3-6.6-5.3-9-9
		c-8-5.7-16.3-10.8-25-15.5c-2.6-3.8-6.3-5.5-11-5c-2.1-2.5-4.7-3.7-8-3.5c0.1-1.1,0-2.1-0.5-3c-14-9.5-29.3-12.8-46-10
		c-12.5-2.4-25-2.5-37.5-0.5c-2.4,1.7-4.9,2.2-7.5,1.5c-1.3,1-2.7,2-4,3c-0.4-0.5-0.9-0.8-1.5-1c-2,1.5-4.4,2.3-7,2.5
		c-1.4,0.5-2.6,1.3-3.5,2.5c-0.3-0.3-0.7-0.7-1-1c-3.9,3.6-8.1,6.7-12.5,9.5c-0.9,3.3-1.9,6.7-3,10c0.9,3.4,1.2,6.9,1,10.5
		c-3.1-0.5-5.5,0.5-7,3c-3.2,1.4-6.5,2.4-10,3c-0.3-6,0-12,1-18c2.7-4.9,6.1-9.4,10-13.5c15-10.2,31.7-15.9,50-17
		c-7.7-0.5-15.3-0.7-23-0.5c-11.7,0.2-23,1.9-34,5c-8.3,2.5-16.7,5-25,7.5c-2.2,0.9-4.2,2.1-6,3.5c-1,0-2,0-3,0
		c-0.6-1.3-1.6-2.1-3-2.5c1.7-0.7,3.4-0.5,5,0.5c1.9-1.7,3.9-3.2,6-4.5c19.6-6.2,39.6-10.9,60-14c20-1.4,39.8-0.2,59.5,3.5
		c13.7,3.8,27.2,8,40.5,12.5c5.8,3.2,11.8,5.8,18,8c1.4,2.5,3.1,4.9,5,7c5.9,2.8,11.9,5.3,18,7.5c0,1,0,2,0,3c2,0,4,0,6,0
		c-0.2,1.9,0.5,3.4,2,4.5c6.7,3.2,12.1,8.1,16,14.5c3.3,3.2,6.8,6.2,10.5,9C397.4,100.1,399.6,103.7,401.5,107.5z"/>
</g>
<g>
	<path class="st20" d="M311.5,50.5c-12-2.4-24.2-4.1-36.5-5c-12.7,0.8-25.2,2.5-37.5,5c-0.3,1.8,0,3.5,1,5c0.6-0.2,1.1-0.5,1.5-1
		c0.2,2.7,0.7,5.4,1.5,8c0.8-1.9,1.3-3.9,1.5-6c-0.1,4.5,0.8,8.6,2.5,12.5c-1.4,0.4-2.4,1.2-3,2.5c-2,0-4,0-6,0
		c-3.5-0.8-7.1-1.3-11-1.5c1.5-0.6,2.8-1.5,4-2.5c1-3.6,1.3-7.3,1-11c-1.2,0.2-2.2-0.1-3-1c3.6-2.3,7-5,10-8c17-4.6,34.4-6.1,52-4.5
		C297.3,44.2,304.6,46.7,311.5,50.5z"/>
</g>
<g>
	<path class="st21" d="M321.5,50.5c-8.8-2.4-17.4-5.2-26-8.5c-6.4-0.3-12.7-1.2-19-2.5c-1.1,0.2-2.1,0.5-3,1c-2.7-1.4-5.5-2-8.5-2
		c-11.8,2.2-23.7,4.4-35.5,6.5c-2.4,2-4.9,3.8-7.5,5.5c-0.5,0.9-0.6,1.9-0.5,3c-2.3,0-4.3,0.8-6,2.5c1,4.4,1.3,8.9,1,13.5
		c10.6,0.2,10.6,0.7,0,1.5c1.9,0.2,3.5,0.7,5,1.5c-10.2,0.6-20.2,2.3-30,5c1.5-2.5,3.9-3.5,7-3c0.2-3.6-0.1-7.1-1-10.5
		c1.1-3.3,2.1-6.7,3-10c4.4-2.8,8.6-5.9,12.5-9.5c0.3,0.3,0.7,0.7,1,1c0.9-1.2,2.1-2,3.5-2.5c2.6-0.2,5-1,7-2.5
		c0.6,0.2,1.1,0.5,1.5,1c1.3-1,2.7-2,4-3c2.6,0.7,5.1,0.2,7.5-1.5c12.5-2,25-1.9,37.5,0.5c16.7-2.8,32,0.5,46,10
		C321.5,48.4,321.6,49.4,321.5,50.5z"/>
</g>
<g>
	<path class="st22" d="M325.5,41.5c6.5,2.2,12.8,5.1,19,8.5c9.6,5.9,18.9,12.1,28,18.5c8,7.7,16,15.3,24,23c18.1,20,32.5,42.3,43,67
		c12.3,31.9,16.8,64.9,13.5,99c-0.3,0.9-0.8,1.6-1.5,2c-1.3-13.3-1.3-26.7,0-40c-1.7-4.6-3.2-9.2-4.5-14c-1.5-16.8-5.8-33.1-13-49
		c-4.6-5.2-7.6-11.2-9-18c-1.3-2.9-3.3-5.3-6-7c-3.6-6.2-6.8-12.5-9.5-19c-2.8,0.2-4.5-1.1-5-4c-0.8-0.9-1.8-1.2-3-1
		c-1.9-3.8-4.1-7.4-6.5-11c-3.7-2.8-7.2-5.8-10.5-9c-3.9-6.4-9.3-11.3-16-14.5c-1.5-1.1-2.2-2.6-2-4.5c-2,0-4,0-6,0c0-1,0-2,0-3
		c-6.1-2.2-12.1-4.7-18-7.5c-1.9-2.1-3.6-4.5-5-7c-6.2-2.2-12.2-4.8-18-8c-13.3-4.5-26.8-8.7-40.5-12.5c-19.7-3.7-39.5-4.9-59.5-3.5
		c-20.4,3.1-40.4,7.8-60,14c-2.1,1.3-4.1,2.8-6,4.5c-1.6-1-3.3-1.2-5-0.5c1.4,0.4,2.4,1.2,3,2.5c0,0.7-0.3,1-1,1
		c-0.8-0.9-1.8-1.6-3-2c-5,2.7-10,5.4-15,8c1.5-1.9,2.5-3.7,3-5.5c2.4-0.8,4.6-2,6.5-3.5c1,1,2.2,1.2,3.5,0.5c0.8-1.3,1.8-2.5,3-3.5
		c9-3.1,18-6.2,27-9.5c10.5-1.4,20.8-3.4,31-6c-0.3-0.3-0.7-0.7-1-1c3.1-0.8,6.3-1.3,9.5-1.5c16.5,1.1,33,1.2,49.5,0.5
		c7.6,1.9,15.1,4.1,22.5,6.5c1.2-0.1,2.4-0.5,3.5-1c3.4,1.7,7.1,2.5,11,2.5c5.9,2.2,11.6,4.9,17,8C320.8,41.5,323.1,41.7,325.5,41.5
		z"/>
</g>
<g>
	<path class="st23" d="M322.5,65.5c10.9,2.3,20.3,7.5,28,15.5c3.2,1.5,6.6,2.6,10,3.5c2.8,2.6,5,5.6,6.5,9c1.4,0.8,2.9,1.4,4.5,2
		c2,2,4,4,6,6c3.4,4.7,6.7,9.4,10,14c-1,0-2,0-3,0c0-1,0-2,0-3c-1,0-2,0-3,0c0-1,0-2,0-3c-3.2-0.2-5.2-1.8-6-5
		c-5.2-3-9.2-7.2-12-12.5c-5.3-4-11-7.5-17-10.5c-0.8-1.1-1.4-2.3-2-3.5c-3.1-1-6.1-2.2-9-3.5c-0.3-0.6-0.6-1.3-1-2
		C330.4,70.2,326.4,67.8,322.5,65.5z"/>
</g>
<g>
	<path class="st24" d="M366.5,83.5c-0.3,1.8,0,3.5,1,5c8.3,6.2,15.5,13.5,21.5,22c1.1-1,2.1-0.6,3,1c3.3,5.3,6.7,10.7,10,16
		c1.5,1.7,3.3,2.7,5.5,3c2.2,4.8,3.7,9.8,4.5,15c3.4,3.4,5.7,7.4,7,12c0.1,6,1.3,11.7,3.5,17c-0.8-0.9-1.6-1.9-2.5-3
		c-4.1-11.3-8.8-22.3-14-33c-3.6-5.3-7.6-10.3-12-15c-0.6-4.1-2.7-6.7-6.5-8c-3.3-4.6-6.6-9.3-10-14c-2-2-4-4-6-6
		c-1.6-0.6-3.1-1.2-4.5-2c-1.5-3.4-3.7-6.4-6.5-9c-3.4-0.9-6.8-2-10-3.5c-7.7-8-17.1-13.2-28-15.5c-4.5-3.7-9.5-6.5-15-8.5
		c-7-0.7-14-0.7-21,0c-0.5,0.5-1,1-1.5,1.5c-1.3-2.5-2.5-2.5-3.5,0c1.6,0.8,3.2,1.3,5,1.5c-3.9,4-4.9,8.9-3,14.5c3.7,2.4,3,3.8-2,4
		c-5-1.7-10-3-15-4c1.3-1.5,2-3.5,2-6c-0.1-2.5-0.4-5-1-7.5c0.5-1.3,1.1-2.5,2-3.5c4.4-2.3,9-3.5,14-3.5c-5.5-1.5-11-1.3-16.5,0.5
		c-0.2-0.3-0.3-0.7-0.5-1c3.6-1,7.3-1.9,11-2.5c12.1,0.2,24.1,1.3,36,3.5c6.4,3.5,13.1,6.4,20,8.5c3.9,2.5,7.9,4.6,12,6.5
		C351.7,75.4,358.7,80.1,366.5,83.5z"/>
</g>
<g>
	<path class="st25" d="M335.5,74.5c2.9,1.3,5.9,2.5,9,3.5c0.6,1.2,1.2,2.4,2,3.5c6,3,11.7,6.5,17,10.5c2.8,5.3,6.8,9.5,12,12.5
		c0.8,3.2,2.8,4.8,6,5c0,1,0,2,0,3c1,0,2,0,3,0c0,1,0,2,0,3c1,0,2,0,3,0c4.2,7,7.9,14.4,11,22c-2-1.3-3.6-3-5-5
		c-2.2-7.2-6.6-12.5-13-16c-0.6-3.5-2.6-5.2-6-5c0.1-1.1,0-2.1-0.5-3c-3.8-3.3-6.9-6.9-9.5-11c-1.5,0.3-2.8-0.1-4-1
		c-1.4-3.9-3.7-7-7-9.5C346.2,84.5,340.2,80.4,335.5,74.5z"/>
</g>
<g>
	<path class="st26" d="M134.5,105.5c-4.3,4.3-9,8.3-14,12c-2.4-1.5-4.6-1.2-6.5,1c-0.6-0.9-0.5-1.8,0.5-2.5c-2.3-0.5-4.6-0.7-7-0.5
		c0-1.7,0-3.3,0-5c-8.1-1.3-16.1-0.6-24,2c-5.9,3.2-11.4,6.8-16.5,11c-0.3-0.3-0.7-0.7-1-1c-1.8,3.2-3.8,6.2-6,9
		c-0.5-0.9-0.6-1.9-0.5-3c6.2-9.9,13.2-19.2,21-28c-0.1,1.1,0,2.1,0.5,3c2.9-2.1,6.1-3.6,9.5-4.5c7.7-0.8,15.4-0.7,23,0.5
		c5,2.8,10.4,4.8,16,6C131.6,103.4,133.3,103.4,134.5,105.5z"/>
</g>
<g>
	<path class="st27" d="M120.5,117.5c-1.7,2.3-3.7,4.3-6,6c-2.2-0.5-4.2-1.5-6-3c-2.2,0.9-4.6,1.2-7,1c0-1.3,0-2.7,0-4
		c-8.8-0.2-17.2,1.7-25,5.5c-9.3,6.7-17.3,14.7-24,24c-0.9,0.7-1.6,0.5-2-0.5c2.2-6.4,5.2-12.4,9-18c-0.1,1.1,0,2.1,0.5,3
		c2.2-2.8,4.2-5.8,6-9c0.3,0.3,0.7,0.7,1,1c5.1-4.2,10.6-7.8,16.5-11c7.9-2.6,15.9-3.3,24-2c0,1.7,0,3.3,0,5c2.4-0.2,4.7,0,7,0.5
		c-1,0.7-1.1,1.6-0.5,2.5C115.9,116.3,118.1,116,120.5,117.5z"/>
</g>
<g>
	<path class="st28" d="M347.5,68.5c3.4,0.8,6.7,2,10,3.5c2.5,2,5.2,3.9,8,5.5c1.7,3.9,4.7,6.3,9,7c0,1.5,0.7,2.7,2,3.5
		c3.3,0.7,5.3,2.7,6,6c5.6,3.1,9.6,7.6,12,13.5c9.3,12.2,18.2,24.9,26.5,38c0.9,5.7,2,11.4,3.5,17c-1.1-0.1-1.8-0.8-2-2
		c-2.9-11.1-7.9-21.1-15-30c-2.2-0.3-4-1.3-5.5-3c-3.3-5.3-6.7-10.7-10-16c-0.9-1.6-1.9-2-3-1c-6-8.5-13.2-15.8-21.5-22
		c-1-1.5-1.3-3.2-1-5C359.6,79.2,353.2,74.2,347.5,68.5z"/>
</g>
<g>
	<path class="st29" d="M407.5,76.5c26.6,28,45.3,60.7,56,98c-1.4-1.2-2.5-0.9-3.5,1c-2.7-9.7-6.3-19-11-28c-0.4-0.5-0.9-0.8-1.5-1
		c-0.9,1.2-1.3,2.5-1,4c-2.3-0.4-3.9,0.2-5,2c-10-22-23-42-39-60c-2-3-4.3-5.6-7-8c1.8-1.3,3.8-1.9,6-2c-0.2-2.9,0.4-5.6,2-8
		C404.5,75.9,405.9,76.5,407.5,76.5z"/>
</g>
<g>
	<path class="st30" d="M114.5,123.5c-1.3,1.7-2.7,3.3-4,5c-1.7,0.1-3.2,0.8-4.5,2c-9.3-4.4-18.8-5.1-28.5-2c-5.5,4-10.9,8.4-16,13
		c-1,1.9-1.3,3.9-1,6c-4,1.5-7,4.4-9,8.5c-0.9,0.5-1.9,0.6-3,0.5c-0.5,3.1-1.4,6.1-2.5,9c-3,4.7-5.5,9.7-7.5,15
		c-0.3-0.7-0.7-1.3-1-2c2.8-11.6,7.2-22.3,13-32c0.4,1,1.1,1.2,2,0.5c6.7-9.3,14.7-17.3,24-24c7.8-3.8,16.2-5.7,25-5.5
		c0,1.3,0,2.7,0,4c2.4,0.2,4.8-0.1,7-1C110.3,122,112.3,123,114.5,123.5z"/>
</g>
<g>
	<path class="st31" d="M94.5,149.5c-1.1,2.5-2.4,4.8-4,7c-5.8-1.7-11.8-2.5-18-2.5c-1.5,1.9-3.5,2.9-6,3c-3.3,3.7-6.7,7.3-10,11
		c-1.3,0.5-2.6,0.7-4,0.5c0.6,3.5-0.7,5.5-4,6c0.1,4.4-1.7,7.7-5.5,10c-2.5,7.3-4.7,14.8-6.5,22.5c-0.7,2.1-1.7,3.9-3,5.5
		c0.6-8.4,2.7-16.4,6.5-24c0.4-2.8,0.9-5.7,1.5-8.5c4.1-6.4,8.1-12.9,12-19.5c5.3-6.2,11.1-11.5,17.5-16c2.8,2.6,5.3,2.2,7.5-1
		c1.5-1,3.2-1.3,5-1c0.3,3.5,2.3,5.2,6,5c0.5,3.7,0.9,3.3,1-1c1.2-0.2,2.2,0.1,3,1C92,149.9,92.3,150.6,94.5,149.5z"/>
</g>
<g>
	<path class="st32" d="M396.5,91.5c2.1,0,3.9,0.6,5.5,2c0.4-0.2,0.6-0.6,0.5-1c16,18,29,38,39,60c0.7,2,1.3,4,2,6
		c-1.2-0.2-2.2-0.9-3-2c-0.8,0.5-1.1,1.1-1,2C429,133.8,414.6,111.5,396.5,91.5z"/>
</g>
<g>
	<path class="st33" d="M394.5,107.5c9.2,5,15,12.7,17.5,23c4.1,5.9,8.4,11.6,13,17c0.3,1.5,1,2.9,2,4c1,7.8,2.5,15.5,4.5,23
		c1,0,2,0,3,0c2.2,10.2,5.1,20.2,8.5,30c3.5,24.4,3.2,48.7-1,73c-1.3,2.3-2.7,4.7-4,7c-2.8,13.7-7.3,26.7-13.5,39
		c-0.7,0.4-1.4,0.7-2,1c1-5.1,2.4-10.1,4-15c3.3-5.3,5.6-10.9,7-17c1.3-10.1,3.2-20.1,5.5-30c0.7-15.7,0.7-31.3,0-47
		c-0.2-2.5-0.7-4.9-1.5-7c-1.3-2.1-2.1-4.5-2.5-7c-1-13.8-4.5-26.8-10.5-39c-1.5-5.6-2.6-11.3-3.5-17
		C412.7,132.4,403.8,119.7,394.5,107.5z"/>
</g>
<g>
	<path class="st34" d="M135.5,42.5c1.2-0.2,2.2,0.1,3,1c-1.5,0-2.8,0.5-4,1.5c0.6,0.4,0.9,0.9,1,1.5c-11.8,6.7-23.2,14.2-34,22.5
		c-33.7,27.6-57.4,62.1-71,103.5c0,0.3,0,0.7,0,1c-5.8,16.4-9.3,33.4-10.5,51c-0.7,9.7-0.7,19.3,0,29c1.6,12.4,3.4,24.7,5.5,37
		c-0.7,1.1-1.7,1.7-3,2c-3.7-14.6-6-29.3-7-44c-0.4-18.5,1.1-36.8,4.5-55C35.8,125.6,74.3,75.3,135.5,42.5z"/>
</g>
<g>
	<path class="st35" d="M40.5,156.5c-2.5,10.2-5.7,20.2-9.5,30c-0.6,7.6-1.9,14.9-4,22c-2.2,16.6-2.9,33.3-2,50
		c2.6,9.9,4.6,19.9,6,30c1.3,3.1,2.5,6.1,3.5,9c4.3,5.1,6.8,11.1,7.5,18c2.8,7.3,6.1,14.3,10,21c2.1,6.9,5.8,12.9,11,18
		c0.5,3,1.7,5.7,3.5,8c-1,0-2,0-3,0c-1.2-6.8-5-11.5-11.5-14c-0.7-2-1.3-4-2-6c-1.7-0.6-3-1.6-4-3c-1.3-9.7-4.9-18.4-11-26
		c0.2-7.4-2-13.9-6.5-19.5c-2.8-8.7-3.8-17.5-3-26.5c-0.5-3.3-1.5-6.5-3-9.5c1.3-12.7,1.3-25.3,0-38c1.5-5.7,2.5-11.5,3-17.5
		c0.9-3.5,2-6.8,3.5-10c0.8-2.6,0.6-5.1-0.5-7.5c1.1-3.7,1.8-7.6,2-11.5c0-0.3,0-0.7,0-1c2.9-1.3,4.4-3.6,4.5-7
		c2.1-0.7,2.6-1.9,1.5-3.5c0.9-1.2,1.6-2.5,2-4C38.8,157,39.5,156.5,40.5,156.5z"/>
</g>
<g>
	<path class="st36" d="M198.5,167.5c4.4-0.3,8.7,0.1,13,1c7,18.2,4.6,34.8-7,50c-11,11.9-24.6,16.9-41,15c-16.6-2.9-28.6-11.9-36-27
		c5.7-8,12.7-14.7,21-20c-0.3,1.9,0,3.6,1,5c4.6,16.3,14.9,21.4,31,15.5c12.5-10,13.8-21.4,4-34c-1.2-0.8-2.6-1.3-4-1.5
		C186.2,169.5,192.2,168.2,198.5,167.5z"/>
</g>
<g>
	<path class="st37" d="M263.5,170.5c7.3,1.5,14.3,3.8,21,7c-0.5,2.1-1.4,4.1-2.5,6c-0.8,3.2-0.6,6.2,0.5,9c-0.1,2.1,0.6,3.7,2,5
		c1,3.4,3,6.1,6,8c-0.1,1,0.2,1.8,1,2.5c-4.1,3.7-8.9,5.2-14.5,4.5c-3.2-0.2-6.2-0.8-9-2c-0.8,0.1-1.4,0.5-2,1c-0.9-1.6-1.5-3.3-2-5
		c-1-1.3-1.8-1.3-2.5,0c-3.2-5.5-4.5-11.5-4-18c-0.2-5.5,0.6-10.8,2.5-16C260.7,171,261.9,170.4,263.5,170.5z"/>
</g>
<g>
	<path class="st38" d="M180.5,171.5c1.4,0.2,2.8,0.7,4,1.5c9.8,12.6,8.5,24-4,34c-16.1,5.9-26.4,0.8-31-15.5
		c18.2,6.5,27.2,0.1,27-19C177.8,172.2,179.2,171.8,180.5,171.5z"/>
</g>
<g>
	<path class="st39" d="M258.5,169.5c-2.3,5.1-3.6,10.4-4,16c-0.8-1.5-1.3-3.1-1.5-5c-0.3,1.7-0.7,3.3-1,5c-0.5-3-0.7-6-0.5-9
		c0.3-2.4,0.9-4.8,2-7C255.1,168.6,256.8,168.6,258.5,169.5z"/>
</g>
<g>
	<path class="st40" d="M165.5,177.5c-1.2,5.8-4.6,7.4-10,5C158.3,180,161.7,178.4,165.5,177.5z"/>
</g>
<g>
	<path class="st41" d="M150.5,48.5c-2.4,1.2-4.8,2.5-7,4c-19.2,8.9-36.2,20.9-51,36c-4.9,3.1-8.9,7.1-12,12
		c-7.8,8.8-14.8,18.1-21,28c-3.8,5.6-6.8,11.6-9,18c-5.8,9.7-10.2,20.4-13,32c0.3,0.7,0.7,1.3,1,2c2-5.3,4.5-10.3,7.5-15
		c1.1-2.9,2-5.9,2.5-9c1.1,0.1,2.1,0,3-0.5c2-4.1,5-7,9-8.5c-0.3-2.1,0-4.1,1-6c5.1-4.6,10.5-9,16-13c9.7-3.1,19.2-2.4,28.5,2
		c1.3-1.2,2.8-1.9,4.5-2c-5.4,7-10.7,14-16,21c-2.2,1.1-2.5,0.4-1-2c-0.8-0.9-1.8-1.2-3-1c-0.1,4.3-0.5,4.7-1,1
		c-3.7,0.2-5.7-1.5-6-5c-1.8-0.3-3.5,0-5,1c-2.2,3.2-4.7,3.6-7.5,1c-6.4,4.5-12.2,9.8-17.5,16c-3.9,6.6-7.9,13.1-12,19.5
		c-0.6,2.8-1.1,5.7-1.5,8.5c-3.8,7.6-5.9,15.6-6.5,24c-2.3,12.6-3.9,25.2-5,38c-0.3,9.4,0.3,18.7,2,28c2.6,6,4,12.3,4,19
		c-1-2.9-2.2-5.9-3.5-9c-1.4-10.1-3.4-20.1-6-30c-0.9-16.7-0.2-33.4,2-50c2.1-7.1,3.4-14.4,4-22c3.8-9.8,7-19.8,9.5-30
		c1.4-0.5,2.4-1.5,3-3c2.6-6.1,5.4-12.1,8.5-18c0.5-1.6,0.7-3.3,0.5-5c1,0,2,0,3,0c0.9-4.1,3.1-7.5,6.5-10c1-2.9,1.5-5.9,1.5-9
		c1,0,2,0,3,0c1.7-3.7,3.3-7.3,5-11c7.5-3,13-8.4,16.5-16c0.3,0.3,0.7,0.7,1,1c0.7-1.5,1.9-2.5,3.5-3c4.3-5.5,9.2-10.5,14.5-15
		c0.6,0.5,1.2,0.9,2,1c4.5-1.9,8.4-4.7,11.5-8.5c3.6-2.9,7.6-4.7,12-5.5c5-2.6,10-5.3,15-8C148.7,46.9,149.7,47.6,150.5,48.5z"/>
</g>
<g>
	<path class="st42" d="M168.5,175.5c0.1,1-0.2,1.8-1,2.5c0.9,0.4,1.6,1.1,2,2c-2.4,7.3-7.4,10-15,8c-1.6-0.8-2.6-1.9-3-3.5
		c1.1-1.1,2.4-1.8,4-2c5.4,2.4,8.8,0.8,10-5C166.3,176.6,167.3,175.9,168.5,175.5z"/>
</g>
<g>
	<path class="st43" d="M176.5,172.5c0.2,19.1-8.8,25.5-27,19c-1-1.4-1.3-3.1-1-5c1-0.7,2-1.3,3-2c0.4,1.6,1.4,2.7,3,3.5
		c7.6,2,12.6-0.7,15-8c-0.4-0.9-1.1-1.6-2-2c0.8-0.7,1.1-1.5,1-2.5C171.2,174.5,173.8,173.5,176.5,172.5z"/>
</g>
<g>
	<path class="st44" d="M90.5,156.5c-3.3,7.3-6.7,14.7-10,22c-1,0-1.7-0.5-2-1.5c1.2-1.9,2.2-3.9,3-6c-1.2-0.3-2.2,0.2-3,1.5
		c-1.1-1.4-0.8-2.5,1-3.5c-3-0.2-5.9-1-8.5-2.5c-1.9,1.2-3.7,1.2-5.5,0c-1.2,2.7-3.2,4.3-6,5c-0.9,0.8-1.2,1.8-1,3c-1,0-2,0-3,0
		c0.1,1.1,0,2.1-0.5,3c-2.1,1.8-3.9,3.8-5.5,6c-6.5,13.5-11.5,27.2-15,41c-2.6,19.3-2.6,38.7,0,58c-1.9-10.7-3.9-21.4-6-32
		c1.1-12.8,2.7-25.4,5-38c1.3-1.6,2.3-3.4,3-5.5c1.8-7.7,4-15.2,6.5-22.5c3.8-2.3,5.6-5.6,5.5-10c3.3-0.5,4.6-2.5,4-6
		c1.4,0.2,2.7,0,4-0.5c3.3-3.7,6.7-7.3,10-11c2.5-0.1,4.5-1.1,6-3C78.7,154,84.7,154.8,90.5,156.5z"/>
</g>
<g>
	<path class="st45" d="M286.5,178.5c3.5,1.3,6.8,2.9,10,5c-0.5,5.3-3.3,7-8.5,5c-1.6-0.8-2.4-2.2-2.5-4
		C286.2,182.5,286.5,180.5,286.5,178.5z"/>
</g>
<g>
	<path class="st46" d="M306.5,189.5c5,3,9.6,6.3,14,10c-5.1,7.9-12.4,11.1-22,9.5c-3.1-0.4-5.7-1.5-8-3.5c-3-1.9-5-4.6-6-8
		c3.8,0,7.8-0.2,12-0.5C299.7,194.3,303.1,191.8,306.5,189.5z"/>
</g>
<g>
	<path class="st47" d="M215.5,167.5c1.3,0,2.7,0,4,0c0.3,3.4,1.1,6.8,2.5,10c1.4,8.4,0.4,16.4-3,24c-0.3-0.7-0.7-1.3-1-2
		c-0.2,1.2-0.7,2.2-1.5,3c1.3-4.7,2-9.5,2-14.5C217.9,181.1,216.9,174.2,215.5,167.5z"/>
</g>
<g>
	<path class="st48" d="M284.5,177.5c0.7,0.3,1.3,0.7,2,1c0,2-0.3,4-1,6c0.1,1.8,0.9,3.2,2.5,4c5.2,2,8,0.3,8.5-5
		c2.4,0.9,4.4,2.2,6,4c-2.2,6.9-6.8,9.4-14,7.5c-2.4-0.8-4.3-2.3-5.5-4.5c-0.5,0.6-0.6,1.3-0.5,2c-1.1-2.8-1.3-5.8-0.5-9
		C283.1,181.6,284,179.6,284.5,177.5z"/>
</g>
<g>
	<path class="st49" d="M401.5,107.5c1.2-0.2,2.2,0.1,3,1c0.5,2.9,2.2,4.2,5,4c2.7,6.5,5.9,12.8,9.5,19c2.7,1.7,4.7,4.1,6,7
		c1.4,6.8,4.4,12.8,9,18c7.2,15.9,11.5,32.2,13,49c1.3,4.8,2.8,9.4,4.5,14c-1.3,13.3-1.3,26.7,0,40c0,0.3,0,0.7,0,1
		c-3,6.9-4.5,14.2-4.5,22c-1,0.8-2.2,1.2-3.5,1c5-35.6,3.9-70.9-3.5-106c-5.6-12.3-11.3-24.7-17-37c-1.3-2.9-3.3-5.3-6-7
		c-1-2.2-1.7-4.5-2-7c-2.5-3.1-4.5-6.4-6-10C405.6,114.2,403.1,111.2,401.5,107.5z"/>
</g>
<g>
	<path class="st50" d="M302.5,187.5c1.7,0.2,3,0.8,4,2c-3.4,2.3-6.8,4.8-10,7.5c-4.2,0.3-8.2,0.5-12,0.5c-1.4-1.3-2.1-2.9-2-5
		c-0.1-0.7,0-1.4,0.5-2c1.2,2.2,3.1,3.7,5.5,4.5C295.7,196.9,300.3,194.4,302.5,187.5z"/>
</g>
<g>
	<path class="st51" d="M198.5,167.5c5.5-1.3,11.2-1.3,17,0c1.4,6.7,2.4,13.6,3,20.5c0,5-0.7,9.8-2,14.5c-2.2,7-5.8,13-11,18
		c-0.8-0.3-1.2-1-1-2c11.6-15.2,14-31.8,7-50C207.2,167.6,202.9,167.2,198.5,167.5z"/>
</g>
<g>
	<path class="st52" d="M251.5,176.5c-0.2,3,0,6,0.5,9c0.3-1.7,0.7-3.3,1-5c0.2,1.9,0.7,3.5,1.5,5c-0.1,4.7,0.2,9.4,1,14
		c-0.7-0.4-1.2-1.1-1.5-2c-0.3,1-0.7,2-1,3c-0.2-1.6-1.1-2.6-2.5-3C250.2,190.3,250.5,183.3,251.5,176.5z"/>
</g>
<g>
	<path class="st53" d="M320.5,199.5c7.1,4.7,12.7,10.7,17,18c-6.1,7.9-14.1,13-24,15.5c-8.4,0.8-16.7,0.6-25-0.5
		c-9.4-3.9-17.2-9.9-23.5-18c-1.5-2.6-2.6-5.2-3.5-8c0.7-1.3,1.5-1.3,2.5,0c0.5,1.7,1.1,3.4,2,5c0.6-0.5,1.2-0.9,2-1
		c2.8,1.2,5.8,1.8,9,2c5.6,0.7,10.4-0.8,14.5-4.5c-0.8-0.7-1.1-1.5-1-2.5c2.3,2,4.9,3.1,8,3.5C308.1,210.5,315.4,207.4,320.5,199.5z
		"/>
</g>
<g>
	<path class="st54" d="M258.5,169.5c1.9-0.3,3.6,0,5,1c-1.6-0.1-2.8,0.5-3.5,2c-1.9,5.2-2.7,10.5-2.5,16c-0.5,6.5,0.8,12.5,4,18
		c0.9,2.8,2,5.4,3.5,8c6.3,8.1,14.1,14.1,23.5,18c-1.8,0.5-3.8,0.5-6,0c-0.3,0-0.7,0-1,0c-4.5-2.7-8.8-5.7-13-9
		c-6.1-7.1-10.5-15.1-13-24c-0.8-4.6-1.1-9.3-1-14C254.9,179.9,256.2,174.6,258.5,169.5z"/>
</g>
<g>
	<path class="st55" d="M250.5,197.5c1.4,0.4,2.3,1.4,2.5,3c0.3-1,0.7-2,1-3c0.3,0.9,0.8,1.6,1.5,2c2.5,8.9,6.9,16.9,13,24
		c-1.5-0.2-2.9-0.9-4-2c-0.3,0.7-0.6,1.4-1,2C256.5,216.2,252.2,207.6,250.5,197.5z"/>
</g>
<g>
	<path class="st56" d="M466.5,262.5c0-3,0-6,0-9c-1,0-2,0-3,0c0,1,0,2,0,3c-1.1-0.1-2.1,0-3,0.5c-0.4,2.3-1.4,4.2-3,5.5
		c2.4-27.4,0.4-54.4-6-81c0.7-0.9,1.7-1.2,3-1c0-1,0-2,0-3c1.6,0.2,3.1-0.1,4.5-1c6.5,20.3,9.7,41.1,9.5,62.5
		C468.5,247,467.8,254.9,466.5,262.5z"/>
</g>
<g>
	<path class="st57" d="M30.5,173.5c-0.2,3.9-0.9,7.8-2,11.5c1.1,2.4,1.3,4.9,0.5,7.5c-1.5,3.2-2.6,6.5-3.5,10
		c-0.5,6-1.5,11.8-3,17.5c1.3,12.7,1.3,25.3,0,38c1.5,3,2.5,6.2,3,9.5c-0.8,9,0.2,17.8,3,26.5c4.5,5.6,6.7,12.1,6.5,19.5
		c6.1,7.6,9.7,16.3,11,26c1,1.4,2.3,2.4,4,3c0.7,2,1.3,4,2,6c6.5,2.5,10.3,7.2,11.5,14c1,0,2,0,3,0c1.7,2.3,2.9,5,3.5,8
		c2.8,1.3,4.6,3.3,5.5,6c-0.3,1.5,0.1,2.8,1,4c2.4,2.3,4.3,4.9,5.5,8c3.4,0.5,5.2,2.5,5.5,6c2.5,2,4.8,4.1,7,6.5c5.2,1,9.2,3.6,12,8
		c0.9,0.5,1.9,0.6,3,0.5c0,1,0,2,0,3c3.7-0.3,5.3,1.3,5,5c-0.3,0-0.7,0-1,0c-18-13-34-28-48-45c-18.7-24.7-32-52-40-82
		c-2.1-12.3-3.9-24.6-5.5-37c-0.7-9.7-0.7-19.3,0-29C21.2,206.9,24.7,189.9,30.5,173.5z"/>
</g>
<g>
	<path class="st58" d="M127.5,206.5c7.4,15.1,19.4,24.1,36,27c1.5,0.8,3.1,1.3,5,1.5c-2.6,0.5-5.3,0.7-8,0.5c-1.7,0.2-3.4,0-5-0.5
		c-3.7-1.5-7.4-3-11-4.5c-8.2-5.7-14.5-13-19-22C125.8,207.5,126.5,206.8,127.5,206.5z"/>
</g>
<g>
	<path class="st59" d="M125.5,208.5c4.5,9,10.8,16.3,19,22c-1,0.1-1.8-0.2-2.5-1c-0.4,1.3-1.2,1.9-2.5,2c-7.5-4.5-12.8-10.8-16-19
		C123.8,210.9,124.4,209.6,125.5,208.5z"/>
</g>
<g>
	<path class="st60" d="M204.5,218.5c-0.2,1,0.2,1.7,1,2c-8.5,10.4-19.5,15.8-33,16c-4.2,0.3-8.2,0-12-1c2.7,0.2,5.4,0,8-0.5
		c-1.9-0.2-3.5-0.7-5-1.5C179.9,235.4,193.5,230.4,204.5,218.5z"/>
</g>
<g>
	<path class="st61" d="M144.5,230.5c3.6,1.5,7.3,3,11,4.5c1.6,0.5,3.3,0.7,5,0.5c3.8,1,7.8,1.3,12,1c-3.8,0.8-7.8,1.3-12,1.5
		c1,0.3,2,0.7,3,1c-9.1,0.8-17.1-1.7-24-7.5c1.2-0.1,2.1-0.7,2.5-2C142.7,230.3,143.5,230.6,144.5,230.5z"/>
</g>
<g>
	<path class="st62" d="M268.5,223.5c4.2,3.3,8.5,6.3,13,9c-1,0.4-1,1.1,0,2c-0.5,0.8-1.1,1.1-2,1c-6.7-2.1-12.1-6.1-16-12
		c0.4-0.6,0.7-1.3,1-2C265.6,222.6,267,223.3,268.5,223.5z"/>
</g>
<g>
	<path class="st63" d="M337.5,217.5c1.6,0.5,2.1,1.5,1.5,3c-8.5,9.2-19,14.5-31.5,16c-8.8,0.8-17.1-0.5-25-4c2.2,0.5,4.2,0.5,6,0
		c8.3,1.1,16.6,1.3,25,0.5C323.4,230.5,331.4,225.4,337.5,217.5z"/>
</g>
<g>
	<path class="st64" d="M281.5,232.5c0.3,0,0.7,0,1,0c7.9,3.5,16.2,4.8,25,4c-1.8,1-3.8,1.3-6,1c0,1,0,2,0,3c-8.1,1.1-15.4-0.6-22-5
		c0.9,0.1,1.5-0.2,2-1C280.5,233.6,280.5,232.9,281.5,232.5z"/>
</g>
<g>
	<path class="st65" d="M407.5,130.5c7.1,8.9,12.1,18.9,15,30c0.2,1.2,0.9,1.9,2,2c6,12.2,9.5,25.2,10.5,39c0.4,2.5,1.2,4.9,2.5,7
		c0.9,16,1.1,32,0.5,48c-2.8,16.9-6.3,33.6-10.5,50c-1.2-0.2-2.2,0.1-3,1c-1.2,3.1-2.2,6.3-3,9.5c-1.8,2.6-3.4,5.1-5,7.5
		c-0.2-6.1,1.6-11.5,5.5-16c11.7-32.9,15.5-66.9,11.5-102c-2.1-9.9-5-19.6-8.5-29c-0.7-1.2-1.5-2.2-2.5-3c-2.2-5.3-3.4-11-3.5-17
		c-1.3-4.6-3.6-8.6-7-12C411.2,140.3,409.7,135.3,407.5,130.5z"/>
</g>
<g>
	<path class="st66" d="M387.5,115.5c3.8,1.3,5.9,3.9,6.5,8c4.4,4.7,8.4,9.7,12,15c5.2,10.7,9.9,21.7,14,33c0.9,1.1,1.7,2.1,2.5,3
		c1,0.8,1.8,1.8,2.5,3c3.5,9.4,6.4,19.1,8.5,29c4,35.1,0.2,69.1-11.5,102c-3.9,4.5-5.7,9.9-5.5,16c-1-0.1-1.8,0.2-2.5,1
		c-1.3,4.6-3.6,8.6-7,12c-0.3,6-3.2,10.4-8.5,13c-0.5,3.4-2.4,5.7-5.5,7c-1.5,4.1-4.2,7.1-8,9c-1.6,4-3.3,8-5,12
		c-9.7,6.8-19.2,14-28.5,21.5c-6.8,4.2-13.8,8.2-21,12c-0.7,1.5-1.7,2.7-3,3.5c-1.7-0.2-3.4,0-5,0.5c-18.6,9.9-38.6,15.5-60,17
		c-16.3,0.7-32.7,0.7-49,0c-6.6-1.5-13.3-2.9-20-4c-6.1-2.6-12.4-4.4-19-5.5c-2.7-1-4.7-2.7-6-5c2,0,4,0,6,0c0,1,0,2,0,3
		c2.7-0.2,5.4,0,8,0.5c4.2,1.8,8.5,3.3,13,4.5c28.6,5.1,57.3,5.3,86,0.5c6.5-3.1,13.2-5.9,20-8.5c6.5-1.9,13.2-3.3,20-4
		c6.7-3.7,13.3-7.3,20-11c3.6-3.4,7.2-6.6,11-9.5c4.1-1.1,6.8-3.6,8-7.5c1.1,0.1,2.1,0,3-0.5c5.9-5.6,12.1-10.7,18.5-15.5
		c0.3-1.3,0.7-2.7,1-4c4.6-2.8,7.4-6.8,8.5-12c3.9-2.7,6.4-6.4,7.5-11c4.4-3.6,6.7-8.3,7-14c1.3-1.1,2.5-2.2,3.5-3.5
		c3.7-10.7,8.1-21,13-31c10.4-33.8,11.7-67.9,4-102.5c-1,0-2,0-3,0c0.5-4.9-0.6-9.2-3.5-13c-4.1-9.8-7.8-19.8-11-30
		c-2.7-3.1-5.1-6.4-7-10c-0.8-1.3-2-2-3.5-2C395.4,129.9,391.7,122.5,387.5,115.5z"/>
</g>
<g>
	<path class="st67" d="M80.5,178.5c-0.1,1.1-0.4,2.1-1,3c-2.7,0-5.3,0-8,0c0-1.3,0-2.7,0-4c-3.7-0.3-7.4,0-11,1
		c-4.8,6.2-9.3,12.6-13.5,19c-9.9,23.4-13.9,48-12,74c2.7,9.6,5.1,19.2,7,29c5,9.2,9,18.9,12,29c8.6,9.8,15.5,20.8,20.5,33
		c-3.8-3.1-6.8-7-9-11.5c-2.4-0.7-4.6-1.9-6.5-3.5c-8.5-16.8-15.8-34.2-22-52c-0.7-4.4-1.6-8.7-2.5-13c-2.6-19.3-2.6-38.7,0-58
		c3.5-13.8,8.5-27.5,15-41c1.6-2.2,3.4-4.2,5.5-6c0.5-0.9,0.6-1.9,0.5-3c1,0,2,0,3,0c-0.2-1.2,0.1-2.2,1-3c2.8-0.7,4.8-2.3,6-5
		c1.8,1.2,3.6,1.2,5.5,0c2.6,1.5,5.5,2.3,8.5,2.5c-1.8,1-2.1,2.1-1,3.5c0.8-1.3,1.8-1.8,3-1.5c-0.8,2.1-1.8,4.1-3,6
		C78.8,178,79.5,178.5,80.5,178.5z"/>
</g>
<g>
	<path class="st68" d="M466.5,262.5c-2.5,29.5-10.8,57.2-25,83c-0.6-0.1-1.1-0.4-1.5-1c-1.7,1.7-2.5,3.7-2.5,6c-2.9,0.3-5.6,0-8-1
		c14.7-27.2,24.1-56.2,28-87c1.6-1.3,2.6-3.2,3-5.5c0.9-0.5,1.9-0.6,3-0.5c0-1,0-2,0-3c1,0,2,0,3,0
		C466.5,256.5,466.5,259.5,466.5,262.5z"/>
</g>
<g>
	<path class="st69" d="M15.5,248.5c1,14.7,3.3,29.4,7,44c2.4,10.2,5.4,20.2,9,30c-1.6,2.5-3.8,4.5-6.5,6c-4.8-9.1-8.5-18.8-11-29
		c-2.8-10.9-4.9-21.9-6.5-33c0.6,0.1,1.1,0.4,1.5,1c1-1.6,2.5-2.3,4.5-2C14.5,259.9,15.1,254.2,15.5,248.5z"/>
</g>
<g>
	<path class="st70" d="M437.5,208.5c0.8,2.1,1.3,4.5,1.5,7c0.7,15.7,0.7,31.3,0,47c-2.3,9.9-4.2,19.9-5.5,30c-1.4,6.1-3.7,11.7-7,17
		c-1.6,4.9-3,9.9-4,15c-1-0.1-1.8,0.2-2.5,1c-2.1,5.1-4.4,10.1-7,15c-3.4,4.4-6.4,9.1-9,14c-1.2,1.2-2.5,2.2-4,3
		c-1,4.1-2.3,8.1-4,12c-2.3,2.6-4.9,4.6-8,6c0.2,4-1.6,5.6-5.5,5c3.2-5.8,6.7-11.4,10.5-17c11.4-10.9,19.2-23.9,23.5-39
		c1.6-2.4,3.2-4.9,5-7.5c0.8-3.2,1.8-6.4,3-9.5c0.8-0.9,1.8-1.2,3-1c4.2-16.4,7.7-33.1,10.5-50C438.6,240.5,438.4,224.5,437.5,208.5
		z"/>
</g>
<g>
	<path class="st71" d="M338.5,319.5c-0.2,3-0.5,6-1,9c-43.3,9.9-86.7,19.9-130,30c42.6-11.7,85.6-22.3,129-32c0.1-2.7,0.4-5.4,1-8
		C338.2,317.4,338.5,317.8,338.5,319.5z"/>
</g>
<g>
	<path class="st72" d="M25.5,290.5c8,30,21.3,57.3,40,82c0.6,2.8,1.9,5.1,4,7c-0.5,0.8-1.1,1.1-2,1c-4.4-4.4-8.4-9-12-14
		c-9-14.1-17-28.8-24-44c-3.6-9.8-6.6-19.8-9-30C23.8,292.2,24.8,291.6,25.5,290.5z"/>
</g>
<g>
	<path class="st73" d="M338.5,319.5c0-1.7-0.3-2.1-1-1c-26.7,7.3-53.3,14.7-80,22c2.5-1.4,5.1-2.6,8-3.5c24.6-7,49.1-14.1,73.5-21.5
		C339.8,317.1,339.6,318.4,338.5,319.5z"/>
</g>
<g>
	<path class="st74" d="M463.5,174.5c20.8,81.9,4.3,155.3-49.5,220c-34.3,38.7-76.8,63.4-127.5,74c-3.9,0.3-7.5,0-11-1
		c0-0.3,0-0.7,0-1c12.2-1.6,23.8-4.6,35-9c52.1-17.6,92.9-49.6,122.5-96c3.1-5.2,5.9-10.6,8.5-16c14.2-25.8,22.5-53.5,25-83
		c1.3-7.6,2-15.5,2-23.5c0.2-21.4-3-42.2-9.5-62.5c-1.4,0.9-2.9,1.2-4.5,1c0,1,0,2,0,3c-1.3-0.2-2.3,0.1-3,1c-2.6-7.6-5.3-15.2-8-23
		c-0.7-2-1.3-4-2-6c1.1-1.8,2.7-2.4,5-2c-0.3-1.5,0.1-2.8,1-4c0.6,0.2,1.1,0.5,1.5,1c4.7,9,8.3,18.3,11,28
		C461,173.6,462.1,173.3,463.5,174.5z"/>
</g>
<g>
	<path class="st75" d="M337.5,318.5c-0.6,2.6-0.9,5.3-1,8c-43.4,9.7-86.4,20.3-129,32c-3-0.2-5.7,0.5-8,2c-4.9,1.3-9.9,2.3-15,3
		c-1.3,0.2-2.3-0.1-3-1c11.6-3.3,23.3-6.6,35-10c7.8-2.1,15.5-4.4,23-7c6.2-1.3,12.2-3,18-5C284.2,333.2,310.8,325.8,337.5,318.5z"
		/>
</g>
<g>
	<path class="st76" d="M6.5,247.5c0.1,6.4,0.4,12.7,1,19c1.6,11.1,3.7,22.1,6.5,33c2.5,10.2,6.2,19.9,11,29c2.7-1.5,4.9-3.5,6.5-6
		c7,15.2,15,29.9,24,44c-0.8,1.7-1.8,3.4-3,5c-1,1.9-1.3,3.9-1,6c-1.1-0.1-2.1,0-3,0.5c0.8,0.7,1.1,1.5,1,2.5
		c-28.8-37.7-44.4-80.4-47-128c-0.2-7.7,0-15.3,0.5-23c0.5-1,1-2,1.5-3c-1.1-1.1-1.1-2.1,0-3C5.2,231.7,5.8,239.7,6.5,247.5z"/>
</g>
<g>
	<path class="st77" d="M70.5,227.5c0.3,9.7,0,19.4-1,29c-1.3-2.5-2.5-2.5-3.5,0c-3.3-3.6-7.1-5.2-11.5-5c-0.7-1.3-1.5-1.3-2.5,0
		c-1.4,2.8-2.3,5.8-2.5,9c2.3,10.2,3.4,20.5,3.5,31c3.9,3.8,5.5,8.4,5,14c10.7,26.1,26.2,48.9,46.5,68.5c0.9,0.5,1.9,0.6,3,0.5
		c-0.1,1.1,0,2.1,0.5,3c5.5,4.2,10.4,9,14.5,14.5c8.5,5.8,17.2,11.5,26,17c3.2,1.5,6.6,2.6,10,3.5c0.9,0.9,1.6,1.9,2,3
		c-2,0.2-4,0-6-0.5c-5.9-2.9-11.9-5.7-18-8.5c-1.4-4.2-4.4-6.2-9-6c0.1-2-0.6-3.6-2-5c-7.6-3.6-14.6-7.9-21-13c0.2-1.4,0-2.7-0.5-4
		c-3.7-1.4-5.3-4-5-8c-1.2-1.4-2.7-2.2-4.5-2.5c-2.8-4.5-6.3-8.3-10.5-11.5c-7.7-12.7-15.4-25.4-23-38c-0.3-3.9-1.3-7.6-3-11
		c-1.3-0.7-2.3-1.7-3-3c-2.2-11.6-5-23.1-8.5-34.5c-2.2-11.9-0.9-23.1,4-33.5c-0.1-0.9-0.4-1.8-1-2.5c2.2-0.4,2.8-1.4,2-3
		c1.1-1.1,2.1-2.2,3-3.5c3.6,2.1,7.7,3.7,12.5,5C68.3,230.8,69.5,229.2,70.5,227.5z"/>
</g>
<g>
	<path class="st78" d="M239.5,345.5c-7.5,2.6-15.2,4.9-23,7C223.7,348.8,231.3,346.5,239.5,345.5z"/>
</g>
<g>
	<path class="st79" d="M443.5,158.5c2.7,7.8,5.4,15.4,8,23c6.4,26.6,8.4,53.6,6,81c-3.9,30.8-13.3,59.8-28,87
		c-20,34.4-47.4,61.4-82,81c-1.8,0.1-3.4-0.2-5-1c-2.2,1.6-4.5,2.9-7,4c0.5,0.7,1.2,1.2,2,1.5c-2.3,0.5-4.6,0.7-7,0.5
		c8.8-5.4,17.8-10.6,27-15.5c8-6,16-12,24-18c7.7-9.7,16.2-18.8,25.5-27.5c2.8-4.6,5.5-9.2,8-14c1.2-1.2,2.5-2.2,4-3
		c5.4-9.4,10.2-19.1,14.5-29c5-6.2,8.5-13.2,10.5-21c2.3-11.7,4.7-23.3,7-35c0.5-4,0.7-8,0.5-12c0-0.3,0-0.7,0-1
		c0.7-0.4,1.2-1.1,1.5-2c3.3-34.1-1.2-67.1-13.5-99c-0.1-0.9,0.2-1.5,1-2C441.3,157.6,442.3,158.3,443.5,158.5z"/>
</g>
<g>
	<path class="st80" d="M79.5,181.5c-2.5,8.3-4.8,16.6-7,25c-0.7,0.6-1.3,1.3-2,2c-2.8-2.4-6-4.1-9.5-5c-4.3-0.3-6.2,1.7-5.5,6
		c-1,0-2,0-3,0c0,1,0,2,0,3c-3.8,1.4-6.2,4.3-7,8.5c0.3,0.3,0.7,0.7,1,1c-1.6,2.3-2.7,4.8-3.5,7.5c-0.1,3.5-0.8,6.9-2,10
		c-2.1,11.4-1.8,22.7,1,34c4.4,22.1,11.7,43.1,22,63c3.9,3.3,6.3,7.6,7,13c4.6,5.8,8.1,12.1,10.5,19c-3-1.4-5.4-3.4-7-6
		c-5-12.2-11.9-23.2-20.5-33c-3-10.1-7-19.8-12-29c-1.9-9.8-4.3-19.4-7-29c-1.9-26,2.1-50.6,12-74c4.2-6.4,8.7-12.8,13.5-19
		c3.6-1,7.3-1.3,11-1c0,1.3,0,2.7,0,4C74.2,181.5,76.8,181.5,79.5,181.5z"/>
</g>
<g>
	<path class="st81" d="M207.5,358.5c-2.4,1.3-5.1,1.9-8,2C201.8,359,204.5,358.3,207.5,358.5z"/>
</g>
<g>
	<path class="st82" d="M181.5,362.5c0.7,0.9,1.7,1.2,3,1c-15,4.1-30.2,8.1-45.5,12c-0.5-0.2-1-0.3-1.5-0.5
		C152,370.3,166.7,366.2,181.5,362.5z"/>
</g>
<g>
	<path class="st83" d="M75.5,376.5c8.1,7.6,16.1,15.5,24,23.5c4.8,2.1,9.1,5.1,13,9c4.3,2.3,8.6,4.5,13,6.5c-0.1,1,0.2,1.8,1,2.5
		c4.1,1.6,7.4,4.1,10,7.5c-3.4-0.6-6.6-2-9.5-4c-0.9,0.2-1.7,0.6-2.5,1c-2.3-3.6-5.7-5.2-10-5c0.3-3.7-1.3-5.3-5-5c0-1,0-2,0-3
		c-1.1,0.1-2.1,0-3-0.5c-2.8-4.4-6.8-7-12-8c-2.2-2.4-4.5-4.5-7-6.5c-0.3-3.5-2.1-5.5-5.5-6c-1.2-3.1-3.1-5.7-5.5-8
		C75.6,379.3,75.2,378,75.5,376.5z"/>
</g>
<g>
	<path class="st84" d="M374.5,83.5c3.1,1.9,6.1,4.1,9,6.5c2.8,4.4,6.4,7.8,11,10c1,3.9,3.3,6.4,7,7.5c1.6,3.7,4.1,6.7,7.5,9
		c1.5,3.6,3.5,6.9,6,10c0.3,2.5,1,4.8,2,7c2.7,1.7,4.7,4.1,6,7c5.7,12.3,11.4,24.7,17,37c7.4,35.1,8.5,70.4,3.5,106
		c-1.7,11.8-5.1,23.2-10,34c-1.3,0.8-2.5,1.8-3.5,3c-0.4,3.5-1.4,6.8-3,10c-5,7-8.7,14.7-11,23c-3.6,2.4-5.8,5.7-6.5,10
		c-3.3,1.6-5.1,4.3-5.5,8c-1.4,0.9-2.9,1.2-4.5,1c-1.2,3.1-2.7,6.1-4.5,9c-5.5,3.4-9.4,8-11.5,14c-3,2.8-6.3,5.1-10,7
		c-0.8,1.1-1.4,2.3-2,3.5c-2.4,0.3-4.7,0.8-7,1.5c-4.2,3.6-8.5,7.1-13,10.5c-7.1,3.2-13.7,7.1-20,11.5c-8.6,2.7-17.3,5.9-26,9.5
		c-1.3,0.4-1.9,1.2-2,2.5c-16.5,1.5-32.6,4.1-48.5,8c-14.4-0.8-28.9-1.3-43.5-1.5c-1-1.5-2.5-2.4-4.5-2.5
		c-8.4-1.6-16.9-2.8-25.5-3.5c-10-3.1-20-5.9-30-8.5c0-1,0-2,0-3c-4,0-7.7-1-11-3c-1.7-0.2-3-0.8-4-2c-2.6-3.4-5.9-5.9-10-7.5
		c-0.8-0.7-1.1-1.5-1-2.5c7.4,2.9,14.4,6.5,21,11c2.6,0.8,5.3,1.3,8,1.5c9.6,3.8,19.2,7.3,29,10.5c3.3,1,6.6,1.3,10,1
		c8.2,3.1,16.9,4.9,26,5.5c13.2,0.3,26.4,0.5,39.5,0.5c7.1-1.2,14.3-2,21.5-2.5c9.3-2.5,18.5-5.3,27.5-8.5c3.8-1.8,7.3-4,10.5-6.5
		c6.8-0.9,12.1-4,16-9.5c1.4,0.2,2.7,0,4-0.5c2.7-1.6,5.4-3.1,8-4.5c2.6-1,5.3-1.3,8-1c1-3.3,3.3-5.3,7-6
		c10.9-8.4,21.1-17.7,30.5-28c1.6-3.2,3.4-6.2,5.5-9c0.8-0.9,1.8-1.2,3-1c4.4-6.1,8.1-12.8,11-20c3.3-2.5,5.2-5.8,5.5-10
		c1.7-2.7,3.3-5.3,5-8c0.5-2,0.7-4,0.5-6c0.6-0.3,1.3-0.6,2-1c6.2-12.3,10.7-25.3,13.5-39c1.3-2.3,2.7-4.7,4-7
		c4.2-24.3,4.5-48.6,1-73c-3.4-9.8-6.3-19.8-8.5-30c-1,0-2,0-3,0c-2-7.5-3.5-15.2-4.5-23c-1-1.1-1.7-2.5-2-4
		c-4.6-5.4-8.9-11.1-13-17c-2.5-10.3-8.3-18-17.5-23c-2.4-5.9-6.4-10.4-12-13.5c-0.7-3.3-2.7-5.3-6-6c-1.3-0.8-2-2-2-3.5
		C374.5,84.2,374.5,83.8,374.5,83.5z"/>
</g>
<g>
	<path class="st85" d="M28.5,250.5c2.1,10.6,4.1,21.3,6,32c0.9,4.3,1.8,8.6,2.5,13c6.2,17.8,13.5,35.2,22,52
		c1.9,1.6,4.1,2.8,6.5,3.5c2.2,4.5,5.2,8.4,9,11.5c5.8,11.3,13.8,21,24,29c2.3,4.8,6,8.3,11,10.5c0.7,1.3,1.3,2.7,2,4
		c4.5,2.1,8.8,4.4,13,7c0.8,0.7,1.1,1.5,1,2.5c-4.4-2-8.7-4.2-13-6.5c-3.9-3.9-8.2-6.9-13-9c-7.9-8-15.9-15.9-24-23.5
		c-0.9-2.7-2.7-4.7-5.5-6c-0.6-3-1.8-5.7-3.5-8c-1.8-2.3-3-5-3.5-8c-5.2-5.1-8.9-11.1-11-18c-3.9-6.7-7.2-13.7-10-21
		c-0.7-6.9-3.2-12.9-7.5-18c0-6.7-1.4-13-4-19C28.8,269.2,28.2,259.9,28.5,250.5z"/>
</g>
<g>
	<path class="st86" d="M422.5,324.5c0.2,2,0,4-0.5,6c-1.7,2.7-3.3,5.3-5,8c-0.3,4.2-2.2,7.5-5.5,10c-2.9,7.2-6.6,13.9-11,20
		c-1.2-0.2-2.2,0.1-3,1c-2.1,2.8-3.9,5.8-5.5,9c-9.4,10.3-19.6,19.6-30.5,28c-3.7,0.7-6,2.7-7,6c-2.7-0.3-5.4,0-8,1
		c-2.6,1.4-5.3,2.9-8,4.5c-1.3,0.5-2.6,0.7-4,0.5c0.8-2.1,2.1-3.7,4-5c16.4-8.8,31.1-19.8,44-33c3.9,0.6,5.7-1,5.5-5
		c3.1-1.4,5.7-3.4,8-6c1.7-3.9,3-7.9,4-12c1.5-0.8,2.8-1.8,4-3c2.6-4.9,5.6-9.6,9-14c2.6-4.9,4.9-9.9,7-15
		C420.7,324.7,421.5,324.4,422.5,324.5z"/>
</g>
<g>
	<path class="st87" d="M416.5,324.5c-4.3,15.1-12.1,28.1-23.5,39c-3.8,5.6-7.3,11.2-10.5,17c-12.9,13.2-27.6,24.2-44,33
		c-4,2.2-8.4,3.9-13,5c1.1-0.7,1.7-1.7,2-3c1.3-0.8,2.3-2,3-3.5c7.2-3.8,14.2-7.8,21-12c9.3-7.5,18.8-14.7,28.5-21.5
		c1.7-4,3.4-8,5-12c3.8-1.9,6.5-4.9,8-9c3.1-1.3,5-3.6,5.5-7c5.3-2.6,8.2-7,8.5-13c3.4-3.4,5.7-7.4,7-12
		C414.7,324.7,415.5,324.4,416.5,324.5z"/>
</g>
<g>
	<path class="st88" d="M451.5,260.5c0.2,4,0,8-0.5,12c-2.3,11.7-4.7,23.3-7,35c-2,7.8-5.5,14.8-10.5,21c-4.3,9.9-9.1,19.6-14.5,29
		c-1.5,0.8-2.8,1.8-4,3c-2.5,4.8-5.2,9.4-8,14c-9.3,8.7-17.8,17.8-25.5,27.5c-8,6-16,12-24,18c-9.2,4.9-18.2,10.1-27,15.5
		c-34.8,15.9-71.5,22.5-110,20c-32.3-2.6-62.6-11.8-91-27.5c-5.4-3-10.4-6.5-15-10.5c4.3-0.2,7.7,1.4,10,5c0.8-0.4,1.6-0.8,2.5-1
		c2.9,2,6.1,3.4,9.5,4c1,1.2,2.3,1.8,4,2c2.4,2.1,4.8,4.4,7,7c1.9-1.3,3.2-0.8,4,1.5c3.4,0.6,6.4,1.9,9,4c15.2,3.2,30.2,7.2,45,12
		c3.4,0.1,6.5-0.1,9.5-0.5c1,0.7,2,1.3,3,2c12.7-1.3,25.3-1.3,38,0c1-0.7,2-1.3,3-2c4.6-0.9,9.2-0.9,14,0c3.4-1.6,6.9-3.1,10.5-4.5
		c7-1.2,13.6-3.1,20-5.5c0.1-1.2,0.7-2.1,2-2.5c8.7-3.6,17.4-6.8,26-9.5c6.3-4.4,12.9-8.3,20-11.5c4.5-3.4,8.8-6.9,13-10.5
		c2.3-0.7,4.6-1.2,7-1.5c0.6-1.2,1.2-2.4,2-3.5c3.7-1.9,7-4.2,10-7c2.1-6,6-10.6,11.5-14c1.8-2.9,3.3-5.9,4.5-9
		c1.6,0.2,3.1-0.1,4.5-1c0.4-3.7,2.2-6.4,5.5-8c0.7-4.3,2.9-7.6,6.5-10c2.3-8.3,6-16,11-23c1.6-3.2,2.6-6.5,3-10
		c1-1.2,2.2-2.2,3.5-3c4.9-10.8,8.3-22.2,10-34c1.3,0.2,2.5-0.2,3.5-1C447,274.7,448.5,267.4,451.5,260.5z"/>
</g>
<g>
	<path class="st89" d="M55.5,366.5c3.6,5,7.6,9.6,12,14c12.1,14.7,25.7,27.7,41,39c1.5,2.4,2.1,5.1,2,8c-1,0-2,0-3,0
		c-0.1,2.7,0.2,5.4,1,8c-23.1-14.5-42.8-32.8-59-55c0.1-1-0.2-1.8-1-2.5c0.9-0.5,1.9-0.6,3-0.5c-0.3-2.1,0-4.1,1-6
		C53.7,369.9,54.7,368.2,55.5,366.5z"/>
</g>
<g>
	<path class="st90" d="M65.5,372.5c14,17,30,32,48,45c0.3,1.6-0.1,2.9-1,4c-1.3-0.7-2.7-1.3-4-2c-15.3-11.3-28.9-24.3-41-39
		c0.9,0.1,1.5-0.2,2-1C67.4,377.6,66.1,375.3,65.5,372.5z"/>
</g>
<g>
	<path class="st91" d="M74.5,362.5c1.6,2.6,4,4.6,7,6c2.7,4,5.4,8,8,12c1.2-0.2,2.2,0.1,3,1c1.8,1.2,2.8,2.9,3,5
		c1.9,0.2,3.6,1.1,5,2.5c0.8,1,1.2,2.2,1,3.5c4.7,1.1,8.4,3.7,11,8c1.2,0.7,2.6,1.1,4,1c0.3,2.8,2,4.3,5,4.5c2.2,1.7,3.9,3.9,5,6.5
		c5.1,2.7,10.1,5.5,15,8.5c9.3,1.7,18,5,26,10c8.8,2.7,17.5,5.5,26,8.5c-3.4,0.3-6.7,0-10-1c-9.8-3.2-19.4-6.7-29-10.5
		c-2.7-0.2-5.4-0.7-8-1.5c-6.6-4.5-13.6-8.1-21-11c0.1-1-0.2-1.8-1-2.5c-4.2-2.6-8.5-4.9-13-7c-0.7-1.3-1.3-2.7-2-4
		c-5-2.2-8.7-5.7-11-10.5C88.3,383.5,80.3,373.8,74.5,362.5z"/>
</g>
<g>
	<path class="st92" d="M441.5,345.5c-2.6,5.4-5.4,10.8-8.5,16c-29.6,46.4-70.4,78.4-122.5,96c-2-0.3-4-0.7-6-1c0-1,0-2,0-3
		c3,0.2,5.5-0.8,7.5-3c0.3,0.3,0.7,0.7,1,1c0.4-1.7,0.9-3.4,1.5-5c11.7-4.2,22.7-9.5,33-16c34.6-19.6,62-46.6,82-81
		c2.4,1,5.1,1.3,8,1c0-2.3,0.8-4.3,2.5-6C440.4,345.1,440.9,345.4,441.5,345.5z"/>
</g>
<g>
	<path class="st93" d="M398.5,137.5c1.5,0,2.7,0.7,3.5,2c1.9,3.6,4.3,6.9,7,10c3.2,10.2,6.9,20.2,11,30c2.9,3.8,4,8.1,3.5,13
		c1,0,2,0,3,0c7.7,34.6,6.4,68.7-4,102.5c-4.9,10-9.3,20.3-13,31c-1,1.3-2.2,2.4-3.5,3.5c-0.3,5.7-2.6,10.4-7,14
		c-1.1,4.6-3.6,8.3-7.5,11c-1.1,5.2-3.9,9.2-8.5,12c-0.3,1.3-0.7,2.7-1,4c-6.4,4.8-12.6,9.9-18.5,15.5c-0.9,0.5-1.9,0.6-3,0.5
		c-1.2,3.9-3.9,6.4-8,7.5c-3.8,2.9-7.4,6.1-11,9.5c-6.7,3.7-13.3,7.3-20,11c-6.8,0.7-13.5,2.1-20,4c-6.8,2.6-13.5,5.4-20,8.5
		c-28.7,4.8-57.4,4.6-86-0.5c-4.5-1.2-8.8-2.7-13-4.5c-2.6-0.5-5.3-0.7-8-0.5c0-1,0-2,0-3c-2,0-4,0-6,0c-3.3,0.5-6-0.5-8-3
		c-0.4-1.1-1.1-2.1-2-3c-3.4-0.9-6.8-2-10-3.5c-8.8-5.5-17.5-11.2-26-17c-4.1-5.5-9-10.3-14.5-14.5c-0.5-0.9-0.6-1.9-0.5-3
		c11.2,9.9,23.2,18.9,36,27c0.7,1,1.3,2,2,3c10.7,3.8,21,8.3,31,13.5c6.5,1.8,12.8,3.8,19,6c25.7,3.2,51.3,3.2,77,0
		c14.1-2.6,27.8-6.6,41-12c4.5-1.7,8.5-4.2,12-7.5c1.9-1,3.9-1.3,6-1c-0.2-1.2,0.1-2.2,1-3c9.4-5.1,18.4-10.8,27-17
		c2.8-2.8,5.1-5.8,7-9c1.3,0,2.7,0,4,0c1.1-3.2,2.8-6.2,5-9c4-3.5,7.8-7.1,11.5-11c1-2.3,2-4.7,3-7c8.1-8.6,14.5-18.3,19-29
		c0.5-4.6,1.3-9.1,2.5-13.5c4.2-5.8,6.4-12.3,6.5-19.5c0.3,0.3,0.7,0.7,1,1c13.5-49.1,7.9-95.4-17-139
		C400.5,144.2,399.4,140.9,398.5,137.5z"/>
</g>
<g>
	<path class="st94" d="M108.5,419.5c1.3,0.7,2.7,1.3,4,2c11.9,8.4,24.5,15.6,38,21.5c1,1,1.2,2.2,0.5,3.5c-1.5,1.5-3,3-4.5,4.5
		c10.2,5.3,20.8,9.1,32,11.5c0.2,1.3-0.2,2.5-1,3.5c1.2,0.2,2.2,0.7,3,1.5c-26.1-6.2-50.1-16.9-72-32c-0.8-2.6-1.1-5.3-1-8
		c1,0,2,0,3,0C110.6,424.6,110,421.9,108.5,419.5z"/>
</g>
<g>
	<path class="st95" d="M72.5,206.5c-0.3,7-1,14-2,21c-1,1.7-2.2,3.3-3.5,5c-4.8-1.3-8.9-2.9-12.5-5c-0.9,1.3-1.9,2.4-3,3.5
		c0.8,1.6,0.2,2.6-2,3c0.6,0.7,0.9,1.6,1,2.5c-4.9,10.4-6.2,21.6-4,33.5c3.5,11.4,6.3,22.9,8.5,34.5c0.7,1.3,1.7,2.3,3,3
		c1.7,3.4,2.7,7.1,3,11c7.6,12.6,15.3,25.3,23,38c4.2,3.2,7.7,7,10.5,11.5c1.8,0.3,3.3,1.1,4.5,2.5c-0.3,4,1.3,6.6,5,8
		c0.5,1.3,0.7,2.6,0.5,4c6.4,5.1,13.4,9.4,21,13c1.4,1.4,2.1,3,2,5c4.6-0.2,7.6,1.8,9,6c6.1,2.8,12.1,5.6,18,8.5c2,0.5,4,0.7,6,0.5
		c2,2.5,4.7,3.5,8,3c1.3,2.3,3.3,4,6,5c6.6,1.1,12.9,2.9,19,5.5c6.7,1.1,13.4,2.5,20,4c16.3,0.7,32.7,0.7,49,0
		c21.4-1.5,41.4-7.1,60-17c1.6-0.5,3.3-0.7,5-0.5c-0.3,1.3-0.9,2.3-2,3c-3.6,2.3-7.6,4.1-12,5.5c-9,2.5-18,5.1-27,8
		c-44.3,9.9-87.3,6.2-129-11c-1-1-2-2-3-3c-8-3-16-6-24-9c-2.9-4.4-6.9-7.4-12-9c-7.2-6.1-14.6-11.9-22-17.5
		c-4.3-4.1-7.9-8.6-11-13.5c-1.3-0.5-2.6-0.7-4-0.5c-2.4-6.9-5.9-13.2-10.5-19c-0.7-5.4-3.1-9.7-7-13c-10.3-19.9-17.6-40.9-22-63
		c-2.8-11.3-3.1-22.6-1-34c1.2-3.1,1.9-6.5,2-10c0.8-2.7,1.9-5.2,3.5-7.5c-0.3-0.3-0.7-0.7-1-1c0.8-4.2,3.2-7.1,7-8.5c0-1,0-2,0-3
		c1,0,2,0,3,0c-0.7-4.3,1.2-6.3,5.5-6c3.5,0.9,6.7,2.6,9.5,5C71.2,207.8,71.8,207.1,72.5,206.5z"/>
</g>
<g>
	<path class="st96" d="M81.5,368.5c1.4-0.2,2.7,0,4,0.5c3.1,4.9,6.7,9.4,11,13.5c7.4,5.6,14.8,11.4,22,17.5c5.1,1.6,9.1,4.6,12,9
		c8,3,16,6,24,9c1,1,2,2,3,3c41.7,17.2,84.7,20.9,129,11c9-2.9,18-5.5,27-8c4.4-1.4,8.4-3.2,12-5.5c4.6-1.1,9-2.8,13-5
		c-1.9,1.3-3.2,2.9-4,5c-1.7-0.2-3.4,0-5,0.5c-4.6,2.3-9,5-13,8c-17.2,5-34.6,9.6-52,14c-23.8,2.3-47.4,1.8-71-1.5
		c-8.5-3-17.2-5.8-26-8.5c-8-5-16.7-8.3-26-10c-4.9-3-9.9-5.8-15-8.5c-1.1-2.6-2.8-4.8-5-6.5c-3-0.2-4.7-1.7-5-4.5
		c-1.4,0.1-2.8-0.3-4-1c-2.6-4.3-6.3-6.9-11-8c0.2-1.3-0.2-2.5-1-3.5c-1.4-1.4-3.1-2.3-5-2.5c-0.2-2.1-1.2-3.8-3-5
		c-0.8-0.9-1.8-1.2-3-1C86.9,376.5,84.2,372.5,81.5,368.5z"/>
</g>
<g>
	<path class="st97" d="M334.5,418.5c-3.9,5.5-9.2,8.6-16,9.5c-3.2,2.5-6.7,4.7-10.5,6.5c-9,3.2-18.2,6-27.5,8.5
		c-7.2,0.5-14.4,1.3-21.5,2.5c-13.1,0-26.3-0.2-39.5-0.5c-9.1-0.6-17.8-2.4-26-5.5c23.6,3.3,47.2,3.8,71,1.5c17.4-4.4,34.8-9,52-14
		c4-3,8.4-5.7,13-8C331.1,418.5,332.8,418.3,334.5,418.5z"/>
</g>
<g>
	<path class="st29" d="M113.5,417.5c0.3,0,0.7,0,1,0c4.6,4,9.6,7.5,15,10.5c28.4,15.7,58.7,24.9,91,27.5c9.5,3.5,19.5,4.8,30,4
		c-18.6,1.5-37.3,0.5-56-3c-3.5-0.3-5.8,1.2-7,4.5c1.1,2.8,3.1,4.4,6,5c14.5,2.6,29.2,4.1,44,4.5c12.7-1,25.3-2,38-3
		c3.5,1,7.1,1.3,11,1c-35.3,8.2-70.6,7.8-106-1c-0.8-0.8-1.8-1.3-3-1.5c0.8-1,1.2-2.2,1-3.5c-11.2-2.4-21.8-6.2-32-11.5
		c1.5-1.5,3-3,4.5-4.5c0.7-1.3,0.5-2.5-0.5-3.5c-13.5-5.9-26.1-13.1-38-21.5C113.4,420.4,113.8,419.1,113.5,417.5z"/>
</g>
<g>
	<path class="st98" d="M140.5,427.5c3.3,2,7,3,11,3c0,1,0,2,0,3c10,2.6,20,5.4,30,8.5c8.6,0.7,17.1,1.9,25.5,3.5
		c2,0.1,3.5,1,4.5,2.5c14.6,0.2,29.1,0.7,43.5,1.5c15.9-3.9,32-6.5,48.5-8c-6.4,2.4-13,4.3-20,5.5c-3.6,1.4-7.1,2.9-10.5,4.5
		c-4.8-0.9-9.4-0.9-14,0c-1,0.7-2,1.3-3,2c-12.7-1.3-25.3-1.3-38,0c-1-0.7-2-1.3-3-2c-3,0.4-6.1,0.6-9.5,0.5
		c-14.8-4.8-29.8-8.8-45-12c-2.6-2.1-5.6-3.4-9-4c-0.8-2.3-2.1-2.8-4-1.5C145.3,431.9,142.9,429.6,140.5,427.5z"/>
</g>
<g>
	<path class="st99" d="M347.5,430.5c-10.3,6.5-21.3,11.8-33,16c-15.6,5.5-31.6,9.5-48,12c-5.3,0.6-10.6,0.9-16,1
		c-10.5,0.8-20.5-0.5-30-4c38.5,2.5,75.2-4.1,110-20c2.4,0.2,4.7,0,7-0.5c-0.8-0.3-1.5-0.8-2-1.5c2.5-1.1,4.8-2.4,7-4
		C344.1,430.3,345.7,430.6,347.5,430.5z"/>
</g>
<g>
	<path class="st100" d="M314.5,446.5c-0.6,1.6-1.1,3.3-1.5,5c-0.3-0.3-0.7-0.7-1-1c-2,2.2-4.5,3.2-7.5,3c0,1,0,2,0,3
		c2,0.3,4,0.7,6,1c-11.2,4.4-22.8,7.4-35,9c-3,0-6,0-9,0c0-1.3,0-2.7,0-4c4-0.3,4-0.7,0-1c0-1,0-2,0-3
		C282.9,456,298.9,452,314.5,446.5z"/>
</g>
<g>
	<path class="st101" d="M250.5,459.5c5.4-0.1,10.7-0.4,16-1c0,1,0,2,0,3c4,0.3,4,0.7,0,1c0,1.3,0,2.7,0,4c3,0,6,0,9,0
		c0,0.3,0,0.7,0,1c-12.7,1-25.3,2-38,3c-14.8-0.4-29.5-1.9-44-4.5c-2.9-0.6-4.9-2.2-6-5c1.2-3.3,3.5-4.8,7-4.5
		C213.2,460,231.9,461,250.5,459.5z"/>
</g>
</svg>
