<?xml version="1.0" encoding="utf-8"?>
<!-- Generator: Adobe Illustrator 27.9.0, SVG Export Plug-In . SVG Version: 6.00 Build 0)  -->
<svg version="1.1" xmlns="http://www.w3.org/2000/svg" xmlns:xlink="http://www.w3.org/1999/xlink" x="0px" y="0px"
	 viewBox="0 0 595.28 841.89" style="enable-background:new 0 0 595.28 841.89;" xml:space="preserve">
<style type="text/css">
	.st0{fill:#010202;}
	.st1{opacity:0.24;fill:#535D92;}
	.st2{fill:#DEDC00;}
	.st3{fill:#B17F4A;}
	.st4{fill:#253789;}
	.st5{font-family:'MyriadPro-Regular';}
	.st6{font-size:12px;}
	.st7{fill:#FFFFFF;}
	.st8{font-family:'Playbill';}
	.st9{font-size:36px;}
	.st10{fill:none;}
	.st11{fill:#A31916;}
	.st12{stroke:#000000;stroke-miterlimit:10;}
	.st13{fill:#A31916;stroke:#000000;stroke-miterlimit:10;}
	.st14{fill:#EBE1A0;}
	.st15{fill:#E1D200;}
	.st16{fill:#52100E;stroke:#000000;stroke-miterlimit:10;}
	.st17{fill:#52100E;}
	.st18{fill:#511211;}
</style>
<g id="Capa_4">
	<g>
		<path class="st0" d="M548.85,810.34c-167.47,41.37-334.95,42.49-502.42,3.35c-60.89-112.94-60.89-225.88,0-338.82
			c167.47-39.14,334.95-38.02,502.42,3.35C608.54,588.93,608.54,699.64,548.85,810.34z"/>
	</g>
	<path class="st1" d="M160.1,453.32c112.3,209.77,112.3,209.77,112.3,209.77l-13.82,14.33L25.73,523.02l20.96-49.79L160.1,453.32z"
		/>
</g>
<g id="Capa_3">
	<g>
		<g>
			<path class="st2" d="M258.95,677.41l13.19-14.33c-3.72-3.43-9.69-3-13.34,0.96C255.16,668,255.23,673.98,258.95,677.41z"/>
			<g>
				<path d="M261.11,677.08c3.85-4.18,7.7-8.36,11.54-12.54c0.55-0.59,1.09-1.19,1.64-1.78c0.2-0.22,0.3-0.39,0.07-0.6
					c-3.84-3.45-9.5-2.72-13.82-0.62c-4.08,1.99-7.09,6-6.79,10.67c0.15,2.39,1.23,4.52,2.96,6.15c0.22,0.21,1.01,0.08,1.23,0.05
					c0.62-0.09,1.28-0.28,1.85-0.54c0.37-0.16,1.97-0.83,1.38-1.39c-2.62-2.47-3.33-6.42-2.07-9.73c0.62-1.62,1.68-3.15,3.09-4.17
					c0.17-0.12,0.34-0.23,0.51-0.34c-0.26,0.16,0.28-0.15,0.35-0.19c0.23-0.13-0.06,0.02-0.09,0.04c0.09-0.04,0.19-0.07,0.27-0.12
					c0.26-0.13-0.14,0.05-0.16,0.05c0.07-0.02,0.61-0.2,0.24-0.09c-0.43,0.13,0.5-0.12,0.15-0.04c-0.24,0.05,0.29-0.04,0.38-0.06
					c0.33-0.05-0.26,0.01,0.06-0.01c0.1-0.01,0.19-0.01,0.29-0.02c0.18-0.01,0.44-0.01,0.56-0.01c1.87,0.08,3.72,0.94,5.14,2.21
					c0.02-0.2,0.04-0.4,0.07-0.6c-3.85,4.18-7.7,8.36-11.54,12.54c-0.55,0.59-1.09,1.19-1.64,1.78c-0.72,0.78,0.72,0.72,1.16,0.65
					C258.95,678.23,260.39,677.87,261.11,677.08z"/>
			</g>
		</g>
		<g>
			<path class="st3" d="M330.42,716.38l-41.09-38.03c1.83-6.84-0.09-14.44-5.65-19.59l-26.79,28.95c5.56,5.15,13.29,6.47,19.97,4.11
				l41.09,38.03L330.42,716.38z"/>
			<g>
				<path d="M332.64,715.37c-4.62-4.28-9.25-8.56-13.87-12.83c-7.37-6.82-14.75-13.65-22.12-20.47c-1.7-1.57-3.4-3.15-5.1-4.72
					c0.07,0.23,0.13,0.46,0.2,0.69c1.88-7.31-0.35-15.09-5.84-20.28c-1.04-0.98-3.31-0.36-4.18,0.58
					c-7.83,8.46-15.66,16.92-23.49,25.38c-1.1,1.19-2.2,2.38-3.3,3.57c-0.33,0.35-0.74,1-0.26,1.44c6.11,5.54,14.8,7.05,22.56,4.4
					c-0.86-0.1-1.73-0.19-2.59-0.29c4.62,4.28,9.25,8.56,13.87,12.83c7.37,6.82,14.75,13.65,22.12,20.47c1.7,1.57,3.4,3.15,5.1,4.72
					c1.05,0.97,3.3,0.37,4.18-0.58c4.16-4.49,8.31-8.98,12.47-13.48c0.7-0.76,0.49-1.57-0.52-1.83c-1.05-0.27-2.65,0.16-3.4,0.97
					c-4.16,4.49-8.31,8.98-12.47,13.48c1.39-0.19,2.79-0.38,4.18-0.58c-4.62-4.28-9.25-8.56-13.87-12.83
					c-7.37-6.82-14.75-13.65-22.12-20.47c-1.7-1.57-3.4-3.15-5.1-4.72c-0.64-0.59-1.82-0.55-2.59-0.29
					c-6.1,2.08-12.64,0.47-17.38-3.83c-0.09,0.48-0.17,0.96-0.26,1.44c7.83-8.46,15.66-16.92,23.49-25.38
					c1.1-1.19,2.2-2.38,3.3-3.57c-1.39,0.19-2.79,0.38-4.18,0.58c5.17,4.88,7.22,12.02,5.45,18.9c-0.05,0.26,0.02,0.49,0.2,0.69
					c4.62,4.28,9.25,8.56,13.87,12.83c7.37,6.82,14.75,13.65,22.12,20.47c1.7,1.57,3.4,3.15,5.1,4.72
					C329.51,718.6,334.05,716.68,332.64,715.37z"/>
			</g>
		</g>
		<g>
			
				<rect x="284.1" y="685.78" transform="matrix(0.6792 -0.7339 0.7339 0.6792 -416.6586 433.221)" class="st4" width="6.32" height="14.94"/>
			<g>
				<path d="M291.95,700.11c-3.2-2.96-6.39-5.92-9.59-8.88c-0.46-0.42-0.91-0.85-1.37-1.27c-0.01,0.16-0.02,0.32-0.03,0.48
					c1.43-1.55,2.86-3.09,4.29-4.64c-0.89,0.19-1.79,0.38-2.68,0.57c3.2,2.96,6.39,5.92,9.59,8.88c0.46,0.42,0.91,0.85,1.37,1.27
					c0.01-0.16,0.02-0.32,0.03-0.48c-1.43,1.55-2.86,3.09-4.29,4.64c-0.46,0.49,0.4,0.65,0.73,0.64c0.65-0.02,1.47-0.24,1.93-0.74
					c1.43-1.55,2.86-3.09,4.29-4.64c0.13-0.14,0.18-0.34,0.03-0.48c-3.2-2.96-6.39-5.92-9.59-8.88c-0.46-0.42-0.91-0.85-1.37-1.27
					c-0.61-0.56-2.21,0.06-2.68,0.57c-1.43,1.55-2.86,3.09-4.29,4.64c-0.13,0.14-0.18,0.34-0.03,0.48c3.2,2.96,6.39,5.92,9.59,8.88
					c0.46,0.42,0.91,0.85,1.37,1.27C289.87,701.75,292.55,700.67,291.95,700.11z"/>
			</g>
		</g>
	</g>
	<text transform="matrix(1 0 0 1 80.4817 510.6304)"><tspan x="0" y="0" class="st5 st6">  </tspan><tspan x="5.09" y="0" class="st7 st5 st6"> </tspan><tspan x="7.63" y="0" class="st7 st8 st9">Gabriel </tspan><tspan x="0" y="43.2" class="st7 st8 st9">Velasquez</tspan></text>
	<rect x="158.19" y="545.23" class="st10" width="2.85" height="0"/>
</g>
<g id="Capa_1">
	<g>
		<ellipse cx="422.51" cy="802.57" rx="103.15" ry="9.45"/>
		<g>
			<path class="st11" d="M480.96,632.28c0.8-0.44,1.6-0.91,2.41-1.41c6.08-3.73,12.34-8.86,16.77-13.87
				c4.49-5.06,7.12-10,5.83-13.21c-1.32-3.28-5.34-5.24-11.22-5.73c-7-0.59-16.62,0.89-27.43,4.64c-2.16,0.75-4.37,1.59-6.62,2.53
				c10.94-15.8,18.64-34.64,11.76-41.52c-9.05-9.05-36.86,3.47-57.01,23.61c-10.51,10.51-17.98,21.98-21.44,31.83
				c-44.26,17.25-81.98,64.26-81.89,109.72c0.06,31.04,14.96,50.44,38.2,62.08c23.25,11.64,54.84,15.52,88.27,15.52
				c62.34,0,88.57-16.3,89.31-77.6C528.3,695.67,509.77,655.74,480.96,632.28z"/>
			<g>
				<path d="M481.03,634.69c5.98-3.35,11.53-7.55,16.41-12.36c4.23-4.17,8.81-9.33,9.38-15.51c0.23-2.43,0.04-5.02-1.52-7
					c-1.41-1.8-3.65-2.84-5.8-3.45c-5.24-1.49-11.03-1.04-16.35-0.21c-7.7,1.2-15.18,3.6-22.36,6.58c-0.01,1.64-0.01,3.28-0.02,4.91
					c3.56-5.16,6.81-10.57,9.48-16.26c2.24-4.78,4.16-9.83,4.98-15.07c0.66-4.22,0.97-9.25-1.14-13.14
					c-1.42-2.62-4.12-4.13-6.98-4.67c-3.48-0.66-7.13-0.15-10.52,0.7c-4.6,1.14-9.01,2.99-13.22,5.13
					c-9.97,5.08-19.11,11.88-27.1,19.7c-9.45,9.24-18.01,20.38-22.47,32.95c0.1-0.11,0.21-0.22,0.31-0.33
					c-19.2,7.52-36.36,20.01-50.16,35.26c-13.64,15.06-24.38,33.25-29.36,53.04c-2.5,9.93-3.5,20.19-2.86,30.41
					c0.6,9.58,2.66,19.14,6.92,27.79c7.99,16.22,22.76,27.09,39.24,33.72c21.44,8.63,45.1,11.16,68.02,11.89
					c18,0.57,36.6,0.53,54.23-3.64c12.03-2.85,23.74-8.12,32.02-17.57c8.95-10.21,12.95-23.74,14.8-36.95
					c1.26-8.99,1.86-18.23,1.48-27.31c-0.42-9.89-2.24-19.68-5.1-29.15c-6.04-19.94-16.73-38.74-31.02-53.93
					c-3.47-3.69-7.17-7.15-11.1-10.36c-0.57-0.46-0.77,1.48-0.79,1.72c-0.07,0.65-0.32,2.58,0.3,3.09
					c9.89,8.09,18.36,17.84,25.35,28.53c7.02,10.74,12.57,22.45,16.34,34.71c3.42,11.12,5.17,22.58,4.84,34.22
					c-0.27,9.6-1.19,19.25-3.82,28.57c-2.07,7.34-5.27,14.41-10.05,20.39c-4.53,5.66-10.35,10.16-16.83,13.36
					c-7.44,3.68-15.57,5.81-23.74,7.17c-10.33,1.72-20.84,2.24-31.29,2.33c-14.89,0.12-29.83-0.51-44.59-2.47
					c-13.42-1.79-26.83-4.68-39.39-9.81c-10.3-4.21-20.06-10.04-27.8-18.13c-7.42-7.76-12.6-17.39-15.07-27.84
					c-2.69-11.39-2.5-23.34,0.04-34.74c2.67-11.98,7.66-23.43,14.07-33.87c6.68-10.89,14.95-20.81,24.33-29.47
					c9.32-8.61,19.8-16.04,31.17-21.7c2.76-1.37,5.58-2.64,8.44-3.8c0.62-0.25,1.26-0.34,1.56-0.96c0.32-0.65,0.51-1.39,0.78-2.07
					c0.56-1.39,1.17-2.75,1.82-4.09c3.02-6.2,6.95-11.93,11.33-17.25c8.78-10.65,19.58-19.83,31.6-26.62
					c4.88-2.76,10.04-5.15,15.45-6.64c3.91-1.08,8.24-1.82,12.25-0.86c3.44,0.82,6.3,3.21,6.85,6.84c0.12,0.83,0.11,1.43,0.05,2.06
					c-0.1,1.16-0.31,2.31-0.58,3.43c-0.72,2.98-1.77,5.87-2.98,8.69c-2.75,6.39-6.3,12.43-10.25,18.16
					c-0.51,0.74-0.52,1.87-0.52,2.73c0,0.2,0.09,2.36,0.51,2.19c5.9-2.45,11.99-4.48,18.25-5.82c4.96-1.06,10.1-1.74,15.18-1.4
					c2.5,0.16,5.05,0.57,7.36,1.6c1.93,0.86,3.13,2.06,4.19,3.83c0.49,0.83-0.31-0.37,0.14-0.5c-0.06,0.02-0.34,1.17-0.38,1.28
					c-0.48,1.23-1.14,2.4-1.87,3.5c-1.72,2.6-3.82,4.94-6.03,7.14c-4.91,4.88-10.52,9.13-16.56,12.51
					c-0.66,0.37-0.54,2.43-0.52,3.06C480.38,633.26,480.42,635.04,481.03,634.69z"/>
			</g>
		</g>
		<polygon class="st12" points="440.29,622.7 465.15,594.54 463.86,603.37 		"/>
		<polygon class="st12" points="459.17,635.75 485.29,628.3 481.8,631.89 		"/>
		<path class="st13" d="M338.68,783.99"/>
		<path class="st13" d="M493.62,795.73"/>
		<path class="st14" d="M338.13,782.56c0,0,82.62-42.92,154.94,11.8C493.07,794.36,424.46,834.57,338.13,782.56"/>
		<g>
			<circle class="st7" cx="334.24" cy="707.6" r="20.56"/>
			<g>
				<path d="M352.42,707.74c-0.06,7.46-4.39,14.61-11.51,17.19c-7.36,2.66-15.57,0.25-20.55-5.73c-4.89-5.88-5.69-14.64-1.83-21.26
					c3.84-6.58,11.47-9.93,18.93-8.42C345.95,691.25,352.35,699.09,352.42,707.74c0.01,1.22,0.82,2.04,2.09,1.97
					c1.06-0.06,2.68-1.01,2.67-2.26c-0.08-9.4-5.79-18.11-14.83-21.22c-9.24-3.18-19.51-0.23-25.78,7.23
					c-6.02,7.17-7,17.83-2.16,25.88c4.98,8.3,14.7,12.26,24.11,10.43c10.5-2.04,18.58-11.64,18.67-22.33
					C357.2,704.48,352.44,705.23,352.42,707.74z"/>
			</g>
		</g>
		<g>
			<ellipse class="st7" cx="368.83" cy="709.4" rx="26.01" ry="23.47"/>
			<g>
				<path d="M393,710.97c-0.03,4.5-1.59,9.01-4.55,12.43c-2.78,3.21-6.87,5.48-11.06,6.6c-9.67,2.59-20.61-0.27-27.27-7.89
					c-6.03-6.9-7.45-17.46-2.08-25.19c5.45-7.86,16.48-10.4,25.55-8.39C384.21,690.89,392.91,699.79,393,710.97
					c0.01,1,1.85-0.26,2.06-0.45c0.77-0.65,1.64-1.63,1.63-2.69c-0.08-10.86-8.17-19.68-18.29-22.66
					c-11.03-3.25-23.28,0.54-30.8,9.17c-3.57,4.1-6.13,9.17-6.55,14.65c-0.4,5.2,1,10.31,3.96,14.61
					c6.33,9.19,18.44,12.9,29.1,10.46c12.07-2.76,22.49-13.5,22.59-26.22c0.01-1-1.85,0.27-2.06,0.45
					C393.85,708.94,393.01,709.9,393,710.97z"/>
			</g>
		</g>
		<path d="M348.32,694.15l-41.75-12.04l9.24-15.49l33.46,21.93l51.24-25.12l-3.53,22.53l-46.45,8.22
			C349.79,694.37,349.04,694.36,348.32,694.15z"/>
		<circle class="st12" cx="330.42" cy="703.13" r="4.47"/>
		<circle class="st12" cx="364" cy="705.32" r="5.14"/>
		<g>
			<path class="st15" d="M310.12,754.03c0,0,8.33-36.33,35.39-34.23c0,0,36.86,17.03,42.03,32.73c0,0-54.91,5.42-68.04,4.23
				c0,0,11.89,22.37,41.81,27.23c0,0,24.06-14.04,24.66-31.3C385.97,752.68,317.52,759.45,310.12,754.03z"/>
			<g>
				<path d="M311.74,753.91c0.07-0.29,0.15-0.58,0.22-0.86c0.16-0.64-0.1,0.33-0.03,0.12c0.05-0.18,0.1-0.36,0.15-0.54
					c0.14-0.47,0.28-0.95,0.43-1.42c0.83-2.62,1.83-5.17,2.95-7.68c0.04-0.09,0.33-0.71,0.06-0.13c0.09-0.19,0.18-0.37,0.27-0.56
					c0.18-0.38,0.37-0.76,0.56-1.14c0.43-0.85,0.87-1.68,1.34-2.51c0.45-0.79,0.91-1.57,1.39-2.33c0.25-0.39,0.5-0.78,0.76-1.16
					c0.01-0.01,0.44-0.65,0.18-0.26c0.18-0.26,0.36-0.51,0.54-0.76c2.35-3.22,4.79-5.84,8.02-8.11c3.34-2.35,7.28-3.86,11.36-4.3
					c1.02-0.11,2.05-0.16,3.08-0.15c0.55,0,1.22-0.06,1.75,0.07c-0.22-0.05-0.09-0.02-0.03,0.01c0.57,0.19,1.12,0.53,1.66,0.8
					c6.67,3.26,13.2,6.9,19.41,10.98c4.42,2.91,8.73,6.06,12.58,9.7c3.17,2.99,6.26,6.42,7.68,10.62c0.64-1.39,1.28-2.78,1.92-4.16
					c-6.44,0.64-12.88,1.21-19.32,1.76c-11.66,0.99-23.33,1.93-35.02,2.42c-4.54,0.19-9.16,0.44-13.7,0.04
					c-1.65-0.15-2.54,3.01-1.92,4.16c1.35,2.53,3.19,4.88,5.04,7.06c4.4,5.18,9.7,9.53,15.55,12.97c3.89,2.29,8.04,4.14,12.34,5.52
					c2.46,0.79,4.98,1.43,7.52,1.92c0.85,0.16,1.98,0.56,2.82,0.29c0.22-0.07,0.6-0.36,0.73-0.44c4.45-2.73,8.63-5.97,12.41-9.57
					c6.75-6.45,12.8-14.64,13.21-24.31c0.03-0.7-0.36-1.76-1.23-1.68c-7.79,0.77-15.6,1.4-23.41,1.95
					c-13.23,0.94-26.57,1.85-39.84,1.41c-1.4-0.05-2.81-0.11-4.21-0.22c-0.65-0.05-1.3-0.11-1.94-0.17
					c-0.69-0.07-1.03-0.11-1.47-0.18c-0.9-0.14-1.8-0.3-2.68-0.56c-0.34-0.1-0.68-0.21-1.01-0.35c-0.15-0.06-0.3-0.15-0.45-0.21
					c-0.42-0.18,0.19,0.15-0.08-0.04c-1.9-1.36-4.01,3.11-2.43,4.24c1.21,0.87,2.66,1.21,4.1,1.47c2.21,0.4,4.46,0.59,6.71,0.71
					c6.16,0.34,12.35,0.22,18.52,0.01c12.92-0.43,25.83-1.37,38.71-2.48c2.86-0.25,5.73-0.5,8.59-0.78
					c-0.41-0.56-0.82-1.12-1.23-1.68c-0.13,2.95-1.06,5.73-2.4,8.26c-1.52,2.87-3.44,5.39-5.63,7.81
					c-3.65,4.03-7.91,7.51-12.4,10.57c-0.7,0.48-1.41,0.94-2.12,1.39c-0.11,0.07-0.22,0.13-0.33,0.2c-0.37,0.24,0.29-0.09,0.13-0.08
					c-0.06,0.01-0.16,0.1-0.22,0.13c0.28-0.02,0.56-0.04,0.85-0.05c-9.66-1.6-18.97-5.27-26.85-11.13
					c-2.88-2.14-5.56-4.53-8.01-7.15c-0.95-1.02-1.87-2.07-2.75-3.16c-0.38-0.47-0.75-0.95-1.11-1.43c-0.15-0.2-0.29-0.4-0.44-0.6
					c-0.07-0.09-0.14-0.19-0.2-0.28c-0.04-0.05,0.13,0.19-0.09-0.12c-0.62-0.9-1.24-1.81-1.75-2.77c-0.64,1.39-1.28,2.78-1.92,4.16
					c3.91,0.35,7.88,0.17,11.79,0.03c5.64-0.2,11.28-0.55,16.91-0.94c10.81-0.74,21.61-1.66,32.41-2.66
					c2.31-0.21,4.62-0.43,6.94-0.66c1.79-0.18,2.39-2.76,1.92-4.16c-1.3-3.85-4.02-7.17-6.84-10.03c-3.45-3.49-7.36-6.51-11.39-9.3
					c-6.86-4.75-14.15-8.92-21.62-12.64c-0.78-0.39-1.57-0.8-2.37-1.15c-1.07-0.47-2.32-0.36-3.47-0.34
					c-4.53,0.06-9.06,1.29-12.99,3.55c-7.3,4.2-12.59,11.16-16.33,18.58c-2.29,4.53-4.38,9.47-5.46,14.46
					c-0.02,0.08-0.04,0.16-0.06,0.24c-0.2,0.88,0.04,2.29,1.17,2.29C310.84,756.43,311.53,754.82,311.74,753.91z"/>
			</g>
		</g>
		<path class="st12" d="M353.54,723.86c0,0,23.35-12.59,46.97,0c0,0-21.87-8.95-41.64,2.97L353.54,723.86z"/>
		<path class="st12" d="M330.42,722.55c0,0-13.79-4.55-20.17,1.61c0,0,13.28-1.21,15.7,2.09L330.42,722.55z"/>
		<path class="st16" d="M313.68,739.89c0,0,5.63-12.49,8.95-13.07c0,0-5.45-4.61-8.95-2.86
			C313.68,723.97,312.01,726.49,313.68,739.89z"/>
		<path class="st17" d="M383.73,688.16c0,0,10.97,4.02,12.05,19.44c0,0,1.03,5.86-3,13.33c0,0-0.82-0.85,6.46,2.93
			c0,0-21.98-7.8-37.16,2.39c0,0,9.63,5.6,17.04,12.11s7.78,9.19,10,15.32l-2.41,1.53v3.06
			C402.14,761.8,431.69,704.64,383.73,688.16z"/>
		<ellipse class="st17" cx="444.42" cy="719.71" rx="22.02" ry="33.06"/>
		<ellipse class="st18" cx="492" cy="730.63" rx="12.93" ry="21.22"/>
		<path d="M524.91,726.25c0,0,27.27-3.04,31.87-20.93c0,0-3.06,10.58,9.57,17.98c0,0-24.13,5.87-39.06,13.53L524.91,726.25z"/>
		<path d="M525.65,736.72l38.25-3.85c0,0,3.83,7.02,0,21.96c0,0-0.29,3.62-38.25-2.98V736.72z"/>
		<path d="M522.19,760.96c0,0,24.48,8.8,26.78,18.76l10.72-14.94c0,0-11.78-1.74-34.04-12.94L522.19,760.96z"/>
	</g>
	<g id="Capa_2">
	</g>
</g>
</svg>
